<svg width="174" height="337" viewBox="0 0 174 337" fill="none" xmlns="http://www.w3.org/2000/svg">
<path d="M132.36 234.046C126.384 235.997 120.409 236.607 114.311 236.119C107.726 235.632 101.263 234.046 94.9216 232.217C90.4095 230.998 85.8974 229.534 81.5072 228.071C80.1658 227.705 78.9463 227.583 77.7268 228.193C74.8001 229.534 71.6294 230.266 68.5807 230.754C67.2393 230.998 66.6295 231.607 66.2636 232.949C63.9466 242.583 61.5076 252.339 59.0687 261.973C58.7028 263.558 59.0687 265.021 59.4345 266.607C61.7516 274.289 65.1661 281.484 68.9465 288.679C73.0928 296.728 77.9707 304.289 82.4828 312.093C83.0926 313.069 82.9706 313.801 82.3609 314.654C78.3366 320.264 73.0928 324.532 67.1173 327.825C63.093 330.02 59.3126 332.703 55.0444 334.654C53.7029 335.264 52.4834 335.751 51.142 336.239C50.4103 336.483 49.4347 336.605 48.947 335.873C48.4592 335.142 48.9469 334.41 49.3128 333.8C51.7518 330.264 54.1907 326.605 56.02 322.703C56.3858 321.849 56.7516 321.118 57.1175 320.264C57.4833 319.532 57.2394 318.923 56.6297 318.191C51.0201 311.971 46.1421 305.02 40.7764 298.557C36.874 293.801 32.4839 289.411 28.8254 284.411C27.362 282.46 26.1425 280.387 24.8011 278.314C20.289 271.606 20.5329 264.168 21.3865 256.485C22.9719 243.07 27.1181 230.388 30.8985 217.583C32.118 213.559 33.2156 209.535 34.4351 205.51C34.679 204.535 34.679 203.559 34.4351 202.462C31.9961 190.145 31.8741 177.584 32.4839 165.145C32.9717 152.95 35.6545 141.121 38.2154 129.17C40.0447 120.146 42.3617 111.244 44.9226 102.342C45.0446 101.732 45.2885 101.122 45.4104 100.513C46.1421 95.7565 46.0202 96.6102 50.6542 96.6102C54.6785 96.7321 58.337 97.9516 61.9954 99.5369C74.922 105.025 87.2069 85.4148 94.8896 96.9999C100.39 105.294 96.0191 123.5 96.0191 128.805C96.8728 129.048 97.1167 130.024 97.4825 130.756C101.507 138.439 103.214 146.731 104.921 155.024C106.507 162.584 107.238 170.267 107.482 178.072C107.604 183.56 107.97 189.047 107.482 194.535C107.36 196.12 107.848 196.608 109.555 196.364C116.263 195.389 122.848 194.047 129.555 193.559C138.701 192.828 147.725 193.437 156.384 196.852C164.92 200.145 170.042 206.486 172.237 215.388C174.066 223.071 172.847 230.144 168.822 236.851C159.676 251.973 147.725 264.411 132.482 273.436C131.994 273.802 131.506 274.045 130.896 274.411C129.921 274.899 129.921 275.387 130.531 276.241C133.092 279.411 135.287 282.826 136.628 286.728C136.872 287.582 137.482 288.435 136.75 289.167C136.018 290.021 135.043 289.655 134.067 289.533C125.653 287.46 117.848 284.289 111.019 278.801C108.458 276.728 105.775 274.777 103.214 272.704C100.653 270.631 100.653 269.899 102.36 267.094C110.043 254.534 119.921 244.046 131.506 235.022C131.628 234.778 131.994 234.412 132.36 234.046Z" fill="white"/>
<path d="M59.8003 318.8C58.4589 318.679 58.5808 319.898 58.4589 320.508C56.9955 324.532 54.8004 328.069 52.4834 331.605C51.7517 332.825 51.8737 334.654 50.0444 335.142" stroke="#1F2E3A" stroke-width="2.14524" stroke-miterlimit="10" stroke-linecap="round" stroke-linejoin="round"/>
<path d="M46.9956 98.0735C46.8736 101.366 45.7761 104.415 44.9224 107.464C42.2396 116.366 40.4104 125.39 38.4592 134.414C37.1177 140.634 36.0202 146.975 35.0446 153.316C34.3129 157.95 33.8251 162.584 33.8251 167.34C33.8251 174.291 33.8251 181.364 34.069 188.315C34.3129 193.315 34.4349 198.315 36.386 202.949C36.6299 203.437 36.2641 204.291 36.0202 205.022C33.3373 213.559 30.8984 222.339 28.3375 230.876C25.6546 239.778 23.4595 248.924 22.6059 258.192C22.1181 263.192 21.3864 268.192 23.5814 273.07C25.5326 277.704 28.0936 281.85 31.3862 285.63C39.5567 295.142 47.6053 304.776 55.1662 314.776C56.3856 316.362 57.7271 317.703 59.1905 318.801" stroke="#1F2E3A" stroke-width="2.14524" stroke-miterlimit="10" stroke-linecap="round" stroke-linejoin="round"/>
<path d="M66.5074 225.754C65.1659 233.924 62.4831 241.729 60.6538 249.778C59.6783 253.802 58.8246 257.948 57.727 261.973C57.1173 264.29 57.971 266.241 58.5807 268.314C60.5319 274.655 63.3367 280.631 66.2635 286.484C70.6536 295.143 76.0194 303.435 80.7754 311.972C81.3851 313.069 81.3851 313.801 80.5315 314.898C76.1413 321.24 69.678 325.02 63.2147 328.679C60.288 330.386 57.4832 332.215 54.4345 333.678C53.4589 334.166 52.4833 334.532 51.3857 334.044" stroke="#1F2E3A" stroke-width="2.14524" stroke-miterlimit="10" stroke-linecap="round" stroke-linejoin="round"/>
<path d="M127.97 275.021C128.823 273.314 130.653 272.826 132.116 272.094C145.896 264.167 156.506 252.826 165.408 239.778C167.359 236.851 169.066 233.558 170.408 230.266C172.603 224.656 171.749 219.046 170.164 213.559C167.725 204.9 161.506 199.901 153.091 197.218C143.945 194.413 134.555 194.291 125.165 195.388C118.945 196.12 112.726 197.218 106.385 198.193" stroke="#1F2E3A" stroke-width="2.14524" stroke-miterlimit="10" stroke-linecap="round" stroke-linejoin="round"/>
<path d="M144.677 226.973C142.238 227.339 140.653 229.29 138.823 230.754C131.506 236.485 124.311 242.339 117.726 249.046C111.751 255.021 107.117 261.972 102.483 269.045C101.873 269.899 101.995 270.509 102.727 271.119C111.141 278.192 119.556 285.021 130.653 287.46C132.116 287.826 133.336 288.923 134.921 288.313" stroke="#1F2E3A" stroke-width="2.14524" stroke-miterlimit="10" stroke-linecap="round" stroke-linejoin="round"/>
<path d="M136.14 232.217C135.896 231.851 135.531 231.363 135.287 230.998C132.726 231.851 130.287 233.315 127.604 233.924C121.384 235.266 115.165 235.266 108.824 234.168C100.165 232.705 91.8729 230.266 83.5804 227.583C82.4829 227.217 81.2634 226.851 80.1658 226.607C79.0683 226.364 78.3366 226.364 77.2391 226.973C74.922 228.437 72.1172 228.924 69.5563 229.412C68.4588 229.656 67.4832 230.022 66.2637 229.9" stroke="#1F2E3A" stroke-width="2.14524" stroke-miterlimit="10" stroke-linecap="round" stroke-linejoin="round"/>
<path d="M95.7754 130.39C96.751 133.317 98.3363 136 99.3119 138.926C102.605 149.414 104.8 160.145 105.653 171.121C106.141 178.316 106.263 185.511 106.263 192.706C106.263 194.413 105.775 196.12 106.263 197.827C106.507 198.681 105.165 199.291 105.531 200.266" stroke="#1F2E3A" stroke-width="2.14524" stroke-miterlimit="10" stroke-linecap="round" stroke-linejoin="round"/>
<path d="M126.994 274.777C128.458 274.777 128.458 276.24 129.189 277.094C131.384 279.533 132.97 282.46 134.555 285.387C135.043 286.362 134.433 287.704 135.774 288.313" stroke="#1F2E3A" stroke-width="2.14524" stroke-miterlimit="10" stroke-linecap="round" stroke-linejoin="round"/>
<path d="M98.6878 79.1444C98.6878 85.0444 98.5878 91.2445 97.6878 97.4445C97.4878 98.5445 97.0878 99.1445 95.9878 99.5445C88.3878 102.044 80.5878 103.844 72.6878 104.544C64.7878 105.244 56.8878 105.644 49.0878 103.444C46.1878 102.644 44.4878 101.544 43.8878 98.0445C42.1878 87.8445 40.8878 77.6444 40.6878 67.2444C40.5878 64.3444 40.7878 61.4445 40.9878 58.5445C41.0878 57.2445 40.5878 57.0445 39.3878 57.5445C34.4878 59.3445 29.2878 60.0444 24.0878 60.6444C22.3878 60.8444 21.5878 60.1445 21.3878 58.5445C20.4878 51.7445 21.0878 45.0444 23.8878 38.6444C27.1878 30.8444 31.7878 23.8444 37.9878 18.1444C42.5878 13.8444 47.7878 10.6444 53.9878 9.24444C59.0878 8.04444 64.2878 7.64445 69.4878 8.34445C76.6878 9.24445 81.9878 13.0445 85.4878 19.4445C90.0878 28.0445 93.2878 37.2444 95.4878 46.7444C97.7878 57.2444 98.8878 68.0444 98.6878 79.1444Z" fill="white"/>
<path d="M96.2875 98.4444C96.5875 95.9444 96.9875 93.4444 97.1875 90.8444C97.6875 84.4444 97.3875 78.0444 97.3875 71.7444C97.3875 68.0444 96.7875 64.3444 96.4875 60.6444C95.8875 53.9444 94.4875 47.4444 92.7875 41.0444C91.7875 37.3444 90.2875 33.7444 88.9875 30.1444C87.2875 25.6444 85.3875 21.3444 82.6875 17.2444C79.5875 12.6444 75.1875 10.4444 69.9875 9.54441C66.4875 8.94441 63.0875 9.24441 59.5875 9.54441C55.7875 9.84441 52.2875 10.6444 48.8875 12.2444C44.5875 14.2444 40.6875 16.8444 37.3875 20.2444C32.6875 25.1444 28.8875 30.6444 25.9875 36.7444C22.9875 42.9444 21.6875 49.4444 22.3875 56.3444C22.6875 59.8444 22.6875 59.9444 25.9875 59.4444C30.1875 58.7444 34.3875 58.2444 38.3875 56.8444C38.8875 56.6444 39.3875 56.4444 39.8875 56.2444C41.3875 55.4444 41.9875 55.8444 41.9875 57.7444C41.9875 60.8444 41.8875 63.9444 41.8875 66.9444C41.8875 71.8444 42.4875 76.7444 42.7875 81.6444C43.0875 87.1444 44.4875 92.5444 45.1875 97.9444C45.2875 98.8444 45.5875 99.8444 45.7875 100.744" stroke="#1F2E3A" stroke-width="2" stroke-miterlimit="10" stroke-linecap="round" stroke-linejoin="round"/>
<path d="M71.0001 72.2163C67.1001 75.1163 62.5001 74.9163 58.0001 74.7163C56.7001 74.6163 55.4001 73.9163 54.1001 73.4163" stroke="#1F2E3A" stroke-width="2" stroke-miterlimit="10" stroke-linecap="round" stroke-linejoin="round"/>
<path d="M68.1999 39.7162C65.5999 37.2162 62.2999 36.9162 58.8999 37.0162" stroke="#1F2E3A" stroke-width="2" stroke-miterlimit="10" stroke-linecap="round" stroke-linejoin="round"/>
<path d="M70.1998 48.0162C66.9998 46.9162 63.9998 47.0162 61.2998 49.2162" stroke="#1F2E3A" stroke-width="2" stroke-miterlimit="10" stroke-linecap="round" stroke-linejoin="round"/>
<path d="M50.5 38.9161C49.5 38.7161 48.6 39.2161 47.8 39.8161C46.2 40.9161 44.6 41.9161 43.2 43.3161C42.9 43.6161 42.5 43.9161 42 43.8161" stroke="#1F2E3A" stroke-width="2" stroke-miterlimit="10" stroke-linecap="round" stroke-linejoin="round"/>
<path d="M53.6998 49.0161C50.9998 48.5161 48.5998 48.8161 46.7998 51.0161" stroke="#1F2E3A" stroke-width="2" stroke-miterlimit="10" stroke-linecap="round" stroke-linejoin="round"/>
<path d="M68.5928 18.9273C68.1928 21.1273 68.3929 23.1273 68.2929 25.0273C68.1929 29.0273 68.0928 29.1272 64.1928 28.7272C59.7928 28.3272 55.3928 28.1273 50.9928 27.9273C46.5928 27.7273 42.0928 27.6273 37.6928 28.0273C36.1928 28.1273 35.7928 27.6272 36.0928 26.2272C36.4928 24.6272 37.0929 23.0273 37.7929 21.5273C39.2929 18.3273 41.2928 15.3273 43.0928 12.2273C44.5928 9.72727 46.9929 8.22728 49.3929 6.82728C54.6929 3.82728 60.3928 1.72726 66.4928 1.12726C75.1928 0.327264 82.6929 3.32728 88.7929 9.32728C97.9929 18.3273 104.993 28.8273 109.293 41.0273C111.893 48.2273 113.993 55.5273 115.293 63.1273C115.493 64.5273 115.493 66.0273 115.493 67.4273C115.493 70.0273 114.193 71.7273 111.893 72.8273C108.193 74.5273 104.193 75.5273 100.193 76.3273C95.9928 77.2273 91.7928 78.2273 87.5928 78.6273C86.8928 78.7273 86.1928 78.7273 85.4928 78.8273C84.1928 78.9273 83.4928 78.3273 83.1928 77.0273C81.4928 68.5273 79.3929 60.1273 77.7929 51.5273C75.8929 41.3273 73.1928 31.2273 69.9928 21.3273C69.7928 20.6273 69.5928 19.8273 68.5928 18.9273Z" fill="white"/>
<path d="M68.4926 17.4273C70.4926 18.9273 70.7926 21.2274 71.3926 23.3274C73.6926 30.5274 75.4926 37.8273 77.1926 45.1273C78.4926 50.8273 79.4926 56.5273 80.6926 62.2273C81.4926 65.8273 82.2926 69.4273 83.1926 72.9273C83.4926 74.2273 83.8926 75.4273 83.9926 76.7273C84.0926 77.8273 84.6926 77.8273 85.4926 77.9273C87.6926 78.0273 89.8926 77.6273 92.0926 77.2273C96.9926 76.3273 101.893 75.3273 106.593 73.9273C108.893 73.2273 111.193 72.6274 113.193 71.0274C114.393 70.1274 114.493 69.0274 114.593 67.8274C114.993 62.8274 113.593 58.0274 112.293 53.3274C110.693 47.6274 109.093 42.0273 106.693 36.6273C104.093 30.6273 100.693 25.0274 96.7926 19.8274C93.4926 15.4274 90.0926 11.2274 85.6926 7.82736C81.8926 4.82736 77.6926 2.92734 72.9926 2.02734C68.0926 1.12734 63.2926 2.12735 58.5926 3.62735C53.7926 5.12735 49.1926 7.22734 45.3926 10.5273C44.1926 11.5273 43.1926 12.7274 42.7926 14.3274C42.4926 15.4274 41.5926 16.2273 40.9926 17.1273C39.0926 19.7273 37.8926 22.7273 36.8926 25.7273C36.4926 27.0273 36.8926 27.5274 38.1926 27.3274C44.5926 26.5274 51.0926 27.1273 57.4926 27.4273C60.2926 27.5273 63.0926 27.9274 65.8926 28.0274C67.0926 28.1274 67.3926 27.6274 67.3926 26.5274C67.3926 24.0274 67.4926 21.4273 67.6926 18.9273C67.7926 17.8273 68.1926 16.7273 68.1926 15.6273" stroke="#1F2E3A" stroke-width="2" stroke-miterlimit="10" stroke-linecap="round" stroke-linejoin="round"/>
<path d="M75.2774 71.0675C75.7774 70.2675 75.4775 69.6675 75.3775 69.0675C74.4775 65.2675 73.7774 61.3675 73.1774 57.4675C73.0774 56.5675 72.9774 55.6675 73.0774 54.7675C73.1774 54.0675 73.4775 53.3675 74.3775 53.1675C75.1775 52.9675 75.7774 53.3675 76.2774 54.0675C77.1774 55.3675 77.6774 56.8675 78.0774 58.3675C78.3774 59.4675 78.7774 60.5675 79.1774 61.6675C78.9774 59.1675 78.8774 56.6675 78.7774 54.0675C78.7774 53.4675 78.7774 52.8675 78.9774 52.2675C79.2774 50.9675 80.0774 50.6675 81.2774 51.3675C82.5774 52.1675 83.3775 53.4675 83.8775 54.8675C84.7775 57.4675 85.0774 60.1675 85.6774 62.8675C85.7774 63.1675 85.7774 63.3675 86.0774 63.5675C85.8774 61.8675 85.7774 60.1675 85.5774 58.4675C85.3774 57.2675 85.4774 56.0675 85.7774 54.8675C86.0774 53.8675 86.4774 52.8675 87.6774 52.7675C88.7774 52.6675 89.3774 53.5675 89.7774 54.4675C91.0774 57.2675 91.5775 60.3675 91.8775 63.3675C92.2775 67.4675 92.8774 71.5675 93.6774 75.7675C94.2774 74.0675 94.8774 72.4675 95.5774 70.8675C96.0774 69.8675 96.5775 68.8675 97.3775 68.0675C98.4775 66.9675 100.077 67.2675 100.577 68.7675C101.077 69.9675 101.077 71.2675 100.977 72.5675C100.777 77.3675 99.5774 82.0675 99.0774 86.7675C98.6774 89.9675 99.5774 93.1675 101.177 95.6675C102.677 97.9675 105.277 99.6675 107.777 101.067C115.877 105.467 122.977 111.067 128.677 118.467C132.277 123.167 134.677 128.368 134.777 134.368C134.977 144.668 126.177 151.967 116.077 149.567C109.077 147.867 103.677 143.767 100.277 137.067C96.7774 130.167 93.6774 123.067 90.5774 115.967C86.0774 105.567 81.1774 95.2675 74.9774 85.7675C73.9774 84.1675 73.4774 82.4675 72.9774 80.6675C72.0774 77.3675 70.8775 74.0675 69.8775 70.7675C69.4775 69.4675 69.1774 68.1675 69.6774 66.8675C70.2774 65.2675 71.3774 64.9675 72.5774 66.2675C73.2774 66.9675 73.6774 67.8675 74.0774 68.6675C74.3774 69.3675 74.7774 70.1675 75.2774 71.0675Z" fill="white"/>
<path d="M35.7772 62.7674C35.6772 61.4674 35.5772 60.2674 35.5772 58.9674C35.5772 58.2674 35.5772 57.6674 35.8772 56.9674C36.3772 55.8674 37.3772 55.7674 38.0772 56.7674C38.4772 57.2674 38.5772 57.9674 38.8772 58.5674C39.0772 59.0674 39.1772 59.8674 39.5772 60.0674C41.6772 61.3674 41.2772 63.3674 41.2772 65.2674C41.1772 75.4674 40.3772 85.6674 39.1772 95.8674C38.3772 102.267 40.1772 108.7 38.8772 115C38.0772 119.1 36.5 124.433 35.1772 128.5C34.0609 131.933 33.3772 132.767 33.5772 135.567C33.5772 136.467 33.4772 137.167 32.8772 137.867C31.0772 139.767 29.2772 141.667 27.4772 143.567C25.3772 145.867 22.7772 147.267 19.7772 147.967C18.0772 148.367 16.3772 148.467 14.6772 148.267C8.37721 147.267 5.47721 143.567 6.07721 136.467C6.37721 132.767 7.87721 129.467 9.37721 126.167C13.5772 117.167 18.7772 108.767 24.1772 100.367C27.5772 95.1674 30.9772 89.9674 33.9772 84.4674C35.7772 81.1674 36.0772 77.7674 35.1772 74.1674C34.3772 70.7674 33.6772 67.3674 32.8772 63.8674C32.7772 63.4674 32.6772 62.9674 32.6772 62.5674C32.6772 61.9674 32.8772 61.3674 33.5772 61.0674C34.2772 60.8674 34.7772 61.2674 35.1772 61.7674C35.1772 62.1674 35.2772 62.5674 35.7772 62.7674Z" fill="white"/>
<path d="M71.0774 66.1676C69.4774 70.5676 72.1774 74.2676 73.3774 78.1676C73.8774 79.9676 74.2774 81.7676 75.0774 83.5676C76.3774 86.4676 78.1774 89.0676 79.7774 91.7676C83.4774 97.6676 86.2774 103.868 89.0774 110.168C93.1774 119.168 96.6774 128.368 101.477 137.068C104.577 142.668 109.277 146.768 115.477 148.568C123.177 150.768 131.177 146.168 132.977 139.368C134.077 135.168 133.577 131.068 132.177 127.068C130.377 122.068 126.977 118.168 123.477 114.268C118.977 109.268 113.277 105.668 107.577 102.268C105.777 101.168 104.077 100.168 102.577 98.7676C102.277 98.4676 101.777 97.9676 101.377 97.9676C100.277 97.8676 99.9774 97.1676 99.7774 96.3676C99.0774 93.8676 98.3774 91.3676 97.7774 88.7676C97.1774 86.3676 98.1774 84.1676 98.5774 81.9676C99.2774 78.3676 99.5774 74.7676 99.6774 71.0676C99.6774 70.6676 99.6774 70.1676 99.4774 69.7676C99.2774 69.2676 99.1774 68.6676 98.4774 68.5676C97.6774 68.4676 97.5774 69.0676 97.2774 69.4676C95.9774 71.3676 95.0774 73.5676 94.5774 75.7676C94.3774 76.6676 94.0774 77.3676 93.4774 78.1676C91.9774 77.8676 91.9774 76.5676 91.8774 75.4676C91.2774 71.2676 90.7774 66.9676 90.1774 62.7676C89.8774 60.6676 89.5774 58.4676 88.8774 56.4676C88.5774 55.6676 88.3774 54.6676 87.3774 54.2676" stroke="#1F2E3A" stroke-width="2" stroke-miterlimit="10" stroke-linecap="round" stroke-linejoin="round"/>
<path d="M35.677 67.3674C34.877 68.3674 34.877 69.3674 35.177 70.5674C35.777 73.2674 36.777 75.8674 36.677 78.7674C36.577 81.6674 35.277 84.1674 33.977 86.5674C30.177 93.3674 25.577 99.7674 21.477 106.467C16.877 113.967 12.277 121.567 8.87703 129.867C7.77703 132.667 6.77703 135.467 6.87703 138.567C7.07703 144.867 10.077 146.867 15.377 147.367C19.377 147.767 22.977 146.367 25.877 143.467C28.077 141.267 30.277 139.067 32.177 136.567" stroke="#1F2E3A" stroke-width="2" stroke-miterlimit="10" stroke-linecap="round" stroke-linejoin="round"/>
<path d="M36.3773 105.268C35.4773 110.068 34.5773 114.968 33.0773 119.668C32.6773 120.768 32.0773 121.668 31.4773 122.668C28.7773 126.868 26.2773 131.168 22.9773 134.868C21.8773 136.068 20.8773 137.168 19.2773 137.668" stroke="#1F2E3A" stroke-width="2" stroke-miterlimit="10" stroke-linecap="round" stroke-linejoin="round"/>
<path d="M100.977 98.0674C100.377 99.4674 101.277 100.567 101.677 101.767C103.677 107.567 106.977 112.767 110.177 117.967C111.877 120.667 113.877 123.367 115.677 125.967" stroke="#1F2E3A" stroke-width="2" stroke-miterlimit="10" stroke-linecap="round" stroke-linejoin="round"/>
<path d="M80.7773 68.8674C80.6773 67.6674 80.2773 66.7674 79.4773 65.8674C78.3773 64.7674 78.2773 63.1674 77.7773 61.7674C77.1773 59.9674 76.7773 58.0674 75.9773 56.2674C75.6773 55.5674 75.2773 55.2674 74.6773 54.8674C73.7773 55.7674 74.0773 56.8674 74.1773 57.9674C74.7773 62.5674 75.7773 67.1674 76.8773 71.6674C77.0773 72.5674 77.0773 73.4674 76.6773 74.3674" stroke="#1F2E3A" stroke-width="2" stroke-miterlimit="10" stroke-linecap="round" stroke-linejoin="round"/>
<path d="M80.1772 52.1675C82.9772 53.8675 83.0773 56.9675 83.7773 59.6675C84.3773 61.8675 84.6772 64.0675 85.1772 66.2675C85.3772 67.0675 85.5773 67.7675 86.2773 68.3675C87.0773 69.1675 86.9772 70.3675 87.1772 71.4675" stroke="#1F2E3A" stroke-width="2" stroke-miterlimit="10" stroke-linecap="round" stroke-linejoin="round"/>
<path d="M87.477 53.4675C85.577 56.1675 86.7771 59.1675 86.8771 61.9675C86.8771 64.0675 87.677 66.0675 86.677 68.1675" stroke="#1F2E3A" stroke-width="2" stroke-miterlimit="10" stroke-linecap="round" stroke-linejoin="round"/>
<path d="M80.177 52.6675C79.377 54.9675 79.977 57.2675 80.077 59.4675C80.177 61.0675 80.577 62.6675 80.877 64.2675C80.977 64.9675 80.777 65.7675 80.177 66.2675" stroke="#1F2E3A" stroke-width="2" stroke-miterlimit="10" stroke-linecap="round" stroke-linejoin="round"/>
<path d="M71.2773 66.9675C72.5773 67.3675 72.7773 68.5675 73.2773 69.4675C74.2773 71.2675 74.9773 73.2675 76.7773 74.4675C76.8773 74.5675 76.8773 74.7675 76.9773 74.9675" stroke="#1F2E3A" stroke-width="2" stroke-miterlimit="10" stroke-linecap="round" stroke-linejoin="round"/>
<path d="M37.6771 59.7676C36.8771 60.0676 36.6771 60.5676 36.7771 61.5676C36.9771 63.3676 37.8771 65.1676 36.7771 67.1676C36.4771 67.5676 37.2771 68.6676 37.5771 69.4676" stroke="#1F2E3A" stroke-width="2" stroke-miterlimit="10" stroke-linecap="round" stroke-linejoin="round"/>
<path d="M33.8774 62.2676C34.2774 63.6676 34.5774 64.9676 35.1774 66.2676C35.4774 66.8676 35.8774 67.1676 36.4774 67.0676" stroke="#1F2E3A" stroke-width="2" stroke-miterlimit="10" stroke-linecap="round" stroke-linejoin="round"/>
</svg>
