<svg width="210" height="333" viewBox="0 0 210 333" fill="none" xmlns="http://www.w3.org/2000/svg">
<path d="M175.934 322.239C164.689 322.124 155.396 321.436 146.332 319.486C144.84 319.141 143.578 318.682 143.119 316.961C141.857 310.995 138.874 305.832 136.349 300.325C128.203 282.311 121.089 263.953 113.746 245.595C110.763 238.252 107.78 230.909 105.256 223.336C105.026 222.648 104.912 221.615 103.764 221.73C102.617 221.845 102.387 222.762 102.273 223.68C101.928 228.155 101.699 232.745 101.355 237.219C100.322 251.217 98.9454 265.215 96.9949 279.213C95.2738 291.49 93.5526 303.652 90.4547 315.699C89.7662 318.338 88.2747 320.862 89.0779 323.731C89.1926 324.075 88.8484 324.419 88.5042 324.534C79.6695 327.402 70.72 329.353 61.541 330.844C56.1484 331.648 50.8707 332.795 45.3633 332.566C44.6749 332.566 43.8716 332.68 43.5274 331.992C43.1832 331.189 43.6421 330.615 44.1011 330.156C45.1337 328.779 46.0517 327.288 47.0844 326.026C52.3623 319.944 55.3453 312.831 57.2958 305.029C59.7053 295.276 60.9673 285.523 61.541 275.541C62 267.28 62.6884 259.019 63.2621 250.873C63.8358 242.727 64.2947 234.695 64.9831 226.549C65.6716 217.484 66.36 208.42 67.0485 199.356C67.6221 192.587 68.7695 185.932 68.4252 179.162C67.8516 163.673 70.6052 148.528 73.2441 133.382C74.9652 123.859 77.1454 114.336 79.2107 104.813C79.6696 102.862 80.3579 101.944 82.5379 101.715C92.52 100.338 102.502 99.535 112.484 99.6498C115.353 99.6498 118.106 100.223 120.975 99.8792C121.893 99.7645 122.122 100.453 122.237 101.141C123.614 107.452 124.417 113.992 124.991 120.417C125.794 130.514 126.482 140.611 127.17 150.822C127.515 156.215 127.515 161.493 127.63 166.886C127.63 169.066 127.974 171.246 128.662 173.426C137.612 200.848 147.135 228.04 157.805 254.774C162.51 266.592 166.64 278.639 170.656 290.801C172.147 295.391 174.672 299.292 177.196 303.308C177.884 304.34 178.802 305.143 179.835 305.717C184.998 309.044 190.276 312.372 195.669 315.47C196.701 316.043 197.504 316.732 198.307 317.535C198.651 317.879 199.225 317.994 199.111 318.682C198.996 319.371 198.422 319.486 197.848 319.6C194.406 320.289 190.964 321.092 187.407 321.551C182.933 322.01 178.458 322.354 175.934 322.239Z" fill="white"/>
<path d="M105.371 221.041C107.092 227.237 109.616 233.203 112.025 239.17C115.812 248.808 119.713 258.331 123.614 267.969C126.482 275.082 129.465 282.081 132.449 289.195C135.547 296.653 139.333 303.881 142.431 311.454C143.119 313.06 143.463 314.667 143.922 316.273C144.267 317.65 144.84 318.223 146.217 318.453C152.298 319.83 158.379 320.518 164.575 320.862C171 321.207 177.426 321.321 183.851 320.748C187.867 320.403 191.882 319.6 195.783 318.797C196.357 318.682 196.816 318.109 197.504 318.223" stroke="#1F2E3A" stroke-width="2" stroke-miterlimit="10" stroke-linecap="round" stroke-linejoin="round"/>
<path d="M121.434 100.109C121.893 104.239 122.925 108.255 123.384 112.385C124.073 118.352 124.531 124.318 124.876 130.399C125.22 136.365 125.794 142.332 126.138 148.413C126.367 152.773 126.826 157.248 126.712 161.608C126.597 167.344 127.515 172.852 129.351 178.244C134.284 192.587 139.103 206.929 144.152 221.156C147.708 231.253 151.724 241.12 155.625 251.102C160.559 263.723 165.149 276.344 169.279 289.195C170.771 293.67 173.065 297.456 175.13 301.472C177.196 305.717 181.441 307.438 184.998 309.733C188.555 312.028 192.226 314.322 196.013 316.388C196.357 316.617 196.816 316.847 196.93 317.191C197.275 318.797 198.307 318.568 199.455 318.338" stroke="#1F2E3A" stroke-width="2" stroke-miterlimit="10" stroke-linecap="round" stroke-linejoin="round"/>
<path d="M80.7022 102.518C79.6695 106.763 78.7516 111.009 77.8337 115.254C75.998 123.974 74.1622 132.694 72.6706 141.529C71.7527 147.036 70.7201 152.429 70.1464 158.051C69.458 164.246 68.8844 170.442 69.3433 176.638C69.6875 180.998 68.8843 185.243 68.6548 189.489C68.3106 196.029 67.5075 202.569 67.0486 209.223C66.4749 215.649 66.0159 222.074 65.557 228.499C65.2127 233.548 64.9832 238.596 64.639 243.644C64.0653 251.332 63.4916 258.904 62.918 266.592C62.459 272.788 62.2295 278.983 61.7706 285.179C61.1969 292.178 60.0498 299.177 57.9845 305.946C56.8371 309.733 56.1486 313.634 54.1981 317.191C52.936 319.6 51.215 321.895 49.6086 324.075C47.8876 326.484 46.0516 328.664 44.5601 331.303C46.3958 332.221 48.2319 331.992 49.9529 331.762C61.5413 330.271 73.1298 328.32 84.374 324.993C85.0624 324.763 85.5213 324.534 86.095 324.19C86.7834 323.845 87.3569 323.157 88.1601 323.845" stroke="#1F2E3A" stroke-width="2" stroke-miterlimit="10" stroke-linecap="round" stroke-linejoin="round"/>
<path d="M101.24 221.959C101.699 225.746 101.01 229.532 100.781 233.318C100.551 238.367 99.9779 243.415 99.519 248.463C98.9453 254.2 98.4863 259.822 97.7979 265.444C96.7653 273.476 95.8473 281.622 94.5852 289.654C93.0937 298.833 91.8315 308.127 89.0778 317.191C88.5041 319.141 87.5864 321.207 87.8159 323.387" stroke="#1F2E3A" stroke-width="2" stroke-miterlimit="10" stroke-linecap="round" stroke-linejoin="round"/>
<path d="M113.172 217.829C109.845 218.747 106.518 220.238 103.19 221.041C99.863 221.844 96.5357 222.418 93.2083 222.303C92.4052 222.303 91.602 222.189 90.9136 222.648" stroke="#1F2E3A" stroke-width="2" stroke-miterlimit="10" stroke-linecap="round" stroke-linejoin="round"/>
<path d="M130.295 87.7624C130.295 93.6624 130.195 99.8624 129.295 106.062C129.095 107.162 128.695 107.762 127.595 108.162C119.995 110.662 112.195 112.462 104.295 113.162C96.3953 113.862 88.4953 114.262 80.6953 112.062C77.7953 111.262 76.0953 110.162 75.4953 106.662C73.7953 96.4624 72.4953 86.2624 72.2953 75.8624C72.1953 72.9624 72.3953 70.0624 72.5953 67.1624C72.6953 65.8624 72.1953 65.6624 70.9953 66.1624C66.0953 67.9624 60.8953 68.6624 55.6953 69.2624C53.9953 69.4624 53.1953 68.7624 52.9953 67.1624C52.0953 60.3624 52.6953 53.6624 55.4953 47.2624C58.7953 39.4624 63.3953 32.4624 69.5953 26.7624C74.1953 22.4624 79.3953 19.2624 85.5953 17.8624C90.6953 16.6624 95.8953 16.2624 101.095 16.9624C108.295 17.8624 113.595 21.6624 117.095 28.0624C121.695 36.6624 124.895 45.8624 127.095 55.3624C129.395 65.8624 130.495 76.6624 130.295 87.7624Z" fill="white"/>
<path d="M127.895 107.062C128.195 104.562 128.595 102.062 128.795 99.4623C129.295 93.0623 128.995 86.6623 128.995 80.3623C128.995 76.6623 128.395 72.9623 128.095 69.2623C127.495 62.5623 126.095 56.0623 124.395 49.6623C123.395 45.9623 121.895 42.3623 120.595 38.7623C118.895 34.2623 116.995 29.9623 114.295 25.8623C111.195 21.2623 106.795 19.0623 101.595 18.1623C98.095 17.5623 94.695 17.8623 91.195 18.1623C87.395 18.4623 83.895 19.2623 80.495 20.8623C76.195 22.8623 72.295 25.4623 68.995 28.8623C64.295 33.7623 60.495 39.2623 57.595 45.3623C54.595 51.5623 53.295 58.0623 53.995 64.9623C54.295 68.4623 54.295 68.5623 57.595 68.0623C61.795 67.3623 65.995 66.8623 69.995 65.4623C70.495 65.2623 70.995 65.0623 71.495 64.8623C72.995 64.0623 73.595 64.4623 73.595 66.3623C73.595 69.4623 73.495 72.5623 73.495 75.5623C73.495 80.4623 74.095 85.3623 74.395 90.2623C74.695 95.7623 76.095 101.162 76.795 106.562C76.895 107.462 77.195 108.462 77.395 109.362" stroke="#1F2E3A" stroke-width="2" stroke-miterlimit="10" stroke-linecap="round" stroke-linejoin="round"/>
<path d="M85.3074 56.8984C84.2074 55.9984 83.0074 56.7984 81.9074 56.9984C79.8074 57.2984 77.8074 57.7984 75.8074 58.5984C75.7074 58.5984 75.7074 58.6984 75.6074 58.6984L75.7074 58.7984" stroke="#1F2E3A" stroke-width="2" stroke-miterlimit="10" stroke-linecap="round" stroke-linejoin="round"/>
<path d="M93.6076 71.3984C93.4076 74.4984 93.4076 77.5984 94.7076 80.4984C95.5076 80.5984 95.8076 79.9984 96.2076 79.7984C97.3076 79.0984 97.7076 79.8984 98.1076 80.4984C98.6076 81.4984 96.9076 84.0984 95.8076 84.3984" stroke="#1F2E3A" stroke-width="2" stroke-miterlimit="10" stroke-linecap="round" stroke-linejoin="round"/>
<path d="M104.208 55.6984C100.908 55.7984 97.6076 55.2984 94.3076 55.9984" stroke="#1F2E3A" stroke-width="2" stroke-miterlimit="10" stroke-linecap="round" stroke-linejoin="round"/>
<path d="M85.3076 58.3984H85.5076" stroke="#1F2E3A" stroke-width="2" stroke-miterlimit="10" stroke-linecap="round" stroke-linejoin="round"/>
<path d="M102.208 57.4983H102.408" stroke="#1F2E3A" stroke-width="2" stroke-miterlimit="10" stroke-linecap="round" stroke-linejoin="round"/>
<path d="M129.883 41.5565C129.683 44.7565 130.182 48.0565 128.782 51.1565C128.282 52.1565 127.882 52.7565 126.582 52.4565C124.982 52.0565 123.182 52.2565 121.582 52.4565C119.782 52.7565 118.682 52.0565 117.982 50.5565C117.482 49.6565 117.083 48.9565 115.883 48.9565C115.183 48.9565 114.683 48.4565 114.383 47.8565C113.883 46.8565 113.482 45.8565 113.282 44.7565C112.982 43.1565 112.782 41.6565 110.682 41.3565C109.582 41.1565 109.483 39.8565 109.383 38.8565C109.283 37.8565 109.083 36.9565 107.883 36.5565C106.983 36.2565 106.982 35.2565 106.782 34.4565C106.582 33.5565 106.582 32.6565 105.982 31.8565C105.082 30.5565 103.983 30.0565 102.383 29.9565C91.8825 29.0565 81.3825 29.0565 71.0825 31.4565C70.1825 31.6565 69.3824 31.8565 68.7824 32.8565C68.2824 33.6565 65.5825 33.2565 64.9825 32.3565C64.5825 31.6565 63.9825 31.3565 63.3825 30.9565C59.3825 28.6565 55.9824 25.6565 53.2824 21.8565C52.0824 20.1565 51.1824 18.3565 50.7824 16.3565C50.0824 12.7565 51.4825 10.3565 54.9825 9.1565C59.3825 7.6565 63.8825 8.05652 68.3825 8.95652C73.3825 9.85652 78.2825 11.1565 83.0825 12.7565C84.2825 13.1565 85.0825 12.9565 85.9825 12.0565C87.3825 10.4565 88.8825 9.05651 90.4825 7.75651C98.5825 1.55651 113.382 1.5565 121.182 13.0565C126.982 21.7565 130.383 31.0565 129.883 41.5565Z" fill="white"/>
<path d="M127.683 50.2565C128.683 49.4565 128.983 48.5565 128.983 47.2565C128.983 43.3565 129.483 39.4565 128.983 35.5565C128.483 31.4565 127.683 27.4565 125.983 23.6565C123.783 18.4565 120.983 13.5565 116.883 9.65646C113.383 6.25646 109.183 4.75645 104.383 4.55645C96.8828 4.15645 90.9827 7.15647 86.1827 12.7565C85.7827 13.2565 85.6828 13.7565 85.3828 14.2565" stroke="#1F2E3A" stroke-width="2" stroke-miterlimit="10" stroke-linecap="round" stroke-linejoin="round"/>
<path d="M124.382 50.7566C125.282 51.8566 125.282 51.8566 127.582 50.8566C126.982 49.1566 125.882 47.6566 124.982 46.1566C121.582 40.6566 116.982 36.0566 112.182 31.8566C109.682 29.6566 107.482 27.2566 104.682 25.4566C101.982 23.6566 99.2825 21.7566 96.3825 20.0566C89.6825 16.0566 82.5824 13.2566 75.0824 11.4566C71.4824 10.5566 67.8824 9.65657 64.1824 9.35657C60.9824 9.05657 57.8824 9.05656 54.7824 10.1566C50.9824 11.4566 50.4825 14.7566 51.8825 18.0566C53.9825 23.1566 57.8825 26.6566 62.3825 29.6566C63.5825 30.4566 64.8825 30.9566 65.8825 31.9566C66.3825 32.3566 67.1824 32.3566 67.6824 32.0566C71.0824 30.0566 74.8824 29.7566 78.5824 29.3566C82.8824 28.8566 87.2824 28.6566 91.5824 28.6566C95.6824 28.6566 99.7824 28.9566 103.782 29.4566C106.282 29.7566 106.682 30.8566 106.882 32.5566C106.982 33.2566 107.082 33.8566 107.182 34.5566C107.282 35.1566 107.382 35.8566 108.282 35.8566C109.282 35.9566 109.582 36.5566 109.582 37.4566C109.582 38.1566 109.782 38.8566 109.882 39.5566C109.982 40.2566 110.282 40.9566 111.182 40.7566C112.582 40.5566 112.882 41.4566 113.182 42.5566C113.482 43.7566 113.882 44.9566 114.182 46.1566C114.582 47.5566 115.182 48.5566 116.782 48.3566C117.382 48.2566 117.582 48.7566 117.782 49.1566C118.082 49.7566 118.482 50.2566 118.782 50.8566C119.082 51.4566 119.482 51.7566 120.082 51.6566C121.382 51.5566 122.682 51.3566 124.082 51.1566" stroke="#1F2E3A" stroke-width="2" stroke-miterlimit="10" stroke-linecap="round" stroke-linejoin="round"/>
<path d="M84.1221 128.748C83.9221 132.948 82.6221 136.748 80.8221 140.448C79.9221 142.248 79.222 142.148 77.722 140.748C73.022 136.248 68.322 131.648 63.522 127.348C55.522 120.148 48.522 112.148 42.522 103.248C34.722 91.6475 26.722 80.2475 20.722 67.5475C18.522 62.8475 16.3221 58.2475 13.1221 54.0475C10.8221 51.0475 8.22206 48.2475 6.12206 45.1475C3.72206 41.6475 2.52206 37.8475 1.62206 33.7475C1.52206 33.4475 1.62205 33.1475 1.52205 32.9475C-0.977946 27.4475 2.12206 23.4475 5.12206 19.4475C6.02206 18.2475 7.12204 17.2475 8.32204 16.2475C9.02204 15.6475 9.22205 15.1475 9.02205 14.2475C8.32205 11.1475 8.02204 7.94753 8.22204 4.84753C8.32204 3.14753 8.62205 1.34753 10.5221 0.747535C12.5221 0.147535 13.622 1.74753 14.722 3.14753C15.722 4.44753 16.222 5.94753 16.722 7.54753C18.922 15.9475 21.122 24.3475 23.322 32.7475C23.522 33.3475 23.522 33.9475 23.922 34.4475C26.922 38.2475 29.3221 42.4475 32.1221 46.4475C34.9221 50.4475 36.9221 54.9475 39.6221 59.0475C47.9221 71.7475 56.722 84.1475 66.722 95.6475C69.822 99.1475 72.9221 102.748 76.4221 105.948C76.6221 106.148 76.922 106.448 77.022 106.748C79.522 112.048 81.9221 117.448 83.4221 123.248C83.8221 124.948 84.0221 126.848 84.1221 128.748Z" fill="white"/>
<path d="M151.822 216.847C151.822 220.847 152.122 224.847 150.722 228.747C150.222 230.047 149.822 231.347 148.222 231.547C147.422 231.647 147.422 232.347 147.222 232.947C146.422 235.547 145.522 235.947 143.322 234.347C142.822 234.047 142.422 233.947 141.922 234.247C140.522 235.047 139.622 234.447 139.022 233.047C138.722 232.447 138.622 232.047 137.722 232.147C135.922 232.447 135.222 231.747 135.022 229.847C134.922 227.747 135.022 225.647 135.322 223.547C135.422 222.447 135.522 221.347 133.722 221.347C132.722 221.347 132.422 220.247 132.322 219.347C132.222 217.747 132.422 216.247 132.622 214.647C133.422 207.747 132.522 200.947 131.822 194.147C130.622 182.347 128.422 170.847 125.522 159.347C124.422 155.147 122.622 151.147 121.022 147.147C117.222 136.947 117.022 126.447 118.822 115.947C119.722 110.747 121.922 105.947 124.422 101.347C125.122 100.047 126.522 100.247 127.222 101.647C127.722 102.647 128.122 103.747 128.622 104.847C133.122 115.347 136.322 126.347 139.222 137.347C144.122 155.347 147.722 173.647 150.222 192.147C151.522 200.447 151.922 208.647 151.822 216.847Z" fill="white"/>
<path d="M125.322 102.048C125.722 102.048 125.922 102.148 126.222 102.548C128.122 106.448 130.022 110.348 131.422 114.448C135.122 125.248 138.322 136.248 141.022 147.348C142.822 154.548 144.222 161.748 145.422 169.048C146.222 173.548 147.322 178.048 148.022 182.548C148.522 186.148 149.022 189.748 149.422 193.348C150.322 201.148 150.922 208.948 150.622 216.748C150.522 219.548 151.422 222.448 150.522 225.248C150.022 226.848 150.022 228.648 148.722 229.948C147.222 229.648 147.522 228.548 147.722 227.548" stroke="#1F2E3A" stroke-width="2" stroke-miterlimit="10" stroke-linecap="round" stroke-linejoin="round"/>
<path d="M3.72205 35.8477C3.42205 36.5477 3.52205 37.2477 3.72205 38.0477C4.82205 41.8477 7.12208 45.0477 9.62208 48.0477C12.6221 51.5477 15.3221 55.1477 17.7221 58.9477C19.2221 61.3477 20.1221 64.0477 21.4221 66.6477C25.0221 74.1477 29.3221 81.3477 33.9221 88.3477C38.4221 95.1477 42.7221 102.048 47.6221 108.548C52.5221 115.048 58.0221 121.048 64.1221 126.448C67.3221 129.348 70.322 132.448 73.522 135.448C75.022 136.948 76.5221 138.448 78.2221 139.748C78.9221 140.248 79.0221 140.848 79.3221 141.448" stroke="#1F2E3A" stroke-width="2" stroke-miterlimit="10" stroke-linecap="round" stroke-linejoin="round"/>
<path d="M11.622 29.7476C13.622 29.3476 14.4219 28.0476 13.7219 25.7476C12.8219 22.7476 11.922 19.8476 10.622 17.0476C10.122 16.0476 10.1219 14.7476 9.92194 13.5476C9.52194 10.7476 8.72193 7.94765 9.22193 5.04765C9.32193 4.44765 9.42194 3.94765 9.52194 3.34765C10.1219 1.34765 11.1219 1.04765 12.7219 2.54765C14.4219 4.14765 15.0219 6.24765 15.7219 8.34765C17.4219 13.5476 18.2219 19.0476 19.7219 24.2476C20.6219 27.3476 21.6219 30.4476 22.2219 33.6476C22.3219 33.9476 22.3219 34.3476 22.5219 34.6476C27.7219 41.6476 32.3219 49.0476 36.7219 56.5476C40.7219 63.5476 45.522 69.9476 50.122 76.5476C54.622 83.0476 59.622 89.2476 64.822 95.2476C67.822 98.6476 70.8219 102.148 74.1219 105.248C74.8219 105.848 75.4219 106.548 75.4219 107.548" stroke="#1F2E3A" stroke-width="2" stroke-miterlimit="10" stroke-linecap="round" stroke-linejoin="round"/>
<path d="M122.422 146.448C122.222 148.048 123.022 149.348 123.622 150.648C126.222 156.148 127.322 162.048 128.822 167.848C130.122 173.248 131.022 178.648 131.922 184.048C132.622 188.248 132.822 192.548 133.322 196.748C133.622 199.648 133.822 202.548 134.122 205.448C134.522 209.148 133.822 212.848 133.622 216.448C133.522 217.748 132.922 219.248 134.222 220.448" stroke="#1F2E3A" stroke-width="2" stroke-miterlimit="10" stroke-linecap="round" stroke-linejoin="round"/>
<path d="M9.22217 23.8477C9.32217 25.3477 9.82219 26.7477 10.6222 28.0477C11.4222 29.4477 11.4222 30.8477 11.5222 32.4477C11.6222 34.1477 12.2222 35.9477 13.5222 37.2477C15.0222 38.7477 15.6222 40.6477 16.5222 42.4477C18.2222 46.2477 19.4222 46.9477 23.4222 46.6477C24.0222 46.5477 24.6222 46.5477 25.2222 46.8477" stroke="#1F2E3A" stroke-width="2" stroke-miterlimit="10" stroke-linecap="round" stroke-linejoin="round"/>
<path d="M10.122 16.3477C5.72198 19.2477 2.82198 23.2477 1.62198 28.3477C1.42198 29.2477 1.52196 30.1477 1.92196 31.0477C2.42196 31.9477 2.72196 32.9477 2.92196 34.0477C3.32196 35.8477 4.92196 36.5477 6.42196 37.1477C7.32196 37.5477 7.52198 36.6477 7.62198 35.8477C7.62198 33.0477 7.82195 30.2477 6.22195 27.6477C6.02195 27.3477 6.12197 27.0477 6.02197 26.8477" stroke="#1F2E3A" stroke-width="2" stroke-miterlimit="10" stroke-linecap="round" stroke-linejoin="round"/>
<path d="M137.022 216.948C136.322 221.048 136.322 225.148 136.322 229.348C136.322 230.148 135.922 231.148 137.122 231.348C138.122 231.448 138.722 230.748 139.322 229.948C140.022 228.948 139.522 227.748 139.922 226.748" stroke="#1F2E3A" stroke-width="2" stroke-miterlimit="10" stroke-linecap="round" stroke-linejoin="round"/>
<path d="M147.522 229.647C146.922 230.247 146.622 230.847 146.522 231.647C146.322 232.547 146.022 233.447 145.322 234.147" stroke="#1F2E3A" stroke-width="2" stroke-miterlimit="10" stroke-linecap="round" stroke-linejoin="round"/>
<path d="M11.9219 31.7475C12.6219 31.6475 13.1219 31.8475 13.6219 32.4475C14.2219 33.0475 14.8219 33.6475 15.4219 34.2475" stroke="#1F2E3A" stroke-width="2" stroke-miterlimit="10" stroke-linecap="round" stroke-linejoin="round"/>
<path d="M143.522 228.448C143.422 229.148 143.422 229.748 143.322 230.448C143.022 232.248 143.422 232.848 145.122 233.948C145.222 234.048 145.222 234.348 145.322 234.648" stroke="#1F2E3A" stroke-width="2" stroke-miterlimit="10" stroke-linecap="round" stroke-linejoin="round"/>
<path d="M139.322 230.448C139.822 230.848 139.822 231.548 139.922 232.148C140.022 232.848 140.422 233.248 140.922 233.448" stroke="#1F2E3A" stroke-width="2" stroke-miterlimit="10" stroke-linecap="round" stroke-linejoin="round"/>
</svg>
