<svg width="173" height="335" viewBox="0 0 173 335" fill="none" xmlns="http://www.w3.org/2000/svg">
<path d="M70.0999 237.191C69.8768 238.44 69.5323 239.678 69.4305 240.936C68.2815 252.124 66.759 263.397 66.5808 274.663C66.4499 286.855 66.6925 298.961 67.047 311.191C67.1902 315.462 67.3335 319.733 67.5981 324.013C67.6177 325.281 67.0676 326.042 65.9384 326.412C64.9399 326.676 64.0534 327.065 63.0641 327.215C53.068 328.479 43.4188 331.497 33.4135 332.875C31.5563 333.185 29.7082 333.381 27.8694 333.463C25.7787 333.639 25.1336 332.551 26.0097 330.78C26.5876 329.676 27.3992 328.705 28.3319 327.745C32.184 323.912 35.0744 319.887 35.9009 314.198C37.3966 304.765 39.2564 295.361 40.0332 285.754C41.3639 267.789 40.8466 250.02 37.1555 232.225C34.0827 217.357 32.494 202.264 31.3998 187.096C31.1733 183.855 31.3202 180.529 31.5884 177.212C32.7884 159.352 35.1926 141.704 40.2481 124.501C42.4361 117.08 45.3338 109.947 49.0623 103.112C49.7708 101.903 50.6851 101.171 52.0754 100.593C54.595 99.6457 59.9244 63.9845 63.0573 81.1329C69.7953 79.3755 91.6366 75.0894 97.072 78.8672C104.599 83.9653 95.2692 108.714 97.4881 117.527C98.7986 122.467 95.3446 131.949 95.9085 137.06C97.7977 154.479 98.455 172.029 99.5976 189.619C100.344 201.535 99.8768 213.354 100.026 225.107C100.217 243.886 100.054 262.521 102.448 281.247C103.866 292.413 106.021 303.523 108.307 314.528C108.738 316.75 109.579 318.43 111.158 320.054C113.418 322.309 115.53 324.897 117.66 327.256C118.221 327.877 118.893 328.622 118.334 329.498C117.784 330.259 116.98 329.618 116.243 329.674C113.928 329.602 111.753 329.311 109.438 329.239C102.997 328.833 96.8069 326.836 90.5613 325.525C88.8809 325.159 87.1729 325.136 85.3434 325.103C81.4324 325.132 80.6383 324.377 80.0755 320.763C77.9251 303.553 76.1385 286.372 73.7454 269.142C72.45 259.483 71.4065 249.729 70.6151 239.881C70.5585 239.07 70.3897 238.136 70.2118 237.316C70.3424 237.211 70.2212 237.201 70.0999 237.191Z" fill="white"/>
<path d="M51.1335 101.668C49.3802 103.713 48.4485 106.17 47.4049 108.503C42.2789 119.024 39.3003 130.18 37.0406 141.508C35.7853 147.968 34.6514 154.437 33.9937 161.061C33.67 165.063 32.9822 169.037 32.6493 173.154C31.9371 181.96 32.3357 190.625 33.3318 199.454C34.3279 208.283 35.324 217.112 36.8055 225.981C37.6491 230.653 38.7352 235.346 39.4482 240.123C40.5553 247.58 41.2892 255.121 41.5283 262.738C41.8632 273.7 40.9938 284.451 39.9938 295.305C39.447 300.556 38.5269 305.892 37.3733 311.094C36.6382 314.142 35.8941 317.305 35.6444 320.393C35.5426 321.651 35.0952 322.651 34.0504 323.487C31.4292 325.693 29.2654 328.281 27.2232 330.878C26.8221 331.306 26.4119 331.848 26.8418 332.574C27.2717 333.299 28.0276 333.015 28.6436 332.95C36.2784 332.186 43.7354 330.602 51.0894 328.779C54.9531 327.825 58.8917 327.453 62.7369 326.728C66.5728 326.118 66.5914 325.889 66.514 322.314C66.2749 314.697 66.1572 307.09 65.9181 299.474C65.5555 288.854 65.5568 278.264 66.0529 267.599C66.4853 259.231 67.4032 250.902 68.4424 242.583C68.8319 239.276 68.736 235.93 70.0871 232.816" stroke="#1F2E3A" stroke-width="2" stroke-miterlimit="10" stroke-linecap="round" stroke-linejoin="round"/>
<path d="M92.8076 122.535C94.4452 127.963 94.7292 133.511 95.2561 139.079C95.9436 147.192 97.1167 155.345 97.4309 163.543C97.8017 172.552 98.1818 181.446 98.6739 190.465C98.7975 193.468 99.1637 196.49 99.2873 199.493C99.4201 202.382 99.301 205.365 99.1912 208.234C98.9344 214.429 99.1725 220.549 99.2891 226.66C99.3109 230.92 99.09 235.162 99.1119 239.423C99.0968 244.141 99.2122 248.755 99.4398 253.493C99.5645 257.992 99.9412 262.397 100.187 266.906C100.528 273.265 101.485 279.558 102.32 285.842C103.222 292.821 104.244 299.811 105.892 306.62C106.716 310.025 107.298 313.41 108 316.806" stroke="#1F2E3A" stroke-width="2" stroke-miterlimit="10" stroke-linecap="round" stroke-linejoin="round"/>
<path d="M70.2285 234.094C72.0592 235.623 71.6409 237.777 71.7449 239.512C72.9604 254.689 74.9133 269.812 76.9875 284.944C78.4701 295.309 79.2153 305.729 80.4459 316.189C80.6527 318.162 81.2421 319.937 81.2062 321.891C81.1045 323.149 82.1781 323.466 83.1305 323.773C83.728 323.936 84.4562 323.995 85.0722 323.93C90.4395 324.019 95.4437 325.574 100.597 326.797C105.517 327.886 110.511 328.059 115.589 328.7C115.954 328.73 116.467 328.426 116.849 328.226" stroke="#1F2E3A" stroke-width="2" stroke-miterlimit="10" stroke-linecap="round" stroke-linejoin="round"/>
<path d="M108.926 318.952C111.476 322.152 114.82 324.609 116.858 328.112C117.287 328.837 118.006 329.011 118.856 329.079" stroke="#1F2E3A" stroke-width="2" stroke-miterlimit="10" stroke-linecap="round" stroke-linejoin="round"/>
<path d="M98.6878 89.1444C98.6878 95.0444 98.5878 101.244 97.6878 107.444C97.4878 108.544 97.0878 109.144 95.9878 109.544C88.3878 112.044 80.5878 113.844 72.6878 114.544C64.7878 115.244 56.8878 115.644 49.0878 113.444C46.1878 112.644 44.4878 111.544 43.8878 108.044C42.1878 97.8445 40.8878 87.6444 40.6878 77.2444C40.5878 74.3444 40.7878 71.4445 40.9878 68.5445C41.0878 67.2445 40.5878 67.0445 39.3878 67.5445C34.4878 69.3445 29.2878 70.0444 24.0878 70.6444C22.3878 70.8444 21.5878 70.1445 21.3878 68.5445C20.4878 61.7445 21.0878 55.0444 23.8878 48.6444C27.1878 40.8444 31.7878 33.8444 37.9878 28.1444C42.5878 23.8444 47.7878 20.6444 53.9878 19.2444C59.0878 18.0444 64.2878 17.6444 69.4878 18.3444C76.6878 19.2444 81.9878 23.0445 85.4878 29.4445C90.0878 38.0445 93.2878 47.2444 95.4878 56.7444C97.7878 67.2444 98.8878 78.0444 98.6878 89.1444Z" fill="white"/>
<path d="M96.2875 108.444C96.5875 105.944 96.9875 103.444 97.1875 100.844C97.6875 94.4444 97.3875 88.0444 97.3875 81.7444C97.3875 78.0444 96.7875 74.3444 96.4875 70.6444C95.8875 63.9444 94.4875 57.4444 92.7875 51.0444C91.7875 47.3444 90.2875 43.7444 88.9875 40.1444C87.2875 35.6444 85.3875 31.3444 82.6875 27.2444C79.5875 22.6444 75.1875 20.4444 69.9875 19.5444C66.4875 18.9444 63.0875 19.2444 59.5875 19.5444C55.7875 19.8444 52.2875 20.6444 48.8875 22.2444C44.5875 24.2444 40.6875 26.8444 37.3875 30.2444C32.6875 35.1444 28.8875 40.6444 25.9875 46.7444C22.9875 52.9444 21.6875 59.4444 22.3875 66.3444C22.6875 69.8444 22.6875 69.9444 25.9875 69.4444C30.1875 68.7444 34.3875 68.2444 38.3875 66.8444C38.8875 66.6444 39.3875 66.4444 39.8875 66.2444C41.3875 65.4444 41.9875 65.8444 41.9875 67.7444C41.9875 70.8444 41.8875 73.9444 41.8875 76.9444C41.8875 81.8444 42.4875 86.7444 42.7875 91.6444C43.0875 97.1444 44.4875 102.544 45.1875 107.944C45.2875 108.844 45.5875 109.844 45.7875 110.744" stroke="#1F2E3A" stroke-width="2" stroke-miterlimit="10" stroke-linecap="round" stroke-linejoin="round"/>
<path d="M58.7083 98.5409C53.2083 98.4409 49.3083 95.5409 46.5083 91.0409C45.6083 89.6409 45.0084 88.1408 44.3084 86.6408C43.9084 85.8408 44.0083 85.0409 44.4083 84.2409C44.9083 83.3409 45.7083 82.8408 46.5083 83.6408C49.1083 86.0408 52.3083 85.7408 55.4083 85.3408C60.8083 84.5408 65.2084 81.6409 69.8084 79.0409C72.3084 77.6409 74.9083 76.3409 77.2083 74.4409C78.1083 73.7409 78.9083 74.0409 79.1083 75.2409C79.2083 75.5409 79.2083 75.9409 79.1083 76.2409C77.4083 84.5409 73.8083 91.6409 66.4083 96.4409C64.1083 97.8409 61.5083 98.6409 58.7083 98.5409Z" fill="white"/>
<path d="M78.0083 75.0408C77.1083 76.4408 77.8083 78.0408 77.3083 79.5408C75.3083 85.2408 72.6083 90.4408 67.7083 94.2408C60.6083 99.7408 52.2083 98.3408 47.6083 90.7408C47.0083 89.8408 46.7083 88.8408 46.1083 87.9408C45.3083 86.8408 45.8083 85.6408 45.7083 84.4408" stroke="#1F2E3A" stroke-width="2" stroke-miterlimit="10" stroke-linecap="round" stroke-linejoin="round"/>
<path d="M77.2082 76.3408C75.2082 76.7408 73.8082 78.0408 72.1082 79.0408C68.1082 81.2408 64.2082 83.8409 59.9082 85.4409C56.5082 86.7409 52.9082 87.4409 49.2082 86.4409C48.1082 86.1409 47.0082 85.5408 45.9082 85.1408" stroke="#1F2E3A" stroke-width="2" stroke-miterlimit="10" stroke-linecap="round" stroke-linejoin="round"/>
<path d="M47.008 49.6409C44.708 50.8409 43.408 52.8409 42.208 54.9409C41.808 55.6409 42.108 56.2409 42.108 56.9409" stroke="#1F2E3A" stroke-width="2" stroke-miterlimit="10" stroke-linecap="round" stroke-linejoin="round"/>
<path d="M63.2084 50.1408C61.3084 47.8408 58.7084 47.9408 56.1084 48.0408" stroke="#1F2E3A" stroke-width="2" stroke-miterlimit="10" stroke-linecap="round" stroke-linejoin="round"/>
<path d="M49.6084 61.5408C50.4368 61.5408 51.1084 60.8692 51.1084 60.0408C51.1084 59.2123 50.4368 58.5408 49.6084 58.5408C48.78 58.5408 48.1084 59.2123 48.1084 60.0408C48.1084 60.8692 48.78 61.5408 49.6084 61.5408Z" fill="#1F2E3A"/>
<path d="M60.208 60.0408C61.0364 60.0408 61.708 59.3692 61.708 58.5408C61.708 57.7123 61.0364 57.0408 60.208 57.0408C59.3796 57.0408 58.708 57.7123 58.708 58.5408C58.708 59.3692 59.3796 60.0408 60.208 60.0408Z" fill="#1F2E3A"/>
<path d="M76.9089 13.7168C76.8089 9.11679 78.709 5.41677 82.609 2.81677C86.409 0.316767 90.7089 0.316767 94.8089 3.31677C102.109 8.71677 106.609 15.9168 107.309 25.2168C107.809 32.0168 103.209 38.5168 96.609 40.5168C95.309 40.9168 95.7089 41.6168 96.0089 42.4168C97.2089 45.4168 98.1089 48.5168 98.5089 51.8168C98.8089 54.3168 98.8089 56.8168 97.9089 59.3168C97.3089 60.7168 96.5089 61.3168 94.9089 61.0168C88.1089 59.6168 81.409 57.9168 76.109 53.2168C69.209 47.2168 64.109 39.9168 61.709 30.9168C61.109 28.5168 61.0089 28.5168 58.9089 29.9168C56.9089 31.2168 55.0089 32.5168 53.0089 33.8168C48.1089 37.2168 42.509 37.8168 36.709 37.3168C36.309 37.3168 35.8089 37.2168 35.4089 37.1168C32.7089 36.9168 32.6089 36.8168 33.5089 34.2168C34.6089 31.1168 36.4089 28.4168 38.5089 25.9168C42.9089 20.7168 47.9089 16.2168 54.5089 13.8168C61.8089 11.1168 68.909 11.2168 75.609 15.8168C76.009 16.1168 76.4089 16.6168 76.9089 16.2168C77.3089 15.9168 77.109 15.4168 77.109 15.0168C76.909 14.6168 76.9089 14.1168 76.9089 13.7168Z" fill="white"/>
<path d="M61.1094 28.0168C62.3094 29.7168 62.5094 31.9167 63.2094 33.8167C64.8094 38.5167 67.3093 42.5167 70.4093 46.3167C72.4093 48.8167 74.6093 51.0168 77.0093 53.1168C80.3093 56.0168 84.3093 57.4168 88.4093 58.7168C90.6093 59.4168 92.9094 59.8167 95.2094 60.4167C95.8094 60.5167 96.3094 60.4168 96.7094 59.6168C97.2094 58.5168 97.6094 57.5167 97.7094 56.3167C98.1094 48.1167 95.0093 41.0168 90.9093 34.2168C88.6093 30.3168 85.8093 26.8168 82.8093 23.5168C81.2093 21.7168 79.5094 19.8167 77.6094 18.3167C74.5094 15.9167 71.1093 13.8168 67.0093 13.2168C61.7093 12.3168 56.7093 13.5168 52.0093 15.6168C47.8093 17.5168 44.2094 20.5168 41.1094 24.0168C38.6094 26.7168 36.3094 29.6167 34.7094 32.9167C34.5094 33.3167 34.3094 33.8168 34.2094 34.2168C33.7094 35.9168 33.9094 36.3168 35.7094 36.5168C39.7094 37.0168 43.7094 37.0168 47.6094 35.7168C50.5094 34.7168 53.0093 32.9167 55.5093 31.3167C57.3093 30.1167 58.9094 28.5168 61.1094 28.0168" stroke="#1F2E3A" stroke-width="2" stroke-miterlimit="10" stroke-linecap="round" stroke-linejoin="round"/>
<path d="M77.5088 17.8168C77.8088 16.9168 77.8089 16.1168 77.7089 15.2168C76.8089 9.61683 80.3088 3.91683 85.8088 2.21683C89.3088 1.11683 92.4088 2.31681 95.0088 4.41681C100.609 8.81681 104.509 14.5168 106.109 21.5168C108.009 29.9168 104.909 35.5168 97.5088 39.6168C96.6088 40.1168 95.4088 39.8168 94.5088 40.4168" stroke="#1F2E3A" stroke-width="2" stroke-miterlimit="10" stroke-linecap="round" stroke-linejoin="round"/>
<path d="M50.3657 124.931C50.3657 126.431 50.1657 127.931 50.5657 129.331C50.8657 130.231 49.9657 130.431 49.3657 130.831C45.5657 132.831 42.0657 135.131 39.2657 138.431C34.6657 143.931 32.8657 150.331 34.2657 157.331C35.4657 163.331 37.6657 168.931 41.0657 174.031C42.0657 175.531 43.7657 176.631 44.2657 178.531C44.8657 180.931 46.4658 182.731 47.9658 184.631C49.1658 186.131 50.2657 187.731 50.5657 189.731C50.8657 191.931 50.0657 192.931 47.7657 192.831C46.5657 192.731 46.9657 193.231 47.1657 193.931C47.9657 196.031 47.8658 196.331 45.9658 197.431C45.4658 197.731 45.3657 198.031 45.6657 198.531C45.9657 199.031 46.2657 199.531 46.3657 200.031C46.7657 201.331 46.1657 202.131 44.7657 202.031C43.4657 202.031 42.4658 201.331 41.4658 200.631C40.1658 199.731 38.8657 198.931 37.3657 198.631C36.0657 198.331 35.3658 197.331 34.4658 196.531C27.9658 190.031 22.5657 182.631 17.3657 175.131C14.0657 170.431 11.3657 165.331 9.26569 159.931C5.46569 150.131 6.56571 140.931 11.6657 131.931C18.6657 119.431 29.3657 111.731 42.5657 107.031C45.1657 106.131 45.9658 106.531 46.9658 109.031C49.1658 114.031 50.1657 119.331 50.3657 124.931Z" fill="white"/>
<path d="M79.6658 39.0312C79.6658 37.9312 79.5658 37.0312 79.6658 36.1312C79.7658 35.2312 79.8659 34.2312 80.9659 34.0312C81.9659 33.8312 82.5659 34.6312 83.0659 35.3312C83.5659 36.1312 83.9658 36.9312 84.3658 37.8312C84.7658 38.5312 85.0659 38.6312 85.4659 37.8312C85.5659 37.5312 85.6658 37.2312 85.8658 36.9312C86.2658 36.3312 86.6659 35.7312 87.4659 35.7312C88.3659 35.7312 88.6659 36.4312 88.9659 37.0312C89.9659 39.1312 90.6658 41.4312 91.3658 43.6312C91.4658 44.1312 91.4659 44.6312 91.9659 44.9312C92.6659 44.4312 92.3658 43.8312 92.3658 43.2312C92.3658 42.0312 92.5658 40.8312 93.1658 39.7312C93.9658 38.3312 95.3658 38.2312 96.2658 39.7312C97.3658 41.6312 97.4658 43.7312 97.6658 45.8312C97.9658 48.7312 98.1658 51.7312 98.3658 54.7312C98.4658 56.2312 98.8659 57.6312 99.4659 59.0312C103.266 66.9312 108.266 74.0312 112.566 81.5312C117.866 90.7312 121.566 100.431 122.766 110.931C123.566 117.931 123.066 124.831 118.266 130.631C115.766 133.731 112.666 136.031 108.966 137.531C106.666 138.531 104.266 138.531 101.866 137.831C98.2658 136.731 95.2659 134.531 92.4659 132.231C89.2659 129.531 88.6658 125.531 88.6658 121.531C88.6658 117.331 89.1658 113.131 90.6658 109.031C90.7658 108.631 90.9658 108.231 91.1658 107.831C92.7658 104.431 93.7658 104.031 97.1658 105.631C98.1658 106.031 99.0659 106.531 99.9659 107.031C101.166 107.631 101.466 107.231 101.366 106.031C101.066 103.731 100.566 101.531 99.8658 99.3312C96.2658 88.1312 91.2658 77.7312 85.3658 67.6312C83.3658 64.2312 81.0658 61.1312 79.3658 57.6312C77.3658 53.4312 74.6659 49.4312 73.0659 45.0312C72.9659 44.7312 72.8658 44.5312 72.8658 44.2312C72.7658 43.5312 72.4658 42.7312 73.1658 42.2312C73.9658 41.6312 74.6658 42.1312 75.2658 42.6312C75.5658 42.8312 75.8658 43.0312 76.2658 43.3312C76.6658 42.5312 76.2658 42.0312 76.1658 41.4312C75.9658 40.3312 75.4658 39.0312 76.6658 38.2312C77.8658 37.3312 78.5658 38.4312 79.6658 39.0312Z" fill="white"/>
<path d="M46.4655 107.531C43.7655 106.831 41.5655 108.031 39.1655 109.031C31.1655 112.331 24.0654 116.931 18.3654 123.531C13.6654 129.131 9.86546 135.231 8.26546 142.531C7.06546 147.931 7.7655 153.331 9.5655 158.531C12.7655 167.531 18.0655 175.131 23.7655 182.631C26.7655 186.631 29.9654 190.531 33.3654 194.331C34.1654 195.331 35.1655 196.131 36.1655 196.931C36.4655 197.231 36.9655 197.631 37.2655 197.631C39.4655 197.431 40.7655 199.031 42.1655 200.131C43.0655 200.831 44.2655 200.831 45.0655 201.731" stroke="#1F2E3A" stroke-width="2" stroke-miterlimit="10" stroke-linecap="round" stroke-linejoin="round"/>
<path d="M97.566 55.0312C98.066 59.0312 100.366 62.2313 102.166 65.5312C106.466 73.2312 111.666 80.4312 115.466 88.5312C118.766 95.5312 121.166 102.931 122.166 110.631C122.766 114.831 122.666 119.231 121.466 123.331C120.066 128.231 116.866 131.931 112.566 134.731C110.866 135.831 109.166 136.831 107.166 137.431C104.766 138.031 102.666 137.431 100.566 136.531C98.466 135.631 96.5661 134.431 94.9661 132.931C94.5661 132.531 94.166 132.331 93.666 132.331" stroke="#1F2E3A" stroke-width="2" stroke-miterlimit="10" stroke-linecap="round" stroke-linejoin="round"/>
<path d="M74.1661 43.3312C73.1661 44.9312 74.4661 46.1312 75.0661 47.2312C78.8661 54.3312 82.8662 61.4312 86.9662 68.4312C91.4662 76.2312 95.6661 84.2312 98.5661 92.8312C99.8661 96.5312 101.266 100.031 101.966 103.931C102.266 105.531 103.066 107.131 101.966 108.731" stroke="#1F2E3A" stroke-width="2" stroke-miterlimit="10" stroke-linecap="round" stroke-linejoin="round"/>
<path d="M49.7656 129.731C45.7656 131.831 41.9656 134.031 39.0656 137.531C33.0656 144.431 31.7655 152.331 34.3655 160.931C35.7655 165.731 37.6656 170.431 40.5656 174.631C41.1656 175.531 41.9655 176.331 42.8655 176.931" stroke="#1F2E3A" stroke-width="2" stroke-miterlimit="10" stroke-linecap="round" stroke-linejoin="round"/>
<path d="M92.4658 46.9312C93.6658 45.7312 92.7657 44.0312 93.2657 42.6312C93.3657 42.2312 93.1658 41.7312 93.4658 41.3312C93.8658 40.7312 93.6658 39.5312 94.9658 39.7312C95.9658 39.9312 96.1657 40.8312 96.2657 41.5312C97.0657 45.6312 97.5658 49.7312 97.5658 53.9312C97.5658 54.3312 97.7657 55.0312 96.8657 54.9312" stroke="#1F2E3A" stroke-width="2" stroke-miterlimit="10" stroke-linecap="round" stroke-linejoin="round"/>
<path d="M92.9655 51.5312C92.9655 49.5312 92.5655 47.8312 91.4655 46.0312C90.3655 44.3312 89.9654 42.0312 89.3654 40.0312C88.9654 38.7313 88.2654 37.7313 87.7654 36.5312C86.5654 36.9313 85.9654 37.7312 86.0654 38.9312C86.0654 39.5312 85.8654 39.9312 85.5654 40.4312" stroke="#1F2E3A" stroke-width="2" stroke-miterlimit="10" stroke-linecap="round" stroke-linejoin="round"/>
<path d="M43.9659 179.731C43.8659 180.631 44.3659 181.331 44.9659 182.031C46.5659 184.031 48.2659 186.031 49.4659 188.331C49.7659 188.831 49.8659 189.431 49.9659 189.931C50.2659 191.531 49.0659 192.631 47.6659 192.031C46.9659 191.731 46.4658 191.831 45.8658 191.731" stroke="#1F2E3A" stroke-width="2" stroke-miterlimit="10" stroke-linecap="round" stroke-linejoin="round"/>
<path d="M83.3655 45.3312C82.4655 45.2312 82.2656 44.5312 82.0656 43.8312C81.1656 41.5312 79.5656 40.0312 77.5656 38.8312C77.2656 39.1312 76.7655 39.4312 76.8655 39.8312C77.0655 41.3312 77.2656 42.9312 77.6656 44.4312C78.0656 46.0312 79.3655 47.3312 80.3655 48.8312C80.4655 48.9312 80.6655 48.9312 80.8655 48.9312" stroke="#1F2E3A" stroke-width="2" stroke-miterlimit="10" stroke-linecap="round" stroke-linejoin="round"/>
<path d="M103.665 113.431C103.265 112.331 102.765 111.231 102.865 110.131C102.965 109.231 102.265 108.931 102.065 108.831C99.3653 107.631 96.9652 105.631 93.8652 105.331" stroke="#1F2E3A" stroke-width="2" stroke-miterlimit="10" stroke-linecap="round" stroke-linejoin="round"/>
<path d="M86.366 43.9312C85.566 40.4312 83.3661 37.6312 81.4661 34.5312C80.0661 35.8312 80.3661 37.1312 80.6661 38.3312C80.8661 39.1312 80.9661 40.0312 80.4661 40.8312" stroke="#1F2E3A" stroke-width="2" stroke-miterlimit="10" stroke-linecap="round" stroke-linejoin="round"/>
<path d="M40.8652 194.131C41.7652 194.931 42.8653 195.631 43.6653 196.431C44.6653 197.531 45.1653 199.031 45.7653 200.331C46.0653 200.831 45.3653 201.031 45.1653 201.331" stroke="#1F2E3A" stroke-width="2" stroke-miterlimit="10" stroke-linecap="round" stroke-linejoin="round"/>
<path d="M43.4658 189.531C45.4658 190.931 45.9658 193.231 46.9658 195.331C47.0658 195.531 47.0658 195.931 47.4658 195.831" stroke="#1F2E3A" stroke-width="2" stroke-miterlimit="10" stroke-linecap="round" stroke-linejoin="round"/>
<path d="M73.166 43.0312C74.766 42.7312 75.766 44.0312 77.166 44.3312" stroke="#1F2E3A" stroke-width="2" stroke-miterlimit="10" stroke-linecap="round" stroke-linejoin="round"/>
</svg>
