<svg width="173" height="357" viewBox="0 0 173 357" fill="none" xmlns="http://www.w3.org/2000/svg">
<path d="M70.0999 255.191C69.8768 256.44 69.5323 257.678 69.4305 258.936C68.2815 270.124 66.759 281.397 66.5808 292.663C66.4499 304.855 66.6925 316.961 67.047 329.191C67.1902 333.462 67.3335 337.733 67.5981 342.013C67.6177 343.281 67.0676 344.042 65.9384 344.412C64.9399 344.676 64.0534 345.065 63.0641 345.215C53.068 346.479 43.4188 349.497 33.4135 350.875C31.5563 351.185 29.7082 351.381 27.8694 351.463C25.7787 351.639 25.1336 350.551 26.0097 348.78C26.5876 347.676 27.3992 346.705 28.3319 345.745C32.184 341.912 35.0744 337.887 35.9009 332.198C37.3966 322.765 39.2564 313.361 40.0332 303.754C41.3639 285.789 40.8466 268.02 37.1555 250.225C34.0827 235.357 32.494 220.264 31.3998 205.096C31.1733 201.855 31.3202 198.529 31.5884 195.212C32.7884 177.352 35.1926 159.704 40.2481 142.501C42.4361 135.08 45.3338 127.947 49.0623 121.112C49.7708 119.903 50.6851 119.171 52.0754 118.593C54.595 117.646 59.9244 81.9845 63.0573 99.1329C69.7953 97.3755 91.6366 93.0894 97.072 96.8672C104.599 101.965 95.2692 126.714 97.4881 135.527C98.7986 140.467 95.3446 149.949 95.9085 155.06C97.7977 172.479 98.455 190.029 99.5976 207.619C100.344 219.535 99.8768 231.354 100.026 243.107C100.217 261.886 100.054 280.521 102.448 299.247C103.866 310.413 106.021 321.523 108.307 332.528C108.738 334.75 109.579 336.43 111.158 338.054C113.418 340.309 115.53 342.897 117.66 345.256C118.221 345.877 118.893 346.622 118.334 347.498C117.784 348.259 116.98 347.618 116.243 347.674C113.928 347.602 111.753 347.311 109.438 347.239C102.997 346.833 96.8069 344.836 90.5613 343.525C88.8809 343.159 87.1729 343.136 85.3434 343.103C81.4324 343.132 80.6383 342.377 80.0755 338.763C77.9251 321.553 76.1385 304.372 73.7454 287.142C72.45 277.483 71.4065 267.729 70.6151 257.881C70.5585 257.07 70.3897 256.136 70.2118 255.316C70.3424 255.211 70.2212 255.201 70.0999 255.191Z" fill="white"/>
<path d="M51.1335 119.668C49.3802 121.713 48.4485 124.17 47.4049 126.503C42.2789 137.024 39.3003 148.18 37.0406 159.508C35.7853 165.968 34.6514 172.437 33.9937 179.061C33.67 183.063 32.9822 187.037 32.6493 191.154C31.9371 199.96 32.3357 208.625 33.3318 217.454C34.3279 226.283 35.324 235.112 36.8055 243.981C37.6491 248.653 38.7352 253.346 39.4482 258.123C40.5553 265.58 41.2892 273.121 41.5283 280.738C41.8632 291.7 40.9938 302.451 39.9938 313.305C39.447 318.556 38.5269 323.892 37.3733 329.094C36.6382 332.142 35.8941 335.305 35.6444 338.393C35.5426 339.651 35.0952 340.651 34.0504 341.487C31.4292 343.693 29.2654 346.281 27.2232 348.878C26.8221 349.306 26.4119 349.848 26.8418 350.574C27.2717 351.299 28.0276 351.015 28.6436 350.95C36.2784 350.186 43.7354 348.602 51.0894 346.779C54.9531 345.825 58.8917 345.453 62.7369 344.728C66.5728 344.118 66.5914 343.889 66.514 340.314C66.2749 332.697 66.1572 325.09 65.9181 317.474C65.5555 306.854 65.5568 296.264 66.0529 285.599C66.4853 277.231 67.4032 268.902 68.4424 260.583C68.8319 257.276 68.736 253.93 70.0871 250.816" stroke="#1F2E3A" stroke-width="2" stroke-miterlimit="10" stroke-linecap="round" stroke-linejoin="round"/>
<path d="M92.8076 140.535C94.4452 145.963 94.7292 151.511 95.2561 157.079C95.9436 165.192 97.1167 173.345 97.4309 181.543C97.8017 190.552 98.1818 199.446 98.6739 208.465C98.7975 211.468 99.1637 214.49 99.2873 217.493C99.4201 220.382 99.301 223.365 99.1912 226.234C98.9344 232.429 99.1725 238.549 99.2891 244.66C99.3109 248.92 99.09 253.162 99.1119 257.423C99.0968 262.141 99.2122 266.755 99.4398 271.493C99.5645 275.992 99.9412 280.397 100.187 284.906C100.528 291.265 101.485 297.558 102.32 303.842C103.222 310.821 104.244 317.811 105.892 324.62C106.716 328.025 107.298 331.41 108 334.806" stroke="#1F2E3A" stroke-width="2" stroke-miterlimit="10" stroke-linecap="round" stroke-linejoin="round"/>
<path d="M70.2285 252.094C72.0592 253.623 71.6409 255.777 71.7449 257.512C72.9604 272.689 74.9133 287.812 76.9875 302.944C78.4701 313.309 79.2153 323.729 80.4459 334.189C80.6527 336.162 81.2421 337.937 81.2062 339.891C81.1045 341.149 82.1781 341.466 83.1305 341.773C83.728 341.936 84.4562 341.995 85.0722 341.93C90.4395 342.019 95.4437 343.574 100.597 344.797C105.517 345.886 110.511 346.059 115.589 346.7C115.954 346.73 116.467 346.426 116.849 346.226" stroke="#1F2E3A" stroke-width="2" stroke-miterlimit="10" stroke-linecap="round" stroke-linejoin="round"/>
<path d="M108.926 336.952C111.476 340.152 114.82 342.609 116.858 346.112C117.287 346.837 118.006 347.011 118.856 347.079" stroke="#1F2E3A" stroke-width="2" stroke-miterlimit="10" stroke-linecap="round" stroke-linejoin="round"/>
<path d="M98.6878 107.144C98.6878 113.044 98.5878 119.244 97.6878 125.444C97.4878 126.544 97.0878 127.144 95.9878 127.544C88.3878 130.044 80.5878 131.844 72.6878 132.544C64.7878 133.244 56.8878 133.644 49.0878 131.444C46.1878 130.644 44.4878 129.544 43.8878 126.044C42.1878 115.844 40.8878 105.644 40.6878 95.2444C40.5878 92.3444 40.7878 89.4445 40.9878 86.5445C41.0878 85.2445 40.5878 85.0445 39.3878 85.5445C34.4878 87.3445 29.2878 88.0444 24.0878 88.6444C22.3878 88.8444 21.5878 88.1445 21.3878 86.5445C20.4878 79.7445 21.0878 73.0444 23.8878 66.6444C27.1878 58.8444 31.7878 51.8444 37.9878 46.1444C42.5878 41.8444 47.7878 38.6444 53.9878 37.2444C59.0878 36.0444 64.2878 35.6444 69.4878 36.3444C76.6878 37.2444 81.9878 41.0445 85.4878 47.4445C90.0878 56.0445 93.2878 65.2444 95.4878 74.7444C97.7878 85.2444 98.8878 96.0444 98.6878 107.144Z" fill="white"/>
<path d="M96.2875 126.444C96.5875 123.944 96.9875 121.444 97.1875 118.844C97.6875 112.444 97.3875 106.044 97.3875 99.7444C97.3875 96.0444 96.7875 92.3444 96.4875 88.6444C95.8875 81.9444 94.4875 75.4444 92.7875 69.0444C91.7875 65.3444 90.2875 61.7444 88.9875 58.1444C87.2875 53.6444 85.3875 49.3444 82.6875 45.2444C79.5875 40.6444 75.1875 38.4444 69.9875 37.5444C66.4875 36.9444 63.0875 37.2444 59.5875 37.5444C55.7875 37.8444 52.2875 38.6444 48.8875 40.2444C44.5875 42.2444 40.6875 44.8444 37.3875 48.2444C32.6875 53.1444 28.8875 58.6444 25.9875 64.7444C22.9875 70.9444 21.6875 77.4444 22.3875 84.3444C22.6875 87.8444 22.6875 87.9444 25.9875 87.4444C30.1875 86.7444 34.3875 86.2444 38.3875 84.8444C38.8875 84.6444 39.3875 84.4444 39.8875 84.2444C41.3875 83.4444 41.9875 83.8444 41.9875 85.7444C41.9875 88.8444 41.8875 91.9444 41.8875 94.9444C41.8875 99.8444 42.4875 104.744 42.7875 109.644C43.0875 115.144 44.4875 120.544 45.1875 125.944C45.2875 126.844 45.5875 127.844 45.7875 128.744" stroke="#1F2E3A" stroke-width="2" stroke-miterlimit="10" stroke-linecap="round" stroke-linejoin="round"/>
<path d="M50.3 68C47.8 70.1 46 72.6 45 75.8" stroke="#1F2E3A" stroke-width="2" stroke-miterlimit="10" stroke-linecap="round" stroke-linejoin="round"/>
<path d="M60.0996 66C62.1996 66.7 64.2996 67.4 66.1996 68.6C66.9996 69.1 67.5996 69.8 67.9996 70.6" stroke="#1F2E3A" stroke-width="2" stroke-miterlimit="10" stroke-linecap="round" stroke-linejoin="round"/>
<path d="M52.2998 80.3C53.1282 80.3 53.7998 79.6285 53.7998 78.8C53.7998 77.9716 53.1282 77.3 52.2998 77.3C51.4714 77.3 50.7998 77.9716 50.7998 78.8C50.7998 79.6285 51.4714 80.3 52.2998 80.3Z" fill="#1F2E3A"/>
<path d="M62.9004 78.8C63.7288 78.8 64.4004 78.1285 64.4004 77.3C64.4004 76.4716 63.7288 75.8 62.9004 75.8C62.072 75.8 61.4004 76.4716 61.4004 77.3C61.4004 78.1285 62.072 78.8 62.9004 78.8Z" fill="#1F2E3A"/>
<path d="M70.5998 101.1C68.8998 102.5 67.0998 103.9 64.9998 104.8C62.1998 106.1 59.6998 105 57.0998 104.4C56.4998 104.2 55.8998 104 55.2998 104" stroke="#1F2E3A" stroke-width="2" stroke-miterlimit="10" stroke-linecap="round" stroke-linejoin="round"/>
<path d="M96.0383 66.8802C96.1383 70.3802 95.9383 73.5802 95.0383 76.6802C94.9383 77.1802 94.7383 77.6802 94.5383 78.0802C94.2383 78.6802 93.9383 79.2802 93.1383 79.2802C92.3383 79.2802 91.9383 78.7802 91.6383 78.1802C91.2383 77.0802 90.8383 75.9802 90.4383 74.9802C89.5383 72.3802 88.8383 69.8802 87.5383 67.4802C86.0383 64.6802 84.0383 62.6802 80.5383 62.3802C76.0383 62.0802 73.4384 59.5802 72.3384 55.3802C72.1384 54.5802 71.8383 53.6802 71.5383 52.8802C69.8383 48.1802 68.3383 46.9802 62.5383 47.1802C57.6383 47.3802 53.0383 48.8802 48.5383 50.5802C46.2383 51.4802 43.8384 52.0802 41.3384 52.4802C38.2384 52.8802 36.2383 51.2802 36.0383 48.0802C35.8383 42.8802 36.4383 37.7802 37.4383 32.6802C37.5383 32.2802 37.6384 31.7802 37.8384 31.3802C38.0384 30.8802 38.3384 30.4802 38.8384 30.3802C39.4384 30.2802 39.8383 30.6802 40.1383 31.1802C40.5383 31.9802 40.9384 32.8802 41.3384 33.6802C42.1384 35.0802 42.6383 35.0802 43.5383 33.7802C44.5383 32.1802 45.1384 30.3802 45.8384 28.6802C46.4384 27.2802 46.9384 25.7802 47.7384 24.4802C48.9384 22.6802 50.2384 22.5802 51.8384 24.0802C53.4384 25.6802 53.5383 25.6802 55.0383 24.0802C55.9383 23.0802 56.7383 22.0802 57.5383 20.9802C58.7383 19.5802 59.6383 19.4802 60.9383 20.7802C62.9383 22.6802 63.3383 22.7802 65.4383 20.8802C66.7383 19.7802 67.7383 18.3802 69.0383 17.2802C70.9383 15.3802 72.2383 15.5802 73.5383 17.9802C74.4383 19.7802 75.3384 21.4802 76.3384 23.1802C76.9384 24.2802 77.5383 24.5802 78.6383 23.5802C80.2383 21.9802 81.0384 22.1802 81.8384 24.2802C82.4384 25.9802 82.9384 27.7802 84.8384 28.5802C85.5384 28.8802 85.5383 29.7802 85.6383 30.4802C85.8383 32.0802 86.0383 33.7802 86.5383 35.2802C86.8383 36.1802 87.1384 36.8802 88.3384 36.6802C89.5384 36.4802 89.8383 37.4802 90.1383 38.3802C90.7383 40.5802 90.9383 42.8802 91.1383 45.1802C91.3383 47.1802 91.5384 49.0802 91.8384 51.0802C92.0384 52.1802 92.0383 53.3802 93.5383 53.7802C94.1383 53.9802 94.3383 54.8802 94.5383 55.5802C94.8383 56.6802 95.1384 57.6802 95.3384 58.7802C95.9384 61.6802 96.0383 64.3802 96.0383 66.8802Z" fill="white"/>
<path d="M92.338 54.7802C91.038 53.0802 91.138 50.9802 90.938 48.9802C90.438 45.8802 90.338 42.6802 89.838 39.5802C89.538 37.5802 89.138 37.3802 87.238 37.9802C85.738 36.5802 85.538 34.5802 85.238 32.6802C85.038 30.9802 85.0379 29.3802 83.0379 28.4802C82.2379 28.1802 82.038 27.0802 81.738 26.1802C81.438 25.2802 81.1379 24.3802 80.6379 23.5802C79.6379 23.5802 79.338 24.2802 78.738 24.8802C78.138 25.4802 77.538 25.6802 76.738 24.8802C75.338 23.3802 74.5379 21.5802 73.6379 19.7802C73.0379 18.6802 72.638 17.4802 71.438 16.7802C69.938 17.4802 69.1379 18.7802 68.0379 19.7802C67.1379 20.5802 66.338 21.4802 65.338 22.2802C63.838 23.5802 62.4379 23.4802 61.0379 22.1802C60.5379 21.6802 60.138 20.9802 59.438 20.7802C58.738 20.9802 58.4379 21.4802 58.1379 21.9802C57.4379 22.9802 56.638 23.8802 55.838 24.7802C53.838 26.9802 53.7379 26.9802 51.5379 24.7802C50.5379 23.6802 49.4379 23.7802 48.5379 25.0802C47.0379 27.3802 46.438 30.0802 45.238 32.4802C44.738 33.5802 44.238 34.5802 43.438 35.4802C42.638 36.2802 42.038 36.0802 41.438 35.2802C40.938 34.5802 40.4379 33.7802 40.1379 32.9802C39.9379 32.3802 39.6379 31.9802 39.1379 31.6802C37.7379 32.1802 37.938 33.5802 37.838 34.4802C37.338 38.2802 36.9379 42.0802 36.6379 45.8802C36.5379 47.0802 36.738 48.2802 36.938 49.4802C37.138 50.6802 38.538 51.7802 39.838 51.7802C42.438 51.8802 44.838 50.9802 47.238 50.1802C51.538 48.7802 55.638 46.9802 60.238 46.6802C62.238 46.5802 64.2379 46.3802 66.1379 46.5802C69.2379 46.8802 70.838 49.1802 71.738 51.9802C72.138 53.2802 72.6379 54.4802 73.0379 55.7802C74.1379 59.5802 76.8379 61.4802 80.6379 61.6802C83.8379 61.8802 85.9379 63.5802 87.6379 66.2802C89.5379 69.4802 90.2379 72.9802 91.5379 76.3802C91.8379 77.0802 91.738 78.3802 92.838 78.2802C93.938 78.1802 93.9379 77.0802 94.1379 76.1802C95.5379 70.4802 95.138 64.6802 94.438 58.8802C94.338 57.7802 94.1379 56.3802 92.6379 56.0802" stroke="#1F2E3A" stroke-width="2" stroke-miterlimit="10" stroke-linecap="round" stroke-linejoin="round"/>
<path d="M99.732 176.133C99.532 167.433 96.832 159.933 91.232 153.533C90.232 152.333 90.032 150.633 89.832 149.233C88.532 140.933 90.132 133.033 94.232 125.733C94.932 124.533 95.632 125.033 96.332 125.633C99.932 128.733 102.832 132.533 105.232 136.633C110.132 144.733 114.832 152.933 118.232 161.833C122.832 173.433 122.232 184.933 117.132 196.233C114.032 203.033 110.132 209.333 106.332 215.733C105.732 216.833 105.232 217.833 105.032 219.033C104.532 221.433 103.832 223.833 102.632 226.033C101.732 227.733 101.232 227.833 99.732 226.433C96.832 223.833 94.532 220.633 92.432 217.333C90.232 214.033 88.132 210.633 86.732 206.933C85.732 204.333 86.032 203.933 88.732 203.933C90.032 203.933 91.332 203.933 92.732 203.933C93.632 203.933 94.232 203.733 94.432 202.833C96.532 193.833 99.232 185.033 99.732 176.133Z" fill="white"/>
<path d="M53.4324 145.533C53.4324 146.233 53.5324 147.233 53.4324 148.133C53.2324 149.633 53.3324 151.333 51.2324 151.833C50.6324 151.933 50.2324 152.633 49.8324 153.133C44.6324 159.633 40.8324 166.833 39.0324 174.933C37.8324 180.333 39.0324 185.533 40.6324 190.633C41.6324 194.133 43.3324 197.433 43.9324 201.133C44.5324 204.633 44.1324 208.133 43.9324 211.633C43.9324 211.933 43.7324 212.333 43.6324 212.533C41.4324 215.433 41.4324 218.833 41.7324 222.133C42.0324 225.533 42.9324 228.833 44.2324 232.033C44.8324 233.533 45.7324 234.833 47.0324 235.833C47.4324 236.133 47.9324 236.433 47.6324 237.033C47.2324 237.533 46.7324 237.233 46.3324 237.033C45.0324 236.433 44.3324 235.333 43.7324 234.133C41.8324 230.633 40.7324 226.833 40.5324 222.933C40.3324 219.733 39.1324 217.533 37.0324 215.233C31.8324 209.333 27.3324 202.933 24.5324 195.433C19.4324 181.733 19.7324 168.333 26.2324 155.133C30.9324 145.633 36.6324 136.833 44.1324 129.133C46.2324 126.933 48.2324 127.133 49.9324 129.633C51.9324 132.633 52.8324 136.133 53.3324 139.733C53.2324 141.733 53.5324 143.533 53.4324 145.533Z" fill="white"/>
<path d="M95.2324 125.733C101.032 130.533 104.632 136.833 108.232 143.233C111.032 148.233 113.832 153.233 116.132 158.433C118.932 164.833 120.932 171.433 120.632 178.533C120.332 185.533 118.532 192.133 115.232 198.333C111.932 204.633 108.432 210.833 104.632 216.833" stroke="#1F2E3A" stroke-width="2" stroke-miterlimit="10" stroke-linecap="round" stroke-linejoin="round"/>
<path d="M46.6326 128.533C45.8326 128.333 45.4326 128.933 45.0326 129.333C39.7326 134.733 35.0326 140.733 31.1326 147.333C28.2326 152.233 25.6326 157.233 23.8326 162.633C20.7326 171.833 20.9326 181.033 23.3326 190.333C25.9326 200.433 31.7326 208.733 38.5326 216.433C39.0326 217.033 39.5326 217.633 40.3326 217.733" stroke="#1F2E3A" stroke-width="2" stroke-miterlimit="10" stroke-linecap="round" stroke-linejoin="round"/>
<path d="M91.9326 153.033C96.7326 158.733 99.4326 165.433 100.333 172.833C100.833 177.533 100.033 182.133 99.0326 186.633C97.7326 192.533 96.2326 198.433 94.7326 204.333" stroke="#1F2E3A" stroke-width="2" stroke-miterlimit="10" stroke-linecap="round" stroke-linejoin="round"/>
<path d="M52.5329 150.633C51.4329 150.733 50.6329 151.333 49.8329 152.133C45.4329 156.933 42.5328 162.633 40.1328 168.633C38.5328 172.533 37.5328 176.533 37.6328 180.833C37.7328 184.033 38.5329 187.233 39.5329 190.233C40.2329 192.433 40.5329 194.833 41.8329 196.833" stroke="#1F2E3A" stroke-width="2" stroke-miterlimit="10" stroke-linecap="round" stroke-linejoin="round"/>
<path d="M87.0322 205.033C87.3322 207.233 88.4322 209.233 89.5322 211.133C92.4322 216.133 95.3322 221.033 99.5322 225.033C100.132 225.633 100.732 226.133 101.332 226.733" stroke="#1F2E3A" stroke-width="2" stroke-miterlimit="10" stroke-linecap="round" stroke-linejoin="round"/>
<path d="M43.9328 211.633C42.5328 211.633 42.4328 212.833 41.9328 213.733C39.8328 217.733 40.5327 221.833 41.3327 225.933C41.8327 228.633 42.6328 231.233 43.9328 233.733C44.7328 235.233 45.6327 236.433 47.2327 237.033" stroke="#1F2E3A" stroke-width="2" stroke-miterlimit="10" stroke-linecap="round" stroke-linejoin="round"/>
</svg>
