<svg width="132" height="179" viewBox="0 0 132 179" fill="none" xmlns="http://www.w3.org/2000/svg">
<path d="M70.0999 231.191C69.8768 232.44 69.5323 233.678 69.4305 234.936C68.2815 246.124 66.759 257.397 66.5808 268.663C66.4499 280.855 66.6925 292.961 67.047 305.191C67.1902 309.462 67.3335 313.733 67.5981 318.013C67.6177 319.281 67.0676 320.042 65.9384 320.412C64.9399 320.676 64.0534 321.065 63.0641 321.215C53.068 322.479 43.4188 325.497 33.4135 326.875C31.5563 327.185 29.7082 327.381 27.8694 327.463C25.7787 327.639 25.1336 326.551 26.0097 324.78C26.5876 323.676 27.3992 322.705 28.3319 321.745C32.184 317.912 35.0744 313.887 35.9009 308.198C37.3966 298.765 39.2564 289.361 40.0332 279.754C41.3639 261.789 40.8466 244.02 37.1555 226.225C34.0827 211.357 32.494 196.264 31.3998 181.096C31.1733 177.855 31.3202 174.529 31.5884 171.212C32.7884 153.352 35.1926 135.704 40.2481 118.501C42.4361 111.08 45.3338 103.947 49.0623 97.1121C49.7708 95.9032 50.6851 95.1713 52.0754 94.5931C54.595 93.6457 59.9244 57.9845 63.0573 75.1329C69.7953 73.3755 91.6366 69.0894 97.072 72.8672C104.599 77.9653 95.2692 102.714 97.4881 111.527C98.7986 116.467 95.3446 125.949 95.9085 131.06C97.7977 148.479 98.455 166.029 99.5976 183.619C100.344 195.535 99.8768 207.354 100.026 219.107C100.217 237.886 100.054 256.521 102.448 275.247C103.866 286.413 106.021 297.523 108.307 308.528C108.738 310.75 109.579 312.43 111.158 314.054C113.418 316.309 115.53 318.897 117.66 321.256C118.221 321.877 118.893 322.622 118.334 323.498C117.784 324.259 116.98 323.618 116.243 323.674C113.928 323.602 111.753 323.311 109.438 323.239C102.997 322.833 96.8069 320.836 90.5613 319.525C88.8809 319.159 87.1729 319.136 85.3434 319.103C81.4324 319.132 80.6383 318.377 80.0755 314.763C77.9251 297.553 76.1385 280.372 73.7454 263.142C72.45 253.483 71.4065 243.729 70.6151 233.881C70.5585 233.07 70.3897 232.136 70.2118 231.316C70.3424 231.211 70.2212 231.201 70.0999 231.191Z" fill="#F5F5F5"/>
<path d="M51.1335 95.6681C49.3802 97.7134 48.4485 100.17 47.4049 102.503C42.2789 113.024 39.3003 124.18 37.0406 135.508C35.7853 141.968 34.6514 148.438 33.9937 155.061C33.67 159.064 32.9822 163.037 32.6493 167.154C31.9371 175.96 32.3357 184.626 33.3318 193.455C34.3279 202.284 35.324 211.113 36.8055 219.981C37.6491 224.654 38.7352 229.346 39.4482 234.123C40.5553 241.58 41.2892 249.121 41.5283 256.738C41.8632 267.701 40.9938 278.451 39.9938 289.305C39.447 294.556 38.5269 299.892 37.3733 305.094C36.6382 308.143 35.8941 311.306 35.6444 314.393C35.5426 315.651 35.0952 316.651 34.0504 317.488C31.4292 319.693 29.2654 322.281 27.2232 324.878C26.8221 325.306 26.4119 325.849 26.8418 326.574C27.2717 327.299 28.0276 327.015 28.6436 326.95C36.2784 326.186 43.7354 324.602 51.0894 322.779C54.9531 321.826 58.8917 321.453 62.7369 320.728C66.5728 320.118 66.5914 319.889 66.514 316.314C66.2749 308.697 66.1572 301.091 65.9181 293.474C65.5555 282.854 65.5568 272.264 66.0529 261.599C66.4853 253.231 67.4032 244.902 68.4424 236.583C68.8319 233.276 68.736 229.93 70.0871 226.816" stroke="#1F2E3A" stroke-width="2" stroke-miterlimit="10" stroke-linecap="round" stroke-linejoin="round"/>
<path d="M92.8081 116.535C94.4457 121.963 94.7297 127.511 95.2566 133.079C95.9441 141.192 97.1172 149.345 97.4314 157.543C97.8022 166.552 98.1823 175.446 98.6744 184.465C98.798 187.468 99.1642 190.49 99.2878 193.493C99.4206 196.382 99.3015 199.365 99.1916 202.234C98.9349 208.429 99.1729 214.549 99.2895 220.66C99.3114 224.92 99.0905 229.162 99.1124 233.423C99.0973 238.141 99.2127 242.755 99.4403 247.493C99.565 251.992 99.9417 256.397 100.188 260.906C100.529 267.265 101.485 273.558 102.321 279.842C103.222 286.821 104.245 293.811 105.893 300.62C106.717 304.025 107.298 307.41 108.001 310.806" stroke="#1F2E3A" stroke-width="2" stroke-miterlimit="10" stroke-linecap="round" stroke-linejoin="round"/>
<path d="M98.6878 83.1444C98.6878 89.0444 98.5878 95.2445 97.6878 101.444C97.4878 102.544 97.0878 103.144 95.9878 103.544C88.3878 106.044 80.5878 107.844 72.6878 108.544C64.7878 109.244 56.8878 109.644 49.0878 107.444C46.1878 106.644 44.4878 105.544 43.8878 102.044C42.1878 91.8445 40.8878 81.6444 40.6878 71.2444C40.5878 68.3444 40.7878 65.4445 40.9878 62.5445C41.0878 61.2445 40.5878 61.0445 39.3878 61.5445C34.4878 63.3445 29.2878 64.0444 24.0878 64.6444C22.3878 64.8444 21.5878 64.1445 21.3878 62.5445C20.4878 55.7445 21.0878 49.0444 23.8878 42.6444C27.1878 34.8444 31.7878 27.8444 37.9878 22.1444C42.5878 17.8444 47.7878 14.6444 53.9878 13.2444C59.0878 12.0444 64.2878 11.6444 69.4878 12.3444C76.6878 13.2444 81.9878 17.0445 85.4878 23.4445C90.0878 32.0445 93.2878 41.2444 95.4878 50.7444C97.7878 61.2444 98.8878 72.0444 98.6878 83.1444Z" fill="#F5F5F5"/>
<path d="M96.2875 102.445C96.5875 99.9446 96.9875 97.4446 97.1875 94.8446C97.6875 88.4446 97.3875 82.0446 97.3875 75.7446C97.3875 72.0446 96.7875 68.3446 96.4875 64.6446C95.8875 57.9446 94.4875 51.4447 92.7875 45.0447C91.7875 41.3447 90.2875 37.7446 88.9875 34.1446C87.2875 29.6446 85.3875 25.3446 82.6875 21.2446C79.5875 16.6446 75.1875 14.4447 69.9875 13.5447C66.4875 12.9447 63.0875 13.2447 59.5875 13.5447C55.7875 13.8447 52.2875 14.6446 48.8875 16.2446C44.5875 18.2446 40.6875 20.8446 37.3875 24.2446C32.6875 29.1446 28.8875 34.6446 25.9875 40.7446C22.9875 46.9446 21.6875 53.4446 22.3875 60.3446C22.6875 63.8446 22.6875 63.9446 25.9875 63.4446C30.1875 62.7446 34.3875 62.2446 38.3875 60.8446C38.8875 60.6446 39.3875 60.4446 39.8875 60.2446C41.3875 59.4446 41.9875 59.8446 41.9875 61.7446C41.9875 64.8446 41.8875 67.9446 41.8875 70.9446C41.8875 75.8446 42.4875 80.7446 42.7875 85.6446C43.0875 91.1446 44.4875 96.5446 45.1875 101.945C45.2875 102.845 45.5875 103.845 45.7875 104.745" stroke="#1F2E3A" stroke-width="2" stroke-miterlimit="10" stroke-linecap="round" stroke-linejoin="round"/>
<path d="M50.7 40C50.6 40 50.5 40 50.4 40C46.7 42.3 44.3 45.6 43 49.7" stroke="#1F2E3A" stroke-width="2" stroke-miterlimit="10" stroke-linecap="round" stroke-linejoin="round"/>
<path d="M69.8998 76.1999C69.2998 74.6999 68.0998 75.0998 67.0998 75.5998C64.4998 76.7998 62.2998 78.6998 60.2998 80.7998" stroke="#1F2E3A" stroke-width="2" stroke-miterlimit="10" stroke-linecap="round" stroke-linejoin="round"/>
<path d="M61.5998 45.0002C59.6998 44.9002 57.7998 44.6002 55.9998 45.2002C55.8998 45.2002 55.8998 45.3002 55.7998 45.3002L55.8998 45.4002" stroke="#1F2E3A" stroke-width="2" stroke-miterlimit="10" stroke-linecap="round" stroke-linejoin="round"/>
<path d="M50.5 56.2998C51.3284 56.2998 52 55.6282 52 54.7998C52 53.9714 51.3284 53.2998 50.5 53.2998C49.6716 53.2998 49 53.9714 49 54.7998C49 55.6282 49.6716 56.2998 50.5 56.2998Z" fill="#1F2E3A"/>
<path d="M61.1001 54.7998C61.9285 54.7998 62.6001 54.1282 62.6001 53.2998C62.6001 52.4714 61.9285 51.7998 61.1001 51.7998C60.2717 51.7998 59.6001 52.4714 59.6001 53.2998C59.6001 54.1282 60.2717 54.7998 61.1001 54.7998Z" fill="#1F2E3A"/>
<path d="M60.0001 1.2C62.4001 1.1 64.7001 1.6 66.9001 2.7C72.9001 5.6 78.1001 9.4 82.1001 14.8C83.6001 16.8 83.6001 16.8 84.7001 14.5C85.5001 12.8 86.2001 10.9 87.2001 9.3C87.6001 8.8 88.0001 8.2 88.4001 7.8C88.7001 7.4 89.1001 7 89.7001 7.3C90.3001 7.6 90.3001 8.2 90.2001 8.7C89.7001 10.4 89.2001 12.2 88.7001 13.9C88.6001 14.3 88.2001 14.8 88.6001 15.1C89.1001 15.6 89.5001 14.9 89.9001 14.8C90.5001 14.6 91.0001 14.4 91.6001 14.2C92.3001 14 93.1001 13.8 93.6001 14.5C94.1001 15.2 93.7001 15.9 93.3001 16.5C92.8001 17.2 92.3001 17.8 91.8001 18.5C90.5001 20.3 89.8001 22 91.1001 24.3C93.1001 27.9 93.5001 32.1 93.9001 36.1C94.4001 41 94.8001 46 96.0001 50.8C96.6001 53.2 95.6001 55.1 94.9001 57.1C94.6001 57.9 93.8001 57.8 93.2001 57.4C92.6001 57 92.2001 56.4 91.7001 55.8C91.1001 55 90.6001 54.2 89.3001 54.4C88.5001 54.5 88.1001 53.8 87.7001 53.2C87.1001 52.1 86.6001 50.9 85.9001 49.9C85.2001 48.8 84.6001 48.8 84.1001 50C83.6001 51.2 83.3001 52.4 83.0001 53.6C82.8001 54.3 82.8001 55.3 81.8001 55.3C80.8001 55.2 80.7001 54.3 80.6001 53.5C79.9001 49.3 79.2001 45.2 78.5001 41C78.0001 38 77.5001 35 76.6001 32.1C76.3001 31.2 76.1001 30.7 74.7001 30.8C72.9001 30.9 71.3001 31.1 69.8001 32C69.1001 32.4 68.3001 32.1 67.7001 31.5C67.2001 31 66.8001 30.5 66.4001 30C64.9001 28.2 64.1001 28 61.9001 29C59.4001 30.1 57.3001 31.7 55.1001 33.4C54.6001 33.8 54.1001 34.1 53.7001 34.5C52.9001 35 52.1001 35.7 51.1001 35.2C50.1001 34.7 50.3001 33.6 50.3001 32.7C50.3001 32.5 50.4001 32.3 50.3001 32C50.2001 31 51.0001 29.6 49.8001 28.9C48.8001 28.4 47.7001 29.4 46.8001 29.9C45.7001 30.6 44.6001 31.4 43.5001 32.1C42.9001 32.5 42.3001 32.8 41.7001 32.3C41.2001 31.8 41.3001 31.2 41.5001 30.6C42.2001 28.8 43.0001 26.9 43.7001 25.1C43.9001 24.6 44.3001 23.9 43.7001 23.4C43.2001 23 42.7001 23.5 42.2001 23.7C40.7001 24.3 39.3001 25.1 37.8001 25.5C36.9001 25.7 36.0001 25.8 35.3001 25C34.6001 24.2 35.1001 23.3 35.5001 22.5C36.6001 20.4 38.2001 18.6 39.5001 16.6C39.8001 16.1 40.4001 15.6 40.0001 15C39.6001 14.4 38.9001 14.9 38.3001 15C36.4001 15.4 34.4001 15.9 32.5001 16.3C31.9001 16.4 31.2001 16.6 30.9001 15.9C30.6001 15.2 31.1001 14.7 31.5001 14.3C36.5001 10.5 41.2001 6.6 46.6001 4C50.6001 2 55.2001 1.1 60.0001 1.2Z" fill="#F5F5F5"/>
<path d="M92.4 15.6001C92.3 16.0001 92.3 16.6001 92 16.9001C90.4 18.4001 89.7 20.4001 88.9 22.5001C91.2 25.1001 91.7 28.5001 92.4 31.8001C93.1 35.4001 93.3 39.1001 93.8 42.7001C94.1 45.5001 94.6 48.2001 95.3 51.0001C95.8 52.9001 95.1 54.7001 93.8 56.3001C92.8 56.4001 92.5 55.4001 92 54.8001C91.4 54.0001 90.8 53.3001 89.7 53.5001C88.8 53.6001 88.6 52.8001 88.2 52.2001C87.5 51.1001 87.2 49.7001 86.2 48.7001C85.3 47.7001 84.8 47.8001 84 48.9001C83.2 50.0001 83.3 51.5001 82 52.4001" stroke="#1F2E3A" stroke-width="2" stroke-miterlimit="10" stroke-linecap="round" stroke-linejoin="round"/>
<path d="M83.5999 19.2002C83.6999 18.4002 83.3999 17.7002 82.7999 17.0002C79.9999 13.5002 77.1999 10.0002 73.3999 7.50023C70.1999 5.30023 66.9999 3.00023 62.9999 2.20023C60.7999 1.80023 58.5999 2.00023 56.3999 2.10023C53.1999 2.20023 50.2999 3.60023 47.1999 4.30023C45.8999 4.60023 44.6999 5.60023 43.5999 6.40023C40.6999 8.50023 37.6999 10.6002 34.8999 12.8002C34.2999 13.3002 33.3999 13.7002 33.3999 14.8002" stroke="#1F2E3A" stroke-width="2" stroke-miterlimit="10" stroke-linecap="round" stroke-linejoin="round"/>
<path d="M74.7002 30.1001C76.3002 29.3001 76.4002 29.4001 77.2002 31.1001C78.1002 33.1001 78.4002 35.3001 78.8002 37.4001C79.4002 40.5001 80.0002 43.7001 80.4002 46.8001C80.6002 48.6001 80.6002 50.3001 81.6002 51.9001C82.1002 52.7001 81.8002 53.6001 81.9002 54.4001" stroke="#1F2E3A" stroke-width="2" stroke-miterlimit="10" stroke-linecap="round" stroke-linejoin="round"/>
<path d="M74.5999 30.6999C74.1999 30.0999 72.7999 29.4999 72.2999 29.8999C69.7999 31.9999 68.1999 30.9999 66.4999 28.7999C65.2999 27.1999 63.3999 27.5999 61.7999 28.2999C59.0999 29.4999 56.7999 31.1999 54.4999 33.0999C53.6999 33.6999 52.8999 34.4999 51.8999 34.5999" stroke="#1F2E3A" stroke-width="2" stroke-miterlimit="10" stroke-linecap="round" stroke-linejoin="round"/>
<path d="M51.8001 35.0002C50.6001 33.4002 51.6001 31.6002 51.5001 29.9002C51.4001 28.2002 50.6001 27.5002 49.0001 28.1002C48.0001 28.5002 47.1001 29.1002 46.2001 29.6002C45.0001 30.3002 43.8001 30.9002 42.6001 31.6002" stroke="#1F2E3A" stroke-width="2" stroke-miterlimit="10" stroke-linecap="round" stroke-linejoin="round"/>
<path d="M89.3999 7C89.5999 8 88.9999 8.7 88.5999 9.5C87.8999 11.2 86.8999 12.7 87.2999 14.8C87.5999 16.1 87.4999 17.6 86.8999 18.9" stroke="#1F2E3A" stroke-width="2" stroke-miterlimit="10" stroke-linecap="round" stroke-linejoin="round"/>
<path d="M86.9001 13.2998C85.9001 13.5998 85.5001 14.4998 85.1001 15.2998C84.7001 16.0998 84.3001 16.9998 83.6001 17.5998" stroke="#1F2E3A" stroke-width="2" stroke-miterlimit="10" stroke-linecap="round" stroke-linejoin="round"/>
<path d="M92.7003 15.3001C90.7003 14.8001 89.4003 16.3001 87.8003 16.9001" stroke="#1F2E3A" stroke-width="2" stroke-miterlimit="10" stroke-linecap="round" stroke-linejoin="round"/>
<path d="M43.1 31.1002C42.6 29.9002 43.2 28.9002 43.6 28.0002C44.2 26.9002 44.5 25.6002 45 24.5002C45.2 24.0002 45.5 23.2002 44.9 22.7002C44.4 22.3002 43.8 22.5002 43.3 22.7002C41.7 23.1002 40.5 24.2002 38.9 24.6002C38.6 24.7002 38.2 24.8002 37.9 24.9002C37.2 25.2002 36.7 25.0002 36.3 24.5002C35.8 24.0002 36.3 23.4002 36.5 23.1002C37.7 21.2002 39.1 19.3002 40.4 17.5002C41 16.6002 41.6 15.7002 41.3 14.5002C40.4 14.0002 39.6 14.3002 38.7 14.5002C37 14.8002 35.4 15.7002 33.6 15.2002C32.9 15.0002 32 15.1002 32 16.2002" stroke="#1F2E3A" stroke-width="2" stroke-miterlimit="10" stroke-linecap="round" stroke-linejoin="round"/>
<path d="M104.779 99.4962C104.779 103.196 104.879 106.796 104.779 110.496C104.679 112.396 105.179 113.796 106.679 115.196C112.279 120.696 117.279 126.696 121.379 133.496C123.979 137.796 126.079 142.296 126.979 147.296C127.579 150.996 127.779 154.596 126.579 158.196C126.079 159.796 125.279 161.196 123.879 162.096C120.379 164.196 116.679 166.196 112.379 165.996C110.979 165.896 110.779 166.296 111.279 167.596C112.579 171.396 113.779 175.296 114.979 179.196C115.679 181.296 115.379 181.596 113.179 181.496C112.879 181.496 112.479 181.496 112.179 181.596C102.079 183.796 91.8791 185.296 81.7791 187.896C77.5791 188.996 73.3791 190.096 69.1791 191.196C68.5791 191.396 68.1791 191.796 67.6791 192.096C66.6791 192.796 65.4791 193.196 64.3791 191.996C63.5791 191.096 62.2791 190.896 61.3791 190.296C57.6791 187.996 53.9791 185.796 50.7791 182.796C49.2791 181.396 47.7791 181.096 45.6791 181.796C39.5791 183.796 34.5791 187.696 29.7791 191.696C29.1791 192.196 28.7791 193.096 27.8791 192.596C26.8791 192.096 26.9791 191.096 27.0791 190.196C27.6791 183.096 27.779 175.996 27.979 168.896C27.979 167.596 28.5791 166.096 27.6791 165.196C26.8791 164.296 25.3791 165.196 24.1791 165.096C20.7791 165.096 17.579 164.296 14.479 162.796C9.87904 160.496 8.07909 156.396 7.27909 151.596C6.17909 145.496 8.47908 140.096 11.5791 134.996C13.3791 132.096 15.4791 129.296 18.3791 127.296C19.3791 126.596 18.8791 125.996 18.5791 125.296C16.2791 120.196 14.2791 114.896 12.3791 109.596C11.9791 108.596 11.6791 107.496 11.3791 106.396C10.8791 104.696 11.1791 104.196 12.8791 103.796C16.8791 102.796 20.7791 102.096 24.8791 101.696C31.2791 100.996 37.679 101.096 43.979 100.096C45.279 99.8961 46.1791 100.596 47.0791 101.496C50.2791 104.896 53.1791 108.596 56.5791 111.796C57.5791 112.696 58.579 113.596 59.479 114.496C61.079 116.096 62.7791 115.996 64.6791 114.896C68.6791 112.596 72.6791 110.196 76.6791 107.996C85.1791 103.296 93.6791 98.6962 102.579 94.7962C103.079 94.5962 103.479 94.3962 103.979 94.1962C105.079 93.6962 105.379 94.1962 105.279 95.1962C105.279 96.4962 105.279 97.8962 105.279 99.1962C105.079 99.4962 104.979 99.4962 104.779 99.4962Z" fill="#F5F5F5"/>
<path d="M106.579 95.0963C104.879 94.7963 103.479 95.8963 102.079 96.4963C94.6789 99.5963 87.6789 103.496 80.6789 107.296C75.3789 110.096 70.2789 113.196 65.0789 116.096C62.3789 117.696 61.4789 117.796 58.7789 115.696C54.6789 112.396 51.4789 108.296 47.8789 104.496C46.9789 103.496 46.1789 102.496 45.1789 101.696C44.2789 100.896 43.3789 101.896 42.4789 101.896C38.0789 102.096 33.6789 102.396 29.2789 102.696C24.4789 102.996 19.6789 103.796 14.8789 104.696C13.7789 104.896 12.8789 105.396 11.8789 105.596" stroke="#1F2E3A" stroke-width="2" stroke-miterlimit="10" stroke-linecap="round" stroke-linejoin="round"/>
<path d="M104.379 115.096C105.079 114.996 105.479 115.296 105.879 115.796C112.879 122.996 119.279 130.796 123.579 139.996C125.679 144.596 126.579 149.396 126.279 154.496C125.979 159.296 123.279 161.996 118.879 163.496C116.479 164.296 114.079 165.496 111.379 164.796C110.779 164.596 110.179 164.196 109.579 164.596" stroke="#1F2E3A" stroke-width="2" stroke-miterlimit="10" stroke-linecap="round" stroke-linejoin="round"/>
<path d="M20.3789 127.696C16.5789 129.196 14.5789 132.596 12.4789 135.796C10.2789 139.096 8.67887 142.796 8.17887 146.896C7.57887 152.596 9.57891 159.796 15.2789 162.196C19.1789 163.796 23.2789 164.996 27.5789 163.596C27.9789 163.496 28.3789 163.596 28.7789 163.596" stroke="#1F2E3A" stroke-width="2" stroke-miterlimit="10" stroke-linecap="round" stroke-linejoin="round"/>
<path d="M60.6791 117.596C59.9791 118.396 60.0791 119.396 60.1791 120.296C60.7791 125.296 61.3791 130.296 62.1791 135.296C62.8791 139.396 63.2791 143.596 64.0791 147.696C64.4791 149.396 64.4791 151.296 64.3791 152.996C64.2791 155.996 64.5791 158.996 64.8791 161.996C65.2791 166.896 65.1791 171.696 65.0791 176.496C64.8791 180.696 64.8791 184.896 64.7791 188.996C64.7791 189.296 64.6791 189.596 64.5791 189.796" stroke="#1F2E3A" stroke-width="2" stroke-miterlimit="10" stroke-linecap="round" stroke-linejoin="round"/>
<path d="M29.5792 157.196C29.8792 158.196 31.0792 158.596 31.2792 159.796C31.1792 159.896 31.0791 160.196 30.9791 160.196C28.6791 160.596 28.8791 162.396 28.9791 163.896C29.4791 169.896 28.5791 175.896 28.6791 181.896C28.6791 184.696 28.1791 187.596 28.4791 190.396C28.5791 190.996 27.9792 191.796 28.0792 192.596" stroke="#1F2E3A" stroke-width="2" stroke-miterlimit="10" stroke-linecap="round" stroke-linejoin="round"/>
<path d="M27.3791 141.196C25.5791 142.496 23.7791 143.896 22.0791 145.196C21.7791 145.396 21.5791 145.796 21.2791 145.796C17.9791 146.596 18.1791 149.396 18.1791 151.796C18.1791 155.196 19.7791 157.996 22.4791 160.096C23.0791 160.596 23.7791 160.896 24.6791 160.796C25.1791 160.696 25.2791 161.096 25.1791 161.496" stroke="#1F2E3A" stroke-width="2" stroke-miterlimit="10" stroke-linecap="round" stroke-linejoin="round"/>
<path d="M103.779 96.2964C103.879 96.8964 103.979 97.4964 103.979 98.0964C103.979 103.196 104.079 108.296 103.979 113.496C103.979 117.696 103.979 121.996 103.579 126.196C103.279 129.596 102.779 132.996 101.679 136.196C100.779 138.996 99.979 141.896 101.479 144.896" stroke="#1F2E3A" stroke-width="2" stroke-miterlimit="10" stroke-linecap="round" stroke-linejoin="round"/>
<path d="M49.2791 157.496C48.7791 164.296 49.579 171.096 49.479 177.896C49.479 178.596 49.679 179.296 49.179 179.896" stroke="#1F2E3A" stroke-width="2" stroke-miterlimit="10" stroke-linecap="round" stroke-linejoin="round"/>
<path d="M12.3789 105.796C13.1789 110.096 14.9789 114.096 16.5789 118.196C17.7789 121.396 18.9789 124.696 20.5789 127.696C22.3789 131.096 24.2789 134.496 25.9789 137.896C27.1789 140.296 28.6789 142.496 29.1789 145.196" stroke="#1F2E3A" stroke-width="2" stroke-miterlimit="10" stroke-linecap="round" stroke-linejoin="round"/>
<path d="M65.4792 191.896C65.4792 190.796 65.4792 190.196 63.9792 189.996C61.8792 189.696 60.0793 188.296 58.2793 187.096C55.3793 185.196 52.5793 183.196 50.0793 180.796C49.1793 179.896 48.1793 179.896 46.8793 180.296C40.8793 182.096 35.5793 185.096 31.0793 189.396C30.3793 189.996 29.6793 190.596 28.7793 190.696" stroke="#1F2E3A" stroke-width="2" stroke-miterlimit="10" stroke-linecap="round" stroke-linejoin="round"/>
<path d="M43.2793 102.096C44.7793 107.396 44.9793 112.996 46.2793 118.296C46.4793 118.996 46.7793 119.696 46.6793 120.496" stroke="#1F2E3A" stroke-width="2" stroke-miterlimit="10" stroke-linecap="round" stroke-linejoin="round"/>
<path d="M101.379 138.996C104.379 139.696 106.179 141.896 107.879 144.196C109.879 146.896 111.479 149.796 111.879 153.196" stroke="#1F2E3A" stroke-width="2" stroke-miterlimit="10" stroke-linecap="round" stroke-linejoin="round"/>
<path d="M103.579 158.696C101.979 158.696 101.779 158.996 101.679 160.496C101.679 161.296 101.379 162.096 101.379 162.796C101.379 163.096 101.779 163.396 102.079 163.696C104.279 163.396 104.979 161.096 106.779 160.096C108.379 162.096 109.179 164.296 109.779 166.696C111.179 171.496 112.779 176.196 114.279 180.896" stroke="#1F2E3A" stroke-width="2" stroke-miterlimit="10" stroke-linecap="round" stroke-linejoin="round"/>
<path d="M100.179 141.796C96.079 143.096 91.879 143.896 87.679 144.496C87.379 144.496 87.179 144.596 86.979 144.796" stroke="#1F2E3A" stroke-width="2" stroke-miterlimit="10" stroke-linecap="round" stroke-linejoin="round"/>
<path d="M103.779 144.996C101.579 144.596 99.8793 145.696 98.0793 146.796C97.1793 147.396 96.6793 148.296 96.5793 149.296C96.4793 150.496 96.9793 151.096 98.2793 151.096C99.5793 151.196 100.979 151.496 101.979 150.196" stroke="#1F2E3A" stroke-width="2" stroke-miterlimit="10" stroke-linecap="round" stroke-linejoin="round"/>
<path d="M53.6792 145.796C56.8792 148.096 60.2792 150.096 63.9792 151.396" stroke="#1F2E3A" stroke-width="2" stroke-miterlimit="10" stroke-linecap="round" stroke-linejoin="round"/>
<path d="M30.0791 149.696C31.4791 150.596 32.9791 149.896 34.3791 150.196C34.8791 150.296 35.3791 150.196 35.8791 150.496C36.8791 150.996 36.6791 151.296 36.0791 151.896C35.4791 152.496 34.4791 152.596 34.0791 153.396" stroke="#1F2E3A" stroke-width="2" stroke-miterlimit="10" stroke-linecap="round" stroke-linejoin="round"/>
<path d="M35.5789 155.396C34.9789 156.196 33.8789 156.496 33.0789 156.496C31.1789 156.496 29.2789 157.196 27.3789 156.896" stroke="#1F2E3A" stroke-width="2" stroke-miterlimit="10" stroke-linecap="round" stroke-linejoin="round"/>
<path d="M37.0792 155.196C36.2792 155.196 35.4792 155.296 34.8792 154.496C34.0792 153.196 32.7792 153.596 31.6792 153.696C30.6792 153.796 29.6792 154.196 28.6792 154.196" stroke="#1F2E3A" stroke-width="2" stroke-miterlimit="10" stroke-linecap="round" stroke-linejoin="round"/>
<path d="M28.8789 142.696C29.3789 142.796 29.7789 142.196 30.3789 142.496C31.9789 143.396 33.6789 143.196 35.3789 142.996" stroke="#1F2E3A" stroke-width="2" stroke-miterlimit="10" stroke-linecap="round" stroke-linejoin="round"/>
<path d="M25.0791 147.396C26.8791 145.596 31.1791 144.796 33.8791 145.996C31.8791 147.796 30.0791 149.696 27.3791 150.196" stroke="#1F2E3A" stroke-width="2" stroke-miterlimit="10" stroke-linecap="round" stroke-linejoin="round"/>
<path d="M112.079 159.096C111.679 159.696 111.179 160.396 110.779 160.996C110.279 161.896 109.379 162.196 108.779 162.796" stroke="#1F2E3A" stroke-width="2" stroke-miterlimit="10" stroke-linecap="round" stroke-linejoin="round"/>
<path d="M100.179 151.496C99.9791 152.396 99.3791 153.196 98.7791 153.796C98.1791 154.396 97.8791 155.196 97.5791 155.996C97.9791 156.496 98.6791 156.496 99.2791 156.796" stroke="#1F2E3A" stroke-width="2" stroke-miterlimit="10" stroke-linecap="round" stroke-linejoin="round"/>
<path d="M102.879 155.196C101.079 155.196 99.4789 156.496 99.1789 158.196C98.9789 159.196 99.0789 160.096 100.479 159.696C100.779 159.596 101.079 159.696 101.279 159.696" stroke="#1F2E3A" stroke-width="2" stroke-miterlimit="10" stroke-linecap="round" stroke-linejoin="round"/>
</svg>
