<svg width="313" height="336" viewBox="0 0 313 336" fill="none" xmlns="http://www.w3.org/2000/svg">
<path d="M50.7369 326.033C49.2199 321.102 52.2539 318.195 57.0578 315.287C68.1826 308.713 79.1809 301.634 88.1566 292.026C101.43 277.741 111.797 261.686 117.107 242.723C117.612 240.953 118.244 240.447 120.014 241.332C128.61 245.251 137.46 248.665 146.815 250.561C150.355 251.319 153.641 252.963 156.549 255.112C159.457 257.261 161.1 260.042 160.721 263.708C160.089 269.144 159.709 274.58 158.572 280.016C157.687 284.315 158.192 286.843 162.491 288.613C170.329 291.773 177.914 295.692 186.005 298.094C189.165 298.979 192.325 299.738 195.612 300.243C196.371 300.37 197.382 300.623 197.888 299.738C198.393 298.853 197.761 298.094 197.256 297.462C195.107 294.302 192.831 291.268 190.682 288.107C188.912 285.579 188.533 283.05 189.797 279.89C193.21 271.546 195.107 262.823 195.486 253.721C196.245 238.045 189.544 228.058 174.248 221.358C168.938 219.083 163.502 217.313 158.066 215.417C156.296 214.785 155.79 213.9 156.043 212.003C157.181 205.05 157.56 197.971 157.939 190.891C159.077 170.285 156.296 150.058 152.124 129.831C150.86 123.763 149.47 117.569 147.953 111.501C146.941 107.708 144.666 105.306 141.632 103.663C129.116 97.2153 116.854 97.9739 105.223 106.065C103.58 107.202 102.442 108.972 100.546 109.857C99.7871 110.236 99.7872 111.248 99.6608 112.133C95.8682 128.946 92.0755 145.76 90.0528 162.953C89.0415 171.676 87.5245 180.272 87.9038 189.121C88.283 197.086 87.6511 205.05 85.502 212.635C79.8131 233.621 69.8259 252.331 55.2878 268.639C48.2083 276.603 39.8649 283.05 31.7741 289.877C30.3835 291.015 28.6135 291.52 27.4757 292.911C26.7172 293.922 26.0851 294.934 26.2115 296.072C26.7172 299.991 27.4759 303.783 29.8779 306.943C36.4516 315.54 42.8988 324.263 48.3348 333.744C48.714 334.376 49.0933 335.261 49.9783 335.008C50.9896 334.756 50.7369 333.744 50.7369 332.986C50.7369 330.963 50.7369 328.94 50.7369 326.033Z" fill="white"/>
<path d="M100.925 109.984C99.9135 115.925 98.27 121.741 97.1323 127.682C95.236 137.922 92.8338 148.036 91.5697 158.402C90.4319 167.125 89.4206 175.721 88.7885 184.444C88.6621 186.973 88.7886 189.374 89.1678 191.776C89.5471 193.926 88.7886 195.948 88.5357 197.971C88.0301 201.89 88.0299 205.935 87.145 209.854C85.7544 216.554 83.226 222.749 80.8241 229.07C75.2617 243.482 67.0447 256.376 57.0577 268.007C51.4953 274.58 44.9215 280.269 38.0949 285.579C35.3137 287.728 32.7852 290.256 29.7512 292.153C26.7171 294.049 26.5908 295.692 27.6021 299.864C28.487 303.783 30.8891 306.691 33.0382 309.598C37.8421 315.919 42.5195 322.367 46.5649 329.193C47.0706 330.078 47.576 330.963 48.5874 331.342" stroke="#1F2E3A" stroke-width="2" stroke-miterlimit="10" stroke-linecap="round" stroke-linejoin="round"/>
<path d="M117.612 239.31C125.703 242.596 133.667 246.389 142.264 248.285C146.309 249.17 150.481 250.055 154.147 252.204C159.836 255.491 162.49 257.893 161.479 266.363C160.847 271.293 160.594 276.224 159.583 281.154C158.951 284.567 159.457 285.832 162.617 287.222C169.697 290.256 176.523 293.67 183.855 296.071C187.395 297.209 191.061 298.094 194.727 298.853C195.612 299.106 196.75 298.6 197.888 298.979" stroke="#1F2E3A" stroke-width="2" stroke-miterlimit="10" stroke-linecap="round" stroke-linejoin="round"/>
<path d="M145.551 107.708C147.953 113.776 149.47 120.097 150.481 126.544C151.366 131.98 152.757 137.163 153.642 142.599C154.906 150.185 155.664 157.896 156.423 165.481C157.055 171.929 157.434 178.249 157.182 184.697C156.802 194.305 156.423 203.786 154.906 213.267C154.906 213.647 154.653 214.026 154.527 214.279" stroke="#1F2E3A" stroke-width="2" stroke-miterlimit="10" stroke-linecap="round" stroke-linejoin="round"/>
<path d="M123.428 205.935C121.784 216.681 120.267 227.3 117.36 237.919C115.337 245.504 112.935 252.836 109.395 259.789C104.591 269.397 98.5232 278.246 91.6966 286.464C82.7209 297.083 71.5959 305.047 59.9654 312.379C57.0578 314.149 54.1503 315.919 51.2427 317.815C50.4842 318.321 49.9784 318.827 49.852 320.091C49.4727 323.757 50.1048 327.55 48.9671 331.216C48.5878 332.227 49.4728 333.238 49.5992 334.376" stroke="#1F2E3A" stroke-width="2" stroke-miterlimit="10" stroke-linecap="round" stroke-linejoin="round"/>
<path d="M150.734 214.026C153.641 213.773 155.917 215.416 158.445 216.301C163.755 218.071 169.064 219.841 174.121 222.117C182.97 226.036 190.303 231.598 193.337 241.459C194.98 246.768 195.107 252.204 194.348 257.767C193.21 266.11 191.441 274.454 187.901 282.165C187.522 283.05 187.648 283.682 188.027 284.694C189.544 288.739 192.452 291.9 194.854 295.439C195.486 296.451 196.118 297.336 196.497 298.347" stroke="#1F2E3A" stroke-width="2" stroke-miterlimit="10" stroke-linecap="round" stroke-linejoin="round"/>
<path d="M94.4176 89.1444C94.4176 95.0444 94.5176 101.244 95.4176 107.444C95.6176 108.544 96.0176 109.144 97.1176 109.544C104.718 112.044 112.518 113.844 120.418 114.544C128.318 115.244 136.218 115.644 144.018 113.444C146.918 112.644 148.618 111.544 149.218 108.044C150.918 97.8445 152.218 87.6444 152.418 77.2444C152.518 74.3444 152.318 71.4445 152.118 68.5445C152.018 67.2445 152.518 67.0445 153.718 67.5445C158.618 69.3445 163.818 70.0444 169.018 70.6444C170.718 70.8444 171.518 70.1445 171.718 68.5445C172.618 61.7445 172.018 55.0444 169.218 48.6444C165.918 40.8444 161.318 33.8444 155.118 28.1444C150.518 23.8444 145.318 20.6444 139.118 19.2444C134.018 18.0444 128.818 17.6444 123.618 18.3444C116.418 19.2444 111.118 23.0445 107.618 29.4445C103.018 38.0445 99.8176 47.2444 97.6176 56.7444C95.3176 67.2444 94.2176 78.0444 94.4176 89.1444Z" fill="white"/>
<path d="M96.8179 108.444C96.5179 105.944 96.1179 103.444 95.9179 100.844C95.4179 94.4444 95.7179 88.0444 95.7179 81.7444C95.7179 78.0444 96.3179 74.3444 96.6179 70.6444C97.2179 63.9444 98.6179 57.4444 100.318 51.0444C101.318 47.3444 102.818 43.7444 104.118 40.1444C105.818 35.6444 107.718 31.3444 110.418 27.2444C113.518 22.6444 117.918 20.4444 123.118 19.5444C126.618 18.9444 130.018 19.2444 133.518 19.5444C137.318 19.8444 140.818 20.6444 144.218 22.2444C148.518 24.2444 152.418 26.8444 155.718 30.2444C160.418 35.1444 164.218 40.6444 167.118 46.7444C170.118 52.9444 171.418 59.4444 170.718 66.3444C170.418 69.8444 170.418 69.9444 167.118 69.4444C162.918 68.7444 158.718 68.2444 154.718 66.8444C154.218 66.6444 153.718 66.4444 153.218 66.2444C151.718 65.4444 151.118 65.8444 151.118 67.7444C151.118 70.8444 151.218 73.9444 151.218 76.9444C151.218 81.8444 150.618 86.7444 150.318 91.6444C150.018 97.1444 148.618 102.544 147.918 107.944C147.818 108.844 147.518 109.844 147.318 110.744" stroke="#1F2E3A" stroke-width="2" stroke-miterlimit="10" stroke-linecap="round" stroke-linejoin="round"/>
<path d="M111.399 76.6495C111.399 84.9495 120.299 92.4495 127.999 90.8495C130.299 90.3495 132.399 89.3495 133.699 87.3495C134.199 86.6495 134.699 86.3496 135.599 86.5496C137.499 86.8496 139.299 86.6495 140.999 85.6495C141.499 85.3495 142.099 84.9496 141.799 84.2496C141.499 83.4496 140.799 83.5495 140.099 83.8495C137.499 84.8495 134.799 84.5496 132.399 83.4496C125.899 80.3496 120.199 76.1496 114.799 71.4496C113.899 70.6496 112.999 70.7496 112.499 71.9496C111.999 73.4496 111.299 75.0495 111.399 76.6495Z" fill="white"/>
<path d="M112.999 76.9497C112.199 78.2497 112.899 79.5497 113.399 80.7497C115.499 85.9497 119.399 89.0497 124.899 89.9497C126.699 90.2497 128.399 89.8497 130.099 88.7497C131.499 87.7497 133.199 87.2497 133.699 85.3497" stroke="#1F2E3A" stroke-width="2" stroke-miterlimit="10" stroke-linecap="round" stroke-linejoin="round"/>
<path d="M114.099 72.5496C117.599 75.0496 121.199 77.4496 124.599 79.9496C127.399 82.0496 130.399 83.5496 133.499 85.0496C134.699 85.6496 138.599 85.4495 140.099 84.8495C140.499 84.6495 140.899 84.5495 141.299 84.3495" stroke="#1F2E3A" stroke-width="2" stroke-miterlimit="10" stroke-linecap="round" stroke-linejoin="round"/>
<path d="M113.799 72.0496C114.299 72.5496 113.699 72.7496 113.499 73.0496C112.199 74.8496 112.399 75.9495 114.199 77.3495C117.299 79.9495 120.299 82.5496 123.599 84.9496C124.999 85.9496 126.399 86.7495 127.899 87.3495C128.699 87.6495 129.299 88.1496 129.999 88.5496" stroke="#1F2E3A" stroke-width="2" stroke-miterlimit="10" stroke-linecap="round" stroke-linejoin="round"/>
<path d="M125.799 51.3495C127.099 50.2495 128.699 49.8495 130.399 50.0495" stroke="#1F2E3A" stroke-width="2" stroke-miterlimit="10" stroke-linecap="round" stroke-linejoin="round"/>
<path d="M142.599 51.2495C144.099 51.9495 145.199 52.9495 145.099 54.7495" stroke="#1F2E3A" stroke-width="2" stroke-miterlimit="10" stroke-linecap="round" stroke-linejoin="round"/>
<path d="M139.799 60.1494C138.971 60.1494 138.299 59.4778 138.299 58.6494C138.299 57.821 138.971 57.1494 139.799 57.1494C140.628 57.1494 141.299 57.821 141.299 58.6494C141.299 59.4778 140.628 60.1494 139.799 60.1494Z" fill="#1F2E3A"/>
<path d="M129.199 58.6494C128.371 58.6494 127.699 57.9778 127.699 57.1494C127.699 56.321 128.371 55.6494 129.199 55.6494C130.028 55.6494 130.699 56.321 130.699 57.1494C130.699 57.9778 130.028 58.6494 129.199 58.6494Z" fill="#1F2E3A"/>
<path d="M94.8304 42.9386C95.0304 46.1386 94.5305 49.4386 95.9305 52.5386C96.4305 53.5386 96.8304 54.1386 98.1304 53.8386C99.7304 53.4386 101.53 53.6386 103.13 53.8386C104.93 54.1386 106.03 53.4386 106.73 51.9386C107.23 51.0386 107.63 50.3386 108.83 50.3386C109.53 50.3386 110.03 49.8386 110.33 49.2386C110.83 48.2386 111.23 47.2386 111.43 46.1386C111.73 44.5386 111.93 43.0386 114.03 42.7386C115.13 42.5386 115.23 41.2386 115.33 40.2386C115.43 39.2386 115.63 38.3386 116.83 37.9386C117.73 37.6386 117.73 36.6386 117.93 35.8386C118.13 34.9386 118.13 34.0386 118.73 33.2386C119.63 31.9386 120.73 31.4386 122.33 31.3386C132.83 30.4386 143.33 30.4386 153.63 32.8386C154.53 33.0386 155.33 33.2386 155.93 34.2386C156.43 35.0386 159.13 34.6386 159.73 33.7386C160.13 33.0386 160.73 32.7386 161.33 32.3386C165.33 30.0386 168.73 27.0386 171.43 23.2386C172.63 21.5386 173.53 19.7386 173.93 17.7386C174.63 14.1386 173.23 11.7386 169.73 10.5386C165.33 9.03858 160.83 9.4386 156.33 10.3386C151.33 11.2386 146.43 12.5386 141.63 14.1386C140.43 14.5386 139.63 14.3386 138.73 13.4386C137.33 11.8386 135.83 10.4386 134.23 9.13859C126.13 2.93859 111.33 2.93858 103.53 14.4386C97.7304 23.1386 94.3304 32.4386 94.8304 42.9386Z" fill="white"/>
<path d="M97.0302 51.6385C96.0302 50.8385 95.7301 49.9385 95.7301 48.6385C95.7301 44.7385 95.2301 40.8385 95.7301 36.9385C96.2301 32.8385 97.0301 28.8385 98.7301 25.0385C100.93 19.8385 103.73 14.9385 107.83 11.0385C111.33 7.63854 115.53 6.13853 120.33 5.93853C127.83 5.53853 133.73 8.53855 138.53 14.1385C138.93 14.6385 139.03 15.1385 139.33 15.6385" stroke="#1F2E3A" stroke-width="2" stroke-miterlimit="10" stroke-linecap="round" stroke-linejoin="round"/>
<path d="M100.33 52.1386C99.4304 53.2386 99.4305 53.2387 97.1305 52.2387C97.7305 50.5387 98.8304 49.0386 99.7304 47.5386C103.13 42.0386 107.73 37.4387 112.53 33.2387C115.03 31.0387 117.23 28.6387 120.03 26.8387C122.73 25.0387 125.43 23.1386 128.33 21.4386C135.03 17.4386 142.13 14.6387 149.63 12.8387C153.23 11.9387 156.83 11.0387 160.53 10.7387C163.73 10.4387 166.831 10.4386 169.931 11.5386C173.731 12.8386 174.23 16.1386 172.83 19.4386C170.73 24.5386 166.83 28.0386 162.33 31.0386C161.13 31.8386 159.83 32.3387 158.83 33.3387C158.33 33.7387 157.53 33.7386 157.03 33.4386C153.63 31.4386 149.83 31.1387 146.13 30.7387C141.83 30.2387 137.43 30.0386 133.13 30.0386C129.03 30.0386 124.931 30.3387 120.931 30.8387C118.431 31.1387 118.03 32.2386 117.83 33.9386C117.73 34.6386 117.63 35.2386 117.53 35.9386C117.43 36.5386 117.331 37.2387 116.431 37.2387C115.431 37.3387 115.13 37.9387 115.13 38.8387C115.13 39.5387 114.93 40.2386 114.83 40.9386C114.73 41.6386 114.43 42.3386 113.53 42.1386C112.13 41.9386 111.83 42.8386 111.53 43.9386C111.23 45.1386 110.83 46.3386 110.53 47.5386C110.13 48.9386 109.531 49.9387 107.931 49.7387C107.331 49.6387 107.131 50.1386 106.931 50.5386C106.631 51.1386 106.231 51.6387 105.931 52.2387C105.631 52.8387 105.23 53.1386 104.63 53.0386C103.33 52.9386 102.03 52.7386 100.63 52.5386" stroke="#1F2E3A" stroke-width="2" stroke-miterlimit="10" stroke-linecap="round" stroke-linejoin="round"/>
<path d="M17.7398 19.5168C16.6398 18.2168 15.7398 17.1168 14.7398 16.1168C14.0398 15.4168 13.2399 14.7168 12.1399 15.1168C11.0399 15.6168 11.1399 16.7168 11.0399 17.7168C10.9399 19.0168 11.6398 20.1168 11.8398 21.7168C10.5398 20.8168 9.63986 20.0168 8.63986 19.4168C7.93986 18.9168 7.03984 18.4168 6.23984 19.1168C5.33984 19.8168 5.73986 20.8168 6.13986 21.7168C6.63986 22.8168 7.13981 23.8168 7.83981 25.3168C6.73981 24.8168 5.93986 24.4168 5.13986 24.2168C3.93986 23.8168 2.73984 23.6168 1.73984 24.7168C0.739838 25.8168 0.839789 27.0168 1.43979 28.2168C2.43979 30.5168 4.23981 32.3168 5.83981 34.1168C10.6398 39.3168 14.0399 45.4168 17.6399 51.4168C21.1399 57.3168 24.9399 63.0168 28.6399 68.8168C31.5399 73.4168 33.9398 78.3168 36.8398 82.9168C42.8398 92.6168 49.8399 101.417 57.5399 109.717C63.3399 116.017 69.2398 122.117 76.2398 127.117C81.6398 131.017 87.1398 134.517 93.9398 135.517C94.1398 135.517 94.3398 135.517 94.4398 135.617C95.8398 137.617 96.7399 136.017 97.5399 135.117C100.94 131.317 102.74 126.817 103.84 121.817C104.74 117.217 105.04 112.717 104.44 108.017C104.24 106.717 103.94 106.217 102.54 106.817C100.04 107.817 97.5399 107.317 95.1399 106.617C88.3399 104.517 82.6399 100.417 77.6399 95.5168C69.0399 87.0168 62.2399 77.2168 55.6399 67.1168C51.2399 60.4168 47.1398 53.5168 42.3398 47.0168C41.9398 46.4168 41.7399 45.8168 41.6399 45.2168C40.1399 37.9168 39.1399 30.6168 38.1399 23.2168C38.0399 22.3168 37.7399 21.5168 37.5399 20.7168C37.1399 19.7168 36.5398 18.8168 35.3398 18.8168C34.0398 18.8168 33.1399 19.5168 32.6399 20.7168C31.7399 23.0168 31.6398 25.4168 31.4398 27.8168C31.4398 28.6168 31.8399 29.8168 31.0399 30.0168C30.1399 30.2168 29.9399 29.0168 29.6399 28.3168C28.4399 26.2168 27.3398 24.0168 26.2398 21.9168C25.2398 19.9168 23.9398 18.1168 22.2398 16.7168C21.4398 16.0168 20.5398 15.3168 19.4398 15.7168C18.2398 16.1168 18.4398 17.3168 18.3398 18.2168C17.9398 18.7168 17.8398 18.9168 17.7398 19.5168Z" fill="white"/>
<path d="M233.04 59.8168C232.64 58.8168 233.14 57.9168 233.04 57.0168C232.94 56.1168 232.94 55.0168 231.84 54.7168C230.84 54.5168 230.24 55.2168 229.74 55.9168C229.14 56.8168 228.54 57.7168 227.94 58.7168C227.94 58.8168 227.74 58.8168 227.34 58.9168C227.34 57.3168 227.34 55.8168 227.34 54.3168C227.34 53.3168 227.44 52.0168 226.04 51.8168C224.74 51.6168 224.04 52.6168 223.54 53.5168C221.94 56.5168 220.94 59.8168 219.94 63.1168C219.64 64.0168 219.34 64.9168 218.94 66.1168C218.14 64.9168 218.24 63.8168 218.14 62.7168C217.94 61.5168 217.84 60.3168 217.44 59.1168C216.94 57.5168 215.84 57.2168 214.64 58.4168C213.24 59.8168 212.74 61.6168 212.64 63.5168C212.54 68.1168 212.24 72.6168 212.04 77.2168C211.94 78.8168 211.54 80.1168 210.54 81.3168C198.54 96.5168 183.54 107.017 164.24 110.617C161.24 111.217 158.34 112.017 155.34 112.217C153.54 112.317 143.405 113.2 143.105 115C142.305 120.6 151.84 126.117 153.74 131.417C154.04 132.317 154.54 132.617 155.44 132.517C176.54 132.117 195.54 125.917 211.74 112.017C219.34 105.517 225.44 97.8168 229.84 88.8168C232.14 84.1168 234.84 79.7168 237.34 75.1168C239.04 72.1168 240.44 69.1168 241.04 65.6168C241.14 64.8168 241.14 64.0168 240.94 63.1168C240.54 61.4168 239.94 61.0168 238.44 61.8168C237.74 62.1168 237.44 62.2168 237.54 61.3168C237.64 60.1168 238.14 58.6168 236.64 57.9168C235.14 57.3168 234.14 58.4168 233.24 59.5168C233.24 59.7168 233.24 59.7168 233.04 59.8168Z" fill="white"/>
<path d="M12.04 29.9167C10.34 26.8167 7.13994 26.1168 4.33994 24.8168C3.43994 24.4168 2.83996 24.6167 2.23996 25.2167C1.53996 25.8167 1.53996 26.8168 1.73996 27.5168C2.13996 28.8168 2.83994 30.0168 3.83994 31.0168C10.1399 37.1168 14.3399 44.8167 18.8399 52.2167C21.5399 56.7167 24.14 61.2167 27.24 65.4167C29.14 67.9167 30.3399 70.8168 31.8399 73.5168C36.6399 81.9168 41.7399 90.1167 47.8399 97.6167C51.2399 101.817 54.7399 105.817 58.3399 109.817C61.2399 113.017 64.3399 116.217 67.4399 119.117C73.0399 124.417 79.14 129.217 86.24 132.517C88.84 133.717 91.34 134.617 94.14 134.917C94.94 135.017 95.8399 135.017 95.4399 136.217" stroke="#1F2E3A" stroke-width="2" stroke-miterlimit="10" stroke-linecap="round" stroke-linejoin="round"/>
<path d="M237.24 63.7169C237.84 63.7169 238.24 63.3169 238.74 62.9169C239.74 62.1169 240.34 62.3169 240.54 63.7169C240.74 65.0169 240.44 66.4169 240.04 67.7169C238.84 71.6169 236.64 75.0169 234.84 78.6169C232.14 83.9169 229.34 89.1169 226.34 94.2169C221.24 102.917 214.24 110.017 206.14 115.817C199.14 120.817 191.54 124.717 183.34 127.317C176.54 129.517 169.64 131.017 162.44 131.417C160.04 131.517 157.74 131.617 155.34 131.817C154.64 131.917 154.44 132.017 154.54 132.717" stroke="#1F2E3A" stroke-width="2" stroke-miterlimit="10" stroke-linecap="round" stroke-linejoin="round"/>
<path d="M31.0401 32.1169C32.2401 30.2169 31.9401 28.1169 32.0401 26.1169C32.1401 24.3169 32.3401 22.6169 33.0401 21.0169C33.3401 20.3169 33.94 19.4169 34.94 19.5169C35.84 19.6169 36.2401 20.4169 36.6401 21.3169C37.3401 22.9169 37.3401 24.7169 37.5401 26.4169C38.2401 32.3169 39.4401 38.1169 40.2401 43.9169C40.5401 46.0169 41.4401 47.6169 42.5401 49.1169C46.5401 54.5169 50.0401 60.3169 53.7401 66.0169C58.4401 73.3169 63.2401 80.5169 68.8401 87.3169C72.6401 91.9169 76.6401 96.2169 81.2401 100.017C85.4401 103.517 90.1401 106.217 95.5401 107.617C97.9401 108.317 100.24 108.117 102.64 107.917C103.04 107.917 102.94 107.517 102.94 107.217" stroke="#1F2E3A" stroke-width="2" stroke-miterlimit="10" stroke-linecap="round" stroke-linejoin="round"/>
<path d="M218.24 68.3167C217.54 67.3167 217.34 66.1167 217.44 64.9167C217.54 63.2167 217.14 61.5167 216.84 59.8167C216.74 59.3167 216.54 58.8167 215.94 58.6167C214.34 59.5167 213.84 60.9167 213.54 62.6167C213.14 64.6167 213.24 66.7167 213.24 68.7167C213.24 70.8167 213.34 73.0167 212.94 75.1167C212.84 75.6167 212.74 76.3167 212.94 76.7167C213.54 78.3167 212.84 79.7167 211.94 80.8167C204.34 90.5167 195.64 99.0167 184.44 104.617C177.34 108.117 169.84 110.317 162.14 111.917C159.24 112.517 150.105 114 146.105 114" stroke="#1F2E3A" stroke-width="2" stroke-miterlimit="10" stroke-linecap="round" stroke-linejoin="round"/>
<path d="M217.74 71.3167C217.94 69.9167 218.14 68.6167 219.04 67.4167C220.14 65.7167 220.44 63.5167 221.04 61.5167C221.74 59.2167 222.54 56.8167 223.64 54.7167C224.54 53.1167 224.54 53.1167 226.14 52.6167C226.54 56.8167 226.94 60.8167 225.24 64.7167" stroke="#1F2E3A" stroke-width="2" stroke-miterlimit="10" stroke-linecap="round" stroke-linejoin="round"/>
<path d="M20.8402 26.8168C20.6402 26.3168 20.5402 25.7168 20.1402 25.3168C18.2402 23.1168 18.6402 20.4168 18.7402 17.9168C18.7402 16.6168 19.8402 16.1168 20.8402 16.9168C23.0402 18.6168 24.6402 20.8168 25.8402 23.3168C26.9402 25.6168 28.2402 27.9167 29.4402 30.2167C29.7402 30.7167 30.0402 31.2168 30.4402 31.5168C31.2402 32.2168 31.4403 33.0168 31.0403 34.0168" stroke="#1F2E3A" stroke-width="2" stroke-miterlimit="10" stroke-linecap="round" stroke-linejoin="round"/>
<path d="M226.84 60.9167C228.04 60.5167 228.34 59.3167 228.94 58.4167C229.44 57.7167 229.84 57.0167 230.24 56.2167C230.54 55.6167 231.04 55.4168 231.54 55.6168C231.94 55.8168 232.34 56.3167 232.24 56.9167C231.74 59.5167 232.54 62.4168 230.84 64.8168C230.34 65.5168 230.14 66.4168 230.14 67.3168" stroke="#1F2E3A" stroke-width="2" stroke-miterlimit="10" stroke-linecap="round" stroke-linejoin="round"/>
<path d="M18.1396 21.3169C16.8396 20.7169 16.5396 19.3169 15.6396 18.3169C15.1396 17.8169 14.8396 17.2169 14.3396 16.7169C13.7396 16.1169 13.0396 15.5169 12.2396 15.9169C11.4396 16.3169 11.7396 17.3169 11.7396 18.0169C11.7396 18.9169 11.9396 19.7169 12.3396 20.5169C12.8396 21.4169 13.0396 22.3169 12.6396 23.3169" stroke="#1F2E3A" stroke-width="2" stroke-miterlimit="10" stroke-linecap="round" stroke-linejoin="round"/>
<path d="M8.73962 26.4169C8.83962 25.5169 8.53958 24.7169 7.93958 23.9169C7.33958 23.1169 6.73965 22.2169 6.63965 21.1169C6.63965 20.6169 6.33958 20.1169 6.93958 19.8169C7.43958 19.5169 7.73965 19.9169 8.13965 20.0169C9.03965 20.2169 9.43965 21.0169 10.1396 21.5169C12.4396 23.1169 14.5396 24.9169 15.6396 27.6169" stroke="#1F2E3A" stroke-width="2" stroke-miterlimit="10" stroke-linecap="round" stroke-linejoin="round"/>
<path d="M236.24 58.1167C237.14 59.3167 236.64 60.7167 236.84 62.0167C237.24 64.9167 235.04 66.8167 234.54 69.3167" stroke="#1F2E3A" stroke-width="2" stroke-miterlimit="10" stroke-linecap="round" stroke-linejoin="round"/>
<path d="M236.04 58.7168C235.04 58.8168 234.44 59.4168 233.94 60.3168C233.54 60.9168 233.04 61.3168 232.44 61.6168" stroke="#1F2E3A" stroke-width="2" stroke-miterlimit="10" stroke-linecap="round" stroke-linejoin="round"/>
<path d="M143.737 326.033C142.22 321.102 145.254 318.195 150.058 315.287C161.183 308.713 172.181 301.634 181.157 292.026C194.43 277.741 204.797 261.686 210.107 242.723C210.612 240.953 211.244 240.447 213.014 241.332C221.61 245.251 230.46 248.665 239.815 250.561C243.355 251.319 246.641 252.963 249.549 255.112C252.457 257.261 254.1 260.042 253.721 263.708C253.089 269.144 252.709 274.58 251.572 280.016C250.687 284.315 251.192 286.843 255.491 288.613C263.329 291.773 270.914 295.692 279.005 298.094C282.165 298.979 285.325 299.738 288.612 300.243C289.371 300.37 290.382 300.623 290.888 299.738C291.393 298.853 290.761 298.094 290.256 297.462C288.107 294.302 285.831 291.268 283.682 288.107C281.912 285.579 281.533 283.05 282.797 279.89C286.21 271.546 288.107 262.823 288.486 253.721C289.245 238.045 282.544 228.058 267.248 221.358C261.938 219.083 256.502 217.313 251.066 215.417C249.296 214.785 248.79 213.9 249.043 212.003C250.181 205.05 250.56 197.971 250.939 190.891C252.077 170.285 249.296 150.058 245.124 129.831C243.86 123.763 242.47 117.569 240.953 111.501C239.941 107.708 237.666 105.306 234.632 103.663C222.116 97.2153 209.854 97.9739 198.223 106.065C196.58 107.202 195.442 108.972 193.546 109.857C192.787 110.236 192.787 111.248 192.661 112.133C188.868 128.946 185.076 145.76 183.053 162.953C182.041 171.676 180.525 180.272 180.904 189.121C181.283 197.086 180.651 205.05 178.502 212.635C172.813 233.621 162.826 252.331 148.288 268.639C141.208 276.603 132.865 283.05 124.774 289.877C123.384 291.015 121.613 291.52 120.476 292.911C119.717 293.922 119.085 294.934 119.212 296.072C119.717 299.991 120.476 303.783 122.878 306.943C129.452 315.54 135.899 324.263 141.335 333.744C141.714 334.376 142.093 335.261 142.978 335.008C143.99 334.756 143.737 333.744 143.737 332.986C143.737 330.963 143.737 328.94 143.737 326.033Z" fill="white"/>
<path d="M193.925 109.984C192.913 115.925 191.27 121.741 190.132 127.682C188.236 137.922 185.834 148.036 184.57 158.402C183.432 167.125 182.421 175.721 181.789 184.444C181.662 186.973 181.789 189.374 182.168 191.776C182.547 193.926 181.789 195.948 181.536 197.971C181.03 201.89 181.03 205.935 180.145 209.854C178.754 216.554 176.226 222.749 173.824 229.07C168.262 243.482 160.045 256.376 150.058 268.007C144.495 274.58 137.921 280.269 131.095 285.579C128.314 287.728 125.785 290.256 122.751 292.153C119.717 294.049 119.591 295.692 120.602 299.864C121.487 303.783 123.889 306.691 126.038 309.598C130.842 315.919 135.519 322.367 139.565 329.193C140.071 330.078 140.576 330.963 141.587 331.342" stroke="#1F2E3A" stroke-width="2" stroke-miterlimit="10" stroke-linecap="round" stroke-linejoin="round"/>
<path d="M210.612 239.31C218.703 242.596 226.667 246.389 235.264 248.285C239.309 249.17 243.481 250.055 247.147 252.204C252.836 255.491 255.49 257.893 254.479 266.363C253.847 271.293 253.594 276.224 252.583 281.154C251.951 284.567 252.457 285.832 255.617 287.222C262.697 290.256 269.523 293.67 276.855 296.071C280.395 297.209 284.061 298.094 287.727 298.853C288.612 299.106 289.75 298.6 290.888 298.979" stroke="#1F2E3A" stroke-width="2" stroke-miterlimit="10" stroke-linecap="round" stroke-linejoin="round"/>
<path d="M238.551 107.708C240.953 113.776 242.47 120.097 243.481 126.544C244.366 131.98 245.757 137.163 246.642 142.599C247.906 150.185 248.664 157.896 249.423 165.481C250.055 171.929 250.434 178.249 250.182 184.697C249.802 194.305 249.423 203.786 247.906 213.267C247.906 213.647 247.653 214.026 247.527 214.279" stroke="#1F2E3A" stroke-width="2" stroke-miterlimit="10" stroke-linecap="round" stroke-linejoin="round"/>
<path d="M216.428 205.935C214.784 216.681 213.267 227.3 210.36 237.919C208.337 245.504 205.935 252.836 202.395 259.789C197.591 269.397 191.523 278.246 184.697 286.464C175.721 297.083 164.596 305.047 152.965 312.379C150.058 314.149 147.15 315.919 144.243 317.815C143.484 318.321 142.978 318.827 142.852 320.091C142.473 323.757 143.105 327.55 141.967 331.216C141.588 332.227 142.473 333.238 142.599 334.376" stroke="#1F2E3A" stroke-width="2" stroke-miterlimit="10" stroke-linecap="round" stroke-linejoin="round"/>
<path d="M243.734 214.026C246.641 213.773 248.917 215.416 251.445 216.301C256.755 218.071 262.064 219.841 267.121 222.117C275.97 226.036 283.303 231.598 286.337 241.459C287.98 246.768 288.107 252.204 287.348 257.767C286.21 266.11 284.441 274.454 280.901 282.165C280.522 283.05 280.648 283.682 281.027 284.694C282.544 288.739 285.452 291.9 287.854 295.439C288.486 296.451 289.118 297.336 289.497 298.347" stroke="#1F2E3A" stroke-width="2" stroke-miterlimit="10" stroke-linecap="round" stroke-linejoin="round"/>
<path d="M187.418 89.1444C187.418 95.0444 187.518 101.244 188.418 107.444C188.618 108.544 189.018 109.144 190.118 109.544C197.718 112.044 205.518 113.844 213.418 114.544C221.318 115.244 229.218 115.644 237.018 113.444C239.918 112.644 241.618 111.544 242.218 108.044C243.918 97.8445 245.218 87.6444 245.418 77.2444C245.518 74.3444 245.318 71.4445 245.118 68.5445C245.018 67.2445 245.518 67.0445 246.718 67.5445C251.618 69.3445 256.818 70.0444 262.018 70.6444C263.718 70.8444 264.518 70.1445 264.718 68.5445C265.618 61.7445 265.018 55.0444 262.218 48.6444C258.918 40.8444 254.318 33.8444 248.118 28.1444C243.518 23.8444 238.318 20.6444 232.118 19.2444C227.018 18.0444 221.818 17.6444 216.618 18.3444C209.418 19.2444 204.118 23.0445 200.618 29.4445C196.018 38.0445 192.818 47.2444 190.618 56.7444C188.318 67.2444 187.218 78.0444 187.418 89.1444Z" fill="white"/>
<path d="M189.818 108.444C189.518 105.944 189.118 103.444 188.918 100.844C188.418 94.4444 188.718 88.0444 188.718 81.7444C188.718 78.0444 189.318 74.3444 189.618 70.6444C190.218 63.9444 191.618 57.4444 193.318 51.0444C194.318 47.3444 195.818 43.7444 197.118 40.1444C198.818 35.6444 200.718 31.3444 203.418 27.2444C206.518 22.6444 210.918 20.4444 216.118 19.5444C219.618 18.9444 223.018 19.2444 226.518 19.5444C230.318 19.8444 233.818 20.6444 237.218 22.2444C241.518 24.2444 245.418 26.8444 248.718 30.2444C253.418 35.1444 257.218 40.6444 260.118 46.7444C263.118 52.9444 264.418 59.4444 263.718 66.3444C263.418 69.8444 263.418 69.9444 260.118 69.4444C255.918 68.7444 251.718 68.2444 247.718 66.8444C247.218 66.6444 246.718 66.4444 246.218 66.2444C244.718 65.4444 244.118 65.8444 244.118 67.7444C244.118 70.8444 244.218 73.9444 244.218 76.9444C244.218 81.8444 243.618 86.7444 243.318 91.6444C243.018 97.1444 241.618 102.544 240.918 107.944C240.818 108.844 240.518 109.844 240.318 110.744" stroke="#1F2E3A" stroke-width="2" stroke-miterlimit="10" stroke-linecap="round" stroke-linejoin="round"/>
<path d="M215.105 82.2163C219.005 85.1163 223.605 84.9163 228.105 84.7163C229.405 84.6163 230.705 83.9163 232.005 83.4163" stroke="#1F2E3A" stroke-width="2" stroke-miterlimit="10" stroke-linecap="round" stroke-linejoin="round"/>
<path d="M217.906 49.7162C220.506 47.2162 223.806 46.9162 227.206 47.0162" stroke="#1F2E3A" stroke-width="2" stroke-miterlimit="10" stroke-linecap="round" stroke-linejoin="round"/>
<path d="M215.906 58.0162C219.106 56.9162 222.106 57.0162 224.806 59.2162" stroke="#1F2E3A" stroke-width="2" stroke-miterlimit="10" stroke-linecap="round" stroke-linejoin="round"/>
<path d="M235.605 48.9161C236.605 48.7161 237.505 49.2161 238.305 49.8161C239.905 50.9161 241.505 51.9161 242.905 53.3161C243.205 53.6161 243.605 53.9161 244.105 53.8161" stroke="#1F2E3A" stroke-width="2" stroke-miterlimit="10" stroke-linecap="round" stroke-linejoin="round"/>
<path d="M232.406 59.0161C235.106 58.5161 237.506 58.8161 239.306 61.0161" stroke="#1F2E3A" stroke-width="2" stroke-miterlimit="10" stroke-linecap="round" stroke-linejoin="round"/>
<path d="M209.197 13.7168C209.297 9.11679 207.396 5.41677 203.496 2.81677C199.696 0.316767 195.397 0.316767 191.297 3.31677C183.997 8.71677 179.497 15.9168 178.797 25.2168C178.297 32.0168 182.896 38.5168 189.496 40.5168C190.796 40.9168 190.397 41.6168 190.097 42.4168C188.897 45.4168 187.997 48.5168 187.597 51.8168C187.297 54.3168 187.297 56.8168 188.197 59.3168C188.797 60.7168 189.597 61.3168 191.197 61.0168C197.997 59.6168 204.696 57.9168 209.996 53.2168C216.896 47.2168 221.996 39.9168 224.396 30.9168C224.996 28.5168 225.097 28.5168 227.197 29.9168C229.197 31.2168 231.097 32.5168 233.097 33.8168C237.997 37.2168 243.596 37.8168 249.396 37.3168C249.796 37.3168 250.297 37.2168 250.697 37.1168C253.397 36.9168 253.497 36.8168 252.597 34.2168C251.497 31.1168 249.697 28.4168 247.597 25.9168C243.197 20.7168 238.197 16.2168 231.597 13.8168C224.297 11.1168 217.196 11.2168 210.496 15.8168C210.096 16.1168 209.697 16.6168 209.197 16.2168C208.797 15.9168 208.996 15.4168 208.996 15.0168C209.196 14.6168 209.197 14.1168 209.197 13.7168Z" fill="white"/>
<path d="M224.997 28.0169C223.797 29.7169 223.597 31.9169 222.897 33.8169C221.297 38.5169 218.797 42.5169 215.697 46.3169C213.697 48.8169 211.497 51.0169 209.097 53.1169C205.797 56.0169 201.797 57.4169 197.697 58.7169C195.497 59.4169 193.197 59.8169 190.897 60.4169C190.297 60.5169 189.797 60.4169 189.397 59.6169C188.897 58.5169 188.497 57.5169 188.397 56.3169C187.997 48.1169 191.097 41.0169 195.197 34.2169C197.497 30.3169 200.297 26.8169 203.297 23.5169C204.897 21.7169 206.597 19.8169 208.497 18.3169C211.597 15.9169 214.997 13.8169 219.097 13.2169C224.397 12.3169 229.397 13.5169 234.097 15.6169C238.297 17.5169 241.897 20.5169 244.997 24.0169C247.497 26.7169 249.797 29.6169 251.397 32.9169C251.597 33.3169 251.797 33.8169 251.897 34.2169C252.397 35.9169 252.197 36.3169 250.397 36.5169C246.397 37.0169 242.397 37.0169 238.497 35.7169C235.597 34.7169 233.097 32.9169 230.597 31.3169C228.797 30.1169 227.197 28.5169 224.997 28.0169" fill="white"/>
<path d="M224.997 28.0169C223.797 29.7169 223.597 31.9169 222.897 33.8169C221.297 38.5169 218.797 42.5169 215.697 46.3169C213.697 48.8169 211.497 51.0169 209.097 53.1169C205.797 56.0169 201.797 57.4169 197.697 58.7169C195.497 59.4169 193.197 59.8169 190.897 60.4169C190.297 60.5169 189.797 60.4169 189.397 59.6169C188.897 58.5169 188.497 57.5169 188.397 56.3169C187.997 48.1169 191.097 41.0169 195.197 34.2169C197.497 30.3169 200.297 26.8169 203.297 23.5169C204.897 21.7169 206.597 19.8169 208.497 18.3169C211.597 15.9169 214.997 13.8169 219.097 13.2169C224.397 12.3169 229.397 13.5169 234.097 15.6169C238.297 17.5169 241.897 20.5169 244.997 24.0169C247.497 26.7169 249.797 29.6169 251.397 32.9169C251.597 33.3169 251.797 33.8169 251.897 34.2169C252.397 35.9169 252.197 36.3169 250.397 36.5169C246.397 37.0169 242.397 37.0169 238.497 35.7169C235.597 34.7169 233.097 32.9169 230.597 31.3169C228.797 30.1169 227.197 28.5169 224.997 28.0169" stroke="#1F2E3A" stroke-width="2" stroke-miterlimit="10" stroke-linecap="round" stroke-linejoin="round"/>
<path d="M208.597 17.8169C208.297 16.9169 208.297 16.117 208.397 15.217C209.297 9.61695 205.797 3.91695 200.297 2.21695C196.797 1.11695 193.697 2.31693 191.097 4.41693C185.497 8.81693 181.597 14.5169 179.997 21.5169C178.097 29.9169 181.197 35.5169 188.597 39.6169C189.497 40.1169 190.697 39.8169 191.597 40.4169" fill="white"/>
<path d="M208.597 17.8169C208.297 16.9169 208.297 16.117 208.397 15.217C209.297 9.61695 205.797 3.91695 200.297 2.21695C196.797 1.11695 193.697 2.31693 191.097 4.41693C185.497 8.81693 181.597 14.5169 179.997 21.5169C178.097 29.9169 181.197 35.5169 188.597 39.6169C189.497 40.1169 190.697 39.8169 191.597 40.4169" stroke="#1F2E3A" stroke-width="2" stroke-miterlimit="10" stroke-linecap="round" stroke-linejoin="round"/>
<path d="M304.073 123.751C304.273 122.051 304.373 120.651 303.773 119.251C303.073 117.551 301.973 117.351 300.773 118.751C299.873 119.751 299.073 120.951 298.273 122.051C298.073 121.951 297.973 121.951 297.973 121.851C296.773 118.851 294.773 119.451 292.673 121.951C291.773 123.051 291.573 124.451 291.173 125.851C290.873 127.051 290.573 128.251 290.373 129.451C290.173 130.651 289.973 131.851 289.773 133.051C288.973 132.951 288.973 132.251 288.673 131.851C287.873 130.351 287.073 128.951 285.673 127.851C284.173 126.651 282.773 126.951 281.673 128.451C279.173 131.851 279.773 135.351 281.073 138.951C281.773 140.951 281.573 141.551 279.573 142.451C277.273 143.451 275.073 143.251 272.773 142.551C265.873 140.451 261.073 135.651 257.273 129.851C254.473 125.551 252.473 120.851 250.473 116.151C249.373 113.551 247.773 111.251 245.973 109.151C244.573 107.551 243.373 107.251 241.373 108.051C235.273 110.251 231.473 115.551 231.273 122.251C231.173 123.751 231.273 125.251 231.273 126.751C231.273 127.351 231.273 127.951 230.973 128.551C230.573 129.451 230.273 130.051 229.273 128.851C228.073 127.451 226.673 127.651 225.673 129.351C223.773 132.551 223.473 136.251 223.273 139.851C223.173 141.251 223.073 142.651 223.273 144.051C223.573 146.251 222.373 147.451 220.673 148.451C219.373 149.251 217.873 149.551 216.373 149.751C208.173 150.851 200.773 149.351 194.373 143.851C190.173 140.251 188.973 132.951 191.973 128.651C192.673 127.751 193.473 127.051 194.573 126.751C198.673 125.551 203.273 119.151 203.173 114.951C203.073 110.251 197.273 105.451 192.673 106.051C186.873 106.751 182.073 109.651 177.673 113.351C171.373 118.651 167.473 125.351 166.973 133.751C166.573 140.651 169.173 146.351 173.573 151.451C178.073 156.651 183.773 160.151 190.073 162.751C196.973 165.751 204.073 168.451 211.673 168.951C223.073 169.651 233.173 166.651 240.773 157.551C241.573 156.651 242.073 155.651 242.273 154.451C242.473 153.151 243.273 152.151 243.973 151.051C244.473 150.251 244.973 150.451 245.473 151.151C246.573 152.351 247.173 153.851 248.373 155.051C252.273 159.051 257.273 160.751 262.473 161.651C274.573 163.651 285.973 161.351 296.373 154.851C299.873 152.651 302.573 149.851 304.173 145.951C305.873 141.951 308.873 138.751 310.573 134.851C311.073 133.551 311.773 132.351 311.973 130.951C312.473 128.351 311.573 127.151 309.073 126.751C308.673 126.651 308.573 126.551 308.673 126.251C308.773 125.851 308.773 125.451 308.873 125.151C309.073 124.351 308.973 123.551 308.373 123.051C307.673 122.451 306.873 122.751 306.173 123.051C305.373 122.951 304.773 123.251 304.073 123.751Z" fill="white"/>
<path d="M239.573 144.951C241.173 144.351 242.973 143.951 244.473 142.851C245.273 142.251 246.173 142.951 245.873 143.951C245.373 145.751 245.273 147.651 243.773 148.951C242.273 150.351 241.273 152.051 240.773 154.151C239.973 156.951 237.673 158.751 235.573 160.651C231.673 164.251 226.973 166.051 221.873 166.951C218.473 167.551 214.873 168.051 211.373 167.651C205.973 167.051 200.773 165.651 195.673 163.651C189.773 161.351 183.973 158.951 178.973 154.951C173.673 150.751 169.573 145.451 168.173 138.751C167.173 133.951 167.973 129.251 169.973 124.751C173.073 117.651 178.473 112.651 185.273 109.251C187.473 108.151 189.773 107.251 192.273 106.951C193.273 106.851 194.473 106.551 195.273 107.551" stroke="#1F2E3A" stroke-width="2" stroke-miterlimit="10" stroke-linecap="round" stroke-linejoin="round"/>
<path d="M307.473 128.551C307.773 128.351 308.173 128.251 308.473 128.051C308.873 127.551 309.473 127.351 309.973 127.551C310.573 127.851 310.873 128.451 310.873 129.151C310.973 131.351 309.873 133.151 308.973 134.951C307.873 137.051 306.873 139.251 305.173 140.951C303.973 142.151 303.673 143.851 302.973 145.351C300.973 149.451 297.873 152.451 293.973 154.551C289.373 157.051 284.573 159.151 279.473 160.051C275.273 160.851 270.973 161.151 266.573 160.751C262.173 160.351 257.973 159.351 253.873 157.551C251.273 156.451 249.473 154.351 247.673 152.251C246.573 150.951 245.673 149.551 244.673 148.251" stroke="#1F2E3A" stroke-width="2" stroke-miterlimit="10" stroke-linecap="round" stroke-linejoin="round"/>
<path d="M229.872 133.551C230.372 131.751 229.072 130.551 228.172 129.251C227.772 128.651 227.172 128.751 226.672 129.351C225.272 131.051 224.972 133.151 224.572 135.251C224.072 138.051 224.172 140.951 224.172 143.751C224.172 146.951 223.172 148.251 219.972 149.651C218.172 150.451 216.172 150.751 214.272 150.951C206.172 151.751 199.072 149.451 192.872 144.151C189.272 141.051 187.672 133.851 189.772 129.551C190.772 127.451 192.272 125.251 195.072 124.851" stroke="#1F2E3A" stroke-width="2" stroke-miterlimit="10" stroke-linecap="round" stroke-linejoin="round"/>
<path d="M242.573 108.551C243.773 108.451 244.473 109.151 245.273 110.051C248.073 113.351 249.673 117.151 251.273 121.051C254.073 127.551 257.673 133.551 262.973 138.251C266.573 141.451 270.873 143.551 275.673 144.251C277.773 144.551 279.873 143.651 281.673 142.351C282.173 141.951 282.473 141.351 283.173 141.151" stroke="#1F2E3A" stroke-width="2" stroke-miterlimit="10" stroke-linecap="round" stroke-linejoin="round"/>
<path d="M236.873 137.951C237.673 135.751 237.973 133.351 239.873 131.751C240.573 131.151 240.573 130.151 241.173 129.351C241.673 128.851 241.973 128.451 242.673 128.551C243.473 128.751 243.472 129.451 243.472 130.051C243.572 131.251 243.172 132.351 242.972 133.551C242.472 136.851 241.972 140.051 240.472 143.051C240.372 143.351 240.273 143.851 240.573 144.251" stroke="#1F2E3A" stroke-width="2" stroke-miterlimit="10" stroke-linecap="round" stroke-linejoin="round"/>
<path d="M286.273 143.651C282.873 141.351 281.373 138.051 280.973 134.151C280.773 132.151 281.373 130.351 282.673 128.851C283.473 127.851 284.373 127.951 285.173 128.651C286.273 129.651 287.073 130.951 287.673 132.351C288.173 133.451 288.773 134.651 289.773 135.451C290.873 134.651 290.773 133.451 290.973 132.351C291.373 129.551 291.973 126.751 292.773 123.951C293.273 122.351 294.373 121.451 295.773 120.851C298.073 123.451 297.273 126.151 296.373 128.751" stroke="#1F2E3A" stroke-width="2" stroke-miterlimit="10" stroke-linecap="round" stroke-linejoin="round"/>
<path d="M297.672 124.451C299.172 123.551 299.472 121.751 300.672 120.551C301.172 119.951 301.472 119.251 302.372 119.051C303.572 120.351 303.172 121.951 302.972 123.451C302.872 124.251 302.872 125.051 303.172 125.751" stroke="#1F2E3A" stroke-width="2" stroke-miterlimit="10" stroke-linecap="round" stroke-linejoin="round"/>
<path d="M307.173 123.551C305.173 123.751 303.973 125.151 302.873 126.651C301.973 127.851 301.673 129.351 301.073 130.751" stroke="#1F2E3A" stroke-width="2" stroke-miterlimit="10" stroke-linecap="round" stroke-linejoin="round"/>
<path d="M307.373 122.851C307.873 124.251 307.173 125.551 307.273 126.851C307.373 129.451 305.973 131.251 304.873 133.351" stroke="#1F2E3A" stroke-width="2" stroke-miterlimit="10" stroke-linecap="round" stroke-linejoin="round"/>
<path d="M233.573 135.551C233.373 133.051 234.873 131.251 235.973 129.251C236.273 128.751 236.773 127.951 237.573 128.251C238.373 128.551 238.273 129.351 238.273 130.051C238.273 130.951 238.273 131.751 238.973 132.351" stroke="#1F2E3A" stroke-width="2" stroke-miterlimit="10" stroke-linecap="round" stroke-linejoin="round"/>
<path d="M234.073 131.551C233.273 130.851 233.473 129.751 232.573 128.851C231.973 128.551 231.373 129.051 231.073 129.951C230.873 130.651 230.573 131.251 229.873 131.651" stroke="#1F2E3A" stroke-width="2" stroke-miterlimit="10" stroke-linecap="round" stroke-linejoin="round"/>
</svg>
