<svg width="321" height="336" viewBox="0 0 321 336" fill="none" xmlns="http://www.w3.org/2000/svg">
<path d="M270.368 326.033C271.885 321.102 268.851 318.195 264.047 315.287C252.922 308.713 241.924 301.634 232.948 292.026C219.674 277.741 209.308 261.686 203.998 242.723C203.493 240.953 202.861 240.447 201.091 241.332C192.495 245.251 183.645 248.665 174.29 250.561C170.75 251.319 167.464 252.963 164.556 255.112C161.648 257.261 160.005 260.042 160.384 263.708C161.016 269.144 161.396 274.58 162.533 280.016C163.418 284.315 162.913 286.843 158.614 288.613C150.776 291.773 143.191 295.692 135.1 298.094C131.94 298.979 128.78 299.738 125.493 300.243C124.734 300.37 123.723 300.623 123.217 299.738C122.711 298.853 123.344 298.094 123.849 297.462C125.998 294.302 128.274 291.268 130.423 288.107C132.193 285.579 132.572 283.05 131.308 279.89C127.895 271.546 125.998 262.823 125.619 253.721C124.86 238.045 131.561 228.058 146.857 221.358C152.167 219.083 157.603 217.313 163.039 215.417C164.809 214.785 165.315 213.9 165.062 212.003C163.924 205.05 163.545 197.971 163.166 190.891C162.028 170.285 164.809 150.058 168.981 129.831C170.245 123.763 171.635 117.569 173.152 111.501C174.164 107.708 176.439 105.306 179.473 103.663C191.989 97.2153 204.251 97.9739 215.882 106.065C217.525 107.202 218.663 108.972 220.559 109.857C221.318 110.236 221.318 111.248 221.444 112.133C225.237 128.946 229.029 145.76 231.052 162.953C232.063 171.676 233.58 180.272 233.201 189.121C232.822 197.086 233.454 205.05 235.603 212.635C241.292 233.621 251.279 252.331 265.817 268.639C272.897 276.603 281.24 283.05 289.331 289.877C290.721 291.015 292.491 291.52 293.629 292.911C294.388 293.922 295.02 294.934 294.893 296.072C294.388 299.991 293.629 303.783 291.227 306.943C284.653 315.54 278.206 324.263 272.77 333.744C272.391 334.376 272.012 335.261 271.127 335.008C270.115 334.756 270.368 333.744 270.368 332.986C270.368 330.963 270.368 328.94 270.368 326.033Z" fill="white"/>
<path d="M220.18 109.984C221.191 115.925 222.834 121.741 223.972 127.682C225.869 137.922 228.271 148.036 229.535 158.402C230.673 167.125 231.684 175.721 232.316 184.444C232.442 186.973 232.316 189.374 231.937 191.776C231.557 193.926 232.316 195.948 232.569 197.971C233.074 201.89 233.075 205.935 233.959 209.854C235.35 216.554 237.878 222.749 240.28 229.07C245.843 243.482 254.06 256.376 264.047 268.007C269.609 274.58 276.183 280.269 283.01 285.579C285.791 287.728 288.319 290.256 291.353 292.153C294.387 294.049 294.514 295.692 293.502 299.864C292.617 303.783 290.215 306.691 288.066 309.598C283.262 315.919 278.585 322.367 274.54 329.193C274.034 330.078 273.528 330.963 272.517 331.342" stroke="#1F2E3A" stroke-width="2" stroke-miterlimit="10" stroke-linecap="round" stroke-linejoin="round"/>
<path d="M203.493 239.31C195.402 242.596 187.437 246.389 178.841 248.285C174.796 249.17 170.624 250.055 166.958 252.204C161.269 255.491 158.614 257.893 159.625 266.363C160.257 271.293 160.51 276.224 161.522 281.154C162.154 284.567 161.648 285.832 158.487 287.222C151.408 290.256 144.582 293.67 137.249 296.071C133.71 297.209 130.043 298.094 126.377 298.853C125.492 299.106 124.355 298.6 123.217 298.979" stroke="#1F2E3A" stroke-width="2" stroke-miterlimit="10" stroke-linecap="round" stroke-linejoin="round"/>
<path d="M175.554 107.708C173.152 113.776 171.635 120.097 170.624 126.544C169.739 131.98 168.349 137.163 167.464 142.599C166.2 150.185 165.441 157.896 164.683 165.481C164.05 171.929 163.671 178.249 163.924 184.697C164.303 194.305 164.682 203.786 166.2 213.267C166.2 213.647 166.452 214.026 166.579 214.279" stroke="#1F2E3A" stroke-width="2" stroke-miterlimit="10" stroke-linecap="round" stroke-linejoin="round"/>
<path d="M197.678 205.935C199.321 216.681 200.838 227.3 203.746 237.919C205.769 245.504 208.171 252.836 211.71 259.789C216.514 269.397 222.582 278.246 229.409 286.464C238.385 297.083 249.51 305.047 261.14 312.379C264.048 314.149 266.955 315.919 269.863 317.815C270.621 318.321 271.127 318.827 271.254 320.091C271.633 323.757 271.001 327.55 272.138 331.216C272.518 332.227 271.633 333.238 271.506 334.376" stroke="#1F2E3A" stroke-width="2" stroke-miterlimit="10" stroke-linecap="round" stroke-linejoin="round"/>
<path d="M170.371 214.026C167.463 213.773 165.188 215.416 162.659 216.301C157.35 218.071 152.04 219.841 146.983 222.117C138.134 226.036 130.802 231.598 127.768 241.459C126.124 246.768 125.998 252.204 126.756 257.767C127.894 266.11 129.664 274.454 133.204 282.165C133.583 283.05 133.457 283.682 133.077 284.694C131.56 288.739 128.653 291.9 126.251 295.439C125.619 296.451 124.987 297.336 124.607 298.347" stroke="#1F2E3A" stroke-width="2" stroke-miterlimit="10" stroke-linecap="round" stroke-linejoin="round"/>
<path d="M226.688 89.1444C226.688 95.0444 226.588 101.244 225.688 107.444C225.488 108.544 225.088 109.144 223.988 109.544C216.388 112.044 208.588 113.844 200.688 114.544C192.788 115.244 184.888 115.644 177.088 113.444C174.188 112.644 172.488 111.544 171.888 108.044C170.188 97.8445 168.888 87.6444 168.688 77.2444C168.588 74.3444 168.788 71.4445 168.988 68.5445C169.088 67.2445 168.588 67.0445 167.388 67.5445C162.488 69.3445 157.288 70.0444 152.088 70.6444C150.388 70.8444 149.588 70.1445 149.388 68.5445C148.488 61.7445 149.088 55.0444 151.888 48.6444C155.188 40.8444 159.788 33.8444 165.988 28.1444C170.588 23.8444 175.788 20.6444 181.988 19.2444C187.088 18.0444 192.288 17.6444 197.488 18.3444C204.688 19.2444 209.988 23.0445 213.488 29.4445C218.088 38.0445 221.288 47.2444 223.488 56.7444C225.788 67.2444 226.888 78.0444 226.688 89.1444Z" fill="white"/>
<path d="M224.288 108.444C224.588 105.944 224.988 103.444 225.188 100.844C225.688 94.4444 225.388 88.0444 225.388 81.7444C225.388 78.0444 224.788 74.3444 224.488 70.6444C223.888 63.9444 222.488 57.4444 220.788 51.0444C219.788 47.3444 218.288 43.7444 216.988 40.1444C215.288 35.6444 213.388 31.3444 210.688 27.2444C207.588 22.6444 203.188 20.4444 197.988 19.5444C194.488 18.9444 191.088 19.2444 187.588 19.5444C183.788 19.8444 180.288 20.6444 176.888 22.2444C172.588 24.2444 168.688 26.8444 165.388 30.2444C160.688 35.1444 156.888 40.6444 153.988 46.7444C150.988 52.9444 149.688 59.4444 150.388 66.3444C150.688 69.8444 150.688 69.9444 153.988 69.4444C158.188 68.7444 162.388 68.2444 166.388 66.8444C166.888 66.6444 167.388 66.4444 167.888 66.2444C169.388 65.4444 169.988 65.8444 169.988 67.7444C169.988 70.8444 169.888 73.9444 169.888 76.9444C169.888 81.8444 170.488 86.7444 170.788 91.6444C171.088 97.1444 172.488 102.544 173.188 107.944C173.288 108.844 173.588 109.844 173.788 110.744" stroke="#1F2E3A" stroke-width="2" stroke-miterlimit="10" stroke-linecap="round" stroke-linejoin="round"/>
<path d="M209.706 76.6495C209.706 84.9495 200.806 92.4495 193.106 90.8495C190.806 90.3495 188.706 89.3495 187.406 87.3495C186.906 86.6495 186.406 86.3496 185.506 86.5496C183.606 86.8496 181.806 86.6495 180.106 85.6495C179.606 85.3495 179.006 84.9496 179.306 84.2496C179.606 83.4496 180.306 83.5495 181.006 83.8495C183.606 84.8495 186.306 84.5496 188.706 83.4496C195.206 80.3496 200.906 76.1496 206.306 71.4496C207.206 70.6496 208.106 70.7496 208.606 71.9496C209.106 73.4496 209.806 75.0495 209.706 76.6495Z" fill="white"/>
<path d="M208.106 76.9497C208.906 78.2497 208.206 79.5497 207.706 80.7497C205.606 85.9497 201.706 89.0497 196.206 89.9497C194.406 90.2497 192.706 89.8497 191.006 88.7497C189.606 87.7497 187.906 87.2497 187.406 85.3497" stroke="#1F2E3A" stroke-width="2" stroke-miterlimit="10" stroke-linecap="round" stroke-linejoin="round"/>
<path d="M207.007 72.5496C203.507 75.0496 199.907 77.4496 196.507 79.9496C193.707 82.0496 190.707 83.5496 187.607 85.0496C186.407 85.6496 182.507 85.4495 181.007 84.8495C180.607 84.6495 180.207 84.5495 179.807 84.3495" stroke="#1F2E3A" stroke-width="2" stroke-miterlimit="10" stroke-linecap="round" stroke-linejoin="round"/>
<path d="M207.306 72.0496C206.806 72.5496 207.406 72.7496 207.606 73.0496C208.906 74.8496 208.706 75.9495 206.906 77.3495C203.806 79.9495 200.806 82.5496 197.506 84.9496C196.106 85.9496 194.706 86.7495 193.206 87.3495C192.406 87.6495 191.806 88.1496 191.106 88.5496" stroke="#1F2E3A" stroke-width="2" stroke-miterlimit="10" stroke-linecap="round" stroke-linejoin="round"/>
<path d="M195.306 51.3495C194.006 50.2495 192.406 49.8495 190.706 50.0495" stroke="#1F2E3A" stroke-width="2" stroke-miterlimit="10" stroke-linecap="round" stroke-linejoin="round"/>
<path d="M178.506 51.2495C177.006 51.9495 175.906 52.9495 176.006 54.7495" stroke="#1F2E3A" stroke-width="2" stroke-miterlimit="10" stroke-linecap="round" stroke-linejoin="round"/>
<path d="M181.307 60.1494C182.135 60.1494 182.807 59.4778 182.807 58.6494C182.807 57.821 182.135 57.1494 181.307 57.1494C180.478 57.1494 179.807 57.821 179.807 58.6494C179.807 59.4778 180.478 60.1494 181.307 60.1494Z" fill="#1F2E3A"/>
<path d="M191.906 58.6494C192.735 58.6494 193.406 57.9778 193.406 57.1494C193.406 56.321 192.735 55.6494 191.906 55.6494C191.078 55.6494 190.406 56.321 190.406 57.1494C190.406 57.9778 191.078 58.6494 191.906 58.6494Z" fill="#1F2E3A"/>
<path d="M226.275 42.9386C226.075 46.1386 226.575 49.4386 225.175 52.5386C224.675 53.5386 224.275 54.1386 222.975 53.8386C221.375 53.4386 219.575 53.6386 217.975 53.8386C216.175 54.1386 215.075 53.4386 214.375 51.9386C213.875 51.0386 213.475 50.3386 212.275 50.3386C211.575 50.3386 211.075 49.8386 210.775 49.2386C210.275 48.2386 209.875 47.2386 209.675 46.1386C209.375 44.5386 209.175 43.0386 207.075 42.7386C205.975 42.5386 205.875 41.2386 205.775 40.2386C205.675 39.2386 205.475 38.3386 204.275 37.9386C203.375 37.6386 203.375 36.6386 203.175 35.8386C202.975 34.9386 202.975 34.0386 202.375 33.2386C201.475 31.9386 200.375 31.4386 198.775 31.3386C188.275 30.4386 177.775 30.4386 167.475 32.8386C166.575 33.0386 165.775 33.2386 165.175 34.2386C164.675 35.0386 161.975 34.6386 161.375 33.7386C160.975 33.0386 160.375 32.7386 159.775 32.3386C155.775 30.0386 152.375 27.0386 149.675 23.2386C148.475 21.5386 147.575 19.7386 147.175 17.7386C146.475 14.1386 147.875 11.7386 151.375 10.5386C155.775 9.03858 160.275 9.4386 164.775 10.3386C169.775 11.2386 174.675 12.5386 179.475 14.1386C180.675 14.5386 181.475 14.3386 182.375 13.4386C183.775 11.8386 185.275 10.4386 186.875 9.13859C194.975 2.93859 209.775 2.93858 217.575 14.4386C223.375 23.1386 226.775 32.4386 226.275 42.9386Z" fill="white"/>
<path d="M224.075 51.6385C225.075 50.8385 225.375 49.9385 225.375 48.6385C225.375 44.7385 225.875 40.8385 225.375 36.9385C224.875 32.8385 224.075 28.8385 222.375 25.0385C220.175 19.8385 217.375 14.9385 213.275 11.0385C209.775 7.63854 205.575 6.13853 200.775 5.93853C193.275 5.53853 187.375 8.53855 182.575 14.1385C182.175 14.6385 182.075 15.1385 181.775 15.6385" stroke="#1F2E3A" stroke-width="2" stroke-miterlimit="10" stroke-linecap="round" stroke-linejoin="round"/>
<path d="M220.776 52.1386C221.676 53.2386 221.675 53.2387 223.975 52.2387C223.375 50.5387 222.276 49.0386 221.376 47.5386C217.976 42.0386 213.375 37.4387 208.575 33.2387C206.075 31.0387 203.875 28.6387 201.075 26.8387C198.375 25.0387 195.676 23.1386 192.776 21.4386C186.076 17.4386 178.975 14.6387 171.475 12.8387C167.875 11.9387 164.275 11.0387 160.575 10.7387C157.375 10.4387 154.275 10.4386 151.175 11.5386C147.375 12.8386 146.876 16.1386 148.276 19.4386C150.376 24.5386 154.276 28.0386 158.776 31.0386C159.976 31.8386 161.276 32.3387 162.276 33.3387C162.776 33.7387 163.575 33.7386 164.075 33.4386C167.475 31.4386 171.275 31.1387 174.975 30.7387C179.275 30.2387 183.675 30.0386 187.975 30.0386C192.075 30.0386 196.175 30.3387 200.175 30.8387C202.675 31.1387 203.076 32.2386 203.276 33.9386C203.376 34.6386 203.475 35.2386 203.575 35.9386C203.675 36.5386 203.775 37.2387 204.675 37.2387C205.675 37.3387 205.975 37.9387 205.975 38.8387C205.975 39.5387 206.176 40.2386 206.276 40.9386C206.376 41.6386 206.675 42.3386 207.575 42.1386C208.975 41.9386 209.275 42.8386 209.575 43.9386C209.875 45.1386 210.275 46.3386 210.575 47.5386C210.975 48.9386 211.575 49.9387 213.175 49.7387C213.775 49.6387 213.975 50.1386 214.175 50.5386C214.475 51.1386 214.875 51.6387 215.175 52.2387C215.475 52.8387 215.875 53.1386 216.475 53.0386C217.775 52.9386 219.075 52.7386 220.475 52.5386" stroke="#1F2E3A" stroke-width="2" stroke-miterlimit="10" stroke-linecap="round" stroke-linejoin="round"/>
<path d="M303.366 19.5168C304.466 18.2168 305.366 17.1168 306.366 16.1168C307.066 15.4168 307.866 14.7168 308.966 15.1168C310.066 15.6168 309.966 16.7168 310.066 17.7168C310.166 19.0168 309.466 20.1168 309.266 21.7168C310.566 20.8168 311.466 20.0168 312.466 19.4168C313.166 18.9168 314.066 18.4168 314.866 19.1168C315.766 19.8168 315.366 20.8168 314.966 21.7168C314.466 22.8168 313.966 23.8168 313.266 25.3168C314.366 24.8168 315.166 24.4168 315.966 24.2168C317.166 23.8168 318.366 23.6168 319.366 24.7168C320.366 25.8168 320.266 27.0168 319.666 28.2168C318.666 30.5168 316.866 32.3168 315.266 34.1168C310.466 39.3168 307.066 45.4168 303.466 51.4168C299.966 57.3168 296.166 63.0168 292.466 68.8168C289.566 73.4168 287.166 78.3168 284.266 82.9168C278.266 92.6168 271.266 101.417 263.566 109.717C257.766 116.017 251.866 122.117 244.866 127.117C239.466 131.017 233.966 134.517 227.166 135.517C226.966 135.517 226.766 135.517 226.666 135.617C225.266 137.617 224.366 136.017 223.566 135.117C220.166 131.317 218.366 126.817 217.266 121.817C216.366 117.217 216.066 112.717 216.666 108.017C216.866 106.717 217.166 106.217 218.566 106.817C221.066 107.817 223.566 107.317 225.966 106.617C232.766 104.517 238.466 100.417 243.466 95.5168C252.066 87.0168 258.866 77.2168 265.466 67.1168C269.866 60.4168 273.966 53.5168 278.766 47.0168C279.166 46.4168 279.366 45.8168 279.466 45.2168C280.966 37.9168 281.966 30.6168 282.966 23.2168C283.066 22.3168 283.366 21.5168 283.566 20.7168C283.966 19.7168 284.566 18.8168 285.766 18.8168C287.066 18.8168 287.966 19.5168 288.466 20.7168C289.366 23.0168 289.466 25.4168 289.666 27.8168C289.666 28.6168 289.266 29.8168 290.066 30.0168C290.966 30.2168 291.166 29.0168 291.466 28.3168C292.666 26.2168 293.766 24.0168 294.866 21.9168C295.866 19.9168 297.166 18.1168 298.866 16.7168C299.666 16.0168 300.566 15.3168 301.666 15.7168C302.866 16.1168 302.666 17.3168 302.766 18.2168C303.166 18.7168 303.266 18.9168 303.366 19.5168Z" fill="white"/>
<path d="M88.0656 59.8168C88.4656 58.8168 87.9656 57.9168 88.0656 57.0168C88.1656 56.1168 88.1657 55.0168 89.2657 54.7168C90.2657 54.5168 90.8657 55.2168 91.3657 55.9168C91.9657 56.8168 92.5657 57.7168 93.1657 58.7168C93.1657 58.8168 93.3657 58.8168 93.7657 58.9168C93.7657 57.3168 93.7657 55.8168 93.7657 54.3168C93.7657 53.3168 93.6656 52.0168 95.0656 51.8168C96.3656 51.6168 97.0656 52.6168 97.5656 53.5168C99.1656 56.5168 100.166 59.8168 101.166 63.1168C101.466 64.0168 101.766 64.9168 102.166 66.1168C102.966 64.9168 102.866 63.8168 102.966 62.7168C103.166 61.5168 103.266 60.3168 103.666 59.1168C104.166 57.5168 105.266 57.2168 106.466 58.4168C107.866 59.8168 108.366 61.6168 108.466 63.5168C108.566 68.1168 108.866 72.6168 109.066 77.2168C109.166 78.8168 109.566 80.1168 110.566 81.3168C122.566 96.5168 137.566 107.017 156.866 110.617C159.866 111.217 162.766 112.017 165.766 112.217C167.566 112.317 177.7 113.2 178 115C178.8 120.6 169.266 126.117 167.366 131.417C167.066 132.317 166.566 132.617 165.666 132.517C144.566 132.117 125.566 125.917 109.366 112.017C101.766 105.517 95.6657 97.8168 91.2657 88.8168C88.9657 84.1168 86.2657 79.7168 83.7657 75.1168C82.0657 72.1168 80.6656 69.1168 80.0656 65.6168C79.9656 64.8168 79.9657 64.0168 80.1657 63.1168C80.5657 61.4168 81.1657 61.0168 82.6657 61.8168C83.3657 62.1168 83.6656 62.2168 83.5656 61.3168C83.4656 60.1168 82.9657 58.6168 84.4657 57.9168C85.9657 57.3168 86.9657 58.4168 87.8657 59.5168C87.8657 59.7168 87.8656 59.7168 88.0656 59.8168Z" fill="white"/>
<path d="M309.065 29.9167C310.765 26.8167 313.966 26.1168 316.766 24.8168C317.666 24.4168 318.266 24.6167 318.866 25.2167C319.566 25.8167 319.566 26.8168 319.366 27.5168C318.966 28.8168 318.266 30.0168 317.266 31.0168C310.966 37.1168 306.766 44.8167 302.266 52.2167C299.566 56.7167 296.966 61.2167 293.866 65.4167C291.966 67.9167 290.766 70.8168 289.266 73.5168C284.466 81.9168 279.366 90.1167 273.266 97.6167C269.866 101.817 266.366 105.817 262.766 109.817C259.866 113.017 256.766 116.217 253.666 119.117C248.066 124.417 241.966 129.217 234.866 132.517C232.266 133.717 229.765 134.617 226.965 134.917C226.165 135.017 225.266 135.017 225.666 136.217" stroke="#1F2E3A" stroke-width="2" stroke-miterlimit="10" stroke-linecap="round" stroke-linejoin="round"/>
<path d="M83.8657 63.7169C83.2657 63.7169 82.8657 63.3169 82.3657 62.9169C81.3657 62.1169 80.7656 62.3169 80.5656 63.7169C80.3656 65.0169 80.6656 66.4169 81.0656 67.7169C82.2656 71.6169 84.4657 75.0169 86.2657 78.6169C88.9657 83.9169 91.7657 89.1169 94.7657 94.2169C99.8657 102.917 106.866 110.017 114.966 115.817C121.966 120.817 129.566 124.717 137.766 127.317C144.566 129.517 151.466 131.017 158.666 131.417C161.066 131.517 163.366 131.617 165.766 131.817C166.466 131.917 166.666 132.017 166.566 132.717" stroke="#1F2E3A" stroke-width="2" stroke-miterlimit="10" stroke-linecap="round" stroke-linejoin="round"/>
<path d="M290.065 32.1169C288.865 30.2169 289.165 28.1169 289.065 26.1169C288.965 24.3169 288.765 22.6169 288.065 21.0169C287.765 20.3169 287.165 19.4169 286.165 19.5169C285.265 19.6169 284.865 20.4169 284.465 21.3169C283.765 22.9169 283.765 24.7169 283.565 26.4169C282.865 32.3169 281.665 38.1169 280.865 43.9169C280.565 46.0169 279.665 47.6169 278.565 49.1169C274.565 54.5169 271.065 60.3169 267.365 66.0169C262.665 73.3169 257.865 80.5169 252.265 87.3169C248.465 91.9169 244.465 96.2169 239.865 100.017C235.665 103.517 230.965 106.217 225.565 107.617C223.165 108.317 220.865 108.117 218.465 107.917C218.065 107.917 218.165 107.517 218.165 107.217" stroke="#1F2E3A" stroke-width="2" stroke-miterlimit="10" stroke-linecap="round" stroke-linejoin="round"/>
<path d="M102.865 68.3167C103.565 67.3167 103.765 66.1167 103.665 64.9167C103.565 63.2167 103.965 61.5167 104.265 59.8167C104.365 59.3167 104.565 58.8167 105.165 58.6167C106.765 59.5167 107.265 60.9167 107.565 62.6167C107.965 64.6167 107.865 66.7167 107.865 68.7167C107.865 70.8167 107.765 73.0167 108.165 75.1167C108.265 75.6167 108.365 76.3167 108.165 76.7167C107.565 78.3167 108.265 79.7167 109.165 80.8167C116.765 90.5167 125.465 99.0167 136.665 104.617C143.765 108.117 151.265 110.317 158.965 111.917C161.865 112.517 171 114 175 114" stroke="#1F2E3A" stroke-width="2" stroke-miterlimit="10" stroke-linecap="round" stroke-linejoin="round"/>
<path d="M103.365 71.3167C103.165 69.9167 102.965 68.6167 102.065 67.4167C100.965 65.7167 100.665 63.5167 100.065 61.5167C99.3653 59.2167 98.5653 56.8167 97.4653 54.7167C96.5653 53.1167 96.5653 53.1167 94.9653 52.6167C94.5653 56.8167 94.1654 60.8167 95.8654 64.7167" stroke="#1F2E3A" stroke-width="2" stroke-miterlimit="10" stroke-linecap="round" stroke-linejoin="round"/>
<path d="M300.265 26.8168C300.465 26.3168 300.565 25.7168 300.965 25.3168C302.865 23.1168 302.465 20.4168 302.365 17.9168C302.365 16.6168 301.265 16.1168 300.265 16.9168C298.065 18.6168 296.465 20.8168 295.265 23.3168C294.165 25.6168 292.865 27.9167 291.665 30.2167C291.365 30.7167 291.065 31.2168 290.665 31.5168C289.865 32.2168 289.665 33.0168 290.065 34.0168" stroke="#1F2E3A" stroke-width="2" stroke-miterlimit="10" stroke-linecap="round" stroke-linejoin="round"/>
<path d="M94.2662 60.9167C93.0662 60.5167 92.7662 59.3167 92.1662 58.4167C91.6662 57.7167 91.2661 57.0167 90.8661 56.2167C90.5661 55.6167 90.0661 55.4168 89.5661 55.6168C89.1661 55.8168 88.7661 56.3167 88.8661 56.9167C89.3661 59.5167 88.5662 62.4168 90.2662 64.8168C90.7662 65.5168 90.9661 66.4168 90.9661 67.3168" stroke="#1F2E3A" stroke-width="2" stroke-miterlimit="10" stroke-linecap="round" stroke-linejoin="round"/>
<path d="M302.966 21.3169C304.266 20.7169 304.566 19.3169 305.466 18.3169C305.966 17.8169 306.266 17.2169 306.766 16.7169C307.366 16.1169 308.066 15.5169 308.866 15.9169C309.666 16.3169 309.366 17.3169 309.366 18.0169C309.366 18.9169 309.166 19.7169 308.766 20.5169C308.266 21.4169 308.066 22.3169 308.466 23.3169" stroke="#1F2E3A" stroke-width="2" stroke-miterlimit="10" stroke-linecap="round" stroke-linejoin="round"/>
<path d="M312.366 26.4169C312.266 25.5169 312.566 24.7169 313.166 23.9169C313.766 23.1169 314.366 22.2169 314.466 21.1169C314.466 20.6169 314.766 20.1169 314.166 19.8169C313.666 19.5169 313.366 19.9169 312.966 20.0169C312.066 20.2169 311.666 21.0169 310.966 21.5169C308.666 23.1169 306.566 24.9169 305.466 27.6169" stroke="#1F2E3A" stroke-width="2" stroke-miterlimit="10" stroke-linecap="round" stroke-linejoin="round"/>
<path d="M84.8661 58.1167C83.9661 59.3167 84.4661 60.7167 84.2661 62.0167C83.8661 64.9167 86.066 66.8167 86.566 69.3167" stroke="#1F2E3A" stroke-width="2" stroke-miterlimit="10" stroke-linecap="round" stroke-linejoin="round"/>
<path d="M85.0654 58.7168C86.0654 58.8168 86.6655 59.4168 87.1655 60.3168C87.5655 60.9168 88.0655 61.3168 88.6655 61.6168" stroke="#1F2E3A" stroke-width="2" stroke-miterlimit="10" stroke-linecap="round" stroke-linejoin="round"/>
<path d="M168.368 326.033C169.885 321.102 166.851 318.195 162.047 315.287C150.922 308.713 139.924 301.634 130.948 292.026C117.674 277.741 107.308 261.686 101.998 242.723C101.493 240.953 100.861 240.447 99.091 241.332C90.4946 245.251 81.645 248.665 72.2901 250.561C68.7504 251.319 65.4635 252.963 62.5559 255.112C59.6483 257.261 58.0048 260.042 58.3841 263.708C59.0161 269.144 59.3956 274.58 60.5334 280.016C61.4183 284.315 60.9125 286.843 56.6143 288.613C48.7764 291.773 41.1911 295.692 33.1004 298.094C29.9399 298.979 26.7796 299.738 23.4927 300.243C22.7342 300.37 21.7228 300.623 21.2172 299.738C20.7115 298.853 21.3436 298.094 21.8492 297.462C23.9984 294.302 26.2738 291.268 28.4229 288.107C30.1928 285.579 30.572 283.05 29.3078 279.89C25.8945 271.546 23.9982 262.823 23.619 253.721C22.8605 238.045 29.5607 228.058 44.8573 221.358C50.1669 219.083 55.603 217.313 61.039 215.417C62.8088 214.785 63.3146 213.9 63.0618 212.003C61.924 205.05 61.5448 197.971 61.1655 190.891C60.0277 170.285 62.8088 150.058 66.9806 129.831C68.2448 123.763 69.6354 117.569 71.1524 111.501C72.1638 107.708 74.4393 105.306 77.4734 103.663C89.9888 97.2153 102.251 97.9739 113.882 106.065C115.525 107.202 116.663 108.972 118.559 109.857C119.318 110.236 119.318 111.248 119.444 112.133C123.237 128.946 127.029 145.76 129.052 162.953C130.063 171.676 131.58 180.272 131.201 189.121C130.822 197.086 131.454 205.05 133.603 212.635C139.292 233.621 149.279 252.331 163.817 268.639C170.897 276.603 179.24 283.05 187.331 289.877C188.721 291.015 190.491 291.52 191.629 292.911C192.388 293.922 193.02 294.934 192.893 296.072C192.388 299.991 191.629 303.783 189.227 306.943C182.653 315.54 176.206 324.263 170.77 333.744C170.391 334.376 170.012 335.261 169.127 335.008C168.115 334.756 168.368 333.744 168.368 332.986C168.368 330.963 168.368 328.94 168.368 326.033Z" fill="white"/>
<path d="M118.18 109.984C119.191 115.925 120.834 121.741 121.972 127.682C123.869 137.922 126.271 148.036 127.535 158.402C128.673 167.125 129.684 175.721 130.316 184.444C130.442 186.973 130.316 189.374 129.937 191.776C129.557 193.926 130.316 195.948 130.569 197.971C131.074 201.89 131.075 205.935 131.959 209.854C133.35 216.554 135.878 222.749 138.28 229.07C143.843 243.482 152.06 256.376 162.047 268.007C167.609 274.58 174.183 280.269 181.01 285.579C183.791 287.728 186.319 290.256 189.353 292.153C192.387 294.049 192.514 295.692 191.502 299.864C190.617 303.783 188.215 306.691 186.066 309.598C181.262 315.919 176.585 322.367 172.54 329.193C172.034 330.078 171.528 330.963 170.517 331.342" stroke="#1F2E3A" stroke-width="2" stroke-miterlimit="10" stroke-linecap="round" stroke-linejoin="round"/>
<path d="M101.493 239.31C93.4017 242.596 85.4374 246.389 76.8409 248.285C72.7955 249.17 68.6238 250.055 64.9577 252.204C59.2689 255.491 56.614 257.893 57.6254 266.363C58.2575 271.293 58.5103 276.224 59.5216 281.154C60.1537 284.567 59.6479 285.832 56.4874 287.222C49.408 290.256 42.5816 293.67 35.2494 296.071C31.7097 297.209 28.0434 298.094 24.3773 298.853C23.4923 299.106 22.3546 298.6 21.2168 298.979" stroke="#1F2E3A" stroke-width="2" stroke-miterlimit="10" stroke-linecap="round" stroke-linejoin="round"/>
<path d="M73.5543 107.708C71.1524 113.776 69.6355 120.097 68.6241 126.544C67.7392 131.98 66.3486 137.163 65.4637 142.599C64.1995 150.185 63.4411 157.896 62.6825 165.481C62.0505 171.929 61.6711 178.249 61.9239 184.697C62.3032 194.305 62.6825 203.786 64.1995 213.267C64.1995 213.647 64.4524 214.026 64.5788 214.279" stroke="#1F2E3A" stroke-width="2" stroke-miterlimit="10" stroke-linecap="round" stroke-linejoin="round"/>
<path d="M95.6777 205.935C97.3212 216.681 98.8383 227.3 101.746 237.919C103.769 245.504 106.171 252.836 109.71 259.789C114.514 269.397 120.582 278.246 127.409 286.464C136.385 297.083 147.51 305.047 159.14 312.379C162.048 314.149 164.955 315.919 167.863 317.815C168.621 318.321 169.127 318.827 169.254 320.091C169.633 323.757 169.001 327.55 170.138 331.216C170.518 332.227 169.633 333.238 169.506 334.376" stroke="#1F2E3A" stroke-width="2" stroke-miterlimit="10" stroke-linecap="round" stroke-linejoin="round"/>
<path d="M68.3708 214.026C65.4632 213.773 63.1876 215.416 60.6592 216.301C55.3496 218.071 50.0402 219.841 44.9834 222.117C36.1341 226.036 28.8019 231.598 25.7679 241.459C24.1244 246.768 23.998 252.204 24.7565 257.767C25.8942 266.11 27.6639 274.454 31.2036 282.165C31.5829 283.05 31.4567 283.682 31.0774 284.694C29.5604 288.739 26.6526 291.9 24.2506 295.439C23.6185 296.451 22.9867 297.336 22.6074 298.347" stroke="#1F2E3A" stroke-width="2" stroke-miterlimit="10" stroke-linecap="round" stroke-linejoin="round"/>
<path d="M124.688 89.1444C124.688 95.0444 124.588 101.244 123.688 107.444C123.488 108.544 123.088 109.144 121.988 109.544C114.388 112.044 106.588 113.844 98.6878 114.544C90.7878 115.244 82.8878 115.644 75.0878 113.444C72.1878 112.644 70.4878 111.544 69.8878 108.044C68.1878 97.8445 66.8878 87.6444 66.6878 77.2444C66.5878 74.3444 66.7878 71.4445 66.9878 68.5445C67.0878 67.2445 66.5878 67.0445 65.3878 67.5445C60.4878 69.3445 55.2878 70.0444 50.0878 70.6444C48.3878 70.8444 47.5878 70.1445 47.3878 68.5445C46.4878 61.7445 47.0878 55.0444 49.8878 48.6444C53.1878 40.8444 57.7878 33.8444 63.9878 28.1444C68.5878 23.8444 73.7878 20.6444 79.9878 19.2444C85.0878 18.0444 90.2878 17.6444 95.4878 18.3444C102.688 19.2444 107.988 23.0445 111.488 29.4445C116.088 38.0445 119.288 47.2444 121.488 56.7444C123.788 67.2444 124.888 78.0444 124.688 89.1444Z" fill="white"/>
<path d="M122.288 108.444C122.588 105.944 122.988 103.444 123.188 100.844C123.688 94.4444 123.388 88.0444 123.388 81.7444C123.388 78.0444 122.788 74.3444 122.488 70.6444C121.888 63.9444 120.488 57.4444 118.788 51.0444C117.788 47.3444 116.288 43.7444 114.988 40.1444C113.288 35.6444 111.388 31.3444 108.688 27.2444C105.588 22.6444 101.188 20.4444 95.9875 19.5444C92.4875 18.9444 89.0875 19.2444 85.5875 19.5444C81.7875 19.8444 78.2875 20.6444 74.8875 22.2444C70.5875 24.2444 66.6875 26.8444 63.3875 30.2444C58.6875 35.1444 54.8875 40.6444 51.9875 46.7444C48.9875 52.9444 47.6875 59.4444 48.3875 66.3444C48.6875 69.8444 48.6875 69.9444 51.9875 69.4444C56.1875 68.7444 60.3875 68.2444 64.3875 66.8444C64.8875 66.6444 65.3875 66.4444 65.8875 66.2444C67.3875 65.4444 67.9875 65.8444 67.9875 67.7444C67.9875 70.8444 67.8875 73.9444 67.8875 76.9444C67.8875 81.8444 68.4875 86.7444 68.7875 91.6444C69.0875 97.1444 70.4875 102.544 71.1875 107.944C71.2875 108.844 71.5875 109.844 71.7875 110.744" stroke="#1F2E3A" stroke-width="2" stroke-miterlimit="10" stroke-linecap="round" stroke-linejoin="round"/>
<path d="M96.9996 82.2163C93.0996 85.1163 88.4996 84.9163 83.9996 84.7163C82.6996 84.6163 81.3996 83.9163 80.0996 83.4163" stroke="#1F2E3A" stroke-width="2" stroke-miterlimit="10" stroke-linecap="round" stroke-linejoin="round"/>
<path d="M94.2004 49.7162C91.6004 47.2162 88.3004 46.9162 84.9004 47.0162" stroke="#1F2E3A" stroke-width="2" stroke-miterlimit="10" stroke-linecap="round" stroke-linejoin="round"/>
<path d="M96.1998 58.0162C92.9998 56.9162 89.9998 57.0162 87.2998 59.2162" stroke="#1F2E3A" stroke-width="2" stroke-miterlimit="10" stroke-linecap="round" stroke-linejoin="round"/>
<path d="M76.5 48.9161C75.5 48.7161 74.6 49.2161 73.8 49.8161C72.2 50.9161 70.6 51.9161 69.2 53.3161C68.9 53.6161 68.5 53.9161 68 53.8161" stroke="#1F2E3A" stroke-width="2" stroke-miterlimit="10" stroke-linecap="round" stroke-linejoin="round"/>
<path d="M79.6998 59.0161C76.9998 58.5161 74.5998 58.8161 72.7998 61.0161" stroke="#1F2E3A" stroke-width="2" stroke-miterlimit="10" stroke-linecap="round" stroke-linejoin="round"/>
<path d="M102.909 13.7168C102.809 9.11679 104.709 5.41677 108.609 2.81677C112.409 0.316767 116.709 0.316767 120.809 3.31677C128.109 8.71677 132.609 15.9168 133.309 25.2168C133.809 32.0168 129.209 38.5168 122.609 40.5168C121.309 40.9168 121.709 41.6168 122.009 42.4168C123.209 45.4168 124.109 48.5168 124.509 51.8168C124.809 54.3168 124.809 56.8168 123.909 59.3168C123.309 60.7168 122.509 61.3168 120.909 61.0168C114.109 59.6168 107.409 57.9168 102.109 53.2168C95.209 47.2168 90.109 39.9168 87.709 30.9168C87.109 28.5168 87.0089 28.5168 84.9089 29.9168C82.9089 31.2168 81.0089 32.5168 79.0089 33.8168C74.1089 37.2168 68.509 37.8168 62.709 37.3168C62.309 37.3168 61.8089 37.2168 61.4089 37.1168C58.7089 36.9168 58.6089 36.8168 59.5089 34.2168C60.6089 31.1168 62.4089 28.4168 64.5089 25.9168C68.9089 20.7168 73.9089 16.2168 80.5089 13.8168C87.8089 11.1168 94.909 11.2168 101.609 15.8168C102.009 16.1168 102.409 16.6168 102.909 16.2168C103.309 15.9168 103.109 15.4168 103.109 15.0168C102.909 14.6168 102.909 14.1168 102.909 13.7168Z" fill="white"/>
<path d="M87.1094 28.0169C88.3094 29.7169 88.5094 31.9169 89.2094 33.8169C90.8094 38.5169 93.3093 42.5169 96.4093 46.3169C98.4093 48.8169 100.609 51.0169 103.009 53.1169C106.309 56.0169 110.309 57.4169 114.409 58.7169C116.609 59.4169 118.909 59.8169 121.209 60.4169C121.809 60.5169 122.309 60.4169 122.709 59.6169C123.209 58.5169 123.609 57.5169 123.709 56.3169C124.109 48.1169 121.009 41.0169 116.909 34.2169C114.609 30.3169 111.809 26.8169 108.809 23.5169C107.209 21.7169 105.509 19.8169 103.609 18.3169C100.509 15.9169 97.1093 13.8169 93.0093 13.2169C87.7093 12.3169 82.7093 13.5169 78.0093 15.6169C73.8093 17.5169 70.2094 20.5169 67.1094 24.0169C64.6094 26.7169 62.3094 29.6169 60.7094 32.9169C60.5094 33.3169 60.3094 33.8169 60.2094 34.2169C59.7094 35.9169 59.9094 36.3169 61.7094 36.5169C65.7094 37.0169 69.7094 37.0169 73.6094 35.7169C76.5094 34.7169 79.0093 32.9169 81.5093 31.3169C83.3093 30.1169 84.9094 28.5169 87.1094 28.0169" fill="white"/>
<path d="M87.1094 28.0169C88.3094 29.7169 88.5094 31.9169 89.2094 33.8169C90.8094 38.5169 93.3093 42.5169 96.4093 46.3169C98.4093 48.8169 100.609 51.0169 103.009 53.1169C106.309 56.0169 110.309 57.4169 114.409 58.7169C116.609 59.4169 118.909 59.8169 121.209 60.4169C121.809 60.5169 122.309 60.4169 122.709 59.6169C123.209 58.5169 123.609 57.5169 123.709 56.3169C124.109 48.1169 121.009 41.0169 116.909 34.2169C114.609 30.3169 111.809 26.8169 108.809 23.5169C107.209 21.7169 105.509 19.8169 103.609 18.3169C100.509 15.9169 97.1093 13.8169 93.0093 13.2169C87.7093 12.3169 82.7093 13.5169 78.0093 15.6169C73.8093 17.5169 70.2094 20.5169 67.1094 24.0169C64.6094 26.7169 62.3094 29.6169 60.7094 32.9169C60.5094 33.3169 60.3094 33.8169 60.2094 34.2169C59.7094 35.9169 59.9094 36.3169 61.7094 36.5169C65.7094 37.0169 69.7094 37.0169 73.6094 35.7169C76.5094 34.7169 79.0093 32.9169 81.5093 31.3169C83.3093 30.1169 84.9094 28.5169 87.1094 28.0169" stroke="#1F2E3A" stroke-width="2" stroke-miterlimit="10" stroke-linecap="round" stroke-linejoin="round"/>
<path d="M103.509 17.8169C103.809 16.9169 103.809 16.117 103.709 15.217C102.809 9.61695 106.309 3.91695 111.809 2.21695C115.309 1.11695 118.409 2.31693 121.009 4.41693C126.609 8.81693 130.509 14.5169 132.109 21.5169C134.009 29.9169 130.909 35.5169 123.509 39.6169C122.609 40.1169 121.409 39.8169 120.509 40.4169" fill="white"/>
<path d="M103.509 17.8169C103.809 16.9169 103.809 16.117 103.709 15.217C102.809 9.61695 106.309 3.91695 111.809 2.21695C115.309 1.11695 118.409 2.31693 121.009 4.41693C126.609 8.81693 130.509 14.5169 132.109 21.5169C134.009 29.9169 130.909 35.5169 123.509 39.6169C122.609 40.1169 121.409 39.8169 120.509 40.4169" stroke="#1F2E3A" stroke-width="2" stroke-miterlimit="10" stroke-linecap="round" stroke-linejoin="round"/>
<path d="M8.03281 123.751C7.83281 122.051 7.73279 120.651 8.33279 119.251C9.03279 117.551 10.1328 117.351 11.3328 118.751C12.2328 119.751 13.0328 120.951 13.8328 122.051C14.0328 121.951 14.1328 121.951 14.1328 121.851C15.3328 118.851 17.3328 119.451 19.4328 121.951C20.3328 123.051 20.5328 124.451 20.9328 125.851C21.2328 127.051 21.5328 128.251 21.7328 129.451C21.9328 130.651 22.1328 131.851 22.3328 133.051C23.1328 132.951 23.1328 132.251 23.4328 131.851C24.2328 130.351 25.0328 128.951 26.4328 127.851C27.9328 126.651 29.3328 126.951 30.4328 128.451C32.9328 131.851 32.3328 135.351 31.0328 138.951C30.3328 140.951 30.5328 141.551 32.5328 142.451C34.8328 143.451 37.0328 143.251 39.3328 142.551C46.2328 140.451 51.0328 135.651 54.8328 129.851C57.6328 125.551 59.6328 120.851 61.6328 116.151C62.7328 113.551 64.3328 111.251 66.1328 109.151C67.5328 107.551 68.7328 107.251 70.7328 108.051C76.8328 110.251 80.6328 115.551 80.8328 122.251C80.9328 123.751 80.8328 125.251 80.8328 126.751C80.8328 127.351 80.8328 127.951 81.1328 128.551C81.5328 129.451 81.8328 130.051 82.8328 128.851C84.0328 127.451 85.4328 127.651 86.4328 129.351C88.3328 132.551 88.6328 136.251 88.8328 139.851C88.9328 141.251 89.0328 142.651 88.8328 144.051C88.5328 146.251 89.7328 147.451 91.4328 148.451C92.7328 149.251 94.2328 149.551 95.7328 149.751C103.933 150.851 111.333 149.351 117.733 143.851C121.933 140.251 123.133 132.951 120.133 128.651C119.433 127.751 118.633 127.051 117.533 126.751C113.433 125.551 108.833 119.151 108.933 114.951C109.033 110.251 114.833 105.451 119.433 106.051C125.233 106.751 130.033 109.651 134.433 113.351C140.733 118.651 144.633 125.351 145.133 133.751C145.533 140.651 142.933 146.351 138.533 151.451C134.033 156.651 128.333 160.151 122.033 162.751C115.133 165.751 108.033 168.451 100.433 168.951C89.0328 169.651 78.9328 166.651 71.3328 157.551C70.5328 156.651 70.0328 155.651 69.8328 154.451C69.6328 153.151 68.8328 152.151 68.1328 151.051C67.6328 150.251 67.1328 150.451 66.6328 151.151C65.5328 152.351 64.9328 153.851 63.7328 155.051C59.8328 159.051 54.8328 160.751 49.6328 161.651C37.5328 163.651 26.1328 161.351 15.7328 154.851C12.2328 152.651 9.5328 149.851 7.9328 145.951C6.2328 141.951 3.23281 138.751 1.53281 134.851C1.03281 133.551 0.332811 132.351 0.132811 130.951C-0.367189 128.351 0.532805 127.151 3.03281 126.751C3.43281 126.651 3.5328 126.551 3.4328 126.251C3.3328 125.851 3.33279 125.451 3.23279 125.151C3.03279 124.351 3.13279 123.551 3.73279 123.051C4.43279 122.451 5.2328 122.751 5.9328 123.051C6.7328 122.951 7.33281 123.251 8.03281 123.751Z" fill="white"/>
<path d="M72.5329 144.951C70.9329 144.351 69.1329 143.951 67.6329 142.851C66.8329 142.251 65.9329 142.951 66.2329 143.951C66.7329 145.751 66.8329 147.651 68.3329 148.951C69.8329 150.351 70.8329 152.051 71.3329 154.151C72.1329 156.951 74.4329 158.751 76.5329 160.651C80.4329 164.251 85.1329 166.051 90.2329 166.951C93.6329 167.551 97.2329 168.051 100.733 167.651C106.133 167.051 111.333 165.651 116.433 163.651C122.333 161.351 128.133 158.951 133.133 154.951C138.433 150.751 142.533 145.451 143.933 138.751C144.933 133.951 144.133 129.251 142.133 124.751C139.033 117.651 133.633 112.651 126.833 109.251C124.633 108.151 122.333 107.251 119.833 106.951C118.833 106.851 117.633 106.551 116.833 107.551" stroke="#1F2E3A" stroke-width="2" stroke-miterlimit="10" stroke-linecap="round" stroke-linejoin="round"/>
<path d="M4.63294 128.551C4.33294 128.351 3.93294 128.251 3.63294 128.051C3.23294 127.551 2.63294 127.351 2.13294 127.551C1.53294 127.851 1.23292 128.451 1.23292 129.151C1.13292 131.351 2.23294 133.151 3.13294 134.951C4.23294 137.051 5.23293 139.251 6.93293 140.951C8.13293 142.151 8.43294 143.851 9.13294 145.351C11.1329 149.451 14.2329 152.451 18.1329 154.551C22.7329 157.051 27.5329 159.151 32.6329 160.051C36.8329 160.851 41.1329 161.151 45.5329 160.751C49.9329 160.351 54.1329 159.351 58.2329 157.551C60.8329 156.451 62.6329 154.351 64.4329 152.251C65.5329 150.951 66.4329 149.551 67.4329 148.251" stroke="#1F2E3A" stroke-width="2" stroke-miterlimit="10" stroke-linecap="round" stroke-linejoin="round"/>
<path d="M82.233 133.551C81.733 131.751 83.0331 130.551 83.9331 129.251C84.3331 128.651 84.9331 128.751 85.4331 129.351C86.8331 131.051 87.1331 133.151 87.5331 135.251C88.0331 138.051 87.9331 140.951 87.9331 143.751C87.9331 146.951 88.9331 148.251 92.1331 149.651C93.9331 150.451 95.933 150.751 97.833 150.951C105.933 151.751 113.033 149.451 119.233 144.151C122.833 141.051 124.433 133.851 122.333 129.551C121.333 127.451 119.833 125.251 117.033 124.851" stroke="#1F2E3A" stroke-width="2" stroke-miterlimit="10" stroke-linecap="round" stroke-linejoin="round"/>
<path d="M69.5326 108.551C68.3326 108.451 67.6326 109.151 66.8326 110.051C64.0326 113.351 62.4326 117.151 60.8326 121.051C58.0326 127.551 54.4326 133.551 49.1326 138.251C45.5326 141.451 41.2326 143.551 36.4326 144.251C34.3326 144.551 32.2326 143.651 30.4326 142.351C29.9326 141.951 29.6326 141.351 28.9326 141.151" stroke="#1F2E3A" stroke-width="2" stroke-miterlimit="10" stroke-linecap="round" stroke-linejoin="round"/>
<path d="M75.2329 137.951C74.4329 135.751 74.1329 133.351 72.2329 131.751C71.5329 131.151 71.533 130.151 70.933 129.351C70.433 128.851 70.133 128.451 69.433 128.551C68.633 128.751 68.633 129.451 68.633 130.051C68.533 131.251 68.933 132.351 69.133 133.551C69.633 136.851 70.133 140.051 71.633 143.051C71.733 143.351 71.833 143.851 71.533 144.251" stroke="#1F2E3A" stroke-width="2" stroke-miterlimit="10" stroke-linecap="round" stroke-linejoin="round"/>
<path d="M25.8332 143.651C29.2332 141.351 30.7332 138.051 31.1332 134.151C31.3332 132.151 30.7332 130.351 29.4332 128.851C28.6332 127.851 27.7332 127.951 26.9332 128.651C25.8332 129.651 25.0332 130.951 24.4332 132.351C23.9332 133.451 23.3332 134.651 22.3332 135.451C21.2332 134.651 21.3332 133.451 21.1332 132.351C20.7332 129.551 20.1332 126.751 19.3332 123.951C18.8332 122.351 17.7332 121.451 16.3332 120.851C14.0332 123.451 14.8332 126.151 15.7332 128.751" stroke="#1F2E3A" stroke-width="2" stroke-miterlimit="10" stroke-linecap="round" stroke-linejoin="round"/>
<path d="M14.433 124.451C12.933 123.551 12.633 121.751 11.433 120.551C10.933 119.951 10.633 119.251 9.73303 119.051C8.53303 120.351 8.93305 121.951 9.13305 123.451C9.23305 124.251 9.23304 125.051 8.93304 125.751" stroke="#1F2E3A" stroke-width="2" stroke-miterlimit="10" stroke-linecap="round" stroke-linejoin="round"/>
<path d="M4.93262 123.551C6.93262 123.751 8.1326 125.151 9.2326 126.651C10.1326 127.851 10.4326 129.351 11.0326 130.751" stroke="#1F2E3A" stroke-width="2" stroke-miterlimit="10" stroke-linecap="round" stroke-linejoin="round"/>
<path d="M4.73271 122.851C4.23271 124.251 4.93272 125.551 4.83272 126.851C4.73272 129.451 6.13271 131.251 7.23271 133.351" stroke="#1F2E3A" stroke-width="2" stroke-miterlimit="10" stroke-linecap="round" stroke-linejoin="round"/>
<path d="M78.5328 135.551C78.7328 133.051 77.2328 131.251 76.1328 129.251C75.8328 128.751 75.3328 127.951 74.5328 128.251C73.7328 128.551 73.8328 129.351 73.8328 130.051C73.8328 130.951 73.8328 131.751 73.1328 132.351" stroke="#1F2E3A" stroke-width="2" stroke-miterlimit="10" stroke-linecap="round" stroke-linejoin="round"/>
<path d="M78.0332 131.551C78.8332 130.851 78.6332 129.751 79.5332 128.851C80.1332 128.551 80.7332 129.051 81.0332 129.951C81.2332 130.651 81.5332 131.251 82.2332 131.651" stroke="#1F2E3A" stroke-width="2" stroke-miterlimit="10" stroke-linecap="round" stroke-linejoin="round"/>
</svg>
