<svg width="259" height="338" viewBox="0 0 259 338" fill="none" xmlns="http://www.w3.org/2000/svg">
<path d="M70.0999 240.191C69.8768 241.44 69.5323 242.678 69.4305 243.936C68.2815 255.124 66.759 266.397 66.5808 277.663C66.4499 289.855 66.6925 301.961 67.047 314.191C67.1902 318.462 67.3335 322.733 67.5981 327.013C67.6177 328.281 67.0676 329.042 65.9384 329.412C64.9399 329.676 64.0534 330.065 63.0641 330.215C53.068 331.479 43.4188 334.497 33.4135 335.875C31.5563 336.185 29.7082 336.381 27.8694 336.463C25.7787 336.639 25.1336 335.551 26.0097 333.78C26.5876 332.676 27.3992 331.705 28.3319 330.745C32.184 326.912 35.0744 322.887 35.9009 317.198C37.3966 307.765 39.2564 298.361 40.0332 288.754C41.3639 270.789 40.8466 253.02 37.1555 235.225C34.0827 220.357 32.494 205.264 31.3998 190.096C31.1733 186.855 31.3202 183.529 31.5884 180.212C32.7884 162.352 35.1926 144.704 40.2481 127.501C42.4361 120.08 45.3338 112.947 49.0623 106.112C49.7708 104.903 50.6851 104.171 52.0754 103.593C54.595 102.646 59.9244 66.9845 63.0573 84.1329C69.7953 82.3755 91.6366 78.0894 97.072 81.8672C104.599 86.9653 95.2692 111.714 97.4881 120.527C98.7986 125.467 95.3446 134.949 95.9085 140.06C97.7977 157.479 98.455 175.029 99.5976 192.619C100.344 204.535 99.8768 216.354 100.026 228.107C100.217 246.886 100.054 265.521 102.448 284.247C103.866 295.413 106.021 306.523 108.307 317.528C108.738 319.75 109.579 321.43 111.158 323.054C113.418 325.309 115.53 327.897 117.66 330.256C118.221 330.877 118.893 331.622 118.334 332.498C117.784 333.259 116.98 332.618 116.243 332.674C113.928 332.602 111.753 332.311 109.438 332.239C102.997 331.833 96.8069 329.836 90.5613 328.525C88.8809 328.159 87.1729 328.136 85.3434 328.103C81.4324 328.132 80.6383 327.377 80.0755 323.763C77.9251 306.553 76.1385 289.372 73.7454 272.142C72.45 262.483 71.4065 252.729 70.6151 242.881C70.5585 242.07 70.3897 241.136 70.2118 240.316C70.3424 240.211 70.2212 240.201 70.0999 240.191Z" fill="white"/>
<path d="M51.1335 104.668C49.3802 106.713 48.4485 109.17 47.4049 111.503C42.2789 122.024 39.3003 133.18 37.0406 144.508C35.7853 150.968 34.6514 157.438 33.9937 164.061C33.67 168.064 32.9822 172.037 32.6493 176.154C31.9371 184.96 32.3357 193.626 33.3318 202.455C34.3279 211.284 35.324 220.113 36.8055 228.981C37.6491 233.654 38.7352 238.346 39.4482 243.123C40.5553 250.58 41.2892 258.121 41.5283 265.738C41.8632 276.701 40.9938 287.451 39.9938 298.305C39.447 303.556 38.5269 308.892 37.3733 314.094C36.6382 317.143 35.8941 320.306 35.6444 323.393C35.5426 324.651 35.0952 325.651 34.0504 326.488C31.4292 328.693 29.2654 331.281 27.2232 333.878C26.8221 334.306 26.4119 334.849 26.8418 335.574C27.2717 336.299 28.0276 336.015 28.6436 335.95C36.2784 335.186 43.7354 333.602 51.0894 331.779C54.9531 330.826 58.8917 330.453 62.7369 329.728C66.5728 329.118 66.5914 328.889 66.514 325.314C66.2749 317.697 66.1572 310.091 65.9181 302.474C65.5555 291.854 65.5568 281.264 66.0529 270.599C66.4853 262.231 67.4032 253.902 68.4424 245.583C68.8319 242.276 68.736 238.93 70.0871 235.816" stroke="#1F2E3A" stroke-width="2" stroke-miterlimit="10" stroke-linecap="round" stroke-linejoin="round"/>
<path d="M92.8076 125.535C94.4452 130.963 94.7292 136.511 95.2561 142.079C95.9436 150.192 97.1167 158.345 97.4309 166.543C97.8017 175.552 98.1818 184.446 98.6739 193.465C98.7975 196.468 99.1637 199.49 99.2873 202.493C99.4201 205.382 99.301 208.365 99.1912 211.234C98.9344 217.429 99.1725 223.549 99.2891 229.66C99.3109 233.92 99.09 238.162 99.1119 242.423C99.0968 247.141 99.2122 251.755 99.4398 256.493C99.5645 260.992 99.9412 265.397 100.187 269.906C100.528 276.265 101.485 282.558 102.32 288.842C103.222 295.821 104.244 302.811 105.892 309.62C106.716 313.025 107.298 316.41 108 319.806" stroke="#1F2E3A" stroke-width="2" stroke-miterlimit="10" stroke-linecap="round" stroke-linejoin="round"/>
<path d="M70.2285 237.094C72.0592 238.623 71.6409 240.776 71.7449 242.511C72.9604 257.689 74.9133 272.812 76.9875 287.944C78.4701 298.309 79.2153 308.729 80.4459 319.189C80.6527 321.162 81.2421 322.937 81.2062 324.891C81.1045 326.149 82.1781 326.466 83.1305 326.773C83.728 326.936 84.4562 326.995 85.0722 326.93C90.4395 327.019 95.4437 328.574 100.597 329.797C105.517 330.885 110.511 331.059 115.589 331.7C115.954 331.729 116.467 331.426 116.849 331.226" stroke="#1F2E3A" stroke-width="2" stroke-miterlimit="10" stroke-linecap="round" stroke-linejoin="round"/>
<path d="M108.926 321.952C111.476 325.152 114.82 327.609 116.858 331.112C117.287 331.837 118.006 332.011 118.856 332.079" stroke="#1F2E3A" stroke-width="2" stroke-miterlimit="10" stroke-linecap="round" stroke-linejoin="round"/>
<path d="M98.6878 92.1444C98.6878 98.0444 98.5878 104.244 97.6878 110.444C97.4878 111.544 97.0878 112.144 95.9878 112.544C88.3878 115.044 80.5878 116.844 72.6878 117.544C64.7878 118.244 56.8878 118.644 49.0878 116.444C46.1878 115.644 44.4878 114.544 43.8878 111.044C42.1878 100.844 40.8878 90.6444 40.6878 80.2444C40.5878 77.3444 40.7878 74.4445 40.9878 71.5445C41.0878 70.2445 40.5878 70.0445 39.3878 70.5445C34.4878 72.3445 29.2878 73.0444 24.0878 73.6444C22.3878 73.8444 21.5878 73.1445 21.3878 71.5445C20.4878 64.7445 21.0878 58.0444 23.8878 51.6444C27.1878 43.8444 31.7878 36.8444 37.9878 31.1444C42.5878 26.8444 47.7878 23.6444 53.9878 22.2444C59.0878 21.0444 64.2878 20.6444 69.4878 21.3444C76.6878 22.2444 81.9878 26.0445 85.4878 32.4445C90.0878 41.0445 93.2878 50.2444 95.4878 59.7444C97.7878 70.2444 98.8878 81.0444 98.6878 92.1444Z" fill="white"/>
<path d="M96.2875 111.444C96.5875 108.944 96.9875 106.444 97.1875 103.844C97.6875 97.4444 97.3875 91.0444 97.3875 84.7444C97.3875 81.0444 96.7875 77.3444 96.4875 73.6444C95.8875 66.9444 94.4875 60.4444 92.7875 54.0444C91.7875 50.3444 90.2875 46.7444 88.9875 43.1444C87.2875 38.6444 85.3875 34.3444 82.6875 30.2444C79.5875 25.6444 75.1875 23.4444 69.9875 22.5444C66.4875 21.9444 63.0875 22.2444 59.5875 22.5444C55.7875 22.8444 52.2875 23.6444 48.8875 25.2444C44.5875 27.2444 40.6875 29.8444 37.3875 33.2444C32.6875 38.1444 28.8875 43.6444 25.9875 49.7444C22.9875 55.9444 21.6875 62.4444 22.3875 69.3444C22.6875 72.8444 22.6875 72.9444 25.9875 72.4444C30.1875 71.7444 34.3875 71.2444 38.3875 69.8444C38.8875 69.6444 39.3875 69.4444 39.8875 69.2444C41.3875 68.4444 41.9875 68.8444 41.9875 70.7444C41.9875 73.8444 41.8875 76.9444 41.8875 79.9444C41.8875 84.8444 42.4875 89.7444 42.7875 94.6444C43.0875 100.144 44.4875 105.544 45.1875 110.944C45.2875 111.844 45.5875 112.844 45.7875 113.744" stroke="#1F2E3A" stroke-width="2" stroke-miterlimit="10" stroke-linecap="round" stroke-linejoin="round"/>
<path d="M50.3 53C47.8 55.1 46 57.6 45 60.8" stroke="#1F2E3A" stroke-width="2" stroke-miterlimit="10" stroke-linecap="round" stroke-linejoin="round"/>
<path d="M60.0996 51C62.1996 51.7 64.2996 52.4 66.1996 53.6C66.9996 54.1 67.5996 54.8 67.9996 55.6" stroke="#1F2E3A" stroke-width="2" stroke-miterlimit="10" stroke-linecap="round" stroke-linejoin="round"/>
<path d="M52.2998 65.3C53.1282 65.3 53.7998 64.6285 53.7998 63.8C53.7998 62.9716 53.1282 62.3 52.2998 62.3C51.4714 62.3 50.7998 62.9716 50.7998 63.8C50.7998 64.6285 51.4714 65.3 52.2998 65.3Z" fill="#1F2E3A"/>
<path d="M62.9004 63.8C63.7288 63.8 64.4004 63.1285 64.4004 62.3C64.4004 61.4716 63.7288 60.8 62.9004 60.8C62.072 60.8 61.4004 61.4716 61.4004 62.3C61.4004 63.1285 62.072 63.8 62.9004 63.8Z" fill="#1F2E3A"/>
<path d="M70.5998 86.1001C68.8998 87.5001 67.0998 88.9 64.9998 89.8C62.1998 91.1 59.6998 90.0001 57.0998 89.4001C56.4998 89.2001 55.8998 89.0001 55.2998 89.0001" stroke="#1F2E3A" stroke-width="2" stroke-miterlimit="10" stroke-linecap="round" stroke-linejoin="round"/>
<path d="M96.0383 51.8802C96.1383 55.3802 95.9383 58.5802 95.0383 61.6802C94.9383 62.1802 94.7383 62.6802 94.5383 63.0802C94.2383 63.6802 93.9383 64.2802 93.1383 64.2802C92.3383 64.2802 91.9383 63.7802 91.6383 63.1802C91.2383 62.0802 90.8383 60.9802 90.4383 59.9802C89.5383 57.3802 88.8383 54.8802 87.5383 52.4802C86.0383 49.6802 84.0383 47.6802 80.5383 47.3802C76.0383 47.0802 73.4384 44.5802 72.3384 40.3802C72.1384 39.5802 71.8383 38.6802 71.5383 37.8802C69.8383 33.1802 68.3383 31.9802 62.5383 32.1802C57.6383 32.3802 53.0383 33.8802 48.5383 35.5802C46.2383 36.4802 43.8384 37.0802 41.3384 37.4802C38.2384 37.8802 36.2383 36.2802 36.0383 33.0802C35.8383 27.8802 36.4383 22.7802 37.4383 17.6802C37.5383 17.2802 37.6384 16.7802 37.8384 16.3802C38.0384 15.8802 38.3384 15.4802 38.8384 15.3802C39.4384 15.2802 39.8383 15.6802 40.1383 16.1802C40.5383 16.9802 40.9384 17.8802 41.3384 18.6802C42.1384 20.0802 42.6383 20.0802 43.5383 18.7802C44.5383 17.1802 45.1384 15.3802 45.8384 13.6802C46.4384 12.2802 46.9384 10.7802 47.7384 9.48018C48.9384 7.68018 50.2384 7.58019 51.8384 9.08019C53.4384 10.6802 53.5383 10.6802 55.0383 9.08019C55.9383 8.08019 56.7383 7.08018 57.5383 5.98018C58.7383 4.58018 59.6383 4.48017 60.9383 5.78017C62.9383 7.68017 63.3383 7.78018 65.4383 5.88018C66.7383 4.78018 67.7383 3.38017 69.0383 2.28017C70.9383 0.380169 72.2383 0.580181 73.5383 2.98018C74.4383 4.78018 75.3384 6.48019 76.3384 8.18019C76.9384 9.28019 77.5383 9.58019 78.6383 8.58019C80.2383 6.98019 81.0384 7.18017 81.8384 9.28017C82.4384 10.9802 82.9384 12.7802 84.8384 13.5802C85.5384 13.8802 85.5383 14.7802 85.6383 15.4802C85.8383 17.0802 86.0383 18.7802 86.5383 20.2802C86.8383 21.1802 87.1384 21.8802 88.3384 21.6802C89.5384 21.4802 89.8383 22.4802 90.1383 23.3802C90.7383 25.5802 90.9383 27.8802 91.1383 30.1802C91.3383 32.1802 91.5384 34.0802 91.8384 36.0802C92.0384 37.1802 92.0383 38.3802 93.5383 38.7802C94.1383 38.9802 94.3383 39.8802 94.5383 40.5802C94.8383 41.6802 95.1384 42.6802 95.3384 43.7802C95.9384 46.6802 96.0383 49.3802 96.0383 51.8802Z" fill="white"/>
<path d="M92.338 39.7803C91.038 38.0803 91.138 35.9803 90.938 33.9803C90.438 30.8803 90.338 27.6803 89.838 24.5803C89.538 22.5803 89.138 22.3803 87.238 22.9803C85.738 21.5803 85.538 19.5803 85.238 17.6803C85.038 15.9803 85.0379 14.3803 83.0379 13.4803C82.2379 13.1803 82.038 12.0803 81.738 11.1803C81.438 10.2803 81.1379 9.38029 80.6379 8.58029C79.6379 8.58029 79.338 9.28028 78.738 9.88028C78.138 10.4803 77.538 10.6803 76.738 9.88028C75.338 8.38028 74.5379 6.58027 73.6379 4.78027C73.0379 3.68027 72.638 2.48027 71.438 1.78027C69.938 2.48027 69.1379 3.78027 68.0379 4.78027C67.1379 5.58027 66.338 6.48027 65.338 7.28027C63.838 8.58027 62.4379 8.4803 61.0379 7.1803C60.5379 6.6803 60.138 5.98027 59.438 5.78027C58.738 5.98027 58.4379 6.48029 58.1379 6.98029C57.4379 7.98029 56.638 8.88027 55.838 9.78027C53.838 11.9803 53.7379 11.9803 51.5379 9.78027C50.5379 8.68027 49.4379 8.78029 48.5379 10.0803C47.0379 12.3803 46.438 15.0803 45.238 17.4803C44.738 18.5803 44.238 19.5803 43.438 20.4803C42.638 21.2803 42.038 21.0803 41.438 20.2803C40.938 19.5803 40.4379 18.7803 40.1379 17.9803C39.9379 17.3803 39.6379 16.9803 39.1379 16.6803C37.7379 17.1803 37.938 18.5803 37.838 19.4803C37.338 23.2803 36.9379 27.0803 36.6379 30.8803C36.5379 32.0803 36.738 33.2803 36.938 34.4803C37.138 35.6803 38.538 36.7803 39.838 36.7803C42.438 36.8803 44.838 35.9803 47.238 35.1803C51.538 33.7803 55.638 31.9803 60.238 31.6803C62.238 31.5803 64.2379 31.3803 66.1379 31.5803C69.2379 31.8803 70.838 34.1803 71.738 36.9803C72.138 38.2803 72.6379 39.4803 73.0379 40.7803C74.1379 44.5803 76.8379 46.4803 80.6379 46.6803C83.8379 46.8803 85.9379 48.5803 87.6379 51.2803C89.5379 54.4803 90.2379 57.9803 91.5379 61.3803C91.8379 62.0803 91.738 63.3803 92.838 63.2803C93.938 63.1803 93.9379 62.0803 94.1379 61.1803C95.5379 55.4803 95.138 49.6803 94.438 43.8803C94.338 42.7803 94.1379 41.3803 92.6379 41.0803" stroke="#1F2E3A" stroke-width="2" stroke-miterlimit="10" stroke-linecap="round" stroke-linejoin="round"/>
<path d="M63.4676 125.386C63.8676 124.186 63.1676 122.486 64.6676 122.086C66.3676 121.586 66.7676 123.486 67.7676 124.386C67.8676 124.286 67.9676 124.186 68.0676 124.086C68.5676 123.086 68.7676 121.786 70.2676 121.886C71.6676 121.986 72.3676 123.086 72.7676 124.286C73.4676 126.186 74.1676 127.986 74.8676 129.986C75.4676 129.686 75.5676 128.986 75.9676 128.586C76.1676 128.386 76.5676 127.986 76.7676 128.086C78.8676 128.786 80.2676 126.986 81.9676 126.486C84.1676 125.786 84.9676 126.386 85.0676 128.686C85.0676 129.086 85.1676 129.286 85.4676 129.486C87.3676 130.886 87.3676 131.086 86.0676 132.986C85.8676 133.286 85.6676 133.486 85.5676 133.786C88.1676 134.886 88.2676 134.986 87.2676 137.486C87.0676 137.886 87.0676 138.186 87.3676 138.486C88.6676 139.686 87.9676 140.686 87.0676 141.686C86.7676 141.986 86.4676 142.186 86.1676 142.486C84.1676 144.086 84.1676 144.086 86.4676 145.586C89.0676 147.186 91.6676 148.586 94.4676 149.686C94.9676 149.886 95.5676 150.286 96.0676 149.886C96.5676 149.486 96.1676 148.886 96.0676 148.286C95.2676 145.486 94.4676 142.686 93.1676 140.086C91.4676 136.586 90.1676 132.886 89.8676 128.986C89.4676 124.286 88.9676 119.586 90.0676 114.886C90.6676 112.386 91.7676 110.386 93.6676 108.686C94.5676 107.886 95.3676 107.786 96.3676 108.386C96.8676 108.686 97.3676 109.086 97.8676 109.486C108.668 118.886 116.568 130.086 120.568 143.986C121.668 147.886 122.068 151.886 121.468 155.886C120.168 164.586 114.468 169.986 105.468 170.886C95.7676 171.886 87.0676 168.886 79.0676 163.486C75.9676 161.386 73.1676 159.086 70.5676 156.586C69.5676 155.686 68.9676 155.786 67.8676 156.486C61.7676 160.286 56.1676 164.986 49.8676 168.486C45.8676 170.686 41.7676 172.786 37.5676 174.386C34.7676 175.486 31.7676 176.286 28.7676 176.086C22.2676 175.686 18.8676 172.286 18.1676 165.686C17.4676 159.286 19.0676 153.286 20.9676 147.386C24.6676 135.786 31.0676 125.686 38.4676 116.086C40.1676 113.886 41.7676 111.786 43.6676 109.786C44.5676 108.886 45.4676 108.286 46.7676 108.586C48.0676 108.986 48.3676 110.086 48.6676 111.286C49.0676 113.186 48.6676 115.086 48.1676 116.886C46.8676 121.586 45.3676 126.286 42.4676 130.186C39.0676 134.686 38.4676 139.986 37.1676 145.086C36.7676 146.586 36.5676 148.186 36.2676 150.086C38.4676 148.886 40.3676 147.786 42.2676 146.886C47.3676 144.286 52.3677 141.786 57.5676 139.286C58.5676 138.786 58.1676 138.286 57.9676 137.686C56.9676 134.686 56.1676 131.586 55.7676 128.486C55.4676 126.186 56.2676 125.386 58.5676 125.886C59.0676 125.986 59.3676 125.986 59.5676 125.486C60.6676 123.286 61.2676 123.186 63.0676 124.986C62.9676 124.986 63.1676 125.186 63.4676 125.386Z" fill="white"/>
<path d="M45.7674 109.586C44.7674 109.386 44.2674 110.186 43.7674 110.786C36.4674 119.386 29.9675 128.586 25.0675 138.886C22.1675 145.086 20.0675 151.586 19.0675 158.386C18.4675 162.286 18.4675 166.086 20.0675 169.786C21.2675 172.686 23.3675 174.186 26.4675 174.686C30.9675 175.586 34.9675 174.086 38.9675 172.486C47.7675 168.886 55.6674 163.686 63.1674 157.986C64.9674 156.586 67.1674 155.986 68.6674 154.186" stroke="#1F2E3A" stroke-width="2" stroke-miterlimit="10" stroke-linecap="round" stroke-linejoin="round"/>
<path d="M62.7675 135.186C61.5675 133.486 61.2675 131.386 60.7675 129.486C60.2675 127.786 58.8675 127.486 57.7675 126.686C57.1675 126.186 56.3675 127.086 56.4675 127.986C56.9675 130.886 57.6675 133.786 58.4675 136.686C59.0675 138.986 60.2675 141.186 60.8675 143.486C61.2675 144.986 62.2675 146.386 63.3675 147.686C68.5675 153.986 74.4675 159.486 81.3675 163.886C86.5675 167.186 92.2675 169.086 98.3675 169.786C102.968 170.386 107.368 169.886 111.568 167.986C117.068 165.486 119.568 160.886 120.268 154.986C121.068 148.286 119.168 142.286 116.568 136.286C113.868 130.186 110.567 124.486 106.167 119.386C103.267 115.986 99.9675 112.886 96.6675 109.886C95.9675 109.186 95.1675 108.986 94.1675 109.186" stroke="#1F2E3A" stroke-width="2" stroke-miterlimit="10" stroke-linecap="round" stroke-linejoin="round"/>
<path d="M59.2674 139.886C53.4674 141.686 48.5674 145.086 43.0674 147.586C40.8674 148.586 38.7674 150.086 36.5674 150.986C34.8674 151.786 33.4674 153.086 31.7674 153.686C31.6674 153.686 31.6674 153.786 31.5674 153.786L31.6674 153.886" stroke="#1F2E3A" stroke-width="2" stroke-miterlimit="10" stroke-linecap="round" stroke-linejoin="round"/>
<path d="M39.0672 132.286C37.8672 135.086 37.4672 138.186 36.5672 141.186C35.7672 144.086 35.3672 147.086 34.8672 149.986C34.7672 150.386 34.5672 150.886 35.0672 151.286" stroke="#1F2E3A" stroke-width="2" stroke-miterlimit="10" stroke-linecap="round" stroke-linejoin="round"/>
<path d="M77.668 129.986C78.568 131.686 78.468 133.586 78.768 135.386C79.168 137.686 79.868 139.986 80.568 142.186C80.968 143.786 82.668 144.486 83.868 145.286C87.568 147.786 91.468 149.986 95.668 151.286C99.668 152.586 103.568 154.186 107.868 153.986" stroke="#1F2E3A" stroke-width="2" stroke-miterlimit="10" stroke-linecap="round" stroke-linejoin="round"/>
<path d="M76.6674 138.486C75.7674 137.586 75.3674 136.386 75.2674 135.286C74.6674 131.686 72.8674 128.486 71.8674 124.986C71.6674 124.086 71.3674 122.886 70.0674 123.086C68.9674 123.286 69.2674 124.486 69.2674 125.386C69.2674 126.086 69.0674 126.586 68.5674 127.086" stroke="#1F2E3A" stroke-width="2" stroke-miterlimit="10" stroke-linecap="round" stroke-linejoin="round"/>
<path d="M93.168 137.886C95.368 141.986 96.668 146.486 97.868 150.886C97.968 151.086 97.768 151.486 97.668 151.686" stroke="#1F2E3A" stroke-width="2" stroke-miterlimit="10" stroke-linecap="round" stroke-linejoin="round"/>
<path d="M78.6674 132.686C81.0674 132.386 82.7674 131.286 83.5674 128.886C83.7674 128.386 83.8674 127.886 83.6674 127.586C83.4674 127.286 82.7674 127.286 82.3674 127.386C81.3674 127.786 80.4674 128.286 79.5674 128.886C78.8674 129.286 78.3674 129.886 77.3674 129.786C76.4674 129.586 76.1674 130.486 75.8674 131.186C75.6674 131.686 75.3674 132.086 75.0674 132.386" stroke="#1F2E3A" stroke-width="2" stroke-miterlimit="10" stroke-linecap="round" stroke-linejoin="round"/>
<path d="M83.168 139.686C85.168 138.886 85.168 138.886 86.768 139.886C86.168 141.986 83.968 142.286 82.668 143.686" stroke="#1F2E3A" stroke-width="2" stroke-miterlimit="10" stroke-linecap="round" stroke-linejoin="round"/>
<path d="M60.9678 125.186C61.1678 125.186 61.3678 125.086 61.4678 125.186C62.7678 126.286 63.7678 127.786 64.8678 129.086C65.8678 130.286 65.9678 131.986 66.5678 133.486" stroke="#1F2E3A" stroke-width="2" stroke-miterlimit="10" stroke-linecap="round" stroke-linejoin="round"/>
<path d="M64.8672 122.986C65.4672 124.386 66.5672 125.386 67.5672 126.386C68.7672 127.686 69.0672 129.286 69.6672 130.786C69.8672 131.186 69.5672 131.986 70.4672 131.986" stroke="#1F2E3A" stroke-width="2" stroke-miterlimit="10" stroke-linecap="round" stroke-linejoin="round"/>
<path d="M65.268 124.286C64.868 124.886 64.568 125.586 64.968 126.286C65.368 126.986 65.068 127.686 64.668 128.286" stroke="#1F2E3A" stroke-width="2" stroke-miterlimit="10" stroke-linecap="round" stroke-linejoin="round"/>
<path d="M85.1672 131.286C85.2672 131.386 85.3672 131.386 85.3672 131.486C84.1672 133.286 83.4672 135.586 80.8672 135.986" stroke="#1F2E3A" stroke-width="2" stroke-miterlimit="10" stroke-linecap="round" stroke-linejoin="round"/>
<path d="M83.3672 134.986C83.9672 135.286 84.6672 135.386 85.3672 135.286C85.8672 135.286 86.3672 135.286 86.4672 135.786C86.5672 136.186 86.5672 136.586 86.1672 136.986C85.5672 137.486 85.0672 137.986 85.1672 138.786" stroke="#1F2E3A" stroke-width="2" stroke-miterlimit="10" stroke-linecap="round" stroke-linejoin="round"/>
<path d="M156.1 240.191C155.877 241.44 155.532 242.678 155.431 243.936C154.281 255.124 152.759 266.397 152.581 277.663C152.45 289.855 152.692 301.961 153.047 314.191C153.19 318.462 153.334 322.733 153.598 327.013C153.618 328.281 153.068 329.042 151.938 329.412C150.94 329.676 150.053 330.065 149.064 330.215C139.068 331.479 129.419 334.497 119.414 335.875C117.556 336.185 115.708 336.381 113.869 336.463C111.779 336.639 111.134 335.551 112.01 333.78C112.588 332.676 113.399 331.705 114.332 330.745C118.184 326.912 121.074 322.887 121.901 317.198C123.397 307.765 125.256 298.361 126.033 288.754C127.364 270.789 126.847 253.02 123.156 235.225C120.083 220.357 118.494 205.264 117.4 190.096C117.173 186.855 117.32 183.529 117.588 180.212C118.788 162.352 121.193 144.704 126.248 127.501C128.436 120.08 131.334 112.947 135.062 106.112C135.771 104.903 136.685 104.171 138.075 103.593C140.595 102.646 145.924 66.9845 149.057 84.1329C155.795 82.3755 177.637 78.0894 183.072 81.8672C190.599 86.9653 181.269 111.714 183.488 120.527C184.799 125.467 181.345 134.949 181.908 140.06C183.798 157.479 184.455 175.029 185.598 192.619C186.344 204.535 185.877 216.354 186.026 228.107C186.217 246.886 186.054 265.521 188.448 284.247C189.866 295.413 192.021 306.523 194.307 317.528C194.738 319.75 195.579 321.43 197.158 323.054C199.418 325.309 201.53 327.897 203.66 330.256C204.221 330.877 204.893 331.622 204.334 332.498C203.784 333.259 202.98 332.618 202.243 332.674C199.928 332.602 197.753 332.311 195.438 332.239C188.997 331.833 182.807 329.836 176.561 328.525C174.881 328.159 173.173 328.136 171.343 328.103C167.432 328.132 166.638 327.377 166.076 323.763C163.925 306.553 162.139 289.372 159.745 272.142C158.45 262.483 157.407 252.729 156.615 242.881C156.558 242.07 156.39 241.136 156.212 240.316C156.342 240.211 156.221 240.201 156.1 240.191Z" fill="white"/>
<path d="M137.134 104.668C135.38 106.713 134.449 109.17 133.405 111.503C128.279 122.024 125.3 133.18 123.041 144.508C121.785 150.968 120.651 157.438 119.994 164.061C119.67 168.064 118.982 172.037 118.649 176.154C117.937 184.96 118.336 193.626 119.332 202.455C120.328 211.284 121.324 220.113 122.806 228.981C123.649 233.654 124.735 238.346 125.448 243.123C126.555 250.58 127.289 258.121 127.528 265.738C127.863 276.701 126.994 287.451 125.994 298.305C125.447 303.556 124.527 308.892 123.373 314.094C122.638 317.143 121.894 320.306 121.644 323.393C121.543 324.651 121.095 325.651 120.05 326.488C117.429 328.693 115.265 331.281 113.223 333.878C112.822 334.306 112.412 334.849 112.842 335.574C113.272 336.299 114.028 336.015 114.644 335.95C122.278 335.186 129.735 333.602 137.089 331.779C140.953 330.826 144.892 330.453 148.737 329.728C152.573 329.118 152.591 328.889 152.514 325.314C152.275 317.697 152.157 310.091 151.918 302.474C151.555 291.854 151.557 281.264 152.053 270.599C152.485 262.231 153.403 253.902 154.442 245.583C154.832 242.276 154.736 238.93 156.087 235.816" stroke="#1F2E3A" stroke-width="2" stroke-miterlimit="10" stroke-linecap="round" stroke-linejoin="round"/>
<path d="M178.808 125.535C180.445 130.963 180.729 136.511 181.256 142.079C181.944 150.192 183.117 158.345 183.431 166.543C183.802 175.552 184.182 184.446 184.674 193.465C184.798 196.468 185.164 199.49 185.287 202.493C185.42 205.382 185.301 208.365 185.191 211.234C184.934 217.429 185.172 223.549 185.289 229.66C185.311 233.92 185.09 238.162 185.112 242.423C185.097 247.141 185.212 251.755 185.44 256.493C185.564 260.992 185.941 265.397 186.187 269.906C186.528 276.265 187.485 282.558 188.32 288.842C189.222 295.821 190.244 302.811 191.892 309.62C192.716 313.025 193.298 316.41 194 319.806" stroke="#1F2E3A" stroke-width="2" stroke-miterlimit="10" stroke-linecap="round" stroke-linejoin="round"/>
<path d="M156.229 237.094C158.059 238.623 157.641 240.776 157.745 242.511C158.96 257.689 160.913 272.812 162.988 287.944C164.47 298.309 165.215 308.729 166.446 319.189C166.653 321.162 167.242 322.937 167.206 324.891C167.105 326.149 168.178 326.466 169.13 326.773C169.728 326.936 170.456 326.995 171.072 326.93C176.439 327.019 181.444 328.574 186.597 329.797C191.517 330.885 196.511 331.059 201.589 331.7C201.954 331.729 202.467 331.426 202.849 331.226" stroke="#1F2E3A" stroke-width="2" stroke-miterlimit="10" stroke-linecap="round" stroke-linejoin="round"/>
<path d="M194.926 321.952C197.476 325.152 200.82 327.609 202.858 331.112C203.287 331.837 204.006 332.011 204.856 332.079" stroke="#1F2E3A" stroke-width="2" stroke-miterlimit="10" stroke-linecap="round" stroke-linejoin="round"/>
<path d="M184.688 92.1444C184.688 98.0444 184.588 104.244 183.688 110.444C183.488 111.544 183.088 112.144 181.988 112.544C174.388 115.044 166.588 116.844 158.688 117.544C150.788 118.244 142.888 118.644 135.088 116.444C132.188 115.644 130.488 114.544 129.888 111.044C128.188 100.844 126.888 90.6444 126.688 80.2444C126.588 77.3444 126.788 74.4445 126.988 71.5445C127.088 70.2445 126.588 70.0445 125.388 70.5445C120.488 72.3445 115.288 73.0444 110.088 73.6444C108.388 73.8444 107.588 73.1445 107.388 71.5445C106.488 64.7445 107.088 58.0444 109.888 51.6444C113.188 43.8444 117.788 36.8444 123.988 31.1444C128.588 26.8444 133.788 23.6444 139.988 22.2444C145.088 21.0444 150.288 20.6444 155.488 21.3444C162.688 22.2444 167.988 26.0445 171.488 32.4445C176.088 41.0445 179.288 50.2444 181.488 59.7444C183.788 70.2444 184.888 81.0444 184.688 92.1444Z" fill="white"/>
<path d="M182.288 111.444C182.588 108.944 182.988 106.444 183.188 103.844C183.688 97.4444 183.388 91.0444 183.388 84.7444C183.388 81.0444 182.788 77.3444 182.488 73.6444C181.888 66.9444 180.488 60.4444 178.788 54.0444C177.788 50.3444 176.288 46.7444 174.988 43.1444C173.288 38.6444 171.388 34.3444 168.688 30.2444C165.588 25.6444 161.188 23.4444 155.988 22.5444C152.488 21.9444 149.088 22.2444 145.588 22.5444C141.788 22.8444 138.288 23.6444 134.888 25.2444C130.588 27.2444 126.688 29.8444 123.388 33.2444C118.688 38.1444 114.888 43.6444 111.988 49.7444C108.988 55.9444 107.688 62.4444 108.388 69.3444C108.688 72.8444 108.688 72.9444 111.988 72.4444C116.188 71.7444 120.388 71.2444 124.388 69.8444C124.888 69.6444 125.388 69.4444 125.888 69.2444C127.388 68.4444 127.988 68.8444 127.988 70.7444C127.988 73.8444 127.888 76.9444 127.888 79.9444C127.888 84.8444 128.488 89.7444 128.788 94.6444C129.088 100.144 130.488 105.544 131.188 110.944C131.288 111.844 131.588 112.844 131.788 113.744" stroke="#1F2E3A" stroke-width="2" stroke-miterlimit="10" stroke-linecap="round" stroke-linejoin="round"/>
<path d="M144.708 101.541C139.208 101.441 135.308 98.5407 132.508 94.0407C131.608 92.6407 131.008 91.1407 130.308 89.6407C129.908 88.8407 130.008 88.0407 130.408 87.2407C130.908 86.3407 131.708 85.8407 132.508 86.6407C135.108 89.0407 138.308 88.7407 141.408 88.3407C146.808 87.5407 151.208 84.6407 155.808 82.0407C158.308 80.6407 160.908 79.3408 163.208 77.4408C164.108 76.7408 164.908 77.0407 165.108 78.2407C165.208 78.5407 165.208 78.9407 165.108 79.2407C163.408 87.5407 159.808 94.6408 152.408 99.4408C150.108 100.841 147.508 101.641 144.708 101.541Z" fill="white"/>
<path d="M164.008 78.0408C163.108 79.4408 163.808 81.0408 163.308 82.5408C161.308 88.2408 158.608 93.4408 153.708 97.2408C146.608 102.741 138.208 101.341 133.608 93.7408C133.008 92.8408 132.708 91.8408 132.108 90.9408C131.308 89.8408 131.808 88.6408 131.708 87.4408" stroke="#1F2E3A" stroke-width="2" stroke-miterlimit="10" stroke-linecap="round" stroke-linejoin="round"/>
<path d="M163.208 79.3408C161.208 79.7408 159.808 81.0408 158.108 82.0408C154.108 84.2408 150.208 86.8409 145.908 88.4409C142.508 89.7409 138.908 90.4409 135.208 89.4409C134.108 89.1409 133.008 88.5408 131.908 88.1408" stroke="#1F2E3A" stroke-width="2" stroke-miterlimit="10" stroke-linecap="round" stroke-linejoin="round"/>
<path d="M133.008 52.6409C130.708 53.8409 129.408 55.8409 128.208 57.9409C127.808 58.6409 128.108 59.2409 128.108 59.9409" stroke="#1F2E3A" stroke-width="2" stroke-miterlimit="10" stroke-linecap="round" stroke-linejoin="round"/>
<path d="M149.208 53.1408C147.308 50.8408 144.708 50.9408 142.108 51.0408" stroke="#1F2E3A" stroke-width="2" stroke-miterlimit="10" stroke-linecap="round" stroke-linejoin="round"/>
<path d="M135.608 64.5408C136.437 64.5408 137.108 63.8692 137.108 63.0408C137.108 62.2123 136.437 61.5408 135.608 61.5408C134.78 61.5408 134.108 62.2123 134.108 63.0408C134.108 63.8692 134.78 64.5408 135.608 64.5408Z" fill="#1F2E3A"/>
<path d="M146.208 63.0408C147.036 63.0408 147.708 62.3692 147.708 61.5408C147.708 60.7123 147.036 60.0408 146.208 60.0408C145.38 60.0408 144.708 60.7123 144.708 61.5408C144.708 62.3692 145.38 63.0408 146.208 63.0408Z" fill="#1F2E3A"/>
<path d="M162.909 16.7168C162.809 12.1168 164.709 8.41677 168.609 5.81677C172.409 3.31677 176.709 3.31677 180.809 6.31677C188.109 11.7168 192.609 18.9168 193.309 28.2168C193.809 35.0168 189.209 41.5168 182.609 43.5168C181.309 43.9168 181.709 44.6168 182.009 45.4168C183.209 48.4168 184.109 51.5168 184.509 54.8168C184.809 57.3168 184.809 59.8168 183.909 62.3168C183.309 63.7168 182.509 64.3168 180.909 64.0168C174.109 62.6168 167.409 60.9168 162.109 56.2168C155.209 50.2168 150.109 42.9168 147.709 33.9168C147.109 31.5168 147.009 31.5168 144.909 32.9168C142.909 34.2168 141.009 35.5168 139.009 36.8168C134.109 40.2168 128.509 40.8168 122.709 40.3168C122.309 40.3168 121.809 40.2168 121.409 40.1168C118.709 39.9168 118.609 39.8168 119.509 37.2168C120.609 34.1168 122.409 31.4168 124.509 28.9168C128.909 23.7168 133.909 19.2168 140.509 16.8168C147.809 14.1168 154.909 14.2168 161.609 18.8168C162.009 19.1168 162.409 19.6168 162.909 19.2168C163.309 18.9168 163.109 18.4168 163.109 18.0168C162.909 17.6168 162.909 17.1168 162.909 16.7168Z" fill="white"/>
<path d="M147.109 31.0169C148.309 32.7169 148.509 34.9169 149.209 36.8169C150.809 41.5169 153.309 45.5169 156.409 49.3169C158.409 51.8169 160.609 54.0169 163.009 56.1169C166.309 59.0169 170.309 60.4169 174.409 61.7169C176.609 62.4169 178.909 62.8169 181.209 63.4169C181.809 63.5169 182.309 63.4169 182.709 62.6169C183.209 61.5169 183.609 60.5169 183.709 59.3169C184.109 51.1169 181.009 44.0169 176.909 37.2169C174.609 33.3169 171.809 29.8169 168.809 26.5169C167.209 24.7169 165.509 22.8169 163.609 21.3169C160.509 18.9169 157.109 16.8169 153.009 16.2169C147.709 15.3169 142.709 16.5169 138.009 18.6169C133.809 20.5169 130.209 23.5169 127.109 27.0169C124.609 29.7169 122.309 32.6169 120.709 35.9169C120.509 36.3169 120.309 36.8169 120.209 37.2169C119.709 38.9169 119.909 39.3169 121.709 39.5169C125.709 40.0169 129.709 40.0169 133.609 38.7169C136.509 37.7169 139.009 35.9169 141.509 34.3169C143.309 33.1169 144.909 31.5169 147.109 31.0169" stroke="#1F2E3A" stroke-width="2" stroke-miterlimit="10" stroke-linecap="round" stroke-linejoin="round"/>
<path d="M163.509 20.8169C163.809 19.9169 163.809 19.117 163.709 18.217C162.809 12.617 166.309 6.91695 171.809 5.21695C175.309 4.11695 178.409 5.31693 181.009 7.41693C186.609 11.8169 190.509 17.5169 192.109 24.5169C194.009 32.9169 190.909 38.5169 183.509 42.6169C182.609 43.1169 181.409 42.8169 180.509 43.4169" stroke="#1F2E3A" stroke-width="2" stroke-miterlimit="10" stroke-linecap="round" stroke-linejoin="round"/>
<path d="M149.468 125.386C149.868 124.186 149.168 122.486 150.668 122.086C152.368 121.586 152.768 123.486 153.768 124.386C153.868 124.286 153.968 124.186 154.068 124.086C154.568 123.086 154.768 121.786 156.268 121.886C157.668 121.986 158.368 123.086 158.768 124.286C159.468 126.186 160.168 127.986 160.868 129.986C161.468 129.686 161.568 128.986 161.968 128.586C162.168 128.386 162.568 127.986 162.768 128.086C164.868 128.786 166.268 126.986 167.968 126.486C170.168 125.786 170.968 126.386 171.068 128.686C171.068 129.086 171.168 129.286 171.468 129.486C173.368 130.886 173.368 131.086 172.068 132.986C171.868 133.286 171.668 133.486 171.568 133.786C174.168 134.886 174.268 134.986 173.268 137.486C173.068 137.886 173.068 138.186 173.368 138.486C174.668 139.686 173.968 140.686 173.068 141.686C172.768 141.986 172.468 142.186 172.168 142.486C170.168 144.086 170.168 144.086 172.468 145.586C175.068 147.186 177.668 148.586 180.468 149.686C180.968 149.886 181.568 150.286 182.068 149.886C182.568 149.486 182.168 148.886 182.068 148.286C181.268 145.486 180.468 142.686 179.168 140.086C177.468 136.586 176.168 132.886 175.868 128.986C175.468 124.286 174.968 119.586 176.068 114.886C176.668 112.386 177.768 110.386 179.668 108.686C180.568 107.886 181.368 107.786 182.368 108.386C182.868 108.686 183.368 109.086 183.868 109.486C194.668 118.886 202.568 130.086 206.568 143.986C207.668 147.886 208.068 151.886 207.468 155.886C206.168 164.586 200.468 169.986 191.468 170.886C181.768 171.886 173.068 168.886 165.068 163.486C161.968 161.386 159.168 159.086 156.568 156.586C155.568 155.686 154.968 155.786 153.868 156.486C147.768 160.286 142.168 164.986 135.868 168.486C131.868 170.686 127.768 172.786 123.568 174.386C120.768 175.486 117.768 176.286 114.768 176.086C108.268 175.686 104.868 172.286 104.168 165.686C103.468 159.286 105.068 153.286 106.968 147.386C110.668 135.786 117.068 125.686 124.468 116.086C126.168 113.886 127.768 111.786 129.668 109.786C130.568 108.886 131.468 108.286 132.768 108.586C134.068 108.986 134.368 110.086 134.668 111.286C135.068 113.186 134.668 115.086 134.168 116.886C132.868 121.586 131.368 126.286 128.468 130.186C125.068 134.686 124.468 139.986 123.168 145.086C122.768 146.586 122.568 148.186 122.268 150.086C124.468 148.886 126.368 147.786 128.268 146.886C133.368 144.286 138.368 141.786 143.568 139.286C144.568 138.786 144.168 138.286 143.968 137.686C142.968 134.686 142.168 131.586 141.768 128.486C141.468 126.186 142.268 125.386 144.568 125.886C145.068 125.986 145.368 125.986 145.568 125.486C146.668 123.286 147.268 123.186 149.068 124.986C148.968 124.986 149.168 125.186 149.468 125.386Z" fill="white"/>
<path d="M131.767 109.586C130.767 109.386 130.267 110.186 129.767 110.786C122.467 119.386 115.967 128.586 111.067 138.886C108.167 145.086 106.067 151.586 105.067 158.386C104.467 162.286 104.467 166.086 106.067 169.786C107.267 172.686 109.367 174.186 112.467 174.686C116.967 175.586 120.967 174.086 124.967 172.486C133.767 168.886 141.667 163.686 149.167 157.986C150.967 156.586 153.167 155.986 154.667 154.186" stroke="#1F2E3A" stroke-width="2" stroke-miterlimit="10" stroke-linecap="round" stroke-linejoin="round"/>
<path d="M148.768 135.186C147.568 133.486 147.268 131.386 146.768 129.486C146.268 127.786 144.868 127.486 143.768 126.686C143.168 126.186 142.368 127.086 142.468 127.986C142.968 130.886 143.668 133.786 144.468 136.686C145.068 138.986 146.268 141.186 146.868 143.486C147.268 144.986 148.268 146.386 149.368 147.686C154.568 153.986 160.468 159.486 167.368 163.886C172.568 167.186 178.268 169.086 184.368 169.786C188.968 170.386 193.368 169.886 197.568 167.986C203.068 165.486 205.568 160.886 206.268 154.986C207.068 148.286 205.168 142.286 202.568 136.286C199.868 130.186 196.567 124.486 192.167 119.386C189.267 115.986 185.967 112.886 182.667 109.886C181.967 109.186 181.167 108.986 180.167 109.186" stroke="#1F2E3A" stroke-width="2" stroke-miterlimit="10" stroke-linecap="round" stroke-linejoin="round"/>
<path d="M145.267 139.886C139.467 141.686 134.567 145.086 129.067 147.586C126.867 148.586 124.767 150.086 122.567 150.986C120.867 151.786 119.467 153.086 117.767 153.686C117.667 153.686 117.667 153.786 117.567 153.786L117.667 153.886" stroke="#1F2E3A" stroke-width="2" stroke-miterlimit="10" stroke-linecap="round" stroke-linejoin="round"/>
<path d="M125.067 132.286C123.867 135.086 123.467 138.186 122.567 141.186C121.767 144.086 121.367 147.086 120.867 149.986C120.767 150.386 120.567 150.886 121.067 151.286" stroke="#1F2E3A" stroke-width="2" stroke-miterlimit="10" stroke-linecap="round" stroke-linejoin="round"/>
<path d="M163.668 129.986C164.568 131.686 164.468 133.586 164.768 135.386C165.168 137.686 165.868 139.986 166.568 142.186C166.968 143.786 168.668 144.486 169.868 145.286C173.568 147.786 177.468 149.986 181.668 151.286C185.668 152.586 189.568 154.186 193.868 153.986" stroke="#1F2E3A" stroke-width="2" stroke-miterlimit="10" stroke-linecap="round" stroke-linejoin="round"/>
<path d="M162.667 138.486C161.767 137.586 161.367 136.386 161.267 135.286C160.667 131.686 158.867 128.486 157.867 124.986C157.667 124.086 157.367 122.886 156.067 123.086C154.967 123.286 155.267 124.486 155.267 125.386C155.267 126.086 155.067 126.586 154.567 127.086" stroke="#1F2E3A" stroke-width="2" stroke-miterlimit="10" stroke-linecap="round" stroke-linejoin="round"/>
<path d="M179.168 137.886C181.368 141.986 182.668 146.486 183.868 150.886C183.968 151.086 183.768 151.486 183.668 151.686" stroke="#1F2E3A" stroke-width="2" stroke-miterlimit="10" stroke-linecap="round" stroke-linejoin="round"/>
<path d="M164.667 132.686C167.067 132.386 168.767 131.286 169.567 128.886C169.767 128.386 169.867 127.886 169.667 127.586C169.467 127.286 168.767 127.286 168.367 127.386C167.367 127.786 166.467 128.286 165.567 128.886C164.867 129.286 164.367 129.886 163.367 129.786C162.467 129.586 162.167 130.486 161.867 131.186C161.667 131.686 161.367 132.086 161.067 132.386" stroke="#1F2E3A" stroke-width="2" stroke-miterlimit="10" stroke-linecap="round" stroke-linejoin="round"/>
<path d="M169.168 139.686C171.168 138.886 171.168 138.886 172.768 139.886C172.168 141.986 169.968 142.286 168.668 143.686" stroke="#1F2E3A" stroke-width="2" stroke-miterlimit="10" stroke-linecap="round" stroke-linejoin="round"/>
<path d="M146.968 125.186C147.168 125.186 147.368 125.086 147.468 125.186C148.768 126.286 149.768 127.786 150.868 129.086C151.868 130.286 151.968 131.986 152.568 133.486" stroke="#1F2E3A" stroke-width="2" stroke-miterlimit="10" stroke-linecap="round" stroke-linejoin="round"/>
<path d="M150.867 122.986C151.467 124.386 152.567 125.386 153.567 126.386C154.767 127.686 155.067 129.286 155.667 130.786C155.867 131.186 155.567 131.986 156.467 131.986" stroke="#1F2E3A" stroke-width="2" stroke-miterlimit="10" stroke-linecap="round" stroke-linejoin="round"/>
<path d="M151.268 124.286C150.868 124.886 150.568 125.586 150.968 126.286C151.368 126.986 151.068 127.686 150.668 128.286" stroke="#1F2E3A" stroke-width="2" stroke-miterlimit="10" stroke-linecap="round" stroke-linejoin="round"/>
<path d="M171.167 131.286C171.267 131.386 171.367 131.386 171.367 131.486C170.167 133.286 169.467 135.586 166.867 135.986" stroke="#1F2E3A" stroke-width="2" stroke-miterlimit="10" stroke-linecap="round" stroke-linejoin="round"/>
<path d="M169.367 134.986C169.967 135.286 170.667 135.386 171.367 135.286C171.867 135.286 172.367 135.286 172.467 135.786C172.567 136.186 172.567 136.586 172.167 136.986C171.567 137.486 171.067 137.986 171.167 138.786" stroke="#1F2E3A" stroke-width="2" stroke-miterlimit="10" stroke-linecap="round" stroke-linejoin="round"/>
</svg>
