<svg width="327" height="180" viewBox="0 0 327 180" fill="none" xmlns="http://www.w3.org/2000/svg">
<g clip-path="url(#clip0_1319_4617)">
<rect width="327" height="180" rx="7" fill="url(#paint0_linear_1319_4617)"/>
<path d="M101.704 8.87354C102.363 11.0512 103.286 13.1628 104.143 15.2745C105.923 19.8277 107.704 24.4469 109.418 29.0662C110.868 32.9595 112.319 36.8529 113.835 40.7462C117.264 49.3908 120.561 58.1013 123.923 66.7458C127.286 75.3244 130.517 83.903 133.813 92.5475C137.11 101.126 140.407 109.771 143.704 118.349C146.143 124.75 148.583 131.151 151.022 137.486C154.187 145.603 157.286 153.719 160.451 161.836C163.286 169.227 166.187 176.551 168.89 183.942C169.022 184.338 169.22 184.734 169.22 185.13" stroke="#D8D8D8" stroke-width="2" stroke-miterlimit="10" stroke-linecap="round" stroke-linejoin="round"/>
<path d="M102.759 6.82812C104.935 9.53367 107.044 12.3052 109.22 15.0108C112.715 19.3 115.946 23.7873 119.506 28.0766C121.088 29.9902 122.671 31.9699 124.121 34.0156C130.055 41.9342 136.253 49.655 142.319 57.4416C147.528 64.1065 152.671 70.7054 157.814 77.3703C163.088 84.1672 168.363 91.03 173.704 97.8929C180.429 106.537 187.22 115.05 193.945 123.695C198.429 129.502 202.912 135.309 207.396 141.116C212.934 148.242 218.539 155.369 224.143 162.496C225.462 164.212 226.781 165.861 228.099 167.577C232.055 172.658 236.011 177.805 239.967 182.887C240.627 183.744 241.484 184.404 241.748 185.526" stroke="#D8D8D8" stroke-width="2" stroke-miterlimit="10" stroke-linecap="round" stroke-linejoin="round"/>
<path d="M264.099 57.7714C264.627 57.5074 265.22 57.5734 265.748 57.5734C269.374 57.5074 272.737 56.5176 275.968 54.9998C283.616 51.3704 288.957 45.5634 292.055 37.7107C292.913 35.4671 293.44 33.1575 293.77 30.7819C294.033 28.6043 294.099 26.4266 293.902 24.249C293.44 19.4978 291.924 15.0765 289.088 11.1172C285.989 6.76192 282.033 3.59444 276.957 1.74675C274.913 1.02088 272.935 0.492973 270.759 0.229017C262.187 -0.826806 254.737 1.81274 248.209 7.22383C243.396 11.2492 240.231 16.3963 238.451 22.4013C237.924 24.249 237.66 26.1627 237.462 28.1423C237.198 30.188 237.33 32.2337 237.594 34.2133C238.121 38.7666 239.77 42.9899 242.407 46.7512C245.44 50.9745 249.396 54.076 254.275 55.9237C256.913 56.9135 259.55 57.6394 262.385 57.5734C262.913 57.5734 263.44 57.7054 263.902 57.7714" stroke="#D8D8D8" stroke-width="2" stroke-miterlimit="10" stroke-linecap="round" stroke-linejoin="round"/>
<path d="M100.846 6.23389C99.7915 6.7618 99.5937 7.88364 99.0663 8.7415C96.0992 13.8226 93.1322 18.8378 90.297 23.9849C87.4619 29.0661 84.5608 34.1472 81.7256 39.1624C80.2091 41.8679 78.7586 44.6395 77.1762 47.279C74.5388 51.7003 72.0333 56.2535 69.4619 60.7408C64.8465 68.7914 60.2971 76.842 55.6817 84.8927C51.5279 92.2175 47.5059 99.5422 43.3521 106.801C39.2642 114.06 35.0444 121.253 30.8906 128.511C28.2532 133.065 25.6818 137.618 23.1104 142.171C21.1323 145.734 19.1543 149.298 17.1763 152.861C15.1983 156.359 13.2203 159.79 11.2422 163.222C6.62687 171.272 2.07742 179.323 -2.53795 187.373C-3.26322 188.693 -3.9885 190.013 -4.77971 191.333C-4.97751 191.597 -5.10938 191.861 -5.10938 192.191" stroke="#D8D8D8" stroke-width="2" stroke-miterlimit="10" stroke-linecap="round" stroke-linejoin="round"/>
<path d="M45.0005 32.9595C44.1434 33.6854 43.0885 33.4214 42.1654 33.4874C36.9566 33.6854 31.8137 34.4112 26.7368 35.5331C20.4731 36.9188 14.2753 38.7665 8.20939 41.0101C7.02258 41.4721 5.90171 42 4.97863 42.9898C4.05556 44.0456 4.25336 45.1674 4.84676 46.1573C5.70391 47.543 7.15445 47.939 8.605 48.2689C10.0555 48.5989 11.5061 48.6649 12.8248 49.5227C13.4841 49.9187 14.4731 49.9847 15.3303 49.9847C18.1654 50.1166 20.9346 50.2486 23.8357 50.0506C26.8687 49.8527 29.9017 49.6547 32.9346 49.5227C36.561 49.3248 40.1214 49.2587 43.7478 48.9288C45.528 48.7308 47.3742 48.7968 49.1544 48.7308C51.8577 48.6649 54.561 48.4009 57.3302 48.4009C58.517 48.4009 59.7697 48.203 60.9566 48.005C63.1983 47.609 65.506 47.4771 67.8137 47.675C70.2532 47.939 72.6269 47.741 75.0664 47.807C75.462 47.807 75.8576 47.873 76.2532 47.939" stroke="#D8D8D8" stroke-width="2" stroke-miterlimit="10" stroke-linecap="round" stroke-linejoin="round"/>
<path d="M211.813 143.755C212.011 142.634 212.934 142.04 213.593 141.248C221.769 131.217 230.011 121.253 238.253 111.223C242.406 106.142 246.626 101.06 250.78 95.9793C251.044 95.6494 251.373 95.4515 251.703 95.1875C254.274 98.223 256.318 101.654 258.494 105.02C263.967 113.334 269.439 121.649 274.912 129.898C281.637 140.126 288.428 150.288 295.153 160.517C300.033 167.907 304.912 175.364 309.791 182.755C309.989 183.019 310.318 183.283 310.252 183.745" stroke="#D8D8D8" stroke-width="2" stroke-miterlimit="10" stroke-linecap="round" stroke-linejoin="round"/>
<path d="M252.363 96.4409C251.439 97.5627 251.308 99.0145 250.846 100.334C249.923 103.106 249.066 105.943 248.209 108.715C246.165 115.05 244.187 121.319 242.143 127.654C239.835 134.978 237.527 142.369 235.22 149.694C233.44 155.369 231.659 161.11 229.813 166.785C229.681 167.247 229.615 167.775 229.154 168.105" stroke="#D8D8D8" stroke-width="2" stroke-miterlimit="10" stroke-linecap="round" stroke-linejoin="round"/>
<path d="M69.1323 23.853C70.5828 23.655 71.3081 22.5332 71.8356 21.4114C72.1652 20.6855 71.6377 20.0916 70.9784 19.6297C69.3301 18.4419 67.352 18.1119 65.44 18.0459C58.7806 17.65 52.451 19.0358 46.385 21.8733C44.7367 22.6652 43.1543 23.589 41.9675 24.9748C40.1873 27.1524 40.1873 29.264 42.2971 30.9798C43.8796 32.2995 45.5938 33.6853 47.9015 33.6193" stroke="#D8D8D8" stroke-width="2" stroke-miterlimit="10" stroke-linecap="round" stroke-linejoin="round"/>
<path d="M213.593 159.394C210.297 159.988 206.934 160.186 203.571 160.384C195.593 160.846 187.549 160.846 179.571 160.78C178.187 160.78 176.802 160.516 175.417 160.78" stroke="#D8D8D8" stroke-width="2" stroke-miterlimit="10" stroke-linecap="round" stroke-linejoin="round"/>
<path d="M304.648 23.5234C305.638 24.5793 305.506 25.899 305.308 27.1528C305.044 29.0005 304.517 30.8482 304.121 32.6959C303.923 33.5538 304.055 34.4776 303.923 35.3355C303.791 36.5893 303.33 37.6451 302.539 38.3709C300.627 40.2186 299.572 42.5283 298.846 45.0359C297.791 48.5993 295.352 50.9748 292.253 52.6906C291.594 53.0865 290.868 53.3504 290.275 53.8124C289.088 54.7362 288.429 55.99 288.627 57.5737" stroke="#D8D8D8" stroke-width="2" stroke-miterlimit="10" stroke-linecap="round" stroke-linejoin="round"/>
<path d="M242.341 60.7404C243.264 60.4105 244.121 60.5424 245.11 61.3343C245.638 61.7302 246.165 62.1262 246.561 62.7201C246.89 63.182 247.286 63.5779 247.616 64.0399C249.528 66.3495 249.989 66.3495 252.297 65.4256C254.605 64.5018 256.78 64.6337 258.89 65.6236C261.33 66.6794 263.769 67.4713 266.473 66.9434C268.385 66.6134 270.297 66.4815 272.209 66.6794C273.594 66.8114 274.912 66.9434 276.297 66.6794C276.824 66.6134 277.286 66.4815 277.747 66.2175" stroke="#D8D8D8" stroke-width="2" stroke-miterlimit="10" stroke-linecap="round" stroke-linejoin="round"/>
<path d="M119.111 156.953C113.968 157.481 108.759 157.349 103.616 157.613C99.2645 157.81 94.9128 158.338 90.4953 158.668C89.1106 158.8 87.792 158.8 86.4073 158.998C86.2095 158.998 86.0118 158.998 85.8799 159.196" stroke="#D8D8D8" stroke-width="2" stroke-miterlimit="10" stroke-linecap="round" stroke-linejoin="round"/>
<path d="M72.0336 133.263C68.3413 133.461 64.7149 133.791 61.0226 133.857C55.0226 133.989 49.0226 134.187 43.0886 135.044C42.8248 135.11 42.4952 135.176 42.2314 135.176" stroke="#D8D8D8" stroke-width="2" stroke-miterlimit="10" stroke-linecap="round" stroke-linejoin="round"/>
<path d="M238.912 4.12256C236.736 6.89409 234.296 9.33568 231.989 11.9092C231.198 12.7671 231.066 13.559 231.659 14.5488C233.242 17.3203 232.582 20.0919 231.461 22.7974C230.934 23.9192 230.34 25.041 229.681 26.0969C229.088 27.0867 228.956 28.0105 229.483 29.0664C230.406 30.9141 230.274 32.8937 230.274 34.8734C230.274 36.919 230.934 38.8987 231.132 40.9444C231.198 41.5383 231.659 42.0002 232.121 42.4621" stroke="#D8D8D8" stroke-width="2" stroke-miterlimit="10" stroke-linecap="round" stroke-linejoin="round"/>
<path d="M124.385 33.8839C124.846 33.3559 125.506 33.158 126.165 33.026C127.945 32.4981 129.791 31.9702 131.242 30.7164C132.429 29.7266 132.495 28.6048 130.78 27.7469C129.462 27.021 128.077 27.021 126.693 27.021C124.781 27.021 122.868 27.087 120.956 27.417C120.495 27.4829 120.033 27.4829 119.77 27.9449" stroke="#D8D8D8" stroke-width="2" stroke-miterlimit="10" stroke-linecap="round" stroke-linejoin="round"/>
<path d="M181.22 130.954C175.55 131.614 169.88 132.075 164.275 132.933C163.22 133.065 162.231 133.395 161.176 133.593" stroke="#D8D8D8" stroke-width="2" stroke-miterlimit="10" stroke-linecap="round" stroke-linejoin="round"/>
<path d="M89.1764 83.0455C83.3742 82.8475 77.6379 83.6394 71.9017 84.3653C71.5061 84.4313 70.9786 84.4312 70.7148 84.7612" stroke="#D8D8D8" stroke-width="2" stroke-miterlimit="10" stroke-linecap="round" stroke-linejoin="round"/>
<path d="M70.5825 23.3911C70.8463 23.6551 71.1759 23.7211 71.5715 23.7211C73.3517 23.7211 75.1979 23.8531 76.9781 23.7871C80.4067 23.7871 83.7693 24.381 87.1319 24.9089C87.3297 24.9089 87.5275 24.9089 87.6594 24.9089" stroke="#D8D8D8" stroke-width="2" stroke-miterlimit="10" stroke-linecap="round" stroke-linejoin="round"/>
<path d="M278.868 167.643C277.352 167.181 275.769 167.313 274.253 167.247C270.165 167.049 266.077 166.851 262.055 166.653" stroke="#D8D8D8" stroke-width="2" stroke-miterlimit="10" stroke-linecap="round" stroke-linejoin="round"/>
<path d="M112.319 110.233C110.209 109.837 108.165 109.969 106.055 110.035C103.352 110.101 100.648 110.365 97.8793 110.563C97.3518 110.629 96.8243 110.629 96.4287 111.09" stroke="#D8D8D8" stroke-width="2" stroke-miterlimit="10" stroke-linecap="round" stroke-linejoin="round"/>
<path d="M110.736 60.2134C106.78 60.2134 102.824 60.6753 98.8679 60.8733C98.4723 60.8733 98.0108 60.8732 97.7471 61.3352" stroke="#D8D8D8" stroke-width="2" stroke-miterlimit="10" stroke-linecap="round" stroke-linejoin="round"/>
<path d="M327 186.252C326.736 184.206 325.945 182.425 325.022 180.643C323.901 178.465 322.78 176.42 321.264 174.44C320.934 173.978 320.604 173.516 319.945 173.582" stroke="#D8D8D8" stroke-width="2" stroke-miterlimit="10" stroke-linecap="round" stroke-linejoin="round"/>
<path d="M319.681 173.516C318.495 174.044 318.099 175.298 317.505 176.288C315.989 178.729 314.407 181.105 313.286 183.744C313.154 184.14 313.022 184.47 312.956 184.866" stroke="#D8D8D8" stroke-width="2" stroke-miterlimit="10" stroke-linecap="round" stroke-linejoin="round"/>
<path d="M319.812 170.613C319.878 172.329 319.813 173.978 319.944 175.694C320.142 178.927 320.208 182.161 320.604 185.394" stroke="#D8D8D8" stroke-width="2" stroke-miterlimit="10" stroke-linecap="round" stroke-linejoin="round"/>
<path d="M264.033 129.105C260.341 129.369 256.714 129.633 253.022 129.897" stroke="#D8D8D8" stroke-width="2" stroke-miterlimit="10" stroke-linecap="round" stroke-linejoin="round"/>
<path d="M40.9783 166.983C39.0003 167.247 37.0223 167.643 35.0443 167.841C33.9234 167.973 32.8684 168.039 31.7476 168.171" stroke="#D8D8D8" stroke-width="2" stroke-miterlimit="10" stroke-linecap="round" stroke-linejoin="round"/>
<path d="M251.571 152.664C249.461 152.796 247.285 152.862 245.175 152.994C244.582 152.994 243.923 152.994 243.329 152.994" stroke="#D8D8D8" stroke-width="2" stroke-miterlimit="10" stroke-linecap="round" stroke-linejoin="round"/>
<path d="M277.351 145.933C276.824 145.339 276.032 145.537 275.373 145.537C273.263 145.471 271.219 145.405 269.109 145.603" stroke="#D8D8D8" stroke-width="2" stroke-miterlimit="10" stroke-linecap="round" stroke-linejoin="round"/>
<path d="M225.132 149.167C224.011 148.771 222.89 148.837 221.704 148.837" stroke="#D8D8D8" stroke-width="2" stroke-miterlimit="10" stroke-linecap="round" stroke-linejoin="round"/>
<path d="M101.704 8.87354C102.363 11.0512 103.286 13.1628 104.143 15.2745C105.923 19.8277 107.704 24.4469 109.418 29.0662C110.868 32.9595 112.319 36.8529 113.835 40.7462C117.264 49.3908 120.561 58.1013 123.923 66.7458C127.286 75.3244 130.517 83.903 133.813 92.5475C137.11 101.126 140.407 109.771 143.704 118.349C146.143 124.75 148.583 131.151 151.022 137.486C154.187 145.603 157.286 153.719 160.451 161.836C163.286 169.227 166.187 176.551 168.89 183.942C169.022 184.338 169.22 184.734 169.22 185.13" stroke="#D8D8D8" stroke-width="2" stroke-miterlimit="10" stroke-linecap="round" stroke-linejoin="round"/>
<path d="M102.759 6.82812C104.935 9.53367 107.044 12.3052 109.22 15.0108C112.715 19.3 115.946 23.7873 119.506 28.0766C121.088 29.9902 122.671 31.9699 124.121 34.0156C130.055 41.9342 136.253 49.655 142.319 57.4416C147.528 64.1065 152.671 70.7054 157.814 77.3703C163.088 84.1672 168.363 91.03 173.704 97.8929C180.429 106.537 187.22 115.05 193.945 123.695C198.429 129.502 202.912 135.309 207.396 141.116C212.934 148.242 218.539 155.369 224.143 162.496C225.462 164.212 226.781 165.861 228.099 167.577C232.055 172.658 236.011 177.805 239.967 182.887C240.627 183.744 241.484 184.404 241.748 185.526" stroke="#D8D8D8" stroke-width="2" stroke-miterlimit="10" stroke-linecap="round" stroke-linejoin="round"/>
<path d="M264.099 57.7714C264.627 57.5074 265.22 57.5734 265.748 57.5734C269.374 57.5074 272.737 56.5176 275.968 54.9998C283.616 51.3704 288.957 45.5634 292.055 37.7107C292.913 35.4671 293.44 33.1575 293.77 30.7819C294.033 28.6043 294.099 26.4266 293.902 24.249C293.44 19.4978 291.924 15.0765 289.088 11.1172C285.989 6.76192 282.033 3.59444 276.957 1.74675C274.913 1.02088 272.935 0.492973 270.759 0.229017C262.187 -0.826806 254.737 1.81274 248.209 7.22383C243.396 11.2492 240.231 16.3963 238.451 22.4013C237.924 24.249 237.66 26.1627 237.462 28.1423C237.198 30.188 237.33 32.2337 237.594 34.2133C238.121 38.7666 239.77 42.9899 242.407 46.7512C245.44 50.9745 249.396 54.076 254.275 55.9237C256.913 56.9135 259.55 57.6394 262.385 57.5734C262.913 57.5734 263.44 57.7054 263.902 57.7714" stroke="#D8D8D8" stroke-width="2" stroke-miterlimit="10" stroke-linecap="round" stroke-linejoin="round"/>
<path d="M100.846 6.23389C99.7915 6.7618 99.5937 7.88364 99.0663 8.7415C96.0992 13.8226 93.1322 18.8378 90.297 23.9849C87.4619 29.0661 84.5608 34.1472 81.7256 39.1624C80.2091 41.8679 78.7586 44.6395 77.1762 47.279C74.5388 51.7003 72.0333 56.2535 69.4619 60.7408C64.8465 68.7914 60.2971 76.842 55.6817 84.8927C51.5279 92.2175 47.5059 99.5422 43.3521 106.801C39.2642 114.06 35.0444 121.253 30.8906 128.511C28.2532 133.065 25.6818 137.618 23.1104 142.171C21.1323 145.734 19.1543 149.298 17.1763 152.861C15.1983 156.359 13.2203 159.79 11.2422 163.222C6.62687 171.272 2.07742 179.323 -2.53795 187.373C-3.26322 188.693 -3.9885 190.013 -4.77971 191.333C-4.97751 191.597 -5.10938 191.861 -5.10938 192.191" stroke="#D8D8D8" stroke-width="2" stroke-miterlimit="10" stroke-linecap="round" stroke-linejoin="round"/>
<path d="M45.0005 32.9595C44.1434 33.6854 43.0885 33.4214 42.1654 33.4874C36.9566 33.6854 31.8137 34.4112 26.7368 35.5331C20.4731 36.9188 14.2753 38.7665 8.20939 41.0101C7.02258 41.4721 5.90171 42 4.97863 42.9898C4.05556 44.0456 4.25336 45.1674 4.84676 46.1573C5.70391 47.543 7.15445 47.939 8.605 48.2689C10.0555 48.5989 11.5061 48.6649 12.8248 49.5227C13.4841 49.9187 14.4731 49.9847 15.3303 49.9847C18.1654 50.1166 20.9346 50.2486 23.8357 50.0506C26.8687 49.8527 29.9017 49.6547 32.9346 49.5227C36.561 49.3248 40.1214 49.2587 43.7478 48.9288C45.528 48.7308 47.3742 48.7968 49.1544 48.7308C51.8577 48.6649 54.561 48.4009 57.3302 48.4009C58.517 48.4009 59.7697 48.203 60.9566 48.005C63.1983 47.609 65.506 47.4771 67.8137 47.675C70.2532 47.939 72.6269 47.741 75.0664 47.807C75.462 47.807 75.8576 47.873 76.2532 47.939" stroke="#D8D8D8" stroke-width="2" stroke-miterlimit="10" stroke-linecap="round" stroke-linejoin="round"/>
<path d="M211.813 143.755C212.011 142.634 212.934 142.04 213.593 141.248C221.769 131.217 230.011 121.253 238.253 111.223C242.406 106.142 246.626 101.06 250.78 95.9793C251.044 95.6494 251.373 95.4515 251.703 95.1875C254.274 98.223 256.318 101.654 258.494 105.02C263.967 113.334 269.439 121.649 274.912 129.898C281.637 140.126 288.428 150.288 295.153 160.517C300.033 167.907 304.912 175.364 309.791 182.755C309.989 183.019 310.318 183.283 310.252 183.745" stroke="#D8D8D8" stroke-width="2" stroke-miterlimit="10" stroke-linecap="round" stroke-linejoin="round"/>
<path d="M252.363 96.4409C251.439 97.5627 251.308 99.0145 250.846 100.334C249.923 103.106 249.066 105.943 248.209 108.715C246.165 115.05 244.187 121.319 242.143 127.654C239.835 134.978 237.527 142.369 235.22 149.694C233.44 155.369 231.659 161.11 229.813 166.785C229.681 167.247 229.615 167.775 229.154 168.105" stroke="#D8D8D8" stroke-width="2" stroke-miterlimit="10" stroke-linecap="round" stroke-linejoin="round"/>
<path d="M69.1323 23.853C70.5828 23.655 71.3081 22.5332 71.8356 21.4114C72.1652 20.6855 71.6377 20.0916 70.9784 19.6297C69.3301 18.4419 67.352 18.1119 65.44 18.0459C58.7806 17.65 52.451 19.0358 46.385 21.8733C44.7367 22.6652 43.1543 23.589 41.9675 24.9748C40.1873 27.1524 40.1873 29.264 42.2971 30.9798C43.8796 32.2995 45.5938 33.6853 47.9015 33.6193" stroke="#D8D8D8" stroke-width="2" stroke-miterlimit="10" stroke-linecap="round" stroke-linejoin="round"/>
<path d="M213.593 159.394C210.297 159.988 206.934 160.186 203.571 160.384C195.593 160.846 187.549 160.846 179.571 160.78C178.187 160.78 176.802 160.516 175.417 160.78" stroke="#D8D8D8" stroke-width="2" stroke-miterlimit="10" stroke-linecap="round" stroke-linejoin="round"/>
<path d="M304.648 23.5234C305.638 24.5793 305.506 25.899 305.308 27.1528C305.044 29.0005 304.517 30.8482 304.121 32.6959C303.923 33.5538 304.055 34.4776 303.923 35.3355C303.791 36.5893 303.33 37.6451 302.539 38.3709C300.627 40.2186 299.572 42.5283 298.846 45.0359C297.791 48.5993 295.352 50.9748 292.253 52.6906C291.594 53.0865 290.868 53.3504 290.275 53.8124C289.088 54.7362 288.429 55.99 288.627 57.5737" stroke="#D8D8D8" stroke-width="2" stroke-miterlimit="10" stroke-linecap="round" stroke-linejoin="round"/>
<path d="M242.341 60.7404C243.264 60.4105 244.121 60.5424 245.11 61.3343C245.638 61.7302 246.165 62.1262 246.561 62.7201C246.89 63.182 247.286 63.5779 247.616 64.0399C249.528 66.3495 249.989 66.3495 252.297 65.4256C254.605 64.5018 256.78 64.6337 258.89 65.6236C261.33 66.6794 263.769 67.4713 266.473 66.9434C268.385 66.6134 270.297 66.4815 272.209 66.6794C273.594 66.8114 274.912 66.9434 276.297 66.6794C276.824 66.6134 277.286 66.4815 277.747 66.2175" stroke="#D8D8D8" stroke-width="2" stroke-miterlimit="10" stroke-linecap="round" stroke-linejoin="round"/>
<path d="M119.111 156.953C113.968 157.481 108.759 157.349 103.616 157.613C99.2645 157.81 94.9128 158.338 90.4953 158.668C89.1106 158.8 87.792 158.8 86.4073 158.998C86.2095 158.998 86.0118 158.998 85.8799 159.196" stroke="#D8D8D8" stroke-width="2" stroke-miterlimit="10" stroke-linecap="round" stroke-linejoin="round"/>
<path d="M72.0336 133.263C68.3413 133.461 64.7149 133.791 61.0226 133.857C55.0226 133.989 49.0226 134.187 43.0886 135.044C42.8248 135.11 42.4952 135.176 42.2314 135.176" stroke="#D8D8D8" stroke-width="2" stroke-miterlimit="10" stroke-linecap="round" stroke-linejoin="round"/>
<path d="M238.912 4.12256C236.736 6.89409 234.296 9.33568 231.989 11.9092C231.198 12.7671 231.066 13.559 231.659 14.5488C233.242 17.3203 232.582 20.0919 231.461 22.7974C230.934 23.9192 230.34 25.041 229.681 26.0969C229.088 27.0867 228.956 28.0105 229.483 29.0664C230.406 30.9141 230.274 32.8937 230.274 34.8734C230.274 36.919 230.934 38.8987 231.132 40.9444C231.198 41.5383 231.659 42.0002 232.121 42.4621" stroke="#D8D8D8" stroke-width="2" stroke-miterlimit="10" stroke-linecap="round" stroke-linejoin="round"/>
<path d="M124.385 33.8839C124.846 33.3559 125.506 33.158 126.165 33.026C127.945 32.4981 129.791 31.9702 131.242 30.7164C132.429 29.7266 132.495 28.6048 130.78 27.7469C129.462 27.021 128.077 27.021 126.693 27.021C124.781 27.021 122.868 27.087 120.956 27.417C120.495 27.4829 120.033 27.4829 119.77 27.9449" stroke="#D8D8D8" stroke-width="2" stroke-miterlimit="10" stroke-linecap="round" stroke-linejoin="round"/>
<path d="M181.22 130.954C175.55 131.614 169.88 132.075 164.275 132.933C163.22 133.065 162.231 133.395 161.176 133.593" stroke="#D8D8D8" stroke-width="2" stroke-miterlimit="10" stroke-linecap="round" stroke-linejoin="round"/>
<path d="M89.1764 83.0455C83.3742 82.8475 77.6379 83.6394 71.9017 84.3653C71.5061 84.4313 70.9786 84.4312 70.7148 84.7612" stroke="#D8D8D8" stroke-width="2" stroke-miterlimit="10" stroke-linecap="round" stroke-linejoin="round"/>
<path d="M70.5825 23.3911C70.8463 23.6551 71.1759 23.7211 71.5715 23.7211C73.3517 23.7211 75.1979 23.8531 76.9781 23.7871C80.4067 23.7871 83.7693 24.381 87.1319 24.9089C87.3297 24.9089 87.5275 24.9089 87.6594 24.9089" stroke="#D8D8D8" stroke-width="2" stroke-miterlimit="10" stroke-linecap="round" stroke-linejoin="round"/>
<path d="M278.868 167.643C277.352 167.181 275.769 167.313 274.253 167.247C270.165 167.049 266.077 166.851 262.055 166.653" stroke="#D8D8D8" stroke-width="2" stroke-miterlimit="10" stroke-linecap="round" stroke-linejoin="round"/>
<path d="M112.319 110.233C110.209 109.837 108.165 109.969 106.055 110.035C103.352 110.101 100.648 110.365 97.8793 110.563C97.3518 110.629 96.8243 110.629 96.4287 111.09" stroke="#D8D8D8" stroke-width="2" stroke-miterlimit="10" stroke-linecap="round" stroke-linejoin="round"/>
<path d="M110.736 60.2134C106.78 60.2134 102.824 60.6753 98.8679 60.8733C98.4723 60.8733 98.0108 60.8732 97.7471 61.3352" stroke="#D8D8D8" stroke-width="2" stroke-miterlimit="10" stroke-linecap="round" stroke-linejoin="round"/>
<path d="M327 186.252C326.736 184.206 325.945 182.425 325.022 180.643C323.901 178.465 322.78 176.42 321.264 174.44C320.934 173.978 320.604 173.516 319.945 173.582" stroke="#D8D8D8" stroke-width="2" stroke-miterlimit="10" stroke-linecap="round" stroke-linejoin="round"/>
<path d="M319.681 173.516C318.495 174.044 318.099 175.298 317.505 176.288C315.989 178.729 314.407 181.105 313.286 183.744C313.154 184.14 313.022 184.47 312.956 184.866" stroke="#D8D8D8" stroke-width="2" stroke-miterlimit="10" stroke-linecap="round" stroke-linejoin="round"/>
<path d="M319.812 170.613C319.878 172.329 319.813 173.978 319.944 175.694C320.142 178.927 320.208 182.161 320.604 185.394" stroke="#D8D8D8" stroke-width="2" stroke-miterlimit="10" stroke-linecap="round" stroke-linejoin="round"/>
<path d="M264.033 129.105C260.341 129.369 256.714 129.633 253.022 129.897" stroke="#D8D8D8" stroke-width="2" stroke-miterlimit="10" stroke-linecap="round" stroke-linejoin="round"/>
<path d="M40.9783 166.983C39.0003 167.247 37.0223 167.643 35.0443 167.841C33.9234 167.973 32.8684 168.039 31.7476 168.171" stroke="#D8D8D8" stroke-width="2" stroke-miterlimit="10" stroke-linecap="round" stroke-linejoin="round"/>
<path d="M251.571 152.664C249.461 152.796 247.285 152.862 245.175 152.994C244.582 152.994 243.923 152.994 243.329 152.994" stroke="#D8D8D8" stroke-width="2" stroke-miterlimit="10" stroke-linecap="round" stroke-linejoin="round"/>
<path d="M277.351 145.933C276.824 145.339 276.032 145.537 275.373 145.537C273.263 145.471 271.219 145.405 269.109 145.603" stroke="#D8D8D8" stroke-width="2" stroke-miterlimit="10" stroke-linecap="round" stroke-linejoin="round"/>
<path d="M225.132 149.167C224.011 148.771 222.89 148.837 221.704 148.837" stroke="#D8D8D8" stroke-width="2" stroke-miterlimit="10" stroke-linecap="round" stroke-linejoin="round"/>
<path d="M101.704 8.87354C102.363 11.0512 103.286 13.1628 104.143 15.2745C105.923 19.8277 107.704 24.4469 109.418 29.0662C110.868 32.9595 112.319 36.8529 113.835 40.7462C117.264 49.3908 120.561 58.1013 123.923 66.7458C127.286 75.3244 130.517 83.903 133.813 92.5475C137.11 101.126 140.407 109.771 143.704 118.349C146.143 124.75 148.583 131.151 151.022 137.486C154.187 145.603 157.286 153.719 160.451 161.836C163.286 169.227 166.187 176.551 168.89 183.942C169.022 184.338 169.22 184.734 169.22 185.13" stroke="#D8D8D8" stroke-width="2" stroke-miterlimit="10" stroke-linecap="round" stroke-linejoin="round"/>
<path d="M102.759 6.82812C104.935 9.53367 107.044 12.3052 109.22 15.0108C112.715 19.3 115.946 23.7873 119.506 28.0766C121.088 29.9902 122.671 31.9699 124.121 34.0156C130.055 41.9342 136.253 49.655 142.319 57.4416C147.528 64.1065 152.671 70.7054 157.814 77.3703C163.088 84.1672 168.363 91.03 173.704 97.8929C180.429 106.537 187.22 115.05 193.945 123.695C198.429 129.502 202.912 135.309 207.396 141.116C212.934 148.242 218.539 155.369 224.143 162.496C225.462 164.212 226.781 165.861 228.099 167.577C232.055 172.658 236.011 177.805 239.967 182.887C240.627 183.744 241.484 184.404 241.748 185.526" stroke="#D8D8D8" stroke-width="2" stroke-miterlimit="10" stroke-linecap="round" stroke-linejoin="round"/>
<path d="M264.099 57.7714C264.627 57.5074 265.22 57.5734 265.748 57.5734C269.374 57.5074 272.737 56.5176 275.968 54.9998C283.616 51.3704 288.957 45.5634 292.055 37.7107C292.913 35.4671 293.44 33.1575 293.77 30.7819C294.033 28.6043 294.099 26.4266 293.902 24.249C293.44 19.4978 291.924 15.0765 289.088 11.1172C285.989 6.76192 282.033 3.59444 276.957 1.74675C274.913 1.02088 272.935 0.492973 270.759 0.229017C262.187 -0.826806 254.737 1.81274 248.209 7.22383C243.396 11.2492 240.231 16.3963 238.451 22.4013C237.924 24.249 237.66 26.1627 237.462 28.1423C237.198 30.188 237.33 32.2337 237.594 34.2133C238.121 38.7666 239.77 42.9899 242.407 46.7512C245.44 50.9745 249.396 54.076 254.275 55.9237C256.913 56.9135 259.55 57.6394 262.385 57.5734C262.913 57.5734 263.44 57.7054 263.902 57.7714" stroke="#D8D8D8" stroke-width="2" stroke-miterlimit="10" stroke-linecap="round" stroke-linejoin="round"/>
<path d="M100.846 6.23389C99.7915 6.7618 99.5937 7.88364 99.0663 8.7415C96.0992 13.8226 93.1322 18.8378 90.297 23.9849C87.4619 29.0661 84.5608 34.1472 81.7256 39.1624C80.2091 41.8679 78.7586 44.6395 77.1762 47.279C74.5388 51.7003 72.0333 56.2535 69.4619 60.7408C64.8465 68.7914 60.2971 76.842 55.6817 84.8927C51.5279 92.2175 47.5059 99.5422 43.3521 106.801C39.2642 114.06 35.0444 121.253 30.8906 128.511C28.2532 133.065 25.6818 137.618 23.1104 142.171C21.1323 145.734 19.1543 149.298 17.1763 152.861C15.1983 156.359 13.2203 159.79 11.2422 163.222C6.62687 171.272 2.07742 179.323 -2.53795 187.373C-3.26322 188.693 -3.9885 190.013 -4.77971 191.333C-4.97751 191.597 -5.10938 191.861 -5.10938 192.191" stroke="#D8D8D8" stroke-width="2" stroke-miterlimit="10" stroke-linecap="round" stroke-linejoin="round"/>
<path d="M45.0005 32.9595C44.1434 33.6854 43.0885 33.4214 42.1654 33.4874C36.9566 33.6854 31.8137 34.4112 26.7368 35.5331C20.4731 36.9188 14.2753 38.7665 8.20939 41.0101C7.02258 41.4721 5.90171 42 4.97863 42.9898C4.05556 44.0456 4.25336 45.1674 4.84676 46.1573C5.70391 47.543 7.15445 47.939 8.605 48.2689C10.0555 48.5989 11.5061 48.6649 12.8248 49.5227C13.4841 49.9187 14.4731 49.9847 15.3303 49.9847C18.1654 50.1166 20.9346 50.2486 23.8357 50.0506C26.8687 49.8527 29.9017 49.6547 32.9346 49.5227C36.561 49.3248 40.1214 49.2587 43.7478 48.9288C45.528 48.7308 47.3742 48.7968 49.1544 48.7308C51.8577 48.6649 54.561 48.4009 57.3302 48.4009C58.517 48.4009 59.7697 48.203 60.9566 48.005C63.1983 47.609 65.506 47.4771 67.8137 47.675C70.2532 47.939 72.6269 47.741 75.0664 47.807C75.462 47.807 75.8576 47.873 76.2532 47.939" stroke="#D8D8D8" stroke-width="2" stroke-miterlimit="10" stroke-linecap="round" stroke-linejoin="round"/>
<path d="M211.813 143.755C212.011 142.634 212.934 142.04 213.593 141.248C221.769 131.217 230.011 121.253 238.253 111.223C242.406 106.142 246.626 101.06 250.78 95.9793C251.044 95.6494 251.373 95.4515 251.703 95.1875C254.274 98.223 256.318 101.654 258.494 105.02C263.967 113.334 269.439 121.649 274.912 129.898C281.637 140.126 288.428 150.288 295.153 160.517C300.033 167.907 304.912 175.364 309.791 182.755C309.989 183.019 310.318 183.283 310.252 183.745" stroke="#D8D8D8" stroke-width="2" stroke-miterlimit="10" stroke-linecap="round" stroke-linejoin="round"/>
<path d="M252.363 96.4409C251.439 97.5627 251.308 99.0145 250.846 100.334C249.923 103.106 249.066 105.943 248.209 108.715C246.165 115.05 244.187 121.319 242.143 127.654C239.835 134.978 237.527 142.369 235.22 149.694C233.44 155.369 231.659 161.11 229.813 166.785C229.681 167.247 229.615 167.775 229.154 168.105" stroke="#D8D8D8" stroke-width="2" stroke-miterlimit="10" stroke-linecap="round" stroke-linejoin="round"/>
<path d="M69.1323 23.853C70.5828 23.655 71.3081 22.5332 71.8356 21.4114C72.1652 20.6855 71.6377 20.0916 70.9784 19.6297C69.3301 18.4419 67.352 18.1119 65.44 18.0459C58.7806 17.65 52.451 19.0358 46.385 21.8733C44.7367 22.6652 43.1543 23.589 41.9675 24.9748C40.1873 27.1524 40.1873 29.264 42.2971 30.9798C43.8796 32.2995 45.5938 33.6853 47.9015 33.6193" stroke="#D8D8D8" stroke-width="2" stroke-miterlimit="10" stroke-linecap="round" stroke-linejoin="round"/>
<path d="M213.593 159.394C210.297 159.988 206.934 160.186 203.571 160.384C195.593 160.846 187.549 160.846 179.571 160.78C178.187 160.78 176.802 160.516 175.417 160.78" stroke="#D8D8D8" stroke-width="2" stroke-miterlimit="10" stroke-linecap="round" stroke-linejoin="round"/>
<path d="M304.648 23.5234C305.638 24.5793 305.506 25.899 305.308 27.1528C305.044 29.0005 304.517 30.8482 304.121 32.6959C303.923 33.5538 304.055 34.4776 303.923 35.3355C303.791 36.5893 303.33 37.6451 302.539 38.3709C300.627 40.2186 299.572 42.5283 298.846 45.0359C297.791 48.5993 295.352 50.9748 292.253 52.6906C291.594 53.0865 290.868 53.3504 290.275 53.8124C289.088 54.7362 288.429 55.99 288.627 57.5737" stroke="#D8D8D8" stroke-width="2" stroke-miterlimit="10" stroke-linecap="round" stroke-linejoin="round"/>
<path d="M242.341 60.7404C243.264 60.4105 244.121 60.5424 245.11 61.3343C245.638 61.7302 246.165 62.1262 246.561 62.7201C246.89 63.182 247.286 63.5779 247.616 64.0399C249.528 66.3495 249.989 66.3495 252.297 65.4256C254.605 64.5018 256.78 64.6337 258.89 65.6236C261.33 66.6794 263.769 67.4713 266.473 66.9434C268.385 66.6134 270.297 66.4815 272.209 66.6794C273.594 66.8114 274.912 66.9434 276.297 66.6794C276.824 66.6134 277.286 66.4815 277.747 66.2175" stroke="#D8D8D8" stroke-width="2" stroke-miterlimit="10" stroke-linecap="round" stroke-linejoin="round"/>
<path d="M119.111 156.953C113.968 157.481 108.759 157.349 103.616 157.613C99.2645 157.81 94.9128 158.338 90.4953 158.668C89.1106 158.8 87.792 158.8 86.4073 158.998C86.2095 158.998 86.0118 158.998 85.8799 159.196" stroke="#D8D8D8" stroke-width="2" stroke-miterlimit="10" stroke-linecap="round" stroke-linejoin="round"/>
<path d="M72.0336 133.263C68.3413 133.461 64.7149 133.791 61.0226 133.857C55.0226 133.989 49.0226 134.187 43.0886 135.044C42.8248 135.11 42.4952 135.176 42.2314 135.176" stroke="#D8D8D8" stroke-width="2" stroke-miterlimit="10" stroke-linecap="round" stroke-linejoin="round"/>
<path d="M238.912 4.12256C236.736 6.89409 234.296 9.33568 231.989 11.9092C231.198 12.7671 231.066 13.559 231.659 14.5488C233.242 17.3203 232.582 20.0919 231.461 22.7974C230.934 23.9192 230.34 25.041 229.681 26.0969C229.088 27.0867 228.956 28.0105 229.483 29.0664C230.406 30.9141 230.274 32.8937 230.274 34.8734C230.274 36.919 230.934 38.8987 231.132 40.9444C231.198 41.5383 231.659 42.0002 232.121 42.4621" stroke="#D8D8D8" stroke-width="2" stroke-miterlimit="10" stroke-linecap="round" stroke-linejoin="round"/>
<path d="M124.385 33.8839C124.846 33.3559 125.506 33.158 126.165 33.026C127.945 32.4981 129.791 31.9702 131.242 30.7164C132.429 29.7266 132.495 28.6048 130.78 27.7469C129.462 27.021 128.077 27.021 126.693 27.021C124.781 27.021 122.868 27.087 120.956 27.417C120.495 27.4829 120.033 27.4829 119.77 27.9449" stroke="#D8D8D8" stroke-width="2" stroke-miterlimit="10" stroke-linecap="round" stroke-linejoin="round"/>
<path d="M181.22 130.954C175.55 131.614 169.88 132.075 164.275 132.933C163.22 133.065 162.231 133.395 161.176 133.593" stroke="#D8D8D8" stroke-width="2" stroke-miterlimit="10" stroke-linecap="round" stroke-linejoin="round"/>
<path d="M89.1764 83.0455C83.3742 82.8475 77.6379 83.6394 71.9017 84.3653C71.5061 84.4313 70.9786 84.4312 70.7148 84.7612" stroke="#D8D8D8" stroke-width="2" stroke-miterlimit="10" stroke-linecap="round" stroke-linejoin="round"/>
<path d="M70.5825 23.3911C70.8463 23.6551 71.1759 23.7211 71.5715 23.7211C73.3517 23.7211 75.1979 23.8531 76.9781 23.7871C80.4067 23.7871 83.7693 24.381 87.1319 24.9089C87.3297 24.9089 87.5275 24.9089 87.6594 24.9089" stroke="#D8D8D8" stroke-width="2" stroke-miterlimit="10" stroke-linecap="round" stroke-linejoin="round"/>
<path d="M278.868 167.643C277.352 167.181 275.769 167.313 274.253 167.247C270.165 167.049 266.077 166.851 262.055 166.653" stroke="#D8D8D8" stroke-width="2" stroke-miterlimit="10" stroke-linecap="round" stroke-linejoin="round"/>
<path d="M112.319 110.233C110.209 109.837 108.165 109.969 106.055 110.035C103.352 110.101 100.648 110.365 97.8793 110.563C97.3518 110.629 96.8243 110.629 96.4287 111.09" stroke="#D8D8D8" stroke-width="2" stroke-miterlimit="10" stroke-linecap="round" stroke-linejoin="round"/>
<path d="M110.736 60.2134C106.78 60.2134 102.824 60.6753 98.8679 60.8733C98.4723 60.8733 98.0108 60.8732 97.7471 61.3352" stroke="#D8D8D8" stroke-width="2" stroke-miterlimit="10" stroke-linecap="round" stroke-linejoin="round"/>
<path d="M327 186.252C326.736 184.206 325.945 182.425 325.022 180.643C323.901 178.465 322.78 176.42 321.264 174.44C320.934 173.978 320.604 173.516 319.945 173.582" stroke="#D8D8D8" stroke-width="2" stroke-miterlimit="10" stroke-linecap="round" stroke-linejoin="round"/>
<path d="M319.681 173.516C318.495 174.044 318.099 175.298 317.505 176.288C315.989 178.729 314.407 181.105 313.286 183.744C313.154 184.14 313.022 184.47 312.956 184.866" stroke="#D8D8D8" stroke-width="2" stroke-miterlimit="10" stroke-linecap="round" stroke-linejoin="round"/>
<path d="M319.812 170.613C319.878 172.329 319.813 173.978 319.944 175.694C320.142 178.927 320.208 182.161 320.604 185.394" stroke="#D8D8D8" stroke-width="2" stroke-miterlimit="10" stroke-linecap="round" stroke-linejoin="round"/>
<path d="M264.033 129.105C260.341 129.369 256.714 129.633 253.022 129.897" stroke="#D8D8D8" stroke-width="2" stroke-miterlimit="10" stroke-linecap="round" stroke-linejoin="round"/>
<path d="M40.9783 166.983C39.0003 167.247 37.0223 167.643 35.0443 167.841C33.9234 167.973 32.8684 168.039 31.7476 168.171" stroke="#D8D8D8" stroke-width="2" stroke-miterlimit="10" stroke-linecap="round" stroke-linejoin="round"/>
<path d="M251.571 152.664C249.461 152.796 247.285 152.862 245.175 152.994C244.582 152.994 243.923 152.994 243.329 152.994" stroke="#D8D8D8" stroke-width="2" stroke-miterlimit="10" stroke-linecap="round" stroke-linejoin="round"/>
<path d="M277.351 145.933C276.824 145.339 276.032 145.537 275.373 145.537C273.263 145.471 271.219 145.405 269.109 145.603" stroke="#D8D8D8" stroke-width="2" stroke-miterlimit="10" stroke-linecap="round" stroke-linejoin="round"/>
<path d="M225.132 149.167C224.011 148.771 222.89 148.837 221.704 148.837" stroke="#D8D8D8" stroke-width="2" stroke-miterlimit="10" stroke-linecap="round" stroke-linejoin="round"/>
</g>
<defs>
<linearGradient id="paint0_linear_1319_4617" x1="163.5" y1="0" x2="163.5" y2="180" gradientUnits="userSpaceOnUse">
<stop stop-color="white"/>
<stop offset="1" stop-color="#C9C7C7" stop-opacity="0.06"/>
</linearGradient>
<clipPath id="clip0_1319_4617">
<rect width="327" height="180" rx="7" fill="white"/>
</clipPath>
</defs>
</svg>
