<svg width="327" height="180" viewBox="0 0 327 180" fill="none" xmlns="http://www.w3.org/2000/svg">
<g clip-path="url(#clip0_1318_4468)">
<rect width="327" height="180" rx="7" fill="url(#paint0_linear_1318_4468)"/>
<path d="M130.494 194.015C130.681 188.49 130.929 182.965 131.053 177.44C131.115 174.708 131.053 171.977 131.301 169.245C131.364 168.314 131.364 167.383 131.239 166.452C131.115 165.52 131.86 164.589 132.109 163.658C132.978 160.368 134.53 157.326 135.833 154.222C137.075 151.242 137.944 148.138 138.875 144.972C139.124 144.04 139.434 143.109 140.117 142.364C140.552 141.93 140.924 141.806 141.483 142.24C142.724 143.171 143.593 144.351 144.463 145.592C147.753 150.311 150.795 155.153 153.837 159.995C154.768 161.485 155.575 163.099 156.817 164.341C157.189 164.775 157.189 165.21 156.63 165.458C156.01 165.707 156.01 166.327 155.699 166.824C151.043 174.088 145.953 181.041 140.738 187.869C140.303 188.428 139.372 188.676 139.744 189.608C139.931 190.104 139.744 190.539 139.744 190.973C139.744 192.339 139.372 193.643 139.496 195.009C139.558 195.567 139.682 195.754 140.241 195.878C141.359 196.064 142.476 196.064 143.593 196.064C144.649 196.064 145.642 196.002 146.697 196.064C149.367 196.188 152.036 196.623 154.706 196.499C156.072 196.437 156.196 196.374 156.382 195.009C156.692 192.65 156.941 190.229 157.189 187.869C157.313 187 156.941 186.69 155.948 186.876C155.389 187 154.768 187.124 154.395 186.752C154.023 186.255 154.333 185.697 154.582 185.138C155.761 182.22 157.313 179.551 158.865 176.881C160.976 173.28 163.149 169.68 165.632 166.265C168.239 162.727 171.281 159.561 174.572 156.643C175.813 155.525 177.117 154.346 178.607 153.539C180.345 152.546 181.214 152.794 181.587 154.967C182.083 157.512 181.897 159.995 181.525 162.54C181.338 163.968 181.09 165.396 180.904 166.762" stroke="#D8D8D8" stroke-width="2" stroke-miterlimit="10" stroke-linecap="round" stroke-linejoin="round"/>
<path d="M82.6922 37.5104C83.2509 37.4483 83.0026 37.8829 83.1267 38.1312C83.6234 38.9382 84.4304 39.3729 85.2995 39.8074C86.2308 40.242 87.2861 40.5524 87.5965 41.7319C87.7828 42.4148 87.7828 43.0977 87.6586 43.7185C87.3482 45.4567 87.4103 47.195 87.0999 48.9333C86.9136 49.8645 87.224 50.9198 87.5345 51.851C87.9069 53.0305 88.9623 53.5893 90.0798 53.7134C92.4388 53.9618 94.86 54.0239 97.219 53.7756C99.7643 53.5893 102.248 52.8443 104.793 53.0926C106.593 53.2789 107.649 54.0239 107.587 56.0105C107.524 57.6866 107.462 59.3628 107.587 60.9769C107.897 63.8326 108.207 66.7504 109.821 69.2957C110.877 70.9719 112.243 71.779 114.229 71.5306C115.285 71.4065 115.967 70.7856 116.526 69.8544C117.333 68.6128 117.644 67.1849 117.706 65.8192C117.83 62.7772 117.954 59.6732 117.954 56.5692C117.954 55.3897 118.078 54.0859 118.637 52.9685C119.258 51.7269 120.251 51.2923 121.555 51.2302C124.286 51.106 126.956 51.5406 129.625 51.4165C132.17 51.2923 134.654 50.8578 137.013 49.8024C138.875 48.9333 139.372 47.5675 138.006 45.7672C136.082 43.2839 133.412 41.9802 130.37 41.2973C129.563 41.1111 128.694 40.987 127.887 40.7386C127.452 40.6145 127.204 40.6765 126.832 40.8628" stroke="#D8D8D8" stroke-width="2" stroke-miterlimit="10" stroke-linecap="round" stroke-linejoin="round"/>
<path d="M8.87822 96.3003C9.00238 98.2869 9.12655 100.336 9.31279 102.322C9.56111 105.861 9.87151 109.399 10.1198 112.876C10.1819 114.242 10.0578 115.669 10.0578 117.035C10.0578 121.257 10.4923 125.478 10.989 129.7C11.3615 132.804 11.5477 135.908 11.7339 139.012C12.0443 144.04 11.6719 149.131 11.5477 154.159C11.4856 156.891 11.6719 159.56 12.0443 162.23C12.6031 165.831 12.7893 169.431 13.2859 173.032C13.5343 174.894 13.7826 176.757 14.3413 178.557C15.3967 181.972 15.0242 185.448 14.6517 188.863C14.5276 189.794 14.3413 190.663 14.1551 191.532C14.0309 192.153 13.9068 192.774 13.1618 192.96" stroke="#D8D8D8" stroke-width="2" stroke-miterlimit="10" stroke-linecap="round" stroke-linejoin="round"/>
<path d="M17.5698 187.435C17.5698 188.18 18.1906 188.366 18.7494 188.552C19.1839 188.739 19.6185 188.801 20.1151 188.738C23.9021 188.49 27.689 188.925 31.4138 188.242C33.7729 187.807 36.132 187.621 38.5531 187.621C41.0984 187.621 43.6437 187.932 46.1269 188.49C48.1756 188.987 50.1622 189.235 52.2729 188.987C54.6941 188.676 56.929 189.111 58.9776 190.291C60.9021 191.346 62.8887 191.656 64.9995 191.16C65.434 191.035 65.8065 191.098 66.1169 191.346C66.6756 191.656 67.2964 191.843 67.9793 191.905C68.7864 191.967 69.5313 192.463 70.1522 192.898C70.5867 193.208 71.0834 193.581 71.6421 193.581C73.6287 193.705 75.6153 194.512 77.6639 193.643C78.3468 193.332 79.1539 193.332 79.8367 193.643C82.1958 194.574 84.7411 194.326 87.2243 194.698C88.2797 194.822 89.273 194.698 90.3284 194.574C92.0046 194.388 93.5566 194.76 94.9844 195.505C96.6606 196.374 98.3989 196.685 100.261 196.126C101.751 195.692 103.365 195.94 104.917 195.816C106.283 195.692 107.711 195.754 109.077 195.692C110.629 195.629 112.429 194.264 113.05 192.774C113.298 192.153 113.112 191.594 112.926 191.036C112.677 190.228 112.615 189.421 112.677 188.552C112.864 186.566 112.802 184.579 113.05 182.655C113.422 179.799 113.112 176.943 112.739 174.15C112.677 173.839 112.677 173.529 112.926 173.343C114.105 172.349 114.167 170.859 114.229 169.493C114.292 168.438 114.354 167.445 114.167 166.389C114.043 165.582 114.167 164.651 114.229 163.782C114.292 163.348 114.416 162.851 114.85 162.665C116.588 161.733 117.83 160.244 119.32 159.002C121.493 157.139 122.797 157.326 124.845 159.126C126.459 160.492 127.639 162.23 129.005 163.782C129.625 164.527 130.308 165.148 130.991 165.831" stroke="#D8D8D8" stroke-width="2" stroke-miterlimit="10" stroke-linecap="round" stroke-linejoin="round"/>
<path d="M137.696 45.4562C136.454 46.884 134.84 46.7599 133.226 46.3874C130.557 45.7666 128.322 44.2766 127.204 41.7934C126.521 40.3035 125.652 40.3655 124.535 40.3655C123.541 40.3655 122.61 40.3656 121.679 41.0485C120.499 41.8555 119.01 41.8555 117.582 41.7934C116.899 41.7934 116.402 40.8001 116.34 39.8689C116.216 37.8823 116.154 35.8336 115.906 33.847C115.657 31.9846 115.409 30.1222 114.478 28.446C113.919 27.4528 113.174 26.6457 112.056 26.2732C110.753 25.9007 109.387 26.5837 108.89 28.0115C108.083 30.3085 107.525 32.6054 107.4 35.0266C107.276 37.0132 107.4 38.9997 107.214 40.9242C106.966 43.9662 105.538 45.2699 102.372 45.4562C101.068 45.5182 99.7024 45.6424 98.4608 45.4562C96.8467 45.2078 95.2326 45.4562 93.6806 45.0837C92.7494 44.8354 92.0044 44.2146 91.9424 43.2213C91.8803 42.4142 91.694 41.6071 91.5078 40.8622C91.2595 39.7447 91.8803 39.1239 93.0598 39.3102C93.6185 39.4343 94.1773 39.186 94.736 38.9998C95.1706 38.8756 95.3568 38.4411 95.2326 38.0065C95.1085 37.5098 94.736 37.1994 94.1773 37.0753C92.5011 36.7649 92.5011 36.7028 92.9357 34.9025C93.3081 33.5367 92.6252 31.7984 91.5078 31.3017C90.0799 30.6809 89.2729 31.2397 89.0866 32.7296C88.9625 33.4125 88.8383 34.1575 88.8383 34.9025C88.8383 35.8337 88.0313 36.3924 86.9759 36.4545C86.0447 36.5165 85.1135 36.3303 84.1823 36.6407C83.6856 36.8269 83.3752 37.0752 83.1269 37.5098" stroke="#D8D8D8" stroke-width="2" stroke-miterlimit="10" stroke-linecap="round" stroke-linejoin="round"/>
<path d="M252.172 127.341C251.614 128.086 252.11 128.769 252.297 129.452C252.793 131.376 253.29 133.363 253.849 135.287C256.021 143.047 258.256 150.807 260.491 158.505C262.478 165.334 264.589 172.163 266.948 178.93C268.5 183.462 270.114 187.994 272.225 192.277C272.597 193.022 273.032 193.767 273.466 194.45C274.087 195.505 274.956 196.064 276.26 195.567" stroke="#D8D8D8" stroke-width="2" stroke-miterlimit="10" stroke-linecap="round" stroke-linejoin="round"/>
<path d="M224.05 18.2036C223.926 19.8798 223.367 21.4318 223.119 23.0459C222.312 27.6399 221.753 32.2959 221.132 36.9519C220.325 43.2842 219.642 49.6165 218.711 55.9487C218.028 60.9151 217.345 65.8815 216.476 70.7859C216.041 73.145 215.793 75.5661 215.296 77.9252" stroke="#D8D8D8" stroke-width="2" stroke-miterlimit="10" stroke-linecap="round" stroke-linejoin="round"/>
<path d="M230.321 17.458C231.066 23.4798 231.749 29.5637 232.493 35.5855C233.487 43.5319 234.79 51.4782 236.218 59.3003C237.336 65.198 238.639 71.0957 239.819 77.0555C242.302 89.5337 245.096 102.012 248.262 114.366C249.255 118.215 250.311 122.064 251.366 125.851C251.49 126.41 251.366 127.03 251.987 127.403" stroke="#D8D8D8" stroke-width="2" stroke-miterlimit="10" stroke-linecap="round" stroke-linejoin="round"/>
<path d="M203.129 127.465C202.136 130.693 201.142 133.921 199.963 137.149C199.28 139.012 198.659 140.998 198.038 142.923C195.617 150.497 192.948 158.009 190.092 165.396C188.23 170.3 186.243 175.143 184.008 179.923C182.021 184.207 179.973 188.366 177.862 192.587C177.552 193.27 177.241 193.953 176.62 194.45" stroke="#D8D8D8" stroke-width="2" stroke-miterlimit="10" stroke-linecap="round" stroke-linejoin="round"/>
<path d="M-12.8494 74.0138C-12.9736 73.5793 -12.7253 73.5172 -12.4149 73.393C-9.62124 71.9652 -6.70343 70.9098 -3.78564 69.7303C0.125441 68.1162 4.0986 66.6883 8.00969 65.0742C12.7278 63.0876 17.4459 61.2252 22.2261 59.4869C23.4057 59.0524 24.5231 58.5557 25.7647 58.2453C26.6339 57.997 27.3788 57.9349 28.248 58.3695C34.0215 60.9768 39.6087 63.8947 45.0098 67.1229C49.79 69.9786 54.6323 72.586 59.3504 75.6279C59.9091 76.0004 60.5299 76.2488 61.0886 76.435C61.4611 76.5592 61.7715 76.7453 62.0199 76.9937C64.9376 79.8494 67.9175 82.7051 70.8353 85.6229C73.8773 88.7269 76.8571 91.8931 79.837 95.0592C80.4578 95.7421 80.7061 96.7354 81.5132 97.3562" stroke="#D8D8D8" stroke-width="2" stroke-miterlimit="10" stroke-linecap="round" stroke-linejoin="round"/>
<path d="M253.849 136.28C253.539 136.467 253.166 136.404 252.794 136.404C249.379 136.404 246.027 136.404 242.613 136.404C237.087 136.467 231.562 136.591 226.037 136.653C220.822 136.715 215.67 136.963 210.455 137.087C207.661 137.149 204.93 137.274 202.136 137.336C201.453 137.336 200.77 137.274 200.149 137.025" stroke="#D8D8D8" stroke-width="2" stroke-miterlimit="10" stroke-linecap="round" stroke-linejoin="round"/>
<path d="M232.059 17.5823C232.059 17.334 232.059 17.0236 231.624 17.0857C229.265 17.334 226.906 17.5203 224.547 17.8307C222.374 18.1411 220.201 18.3273 217.842 18.3273C217.345 19.5068 217.097 20.9347 216.787 22.3005C215.235 28.7569 213.496 35.0891 211.696 41.4834C209.834 47.8777 208.033 54.272 206.047 60.5421C205.053 63.7083 204.06 66.9365 203.005 70.1026C200.025 79.0422 196.797 87.9198 193.258 96.6111C191.21 101.702 188.975 106.73 186.678 111.697C185.188 114.925 183.698 118.091 182.146 121.319C179.849 126.161 177.303 130.942 174.696 135.66C172.213 140.192 169.605 144.662 166.936 149.069C164.018 153.849 161.038 158.63 157.996 163.348C157.686 163.782 157.438 164.217 157.065 164.589" stroke="#D8D8D8" stroke-width="2" stroke-miterlimit="10" stroke-linecap="round" stroke-linejoin="round"/>
<path d="M260.181 152.236C262.105 151.863 263.906 152.36 265.768 152.608C266.948 152.732 268.189 152.856 269.369 152.794C272.659 152.732 275.949 152.98 279.24 153.601C279.861 153.725 280.481 153.725 281.102 153.601C282.033 153.353 282.53 153.725 282.965 154.47C283.958 156.209 284.951 157.947 285.572 159.871C285.82 160.616 286.255 160.989 287.062 160.989C289.173 161.051 291.283 161.237 293.394 161.237C294.325 161.237 294.884 161.485 295.381 162.293C296.002 163.348 296.684 164.403 297.243 165.521C298.485 168.004 299.726 170.549 301.278 172.908C301.589 173.343 301.651 173.84 301.651 174.46C301.589 176.819 301.589 179.241 301.403 181.6C301.154 185.014 300.968 188.366 300.782 191.781C300.658 194.016 300.596 196.189 300.471 198.424C300.409 200.1 300.285 201.838 300.161 203.514" stroke="#D8D8D8" stroke-width="2" stroke-miterlimit="10" stroke-linecap="round" stroke-linejoin="round"/>
<path d="M195.554 199.354C195.989 197.927 195.741 196.437 195.741 195.009C195.741 193.829 195.554 192.65 195.554 191.47C195.554 190.663 195.244 190.353 194.499 190.228C193.816 190.104 193.195 189.98 192.513 189.918C191.954 189.856 191.83 189.608 191.768 189.049C191.643 187.745 192.202 186.566 192.823 185.51C196.175 179.985 199.466 174.398 202.88 168.935C205.115 165.334 207.35 161.796 210.206 158.629C213.682 154.78 217.717 151.863 222.746 150.559C225.043 150 227.34 149.752 229.823 149.938C234.231 150.373 237.893 152.173 241.246 154.842C243.481 156.643 245.343 158.692 246.895 160.988C249.192 164.341 251.055 167.879 252.545 171.666C254.407 176.447 255.773 181.413 256.58 186.504C256.766 187.807 257.014 189.111 256.331 190.477C255.959 191.284 256.269 192.401 256.269 193.333C256.269 194.947 256.89 196.499 256.518 198.113C256.456 198.485 256.89 198.982 257.511 198.92C261.236 198.796 264.961 199.416 268.685 199.292C270.424 199.23 272.224 199.541 273.962 199.292C274.831 199.168 275.763 199.106 276.632 198.982C277.315 198.92 277.191 198.361 277.128 197.926C276.88 196.933 276.57 196.002 276.135 195.133" stroke="#D8D8D8" stroke-width="2" stroke-miterlimit="10" stroke-linecap="round" stroke-linejoin="round"/>
<path d="M63.8199 131.19C64.627 131.438 65.0615 132.121 65.8065 132.432C66.7377 132.804 67.6689 133.114 68.7243 132.68C70.5867 131.873 72.325 132.245 73.877 133.549C75.2428 134.729 76.6706 135.846 78.3468 136.529C80.5817 137.522 82.5062 138.95 84.5549 140.068C85.9207 140.812 87.3485 141.371 89.0247 141.309C91.1975 141.247 92.9358 142.364 94.6119 143.606C95.3569 144.165 96.164 144.724 96.971 145.158C98.2747 145.903 99.5784 146.213 101.006 145.965C102.248 145.717 103.241 146.213 104.11 146.958C104.731 147.455 105.29 148.014 105.911 148.51C107.401 149.752 108.642 149.938 110.256 148.883C112.553 147.331 113.05 148.2 113.919 150.373C114.54 151.863 115.099 153.539 114.105 155.215C113.795 155.774 114.043 156.519 114.105 157.202C114.229 158.63 114.354 160.12 114.416 161.547C114.416 161.92 114.54 162.168 114.726 162.479" stroke="#D8D8D8" stroke-width="2" stroke-miterlimit="10" stroke-linecap="round" stroke-linejoin="round"/>
<path d="M19.3076 100.088C19.68 97.7287 19.68 95.3696 19.8042 93.0105C19.9904 90.0927 20.1767 87.1129 20.0525 84.1951C19.9904 82.8293 20.6113 82.643 21.5425 82.2085C24.0257 80.9669 26.6952 79.9736 29.0542 78.4216C29.8613 77.9249 30.8546 77.6145 31.7237 77.242C35.7589 75.69 39.7942 74.2001 43.1465 71.3443C43.8294 70.7235 44.7606 70.9719 45.1331 71.779C45.1952 71.9031 45.1952 72.2135 45.1331 72.2756C44.0157 73.393 44.264 74.8209 44.1398 76.1246C43.8294 80.0978 43.5811 84.0709 43.4569 88.0441C43.2707 92.2035 43.2707 96.3629 42.8982 100.46C42.712 102.943 42.6499 105.427 42.5878 107.91C42.4637 110.517 42.4016 113.063 42.2774 115.67C42.2153 116.539 42.2153 117.47 41.7808 118.277" stroke="#D8D8D8" stroke-width="2" stroke-miterlimit="10" stroke-linecap="round" stroke-linejoin="round"/>
<path d="M234.356 82.8286C234.108 84.629 234.48 86.3672 234.604 88.1055C234.977 93.3823 235.846 98.5351 236.591 103.75C237.15 107.599 238.019 111.448 238.826 115.235C239.633 118.835 240.564 122.436 241.681 125.913C241.806 126.285 241.806 126.658 241.868 127.03" stroke="#D8D8D8" stroke-width="2" stroke-miterlimit="10" stroke-linecap="round" stroke-linejoin="round"/>
<path d="M214.613 83.4497C213.992 84.5672 214.055 85.8088 213.806 86.9884C212.006 95.2451 210.143 103.502 207.846 111.696C206.357 116.911 204.929 122.188 203.253 127.341" stroke="#D8D8D8" stroke-width="2" stroke-miterlimit="10" stroke-linecap="round" stroke-linejoin="round"/>
<path d="M220.76 83.3257C221.194 85.1881 220.76 86.9884 220.511 88.7887C219.767 94.8106 219.084 100.832 218.028 106.854C217.035 112.69 215.98 118.525 214.303 124.175C214.055 125.044 213.931 125.975 213.745 126.844" stroke="#D8D8D8" stroke-width="2" stroke-miterlimit="10" stroke-linecap="round" stroke-linejoin="round"/>
<path d="M210.579 80.8423C209.834 82.0839 209.772 83.5118 209.461 84.8775C208.033 90.7131 206.419 96.4245 204.743 102.198C203.067 107.847 201.329 113.497 199.59 119.084C199.28 120.077 198.97 121.071 198.659 122.064C198.535 122.498 198.411 122.809 198.038 123.119" stroke="#D8D8D8" stroke-width="2" stroke-miterlimit="10" stroke-linecap="round" stroke-linejoin="round"/>
<path d="M218.339 33.9722C217.594 35.2138 217.78 36.7037 217.283 38.0074C217.221 38.0695 217.221 38.2557 217.283 38.3178C218.215 40.1182 217.594 41.9805 217.346 43.7188C216.352 50.7339 215.359 57.7491 213.869 64.64C213.062 68.427 212.317 72.2138 211.2 75.9387" stroke="#D8D8D8" stroke-width="2" stroke-miterlimit="10" stroke-linecap="round" stroke-linejoin="round"/>
<path d="M227.154 37.6963C227.589 38.1309 227.589 38.6896 227.713 39.2483C228.148 42.4144 228.644 45.5805 229.017 48.8087C229.389 52.0369 229.638 55.3272 229.948 58.5554C230.32 61.9077 230.693 65.2601 231.065 68.6124C231.438 71.7785 231.997 74.9447 232.804 78.0487" stroke="#D8D8D8" stroke-width="2" stroke-miterlimit="10" stroke-linecap="round" stroke-linejoin="round"/>
<path d="M226.968 37.6963C226.595 38.0067 226.471 38.4412 226.471 38.8137C226.037 42.8489 225.54 46.8221 225.105 50.8574C224.422 57.1275 223.802 63.3977 222.933 69.6058C222.56 72.3373 222.188 75.1309 222.25 77.9245" stroke="#D8D8D8" stroke-width="2" stroke-miterlimit="10" stroke-linecap="round" stroke-linejoin="round"/>
<path d="M81.8853 97.0454C81.4507 97.1075 81.699 97.3558 81.6369 97.6042C81.3265 101.143 81.2024 104.743 81.1403 108.282C81.0782 111.634 81.0161 114.987 80.892 118.339C80.7057 123.74 80.7057 129.141 80.6436 134.542C80.6436 135.473 80.7678 136.467 80.3332 137.336" stroke="#D8D8D8" stroke-width="2" stroke-miterlimit="10" stroke-linecap="round" stroke-linejoin="round"/>
<path d="M204.184 77.3037C203.501 79.849 202.756 82.3323 202.135 84.8776C200.273 91.9548 197.79 98.8458 194.996 105.613C193.692 108.655 192.203 111.572 190.651 114.552C190.402 114.987 190.216 115.359 190.03 115.794" stroke="#D8D8D8" stroke-width="2" stroke-miterlimit="10" stroke-linecap="round" stroke-linejoin="round"/>
<path d="M265.892 172.349C267.878 172.411 269.803 172.908 271.789 172.97C274.521 173.094 277.252 173.404 279.984 173.591C284.764 173.901 289.606 174.025 294.387 174.212C296.746 174.274 299.105 174.522 301.464 174.336" stroke="#D8D8D8" stroke-width="2" stroke-miterlimit="10" stroke-linecap="round" stroke-linejoin="round"/>
<path d="M45.3826 72.0266C46.0034 71.9025 46.3759 72.275 46.8104 72.5233C53.3289 76.7448 59.537 81.525 65.8071 86.181C69.6561 89.0988 73.381 92.0787 77.4162 94.624C78.2853 95.1827 79.0924 96.114 80.334 95.9898" stroke="#D8D8D8" stroke-width="2" stroke-miterlimit="10" stroke-linecap="round" stroke-linejoin="round"/>
<path d="M64.5649 94.7485C63.82 95.3073 64.0062 96.1764 63.9441 96.9214C63.6337 101.639 63.3854 106.296 63.075 111.014C62.8267 115.421 62.5163 119.829 62.4542 124.299C62.3921 126.037 62.4542 127.838 62.33 129.638C62.5163 129.762 62.7646 130.01 63.0129 130.197C63.0129 130.197 63.075 130.259 63.1371 130.259L63.075 130.321" stroke="#D8D8D8" stroke-width="2" stroke-miterlimit="10" stroke-linecap="round" stroke-linejoin="round"/>
<path d="M217.035 38.6274C216.228 39.6828 216.29 40.9865 216.042 42.166C214.428 49.864 211.82 57.3137 209.275 64.7634C208.468 67.1225 207.475 69.4194 206.544 71.7164C206.419 72.0268 206.171 72.3372 206.109 72.6476" stroke="#D8D8D8" stroke-width="2" stroke-miterlimit="10" stroke-linecap="round" stroke-linejoin="round"/>
<path d="M181.773 167.01C181.463 167.072 181.152 166.762 180.718 166.948C180.345 169.431 179.6 171.914 178.731 174.336C177.055 178.868 175.192 183.275 171.902 186.876C171.405 187.435 170.971 187.807 170.102 187.807C168.86 187.869 168.426 188.614 168.115 190.352C167.805 192.339 167.619 194.326 167.122 196.25C166.936 196.933 167.432 197.616 168.177 197.678C168.674 197.74 169.108 197.802 169.419 198.237" stroke="#D8D8D8" stroke-width="2" stroke-miterlimit="10" stroke-linecap="round" stroke-linejoin="round"/>
<path d="M-12.8499 97.4182C-12.9741 96.9836 -12.7878 96.9215 -12.4153 96.7974C-8.75256 95.4316 -5.1519 94.0658 -1.48914 92.638C-0.185445 92.1413 1.18036 91.5826 2.42197 90.9618C5.09144 89.6581 7.94714 88.7889 10.6166 87.5473C13.3482 86.3057 16.0176 84.8158 18.6871 83.45C19.0596 83.2638 19.4941 83.0775 19.9287 83.1396" stroke="#D8D8D8" stroke-width="2" stroke-miterlimit="10" stroke-linecap="round" stroke-linejoin="round"/>
<path d="M242.425 171.666C242.425 176.57 242.425 181.475 242.425 186.379C242.487 191.284 242.55 196.188 242.798 201.092C242.798 201.279 242.736 201.465 242.674 201.651" stroke="#D8D8D8" stroke-width="2" stroke-miterlimit="10" stroke-linecap="round" stroke-linejoin="round"/>
<path d="M221.07 169.866C220.759 173.219 220.511 176.571 220.449 179.923C220.263 186.069 220.139 192.215 220.139 198.361C220.139 198.734 220.014 199.044 220.263 199.417" stroke="#D8D8D8" stroke-width="2" stroke-miterlimit="10" stroke-linecap="round" stroke-linejoin="round"/>
<path d="M203.439 127.155C203.936 127.403 204.432 127.465 204.991 127.465C207.847 127.465 210.764 127.341 213.62 126.968C215.917 126.72 218.276 126.782 220.573 126.72C223.429 126.658 226.223 126.596 229.078 126.658C232.927 126.72 236.838 126.906 240.687 127.031C241.06 127.031 241.37 127.093 241.743 126.906" stroke="#D8D8D8" stroke-width="2" stroke-miterlimit="10" stroke-linecap="round" stroke-linejoin="round"/>
<path d="M198.659 161.92C198.907 158.692 199.9 155.65 200.521 152.484C201.018 150.249 201.639 148.076 202.135 145.841C202.383 144.724 202.88 144.041 203.998 143.73C205.425 143.358 206.791 142.985 208.281 142.985C209.709 143.047 210.889 142.24 212.192 141.93C212.751 141.806 213.186 141.744 213.744 141.992C213.93 142.675 213.434 143.109 213.061 143.482C209.647 146.896 206.667 150.621 203.873 154.47C202.694 156.084 201.514 157.698 200.335 159.375C200.024 159.809 199.714 160.244 199.217 160.43" stroke="#D8D8D8" stroke-width="2" stroke-miterlimit="10" stroke-linecap="round" stroke-linejoin="round"/>
<path d="M237.211 141.682C238.205 140.937 239.322 141.558 240.315 141.62C243.171 141.806 246.089 142.054 248.944 142.427C249.441 142.489 249.752 142.675 249.876 143.11C250.807 146.152 252.297 148.945 253.352 151.863C253.725 152.856 254.408 153.85 254.159 155.091C254.035 155.588 254.594 156.022 254.966 156.457" stroke="#D8D8D8" stroke-width="2" stroke-miterlimit="10" stroke-linecap="round" stroke-linejoin="round"/>
<path d="M114.54 167.073C116.713 167.632 118.886 167.259 121.058 167.135C123.976 167.011 126.956 166.638 129.874 166.452C137.137 166.017 144.463 166.017 151.788 166.017C152.72 166.017 153.651 165.893 154.582 165.831C155.017 165.831 155.513 165.707 155.948 166.017" stroke="#D8D8D8" stroke-width="2" stroke-miterlimit="10" stroke-linecap="round" stroke-linejoin="round"/>
<path d="M8.5678 95.7411C8.44364 96.1136 8.75406 96.2377 8.94031 96.1135C9.25071 95.9273 9.56109 95.8652 9.8715 95.7411C10.5544 95.3686 11.1131 95.5548 11.6718 96.0515C13.7826 98.1001 16.4521 99.2176 19.2457 100.087C20.239 100.397 21.046 101.08 21.7289 101.949C22.2256 102.632 22.7843 103.191 23.4051 103.812C24.0259 104.432 24.7709 104.556 25.5779 104.308C26.3229 104.06 27.0058 104.184 27.5645 104.805C28.8682 106.233 30.1719 107.598 31.4756 108.964C33.0276 110.64 34.7658 112.068 36.5662 113.496C38.0561 114.676 39.2977 115.979 40.6014 117.345C42.0293 118.835 43.333 120.449 45.2575 121.38C45.692 121.567 46.1887 121.815 46.6233 121.753C50.286 121.256 52.7692 123.243 55.1283 125.602C56.3699 126.843 57.5495 128.085 59.0394 128.892C60.0327 129.451 61.088 129.885 62.2676 129.513" stroke="#D8D8D8" stroke-width="2" stroke-miterlimit="10" stroke-linecap="round" stroke-linejoin="round"/>
<path d="M8.44385 95.9897C7.38848 95.9897 6.7677 96.7967 5.83649 97.1072C5.21568 97.2934 4.59488 97.6659 3.97407 97.79C2.17373 98.2246 0.807947 99.2179 -0.495747 100.46C-3.5377 103.439 -6.76591 106.171 -10.677 108.033C-11.6082 108.468 -12.1049 109.337 -12.974 109.896C-13.0361 109.958 -12.974 110.206 -12.9119 110.392" stroke="#D8D8D8" stroke-width="2" stroke-miterlimit="10" stroke-linecap="round" stroke-linejoin="round"/>
<path d="M16.7621 71.7789C17.6934 72.2135 17.6313 73.0826 17.6934 73.8276C17.6934 75.1933 17.6313 76.6212 16.8863 77.8628C16.2034 79.1044 15.2101 79.4148 14.0927 78.5457C12.9752 77.6765 11.7957 76.8074 11.9819 75.1312C12.1061 73.8896 12.6648 72.586 14.2789 72.3997C15.086 72.3377 15.893 72.1514 16.638 71.7168" stroke="#D8D8D8" stroke-width="2" stroke-miterlimit="10" stroke-linecap="round" stroke-linejoin="round"/>
<path d="M46.189 82.8911C47.8031 84.2569 49.7276 85.2502 51.4658 86.4298C55.6873 89.2234 60.2192 91.6445 64.4407 94.5002C68.4759 97.1697 72.5112 99.9013 76.4222 102.819C76.9189 103.192 77.4155 103.626 77.8501 104.061" stroke="#D8D8D8" stroke-width="2" stroke-miterlimit="10" stroke-linecap="round" stroke-linejoin="round"/>
<path d="M26.0744 57.0039C26.3848 58.618 27.4402 59.6733 28.7439 60.5425C31.8479 62.5911 34.952 64.764 37.8698 67.0609C39.2355 68.1163 40.7876 68.9234 42.2154 69.8546C42.7121 70.165 43.2087 70.4754 43.457 71.0962" stroke="#D8D8D8" stroke-width="2" stroke-miterlimit="10" stroke-linecap="round" stroke-linejoin="round"/>
<path d="M181.959 122.313C183.759 123.741 185.559 125.231 187.36 126.659C191.333 129.763 195.244 132.867 198.845 136.405C199.031 136.53 199.093 136.778 199.279 136.902" stroke="#D8D8D8" stroke-width="2" stroke-miterlimit="10" stroke-linecap="round" stroke-linejoin="round"/>
<path d="M203.75 168.003C204.991 168.562 206.357 168.376 207.723 168.624C211.572 169.369 215.545 169.493 219.456 169.68C222.312 169.804 225.105 170.052 227.961 170.3C228.768 170.362 229.637 169.99 230.444 170.3" stroke="#D8D8D8" stroke-width="2" stroke-miterlimit="10" stroke-linecap="round" stroke-linejoin="round"/>
<path d="M236.839 141.496C237.77 142.737 239.198 143.482 240.501 144.289C244.288 146.524 247.517 149.504 250.745 152.422C251.552 153.105 252.297 153.85 253.042 154.595C253.352 154.905 253.663 155.029 254.097 155.091" stroke="#D8D8D8" stroke-width="2" stroke-miterlimit="10" stroke-linecap="round" stroke-linejoin="round"/>
<path d="M230.63 170.176C230.692 169.99 230.692 169.679 230.817 169.555C232.493 168.003 233.486 165.954 234.79 164.154C236.404 161.857 237.211 161.981 238.825 164.278C239.818 165.644 240.439 167.258 241.184 168.748C241.557 169.493 241.929 170.176 242.55 170.735" stroke="#D8D8D8" stroke-width="2" stroke-miterlimit="10" stroke-linecap="round" stroke-linejoin="round"/>
<path d="M173.889 147.207C173.889 146.958 173.764 146.648 173.889 146.524C175.316 144.723 175.378 142.302 176.682 140.378C177.986 138.391 179.165 136.405 180.345 134.356C180.842 133.487 181.462 133.363 182.332 133.735C183.449 134.17 184.566 134.728 185.311 135.722C185.808 136.343 185.746 136.839 185.001 137.15C182.642 138.267 180.717 139.943 178.793 141.619C177.924 142.364 177.117 143.109 176.31 143.916C176.061 144.165 175.751 144.351 175.378 144.351" stroke="#D8D8D8" stroke-width="2" stroke-miterlimit="10" stroke-linecap="round" stroke-linejoin="round"/>
<path d="M223.553 -4.58057C223.615 -0.917807 223.739 2.74492 223.988 6.40768C224.05 7.77346 224.05 9.20128 224.112 10.5671" stroke="#D8D8D8" stroke-width="2" stroke-miterlimit="10" stroke-linecap="round" stroke-linejoin="round"/>
<path d="M189.409 137.832C188.478 138.701 188.912 139.757 188.975 140.75C189.161 142.736 189.409 144.785 189.72 146.772C190.03 148.572 189.844 150.372 189.906 152.173C189.906 152.607 189.968 152.98 190.34 153.29" stroke="#D8D8D8" stroke-width="2" stroke-miterlimit="10" stroke-linecap="round" stroke-linejoin="round"/>
<path d="M201.453 75.4414C202.508 75.876 203.625 76.1243 204.246 77.1797C205.674 77.2418 206.605 78.3592 207.785 78.9801C209.647 79.9113 211.448 81.0287 213.062 82.2703C214.427 83.3257 215.855 83.4498 217.531 83.2015C219.146 83.0152 220.76 83.0152 222.374 82.8911C226.037 82.6428 229.699 82.5186 233.362 82.4566C235.783 82.3945 238.204 82.4566 240.625 82.1461" stroke="#D8D8D8" stroke-width="2" stroke-miterlimit="10" stroke-linecap="round" stroke-linejoin="round"/>
<path d="M167.743 166.7C168.24 166.39 168.86 166.39 169.419 166.39C173.02 166.514 176.621 167.01 180.221 166.886C180.345 166.886 180.47 167.011 180.656 167.073" stroke="#D8D8D8" stroke-width="2" stroke-miterlimit="10" stroke-linecap="round" stroke-linejoin="round"/>
<path d="M221.07 169.681C221.008 169.122 221.194 168.687 221.691 168.315C222.684 167.446 223.119 166.204 223.864 165.149C224.671 163.969 224.857 163.907 225.85 164.838C227.464 166.328 228.52 168.253 229.575 170.115" stroke="#D8D8D8" stroke-width="2" stroke-miterlimit="10" stroke-linecap="round" stroke-linejoin="round"/>
<path d="M189.036 136.591C189.036 137.336 189.471 137.771 190.092 138.019C192.078 138.826 193.941 139.882 195.741 141.185C195.431 142.613 194.686 143.917 194.127 145.283C193.258 147.393 192.389 149.504 191.52 151.615C191.396 151.987 191.271 152.36 191.023 152.67C190.03 153.788 189.906 155.216 189.595 156.519" stroke="#D8D8D8" stroke-width="2" stroke-miterlimit="10" stroke-linecap="round" stroke-linejoin="round"/>
<path d="M239.943 78.6694C239.508 78.7315 239.136 78.7315 238.701 78.6073C237.273 78.1107 235.721 78.4211 234.231 78.2969C230.32 77.9244 226.347 78.2969 222.436 78.1106C220.512 78.0486 218.587 78.2348 216.601 78.0486C216.228 77.9865 215.918 77.9244 215.545 77.8623" stroke="#D8D8D8" stroke-width="2" stroke-miterlimit="10" stroke-linecap="round" stroke-linejoin="round"/>
<path d="M231.748 16.9615C231.996 15.9061 231.314 15.2232 230.817 14.4783C229.327 12.3675 227.465 10.8155 224.733 10.7534C222.498 10.6913 219.953 12.1192 219.022 14.1678C218.463 15.4715 218.09 16.7752 217.966 18.2031" stroke="#D8D8D8" stroke-width="2" stroke-miterlimit="10" stroke-linecap="round" stroke-linejoin="round"/>
<path d="M251.365 126.968C250.931 127.279 250.372 127.217 249.937 127.155C247.33 126.968 244.661 126.968 242.053 127.155" stroke="#D8D8D8" stroke-width="2" stroke-miterlimit="10" stroke-linecap="round" stroke-linejoin="round"/>
<path d="M247.827 163.037C246.275 164.155 245.53 165.769 244.723 167.383C244.164 168.5 243.543 169.618 242.86 170.673C242.736 170.859 242.736 171.108 242.674 171.294" stroke="#D8D8D8" stroke-width="2" stroke-miterlimit="10" stroke-linecap="round" stroke-linejoin="round"/>
<path d="M186.491 112.876C187.856 113.683 188.85 114.925 189.967 116.042C192.45 118.401 195.12 120.574 197.603 122.933C198.969 124.237 200.335 125.478 201.763 126.658C202.135 126.968 202.57 127.465 203.19 127.279" stroke="#D8D8D8" stroke-width="2" stroke-miterlimit="10" stroke-linecap="round" stroke-linejoin="round"/>
<path d="M202.819 71.1582C204.805 72.0273 206.668 73.0206 208.406 74.2622C210.392 75.628 212.503 76.6834 214.614 77.8008C214.8 77.925 215.048 78.1733 215.359 77.9249" stroke="#D8D8D8" stroke-width="2" stroke-miterlimit="10" stroke-linecap="round" stroke-linejoin="round"/>
<path d="M215.234 78.1108C215.172 79.7249 214.862 81.339 214.427 82.891" stroke="#D8D8D8" stroke-width="2" stroke-miterlimit="10" stroke-linecap="round" stroke-linejoin="round"/>
<path d="M117.457 45.394C117.768 45.6424 118.14 45.8906 118.389 46.2631C118.637 46.6356 118.575 47.1322 118.202 47.5047C117.892 47.8151 117.519 47.8152 117.147 47.5669C116.775 47.3185 116.216 47.0702 116.34 46.4494C116.402 45.8286 116.65 45.394 117.395 45.394" stroke="#D8D8D8" stroke-width="2" stroke-miterlimit="10" stroke-linecap="round" stroke-linejoin="round"/>
</g>
<defs>
<linearGradient id="paint0_linear_1318_4468" x1="163.5" y1="0" x2="163.5" y2="180" gradientUnits="userSpaceOnUse">
<stop stop-color="white"/>
<stop offset="1" stop-color="#C9C7C7" stop-opacity="0.06"/>
</linearGradient>
<clipPath id="clip0_1318_4468">
<rect width="327" height="180" rx="7" fill="white"/>
</clipPath>
</defs>
</svg>
