<svg width="564" height="428" viewBox="0 0 564 428" fill="none" xmlns="http://www.w3.org/2000/svg">
<g clip-path="url(#clip0_1296_4893)">
<rect x="1" y="1" width="562" height="426" rx="7" fill="white" stroke="#1F2E3A" stroke-width="2"/>
<mask id="mask0_1296_4893" style="mask-type:alpha" maskUnits="userSpaceOnUse" x="0" y="0" width="564" height="428">
<rect x="1" y="1" width="562" height="426" fill="#F0FFF9" stroke="#1F2E3A" stroke-width="2"/>
</mask>
<g mask="url(#mask0_1296_4893)">
<path d="M480.3 11.6063C479.6 12.2063 478.7 12.3063 477.8 12.3063C466.9 12.1063 456.2 13.8063 445.6 16.2063C437.9 17.9063 430.3 19.8063 422.9 22.4063C420.9 23.1063 418.9 23.9063 417.1 25.1063C414.8 26.6063 414.7 27.5063 416.1 29.9063C416.2 30.2063 416.3 30.5063 416.4 30.8063C415.9 31.5063 415 31.5063 414.2 31.4063C408.8 31.2063 403.4 31.4063 398 31.8063C386.8 32.5063 375.7 34.1063 365.1 38.1063C360.4 39.9063 355.9 42.1063 352.1 45.5063C350.6 46.8063 349.4 48.4063 348.7 50.3063C348 52.3063 348.5 54.1063 349.9 55.6063C352 58.0063 354.7 59.3063 357.6 60.4063C363.4 62.7063 369.6 63.4063 375.8 64.1063C386.1 65.3063 396.4 65.1063 406.7 65.0063C411.2 64.9063 415.6 64.5063 420.1 64.1063C423.9 63.8063 427.8 63.4063 431.6 63.0063C435.8 62.6063 440 62.0063 444.1 61.3063C449.5 60.4063 454.8 59.3063 460.1 58.3063C467 57.0063 473.9 55.4063 480.6 53.6063C487.6 51.7063 494.5 49.6063 501.1 46.6063C506.4 44.3063 511.3 41.5063 515.1 37.1063C516.8 35.1063 518.3 32.8063 517.6 29.9063C517 27.5063 515.2 26.0063 513.4 24.6063C509.4 21.6063 504.9 19.5063 500.2 17.5063C497 16.2063 493.8 14.9063 490.5 13.7063C487.2 12.4063 483.8 12.0063 480.3 11.5063" stroke="#1F2E3A" stroke-width="2" stroke-miterlimit="10" stroke-linecap="round" stroke-linejoin="round"/>
<path d="M163.7 10.3062C156.8 10.8062 150 11.7062 143.2 13.0062C137.4 14.1062 131.7 15.3062 126 16.7062C118.6 18.6062 111.1 20.3062 104 23.0062C99.3002 24.8062 94.6002 26.5062 90.8002 30.2062C88.3002 32.6062 88.4002 36.3061 90.6002 38.7062C92.7002 41.0062 95.2002 42.9062 98.0002 44.4062C105.5 48.5062 113.6 50.7062 121.9 52.5062C126.7 53.5062 131.5 54.2062 136.3 55.1062C139.3 55.6062 142.3 55.8062 145.3 56.1062C148.9 56.5062 152.5 56.9061 156.2 57.3061C159 57.6061 161.9 57.9062 164.7 58.1062C169.7 58.5062 174.6 58.9062 179.6 59.1062C183.7 59.3062 187.8 59.1062 192 59.1062C198 59.2062 203.9 58.8062 209.9 58.0062C214.5 57.4062 219 56.5062 223.2 54.6062C226.1 53.3062 228.8 51.6062 230.1 48.4062C231.7 44.5062 230.2 41.4062 227.7 38.6062C225.2 35.8062 222 33.8062 218.7 31.9062C216.7 30.8062 214.7 29.7062 212.7 28.5062C212 28.1062 211.3 27.6062 211 26.8062" stroke="#1F2E3A" stroke-width="2" stroke-miterlimit="10" stroke-linecap="round" stroke-linejoin="round"/>
<path d="M101.3 102.306C102.4 102.406 102.9 103.306 103.5 104.006C109.5 112.006 115.7 119.806 121.9 127.506C127.2 134.106 132.6 140.506 137.9 147.006C143.1 153.306 148.2 159.506 153.4 165.706C156.6 169.606 159.9 173.406 163.1 177.206C167.8 182.806 172.4 188.406 177.1 193.906C180 197.306 183 200.706 185.9 204.106C190.8 209.806 195.6 215.506 200.4 221.106C202.6 223.706 204.7 226.206 206.9 228.806" stroke="#1F2E3A" stroke-width="2" stroke-miterlimit="10" stroke-linecap="round" stroke-linejoin="round"/>
<path d="M291.6 325.806C291.2 326.106 290.8 326.306 290.3 326.306C287 326.306 283.8 327.006 280.6 328.006C280.1 328.206 279.7 328.206 279.2 328.306C275.3 328.606 271.4 328.206 267.5 327.906C262.4 327.606 257.2 327.106 252.1 326.606C242.9 325.606 233.7 325.706 224.5 325.606C219.5 325.606 214.6 325.806 209.6 326.006C206.5 326.106 203.4 326.406 200.2 326.606C199.7 326.606 199 326.806 198.7 326.306C197.5 324.306 195.4 324.306 193.5 324.006C187.9 323.206 182.3 323.006 176.6 322.606C175.9 322.606 175.2 322.606 174.6 322.906" stroke="#1F2E3A" stroke-width="2" stroke-miterlimit="10" stroke-linecap="round" stroke-linejoin="round"/>
<path d="M278.9 174.306C276.7 174.906 274.7 175.806 272.9 177.306C269.9 179.806 269.8 182.206 272.7 184.706C275.6 187.106 279.1 188.006 282.6 188.906C291.1 191.006 299.8 192.106 308.5 193.406C316.4 194.606 324.2 195.706 332 197.006C341.7 198.606 351.4 200.506 360.7 203.706C363.6 204.706 366.5 205.906 369.4 207.006C371.1 207.706 372.3 208.806 372.7 210.706" stroke="#1F2E3A" stroke-width="2" stroke-miterlimit="10" stroke-linecap="round" stroke-linejoin="round"/>
<path d="M124.8 333.806C122.9 337.706 119.6 339.806 115.8 341.106C111.1 342.806 106.1 343.606 101.1 344.306C96.3 345.006 91.4 345.606 86.6 346.106C82.9 346.506 79.1 346.906 75.4 347.306C71.6 347.606 67.7 347.906 63.9 348.106C61.3 348.306 58.8 348.506 56.2 348.606C50.7 348.706 45.2 348.906 39.7 348.706C34.8 348.606 29.9 348.806 25 348.506C21.5 348.306 17.9 348.406 14.5 347.506" stroke="#1F2E3A" stroke-width="2" stroke-miterlimit="10" stroke-linecap="round" stroke-linejoin="round"/>
<path d="M431.5 283.006C431.9 284.106 431.7 284.806 431 285.906C428.9 288.806 427.2 292.006 425.3 295.006C422 300.306 418.5 305.506 415.5 310.906C410.6 319.606 405.8 328.306 402.7 337.906C401.4 341.906 400.6 346.006 400.9 350.306C401 352.206 401.8 353.906 402.9 355.306C406.1 359.506 410.6 361.606 415.6 363.006C422 364.806 428.3 366.906 434 370.706C435 371.306 436.2 371.806 436 373.406" stroke="#1F2E3A" stroke-width="2" stroke-miterlimit="10" stroke-linecap="round" stroke-linejoin="round"/>
<path d="M368.9 332.606C367.8 330.906 365.9 330.706 364.2 330.306C359.9 329.206 355.6 328.406 351.2 327.906C348.3 327.606 345.4 327.106 342.5 326.906C337.7 326.506 332.9 326.206 328.1 325.906C319.1 325.306 310.1 325.106 301 325.406C298.6 325.506 296 325.106 293.6 326.106C292.9 326.406 292 326.106 291.6 325.406C290.5 323.006 288.3 321.506 286.7 319.606C282.4 314.706 277.8 310.006 273.4 305.206C268.1 299.406 262.8 293.506 257.5 287.706C253.5 283.306 249.4 278.906 245.5 274.306C241.5 269.606 237.3 265.106 233.4 260.306C229.9 256.006 226.2 252.006 222.6 247.706C218.1 242.306 213.6 236.906 209.1 231.506C208.4 230.706 207.6 230.106 207.1 229.106C204.7 230.606 202.6 232.606 199.8 233.506" stroke="#1F2E3A" stroke-width="2" stroke-miterlimit="10" stroke-linecap="round" stroke-linejoin="round"/>
<path d="M209.8 26.7062C218.5 26.1062 227.3 27.6063 236 27.0063C244.3 26.4063 252.6 25.9063 260.4 22.5063C261.5 22.0063 262.5 21.4062 263.4 20.7062C266.3 18.6062 266.7 15.4062 263.9 12.2062C261.3 9.20625 257.8 7.40625 254.1 6.00625C247.3 3.40625 240.2 2.20625 232.9 2.00625C232 2.00625 231 1.90625 230.2 2.50625" stroke="#1F2E3A" stroke-width="2" stroke-miterlimit="10" stroke-linecap="round" stroke-linejoin="round"/>
<path d="M331.2 129.406C322.4 135.106 314.1 141.606 305.8 148.006C297.3 154.606 288.9 161.306 280.6 168.006C271 175.806 261.5 183.606 252 191.506C241.6 200.206 231.1 208.906 220.8 217.706C216.4 221.406 212 225.106 207.6 228.906" stroke="#1F2E3A" stroke-width="2" stroke-miterlimit="10" stroke-linecap="round" stroke-linejoin="round"/>
<path d="M335.9 236.906C334.2 236.406 332.5 237.106 330.9 237.406C318 239.906 305.1 242.406 292.3 245.706C283.6 248.006 275.1 250.806 266.9 254.506C262.1 256.706 257.3 259.006 252.6 261.406C249.2 263.206 245.8 265.106 242.7 267.406" stroke="#1F2E3A" stroke-width="2" stroke-miterlimit="10" stroke-linecap="round" stroke-linejoin="round"/>
<path d="M422.1 180.506C424.3 184.206 425.5 188.306 427.2 192.206C428.1 194.306 428.7 195.606 432 194.406C437.1 192.506 441.8 189.806 446.5 187.106C449.7 185.306 453 183.506 456.4 182.106C458 181.506 459.5 181.606 461.1 182.506C465.7 185.206 470.3 187.806 475.3 189.706C478.9 191.106 482.5 192.006 486.3 192.806C489.9 193.506 492.6 192.306 494.4 189.506C496.1 186.906 498.2 184.806 500.5 182.906" stroke="#1F2E3A" stroke-width="2" stroke-miterlimit="10" stroke-linecap="round" stroke-linejoin="round"/>
<path d="M455.8 360.706C457.2 361.506 458.8 362.106 460.5 362.006C463.3 362.006 466.1 362.206 468.8 361.906C471.4 361.606 474 361.606 476.7 361.706C481.3 361.806 485.8 362.006 490.4 362.406C494.4 362.706 498.4 363.206 502.4 363.706C505.9 364.206 509.4 364.806 512.9 365.306C515.7 365.706 518.6 365.906 521.4 366.306C524.7 366.906 528.1 367.306 531.4 367.806C534 368.206 536.8 368.906 539.6 368.006C540.6 367.706 540.8 366.306 542.1 366.606" stroke="#1F2E3A" stroke-width="2" stroke-miterlimit="10" stroke-linecap="round" stroke-linejoin="round"/>
<path d="M554.6 228.206C554.3 227.506 553.8 226.906 553.3 226.406C551.6 224.806 549.9 223.206 548.1 221.706C541.1 216.306 534.3 210.606 527.1 205.406C522.2 201.906 518.1 197.306 513.4 193.406C502.9 184.906 493.3 175.306 483.3 166.206C479.6 162.806 476.4 158.806 472.5 155.706C471 154.506 469.6 153.406 468 152.406C467 151.806 466.1 151.806 465 152.506C451.2 161.406 437.4 170.106 423.6 179.006C409.7 188.006 396.1 197.506 382.3 206.706C373.6 212.606 364.8 218.506 356.1 224.406C352.2 227.006 348.2 229.406 344.5 232.306C342.2 234.106 339.7 235.406 337.1 236.506C335.9 237.006 335.8 238.206 334.8 238.806C332.1 240.406 329.5 242.306 326.9 244.106C316.4 251.306 305.9 258.606 295.2 265.506C290.1 268.806 284.8 271.706 279.8 275.206C276.9 277.306 274 279.506 271.1 281.506C268.4 283.406 266.6 286.206 264.6 288.706C264.1 289.306 264.1 290.306 264.1 291.206" stroke="#1F2E3A" stroke-width="2" stroke-miterlimit="10" stroke-linecap="round" stroke-linejoin="round"/>
<path d="M32.0998 98.8062C31.9998 100.306 32.7998 101.506 33.4998 102.606C37.1998 108.606 40.9998 114.606 44.7998 120.506C46.0998 122.506 47.5998 124.606 49.3998 126.206C51.3998 128.006 51.7998 128.006 53.9998 126.506C56.4998 124.806 58.5998 122.606 60.8998 120.706C67.9998 114.806 74.6998 108.306 82.3998 103.206C84.3998 101.906 86.3998 100.606 88.8998 100.106C90.2998 99.8062 91.2998 100.106 92.3998 100.506C95.0998 101.306 97.7998 102.406 100.7 102.206" stroke="#1F2E3A" stroke-width="2" stroke-miterlimit="10" stroke-linecap="round" stroke-linejoin="round"/>
<path d="M61.2 48.5063C59.9 49.3063 59 50.6063 58.2 51.8063C52.6 60.3063 46.9 68.8063 41.3 77.4063C34.5 87.9063 27.6 98.5063 20.4 108.806C17.3 113.206 14.5 117.906 11.2 122.106C10.5 123.006 10.4 124.106 10 125.106" stroke="#1F2E3A" stroke-width="2" stroke-miterlimit="10" stroke-linecap="round" stroke-linejoin="round"/>
<path d="M431.7 285.306C434 287.906 435.5 291.006 437.2 294.006C442.4 303.306 447.4 312.806 451.4 322.706C454.2 329.706 456.1 337.006 457.3 344.406C457.8 347.606 458.3 350.806 457.6 354.106C457.5 354.506 457.5 354.806 457.3 355.106C457 355.706 456.9 356.306 457.9 356.806C460.1 358.006 460.1 358.406 458.4 360.306C458.1 360.606 457.9 360.906 457.9 361.306" stroke="#1F2E3A" stroke-width="2" stroke-miterlimit="10" stroke-linecap="round" stroke-linejoin="round"/>
<path d="M166.4 303.906C167.5 303.306 168 302.306 168.3 301.106C167.8 300.606 167.1 300.406 166.4 300.506C164 300.706 161.6 300.606 159.2 300.906C157.5 301.106 155.2 301.806 154.3 299.206C154 298.406 153.1 298.606 152.4 298.706C148.7 299.506 145.1 300.806 141.7 302.706C136.7 305.406 132.1 308.706 128.2 312.906C127.3 313.906 126.6 315.006 126 316.206C125.4 317.406 125.6 318.506 126.5 319.506C129.8 322.906 129.8 322.906 126.6 326.506C125.6 327.606 124.8 328.906 124.1 330.206C123 332.306 123.5 333.106 125.8 333.706C130.1 334.906 134.5 335.006 138.8 335.806C141.9 336.406 144.9 336.206 147.8 335.806C151.3 335.306 154.7 334.406 158.2 333.506C161.8 332.506 165.5 331.606 168.9 329.906C170.9 328.906 172.6 327.706 174.2 326.206C174.8 325.606 175.5 324.706 174.9 323.706C174.4 322.806 173.6 322.106 172.4 322.506" stroke="#1F2E3A" stroke-width="2" stroke-miterlimit="10" stroke-linecap="round" stroke-linejoin="round"/>
<path d="M59.7001 44.4062C59.5001 45.5063 60.0001 46.4062 60.6001 47.2062C68.9001 58.2062 77.2001 69.1062 85.5001 80.1062C90.5001 86.8062 95.5001 93.5062 100.6 100.106C101.4 101.206 101.3 102.306 101.4 103.506" stroke="#1F2E3A" stroke-width="2" stroke-miterlimit="10" stroke-linecap="round" stroke-linejoin="round"/>
<path d="M331.2 127.906C331.3 128.506 331.2 129.106 331.7 129.806C336.1 135.406 339.9 141.506 343.4 147.606C345.1 150.506 346.9 153.306 348.7 156.106C353.2 163.106 357.4 170.306 361.5 177.506C365.5 184.406 369.9 191.106 374.4 197.706C376 200.006 377.5 202.406 379.1 204.706C379.7 205.606 380.1 206.606 380.4 207.506" stroke="#1F2E3A" stroke-width="2" stroke-miterlimit="10" stroke-linecap="round" stroke-linejoin="round"/>
<path d="M302.8 150.906C305.7 153.506 307.2 157.006 309.3 160.106C310.8 162.306 312.3 164.506 313.7 166.806C314.5 168.106 315.5 167.706 316.4 167.106C318.9 165.506 321.4 164.006 324.1 162.606C326.5 161.306 329 160.206 331.6 159.206C332.5 158.806 333.2 159.006 334 159.406C336.3 160.806 338.7 162.306 341 163.706C342.9 164.906 343.3 164.806 344.9 163.406C346.6 161.806 348.3 160.306 350.1 158.706" stroke="#1F2E3A" stroke-width="2" stroke-miterlimit="10" stroke-linecap="round" stroke-linejoin="round"/>
<path d="M369.4 332.606C367.5 334.606 364.9 334.906 362.4 335.606C361.6 335.806 360.3 335.806 360.1 336.906C359.9 338.306 361.5 338.306 362.2 338.506C365.3 339.206 368.5 339.706 371.7 340.206C374.8 340.806 377.9 341.506 381.1 341.806C383.8 342.106 386.4 342.606 389.1 342.906C391.8 343.206 394.6 343.806 397.3 344.206C398 344.306 398.7 344.106 399.5 344.106" stroke="#1F2E3A" stroke-width="2" stroke-miterlimit="10" stroke-linecap="round" stroke-linejoin="round"/>
<path d="M147.4 388.206C140.4 388.306 133.5 388.806 126.5 388.706C124 388.706 121.5 389.006 119 389.206" stroke="#1F2E3A" stroke-width="2" stroke-miterlimit="10" stroke-linecap="round" stroke-linejoin="round"/>
<path d="M433.4 306.706C433 308.006 432.9 309.406 432.9 310.706C432.9 317.406 432.9 324.106 432.9 330.706C432.9 331.506 432.9 332.206 432.4 332.906" stroke="#1F2E3A" stroke-width="2" stroke-miterlimit="10" stroke-linecap="round" stroke-linejoin="round"/>
<path d="M298.5 62.6062C290.1 64.7062 282.3 68.3062 275.3 73.4062C274.5 74.0062 273.2 74.1062 272.9 75.4062" stroke="#1F2E3A" stroke-width="2" stroke-miterlimit="10" stroke-linecap="round" stroke-linejoin="round"/>
<path d="M415.8 343.006C416 346.006 417.2 348.706 418.1 351.506C418.3 352.206 418.8 352.406 419.3 352.706C423.1 354.706 426.8 356.806 430.8 358.206C431.3 358.406 431.9 358.506 432.5 358.506" stroke="#1F2E3A" stroke-width="2" stroke-miterlimit="10" stroke-linecap="round" stroke-linejoin="round"/>
<path d="M457.3 356.806C456.2 357.506 456.1 358.806 455.7 359.806C455 361.606 454.1 363.206 453.1 364.806C451.9 366.606 450.3 367.806 448.3 368.706C446.8 369.406 445.5 370.506 444.1 371.506C442.4 372.606 440.7 373.406 438.6 373.406C437 373.406 435.5 373.706 433.9 373.906" stroke="#1F2E3A" stroke-width="2" stroke-miterlimit="10" stroke-linecap="round" stroke-linejoin="round"/>
<path d="M394.5 398.106C390 397.806 385.5 397.006 381 397.206C378.4 397.306 375.7 397.106 373.3 398.306" stroke="#1F2E3A" stroke-width="2" stroke-miterlimit="10" stroke-linecap="round" stroke-linejoin="round"/>
<path d="M167.1 304.006C167.4 304.906 168.2 304.906 168.9 305.206C170.8 305.806 172.8 306.306 174.6 307.206C178.3 309.006 178.7 311.106 176.4 314.506C175.7 315.506 174.9 316.606 174.1 317.506C173.1 318.606 172.1 319.706 173.4 321.206C173.5 321.406 173.4 321.706 173.4 322.006" stroke="#1F2E3A" stroke-width="2" stroke-miterlimit="10" stroke-linecap="round" stroke-linejoin="round"/>
<path d="M231.8 355.806C225.6 355.906 219.5 355.106 213.3 355.006C212.6 355.006 211.9 354.906 211.3 355.306" stroke="#1F2E3A" stroke-width="2" stroke-miterlimit="10" stroke-linecap="round" stroke-linejoin="round"/>
<path d="M190.1 97.8062C190.2 98.5062 189.6 98.5062 189.3 98.8062C185.3 101.906 181.1 104.706 177.8 108.706C176.6 110.106 175.7 111.606 174.6 113.006C174.3 113.306 174.6 113.606 174.5 113.906" stroke="#1F2E3A" stroke-width="2" stroke-miterlimit="10" stroke-linecap="round" stroke-linejoin="round"/>
<path d="M460.1 127.006C459 132.506 457.1 137.706 453.9 142.406" stroke="#1F2E3A" stroke-width="2" stroke-miterlimit="10" stroke-linecap="round" stroke-linejoin="round"/>
<path d="M444.9 330.806C441.8 333.706 439.6 337.206 437.2 340.606C436 342.406 435.2 344.606 433.4 346.006C432.8 346.406 432.9 347.306 432.9 348.006C432.9 351.406 432.9 354.806 432.8 358.206C432.7 359.706 432.9 361.306 433.1 362.906C433.2 364.106 433.2 365.206 433.1 366.406" stroke="#1F2E3A" stroke-width="2" stroke-miterlimit="10" stroke-linecap="round" stroke-linejoin="round"/>
<path d="M420.5 318.106C423.6 322.206 426.7 326.306 429.8 330.506C430.5 331.406 431 332.406 432.1 333.106C432.7 333.506 432.8 334.406 432.8 335.206C432.7 338.006 433 340.906 432.6 343.706C432.5 344.506 432.8 345.206 433.3 345.906" stroke="#1F2E3A" stroke-width="2" stroke-miterlimit="10" stroke-linecap="round" stroke-linejoin="round"/>
<path d="M448.1 346.506C445.9 347.506 443.5 347.906 441.2 348.606C438.8 349.406 436.5 350.306 434.5 352.006C434.1 352.306 433.7 352.206 433.3 352.506" stroke="#1F2E3A" stroke-width="2" stroke-miterlimit="10" stroke-linecap="round" stroke-linejoin="round"/>
<path d="M439.6 150.906C435.7 151.506 431.7 151.806 427.7 152.106C426.8 152.206 425.9 152.106 425.1 151.506" stroke="#1F2E3A" stroke-width="2" stroke-miterlimit="10" stroke-linecap="round" stroke-linejoin="round"/>
<path d="M162.7 311.106C161.5 311.006 161 311.906 160.4 312.606C159.7 313.506 159.2 314.606 158.7 315.606C157.3 318.106 155.7 320.406 153.7 322.506C151 325.306 148.2 328.106 145.5 330.806C145 331.306 144.5 332.006 143.7 331.806" stroke="#1F2E3A" stroke-width="2" stroke-miterlimit="10" stroke-linecap="round" stroke-linejoin="round"/>
<path d="M143.9 311.206C143.9 312.806 144.7 314.006 145.6 315.206C147.8 318.106 149.6 321.206 151.4 324.306" stroke="#1F2E3A" stroke-width="2" stroke-miterlimit="10" stroke-linecap="round" stroke-linejoin="round"/>
<path d="M269.2 62.1062C269.2 65.4062 270.3 68.3062 271.5 71.3062C272 72.4062 271.9 73.8062 273 74.6062" stroke="#1F2E3A" stroke-width="2" stroke-miterlimit="10" stroke-linecap="round" stroke-linejoin="round"/>
<path d="M410 107.706C408.2 109.606 407.3 112.006 406.2 114.306C405.5 115.706 405.4 117.206 405.5 118.806" stroke="#1F2E3A" stroke-width="2" stroke-miterlimit="10" stroke-linecap="round" stroke-linejoin="round"/>
<path d="M164.1 106.706C167.2 108.506 169.9 110.906 173.1 112.606C173.5 112.806 173.9 112.906 174.3 113.106" stroke="#1F2E3A" stroke-width="2" stroke-miterlimit="10" stroke-linecap="round" stroke-linejoin="round"/>
<path d="M450.7 104.306C453.6 106.006 455.7 108.606 457.9 111.106" stroke="#1F2E3A" stroke-width="2" stroke-miterlimit="10" stroke-linecap="round" stroke-linejoin="round"/>
<path d="M456.9 355.806C454.9 355.006 452.8 354.306 450.6 354.306" stroke="#1F2E3A" stroke-width="2" stroke-miterlimit="10" stroke-linecap="round" stroke-linejoin="round"/>
<path d="M290 319.906C291.7 320.706 293.4 321.506 295.2 322.106" stroke="#1F2E3A" stroke-width="2" stroke-miterlimit="10" stroke-linecap="round" stroke-linejoin="round"/>
<path d="M428.9 106.106C426.2 106.606 423.5 107.106 420.9 108.206C417.3 109.806 414.4 112.106 412.2 115.406C408 121.906 407.4 128.706 410.4 135.806C411.4 138.206 413 140.206 415.2 141.706C419.2 144.406 423.5 146.306 428.4 146.706C433.7 147.106 438.7 145.806 443.2 143.206C446.1 141.506 448.7 139.406 450.6 136.406C455.3 129.106 454.2 119.406 448.2 113.806C444.4 110.306 440.3 107.406 435.2 106.306C433.2 105.806 431.1 106.206 429 106.106" stroke="#1F2E3A" stroke-width="2" stroke-miterlimit="10" stroke-linecap="round" stroke-linejoin="round"/>
</g>
<path d="M157.98 226.877C156.916 231.844 159.045 237.64 159.282 243.436C159.518 251.478 160.228 259.521 160.937 267.564C162.002 279.865 163.776 292.048 166.023 304.23C169.453 322.327 173.357 340.305 179.27 357.81C183.765 371.057 188.733 384.304 194.174 397.197C195.002 399.089 195.829 400.863 197.012 402.519C197.84 403.82 199.023 404.293 200.56 403.939C203.044 403.229 205.292 402.283 207.539 400.982C209.077 400.035 210.851 399.326 212.625 398.498C220.431 394.831 228.119 390.81 235.098 385.606C236.517 384.541 237.7 383.477 238.764 382.176C239.947 380.52 239.711 379.692 237.7 379.1C237.227 378.982 236.754 378.864 236.399 378.864C230.84 379.1 225.281 378.154 219.722 378.391C218.894 378.391 218.421 378.036 217.948 377.326C217.238 376.143 216.765 374.961 216.646 373.66C216.173 369.993 214.991 366.445 213.453 363.014C209.313 353.671 206.711 343.853 204.109 334.036C203.636 332.262 204.582 331.789 205.883 331.198C215.7 326.467 224.453 320.08 231.431 311.682C239.829 301.628 241.839 289.682 239.001 276.908C237.108 268.511 233.442 260.941 229.066 253.726C228.119 252.188 227.41 250.532 225.99 249.231C225.517 248.758 225.399 248.167 225.517 247.575C225.99 237.995 223.861 228.533 222.797 219.07C221.377 207.006 218.775 195.297 216.528 183.35C215.345 176.963 211.324 173.06 206.12 170.222C193.701 163.716 181.636 165.491 169.927 172.351C168.744 173.06 167.798 174.243 166.142 173.415C165.196 173.06 165.077 174.361 164.959 175.071C162.948 181.931 161.647 189.028 160.583 196.006C159.045 206.178 157.626 215.995 157.98 226.877Z" fill="white"/>
<path d="M165.905 174.125C164.604 179.329 163.421 184.533 162.357 189.737C161.056 196.479 160.228 203.221 159.4 210.081C158.69 215.759 158.572 221.436 158.572 227.113C158.69 230.543 158.926 234.092 159.518 237.403C160.109 240.597 159.873 243.79 160.109 246.984C160.582 255.618 161.292 264.134 162.12 272.768C163.539 287.317 166.142 301.747 169.098 316.058C172.055 330.133 175.367 344.208 180.098 357.81C184.593 370.939 189.324 383.95 194.883 396.605C195.711 398.498 196.657 400.39 197.722 402.046C198.431 403.111 199.141 403.347 200.324 402.992C202.098 402.638 203.636 401.81 205.173 400.982C210.141 398.498 215.227 396.132 220.194 393.53C225.872 390.573 231.313 387.38 236.28 383.24C237.227 382.412 237.936 381.702 238.291 380.52C237.463 379.573 236.399 379.455 235.334 379.455C231.549 379.692 227.764 378.982 223.979 379.1C222.442 379.1 220.786 378.982 219.248 379.455C218.065 379.81 217.711 378.864 217.238 378.154C216.291 376.498 215.7 374.724 215.463 372.713C214.754 367.864 212.388 363.369 210.614 358.875C207.302 350.122 204.818 341.251 202.689 332.144C201.743 327.886 200.679 323.746 199.851 319.488C197.722 308.488 196.184 297.37 195.12 286.134C194.883 283.65 194.765 281.166 194.528 278.682" stroke="#1F2E3A" stroke-width="2" stroke-miterlimit="10" stroke-linecap="round" stroke-linejoin="round"/>
<path d="M213.926 177.673C216.055 183.824 216.765 190.329 218.184 196.598C220.668 207.361 221.377 218.361 223.27 229.242C224.334 235.393 224.807 241.661 224.689 247.93C224.689 249.113 224.689 250.177 225.99 250.887C227.409 251.833 227.883 253.726 228.71 255.145C232.259 260.704 235.216 266.618 237.108 272.887C240.657 284.715 240.302 296.187 233.796 307.069C231.313 311.327 227.882 314.639 224.216 317.832C218.657 322.563 212.861 327.058 206.238 330.37C205.173 330.843 203.99 331.316 202.926 331.789" stroke="#1F2E3A" stroke-width="2" stroke-miterlimit="10" stroke-linecap="round" stroke-linejoin="round"/>
<path d="M161.418 153.144C161.418 159.044 161.518 165.244 162.418 171.444C162.618 172.544 163.018 173.144 164.118 173.544C171.718 176.044 179.518 177.844 187.418 178.544C195.318 179.244 203.218 179.644 211.018 177.444C213.918 176.644 215.618 175.544 216.218 172.044C217.918 161.844 219.218 151.644 219.418 141.244C219.518 138.344 219.318 135.444 219.118 132.544C219.018 131.244 219.518 131.044 220.718 131.544C225.618 133.344 230.818 134.044 236.018 134.644C237.718 134.844 238.518 134.144 238.718 132.544C239.618 125.744 239.018 119.044 236.218 112.644C232.918 104.844 228.318 97.8444 222.118 92.1444C217.518 87.8444 212.318 84.6444 206.118 83.2444C201.018 82.0444 195.818 81.6444 190.618 82.3444C183.418 83.2444 178.118 87.0445 174.618 93.4445C170.018 102.044 166.818 111.244 164.618 120.744C162.318 131.244 161.218 142.044 161.418 153.144Z" fill="white"/>
<path d="M163.818 172.444C163.518 169.944 163.118 167.444 162.918 164.844C162.418 158.444 162.718 152.044 162.718 145.744C162.718 142.044 163.318 138.344 163.618 134.644C164.218 127.944 165.618 121.444 167.318 115.044C168.318 111.344 169.818 107.744 171.118 104.144C172.818 99.6444 174.718 95.3444 177.418 91.2444C180.518 86.6444 184.918 84.4444 190.118 83.5444C193.618 82.9444 197.018 83.2444 200.518 83.5444C204.318 83.8444 207.818 84.6444 211.218 86.2444C215.518 88.2444 219.418 90.8444 222.718 94.2444C227.418 99.1444 231.218 104.644 234.118 110.744C237.118 116.944 238.418 123.444 237.718 130.344C237.418 133.844 237.418 133.944 234.118 133.444C229.918 132.744 225.718 132.244 221.718 130.844C221.218 130.644 220.718 130.444 220.218 130.244C218.718 129.444 218.118 129.844 218.118 131.744C218.118 134.844 218.218 137.944 218.218 140.944C218.218 145.844 217.618 150.744 217.318 155.644C217.018 161.144 215.618 166.544 214.918 171.944C214.818 172.844 214.518 173.844 214.318 174.744" stroke="#1F2E3A" stroke-width="2" stroke-miterlimit="10" stroke-linecap="round" stroke-linejoin="round"/>
<path d="M178.399 140.65C178.399 148.95 187.299 156.45 194.999 154.85C197.299 154.35 199.399 153.35 200.699 151.35C201.199 150.65 201.699 150.35 202.599 150.55C204.499 150.85 206.299 150.65 207.999 149.65C208.499 149.35 209.099 148.95 208.799 148.25C208.499 147.45 207.799 147.55 207.099 147.85C204.499 148.85 201.799 148.55 199.399 147.45C192.899 144.35 187.199 140.15 181.799 135.45C180.899 134.65 179.999 134.75 179.499 135.95C178.999 137.45 178.299 139.05 178.399 140.65Z" fill="white"/>
<path d="M179.999 140.95C179.199 142.25 179.899 143.55 180.399 144.75C182.499 149.95 186.399 153.05 191.899 153.95C193.699 154.25 195.399 153.85 197.099 152.75C198.499 151.75 200.199 151.25 200.699 149.35" stroke="#1F2E3A" stroke-width="2" stroke-miterlimit="10" stroke-linecap="round" stroke-linejoin="round"/>
<path d="M181.099 136.55C184.599 139.05 188.199 141.45 191.599 143.95C194.399 146.05 197.399 147.55 200.499 149.05C201.699 149.65 205.599 149.45 207.099 148.85C207.499 148.65 207.899 148.55 208.299 148.35" stroke="#1F2E3A" stroke-width="2" stroke-miterlimit="10" stroke-linecap="round" stroke-linejoin="round"/>
<path d="M180.799 136.05C181.299 136.55 180.699 136.75 180.499 137.05C179.199 138.85 179.399 139.95 181.199 141.35C184.299 143.95 187.299 146.55 190.599 148.95C191.999 149.95 193.399 150.75 194.899 151.35C195.699 151.65 196.299 152.15 196.999 152.55" stroke="#1F2E3A" stroke-width="2" stroke-miterlimit="10" stroke-linecap="round" stroke-linejoin="round"/>
<path d="M192.799 115.35C194.099 114.25 195.699 113.85 197.399 114.05" stroke="#1F2E3A" stroke-width="2" stroke-miterlimit="10" stroke-linecap="round" stroke-linejoin="round"/>
<path d="M209.599 115.25C211.099 115.95 212.199 116.95 212.099 118.75" stroke="#1F2E3A" stroke-width="2" stroke-miterlimit="10" stroke-linecap="round" stroke-linejoin="round"/>
<path d="M206.799 124.149C205.971 124.149 205.299 123.478 205.299 122.649C205.299 121.821 205.971 121.149 206.799 121.149C207.628 121.149 208.299 121.821 208.299 122.649C208.299 123.478 207.628 124.149 206.799 124.149Z" fill="#1F2E3A"/>
<path d="M196.199 122.649C195.371 122.649 194.699 121.978 194.699 121.149C194.699 120.321 195.371 119.649 196.199 119.649C197.028 119.649 197.699 120.321 197.699 121.149C197.699 121.978 197.028 122.649 196.199 122.649Z" fill="#1F2E3A"/>
<path d="M161.83 106.939C162.03 110.139 161.53 113.439 162.93 116.539C163.43 117.539 163.83 118.139 165.13 117.839C166.73 117.439 168.53 117.639 170.13 117.839C171.93 118.139 173.03 117.439 173.73 115.939C174.23 115.039 174.63 114.339 175.83 114.339C176.53 114.339 177.03 113.839 177.33 113.239C177.83 112.239 178.23 111.239 178.43 110.139C178.73 108.539 178.93 107.039 181.03 106.739C182.13 106.539 182.23 105.239 182.33 104.239C182.43 103.239 182.63 102.339 183.83 101.939C184.73 101.639 184.73 100.639 184.93 99.8386C185.13 98.9386 185.13 98.0386 185.73 97.2386C186.63 95.9386 187.73 95.4386 189.33 95.3386C199.83 94.4386 210.33 94.4386 220.63 96.8386C221.53 97.0386 222.33 97.2386 222.93 98.2386C223.43 99.0386 226.13 98.6386 226.73 97.7386C227.13 97.0386 227.73 96.7386 228.33 96.3386C232.33 94.0386 235.73 91.0386 238.43 87.2386C239.63 85.5386 240.53 83.7386 240.93 81.7386C241.63 78.1386 240.23 75.7386 236.73 74.5386C232.33 73.0386 227.83 73.4386 223.33 74.3386C218.33 75.2386 213.43 76.5386 208.63 78.1386C207.43 78.5386 206.63 78.3386 205.73 77.4386C204.33 75.8386 202.83 74.4386 201.23 73.1386C193.13 66.9386 178.33 66.9386 170.53 78.4386C164.73 87.1386 161.33 96.4386 161.83 106.939Z" fill="white"/>
<path d="M164.03 115.639C163.03 114.839 162.73 113.939 162.73 112.639C162.73 108.739 162.23 104.839 162.73 100.939C163.23 96.8385 164.03 92.8385 165.73 89.0385C167.93 83.8385 170.73 78.9385 174.83 75.0385C178.33 71.6385 182.53 70.1385 187.33 69.9385C194.83 69.5385 200.73 72.5385 205.53 78.1385C205.93 78.6385 206.03 79.1385 206.33 79.6385" stroke="#1F2E3A" stroke-width="2" stroke-miterlimit="10" stroke-linecap="round" stroke-linejoin="round"/>
<path d="M167.33 116.139C166.43 117.239 166.43 117.239 164.13 116.239C164.73 114.539 165.83 113.039 166.73 111.539C170.13 106.039 174.73 101.439 179.53 97.2387C182.03 95.0387 184.23 92.6387 187.03 90.8387C189.73 89.0387 192.43 87.1386 195.33 85.4386C202.03 81.4386 209.13 78.6387 216.63 76.8387C220.23 75.9387 223.83 75.0387 227.53 74.7387C230.73 74.4387 233.831 74.4386 236.931 75.5386C240.731 76.8386 241.23 80.1386 239.83 83.4386C237.73 88.5386 233.83 92.0386 229.33 95.0386C228.13 95.8386 226.83 96.3387 225.83 97.3387C225.33 97.7387 224.53 97.7386 224.03 97.4386C220.63 95.4386 216.83 95.1387 213.13 94.7387C208.83 94.2387 204.43 94.0386 200.13 94.0386C196.03 94.0386 191.931 94.3387 187.931 94.8387C185.431 95.1387 185.03 96.2386 184.83 97.9386C184.73 98.6386 184.63 99.2386 184.53 99.9386C184.43 100.539 184.331 101.239 183.431 101.239C182.431 101.339 182.13 101.939 182.13 102.839C182.13 103.539 181.93 104.239 181.83 104.939C181.73 105.639 181.43 106.339 180.53 106.139C179.13 105.939 178.83 106.839 178.53 107.939C178.23 109.139 177.83 110.339 177.53 111.539C177.13 112.939 176.531 113.939 174.931 113.739C174.331 113.639 174.131 114.139 173.931 114.539C173.631 115.139 173.231 115.639 172.931 116.239C172.631 116.839 172.23 117.139 171.63 117.039C170.33 116.939 169.03 116.739 167.63 116.539" stroke="#1F2E3A" stroke-width="2" stroke-miterlimit="10" stroke-linecap="round" stroke-linejoin="round"/>
<path d="M84.7398 83.5168C83.6398 82.2168 82.7398 81.1168 81.7398 80.1168C81.0398 79.4168 80.2399 78.7168 79.1399 79.1168C78.0399 79.6168 78.1399 80.7168 78.0399 81.7168C77.9399 83.0168 78.6398 84.1168 78.8398 85.7168C77.5398 84.8168 76.6399 84.0168 75.6399 83.4168C74.9399 82.9168 74.0398 82.4168 73.2398 83.1168C72.3398 83.8168 72.7399 84.8168 73.1399 85.7168C73.6399 86.8168 74.1398 87.8168 74.8398 89.3168C73.7398 88.8168 72.9399 88.4168 72.1399 88.2168C70.9399 87.8168 69.7398 87.6168 68.7398 88.7168C67.7398 89.8168 67.8398 91.0168 68.4398 92.2168C69.4398 94.5168 71.2398 96.3168 72.8398 98.1168C77.6398 103.317 81.0399 109.417 84.6399 115.417C88.1399 121.317 91.9399 127.017 95.6399 132.817C98.5399 137.417 100.94 142.317 103.84 146.917C109.84 156.617 116.84 165.417 124.54 173.717C130.34 180.017 136.24 186.117 143.24 191.117C148.64 195.017 154.14 198.517 160.94 199.517C161.14 199.517 161.34 199.517 161.44 199.617C162.84 201.617 163.74 200.017 164.54 199.117C167.94 195.317 169.74 190.817 170.84 185.817C171.74 181.217 172.04 176.717 171.44 172.017C171.24 170.717 170.94 170.217 169.54 170.817C167.04 171.817 164.54 171.317 162.14 170.617C155.34 168.517 149.64 164.417 144.64 159.517C136.04 151.017 129.24 141.217 122.64 131.117C118.24 124.417 114.14 117.517 109.34 111.017C108.94 110.417 108.74 109.817 108.64 109.217C107.14 101.917 106.14 94.6168 105.14 87.2168C105.04 86.3168 104.74 85.5168 104.54 84.7168C104.14 83.7168 103.54 82.8168 102.34 82.8168C101.04 82.8168 100.14 83.5168 99.6399 84.7168C98.7399 87.0168 98.6398 89.4168 98.4398 91.8168C98.4398 92.6168 98.8399 93.8168 98.0399 94.0168C97.1399 94.2168 96.9399 93.0168 96.6399 92.3168C95.4399 90.2168 94.3398 88.0168 93.2398 85.9168C92.2398 83.9168 90.9398 82.1168 89.2398 80.7168C88.4398 80.0168 87.5398 79.3168 86.4398 79.7168C85.2398 80.1168 85.4398 81.3168 85.3398 82.2168C84.9398 82.7168 84.8398 82.9168 84.7398 83.5168Z" fill="white"/>
<path d="M300.04 123.817C299.64 122.817 300.14 121.917 300.04 121.017C299.94 120.117 299.94 119.017 298.84 118.717C297.84 118.517 297.24 119.217 296.74 119.917C296.14 120.817 295.54 121.717 294.94 122.717C294.94 122.817 294.74 122.817 294.34 122.917C294.34 121.317 294.34 119.817 294.34 118.317C294.34 117.317 294.44 116.017 293.04 115.817C291.74 115.617 291.04 116.617 290.54 117.517C288.94 120.517 287.94 123.817 286.94 127.117C286.64 128.017 286.34 128.917 285.94 130.117C285.14 128.917 285.24 127.817 285.14 126.717C284.94 125.517 284.84 124.317 284.44 123.117C283.94 121.517 282.84 121.217 281.64 122.417C280.24 123.817 279.74 125.617 279.64 127.517C279.54 132.117 279.24 136.617 279.04 141.217C278.94 142.817 278.54 144.117 277.54 145.317C265.54 160.517 250.54 171.017 231.24 174.617C228.24 175.217 225.34 176.017 222.34 176.217C220.54 176.317 210.405 177.2 210.105 179C209.305 184.6 218.84 190.117 220.74 195.417C221.04 196.317 221.54 196.617 222.44 196.517C243.54 196.117 262.54 189.917 278.74 176.017C286.34 169.517 292.44 161.817 296.84 152.817C299.14 148.117 301.84 143.717 304.34 139.117C306.04 136.117 307.44 133.117 308.04 129.617C308.14 128.817 308.14 128.017 307.94 127.117C307.54 125.417 306.94 125.017 305.44 125.817C304.74 126.117 304.44 126.217 304.54 125.317C304.64 124.117 305.14 122.617 303.64 121.917C302.14 121.317 301.14 122.417 300.24 123.517C300.24 123.717 300.24 123.717 300.04 123.817Z" fill="white"/>
<path d="M79.04 93.9167C77.34 90.8167 74.1399 90.1168 71.3399 88.8168C70.4399 88.4168 69.84 88.6167 69.24 89.2167C68.54 89.8167 68.54 90.8168 68.74 91.5168C69.14 92.8168 69.8399 94.0168 70.8399 95.0168C77.1399 101.117 81.3399 108.817 85.8399 116.217C88.5399 120.717 91.14 125.217 94.24 129.417C96.14 131.917 97.3399 134.817 98.8399 137.517C103.64 145.917 108.74 154.117 114.84 161.617C118.24 165.817 121.74 169.817 125.34 173.817C128.24 177.017 131.34 180.217 134.44 183.117C140.04 188.417 146.14 193.217 153.24 196.517C155.84 197.717 158.34 198.617 161.14 198.917C161.94 199.017 162.84 199.017 162.44 200.217" stroke="#1F2E3A" stroke-width="2" stroke-miterlimit="10" stroke-linecap="round" stroke-linejoin="round"/>
<path d="M304.24 127.717C304.84 127.717 305.24 127.317 305.74 126.917C306.74 126.117 307.34 126.317 307.54 127.717C307.74 129.017 307.44 130.417 307.04 131.717C305.84 135.617 303.64 139.017 301.84 142.617C299.14 147.917 296.34 153.117 293.34 158.217C288.24 166.917 281.24 174.017 273.14 179.817C266.14 184.817 258.54 188.717 250.34 191.317C243.54 193.517 236.64 195.017 229.44 195.417C227.04 195.517 224.74 195.617 222.34 195.817C221.64 195.917 221.44 196.017 221.54 196.717" stroke="#1F2E3A" stroke-width="2" stroke-miterlimit="10" stroke-linecap="round" stroke-linejoin="round"/>
<path d="M98.0396 96.1169C99.2397 94.2169 98.9396 92.1169 99.0396 90.1169C99.1396 88.3169 99.3396 86.6169 100.04 85.0169C100.34 84.3169 100.94 83.4169 101.94 83.5169C102.84 83.6169 103.24 84.4169 103.64 85.3169C104.34 86.9169 104.34 88.7169 104.54 90.4169C105.24 96.3169 106.44 102.117 107.24 107.917C107.54 110.017 108.44 111.617 109.54 113.117C113.54 118.517 117.04 124.317 120.74 130.017C125.44 137.317 130.24 144.517 135.84 151.317C139.64 155.917 143.64 160.217 148.24 164.017C152.44 167.517 157.14 170.217 162.54 171.617C164.94 172.317 167.24 172.117 169.64 171.917C170.04 171.917 169.94 171.517 169.94 171.217" stroke="#1F2E3A" stroke-width="2" stroke-miterlimit="10" stroke-linecap="round" stroke-linejoin="round"/>
<path d="M285.24 132.317C284.54 131.317 284.34 130.117 284.44 128.917C284.54 127.217 284.14 125.517 283.84 123.817C283.74 123.317 283.54 122.817 282.94 122.617C281.34 123.517 280.84 124.917 280.54 126.617C280.14 128.617 280.24 130.717 280.24 132.717C280.24 134.817 280.34 137.017 279.94 139.117C279.84 139.617 279.74 140.317 279.94 140.717C280.54 142.317 279.84 143.717 278.94 144.817C271.34 154.517 262.64 163.017 251.44 168.617C244.34 172.117 236.84 174.317 229.14 175.917C226.24 176.517 217.105 178 213.105 178" stroke="#1F2E3A" stroke-width="2" stroke-miterlimit="10" stroke-linecap="round" stroke-linejoin="round"/>
<path d="M284.74 135.317C284.94 133.917 285.14 132.617 286.04 131.417C287.14 129.717 287.44 127.517 288.04 125.517C288.74 123.217 289.54 120.817 290.64 118.717C291.54 117.117 291.54 117.117 293.14 116.617C293.54 120.817 293.94 124.817 292.24 128.717" stroke="#1F2E3A" stroke-width="2" stroke-miterlimit="10" stroke-linecap="round" stroke-linejoin="round"/>
<path d="M87.8397 90.8168C87.6397 90.3168 87.5397 89.7168 87.1397 89.3168C85.2397 87.1168 85.6397 84.4168 85.7397 81.9168C85.7397 80.6168 86.8397 80.1168 87.8397 80.9168C90.0397 82.6168 91.6397 84.8168 92.8397 87.3168C93.9397 89.6168 95.2397 91.9167 96.4397 94.2167C96.7397 94.7167 97.0397 95.2168 97.4397 95.5168C98.2397 96.2168 98.4398 97.0168 98.0398 98.0168" stroke="#1F2E3A" stroke-width="2" stroke-miterlimit="10" stroke-linecap="round" stroke-linejoin="round"/>
<path d="M293.84 124.917C295.04 124.517 295.34 123.317 295.94 122.417C296.44 121.717 296.84 121.017 297.24 120.217C297.54 119.617 298.04 119.417 298.54 119.617C298.94 119.817 299.34 120.317 299.24 120.917C298.74 123.517 299.54 126.417 297.84 128.817C297.34 129.517 297.14 130.417 297.14 131.317" stroke="#1F2E3A" stroke-width="2" stroke-miterlimit="10" stroke-linecap="round" stroke-linejoin="round"/>
<path d="M85.1396 85.3169C83.8396 84.7169 83.5396 83.3169 82.6396 82.3169C82.1396 81.8169 81.8396 81.2169 81.3396 80.7169C80.7396 80.1169 80.0396 79.5169 79.2396 79.9169C78.4396 80.3169 78.7396 81.3169 78.7396 82.0169C78.7396 82.9169 78.9396 83.7169 79.3396 84.5169C79.8396 85.4169 80.0396 86.3169 79.6396 87.3169" stroke="#1F2E3A" stroke-width="2" stroke-miterlimit="10" stroke-linecap="round" stroke-linejoin="round"/>
<path d="M75.7396 90.4169C75.8396 89.5169 75.5396 88.7169 74.9396 87.9169C74.3396 87.1169 73.7396 86.2169 73.6396 85.1169C73.6396 84.6169 73.3396 84.1169 73.9396 83.8169C74.4396 83.5169 74.7396 83.9169 75.1396 84.0169C76.0396 84.2169 76.4396 85.0169 77.1396 85.5169C79.4396 87.1169 81.5396 88.9169 82.6396 91.6169" stroke="#1F2E3A" stroke-width="2" stroke-miterlimit="10" stroke-linecap="round" stroke-linejoin="round"/>
<path d="M303.24 122.117C304.14 123.317 303.64 124.717 303.84 126.017C304.24 128.917 302.04 130.817 301.54 133.317" stroke="#1F2E3A" stroke-width="2" stroke-miterlimit="10" stroke-linecap="round" stroke-linejoin="round"/>
<path d="M303.04 122.717C302.04 122.817 301.44 123.417 300.94 124.317C300.54 124.917 300.04 125.317 299.44 125.617" stroke="#1F2E3A" stroke-width="2" stroke-miterlimit="10" stroke-linecap="round" stroke-linejoin="round"/>
<path d="M304.746 284.046C310.721 285.997 316.697 286.607 322.794 286.119C329.379 285.632 335.843 284.046 342.184 282.217C346.696 280.998 351.208 279.534 355.598 278.071C356.94 277.705 358.159 277.583 359.379 278.193C362.305 279.534 365.476 280.266 368.525 280.754C369.866 280.998 370.476 281.607 370.842 282.949C373.159 292.583 375.598 302.339 378.037 311.973C378.403 313.558 378.037 315.021 377.671 316.607C375.354 324.289 371.939 331.484 368.159 338.679C364.013 346.728 359.135 354.289 354.623 362.093C354.013 363.069 354.135 363.801 354.745 364.654C358.769 370.264 364.013 374.532 369.988 377.825C374.012 380.02 377.793 382.703 382.061 384.654C383.403 385.264 384.622 385.751 385.963 386.239C386.695 386.483 387.671 386.605 388.159 385.873C388.646 385.142 388.159 384.41 387.793 383.8C385.354 380.264 382.915 376.605 381.086 372.703C380.72 371.849 380.354 371.118 379.988 370.264C379.622 369.532 379.866 368.923 380.476 368.191C386.085 361.971 390.963 355.02 396.329 348.557C400.231 343.801 404.622 339.411 408.28 334.411C409.743 332.46 410.963 330.387 412.304 328.314C416.816 321.606 416.573 314.168 415.719 306.485C414.134 293.07 409.987 280.388 406.207 267.583C404.987 263.559 403.89 259.535 402.67 255.51C402.427 254.535 402.427 253.559 402.67 252.462C405.109 240.145 405.231 227.584 404.622 215.145C404.134 202.95 401.451 191.121 398.89 179.17C397.061 170.146 394.744 161.244 392.183 152.342C392.061 151.732 391.817 151.122 391.695 150.513C390.963 145.757 391.085 146.61 386.451 146.61C382.427 146.732 378.768 147.952 375.11 149.537C362.183 155.025 349.899 135.415 342.216 147C336.716 155.294 341.086 173.5 341.086 178.805C340.233 179.048 339.989 180.024 339.623 180.756C335.599 188.439 333.891 196.731 332.184 205.024C330.599 212.584 329.867 220.267 329.623 228.072C329.501 233.56 329.135 239.047 329.623 244.535C329.745 246.12 329.257 246.608 327.55 246.364C320.843 245.389 314.258 244.047 307.55 243.559C298.404 242.828 289.38 243.437 280.722 246.852C272.185 250.145 267.063 256.486 264.868 265.388C263.039 273.071 264.259 280.144 268.283 286.851C277.429 301.973 289.38 314.411 304.624 323.436C305.111 323.802 305.599 324.045 306.209 324.411C307.185 324.899 307.185 325.387 306.575 326.241C304.014 329.411 301.819 332.826 300.477 336.728C300.234 337.582 299.624 338.435 300.355 339.167C301.087 340.021 302.063 339.655 303.038 339.533C311.453 337.46 319.258 334.289 326.087 328.801C328.648 326.728 331.33 324.777 333.891 322.704C336.452 320.631 336.452 319.899 334.745 317.094C327.062 304.534 317.184 294.046 305.599 285.022C305.477 284.778 305.111 284.412 304.746 284.046Z" fill="white"/>
<path d="M377.305 368.8C378.647 368.679 378.525 369.898 378.647 370.508C380.11 374.532 382.305 378.069 384.622 381.605C385.354 382.825 385.232 384.654 387.061 385.142" stroke="#1F2E3A" stroke-width="2.14524" stroke-miterlimit="10" stroke-linecap="round" stroke-linejoin="round"/>
<path d="M390.11 148.073C390.232 151.366 391.329 154.415 392.183 157.464C394.866 166.366 396.695 175.39 398.646 184.414C399.988 190.634 401.085 196.975 402.061 203.316C402.793 207.95 403.28 212.584 403.28 217.34C403.28 224.291 403.28 231.364 403.036 238.315C402.793 243.315 402.671 248.315 400.719 252.949C400.476 253.437 400.841 254.291 401.085 255.022C403.768 263.559 406.207 272.339 408.768 280.876C411.451 289.778 413.646 298.924 414.5 308.192C414.987 313.192 415.719 318.192 413.524 323.07C411.573 327.704 409.012 331.85 405.719 335.63C397.549 345.142 389.5 354.776 381.939 364.776C380.72 366.362 379.378 367.703 377.915 368.801" stroke="#1F2E3A" stroke-width="2.14524" stroke-miterlimit="10" stroke-linecap="round" stroke-linejoin="round"/>
<path d="M370.598 275.754C371.94 283.924 374.622 291.729 376.452 299.778C377.427 303.802 378.281 307.948 379.378 311.973C379.988 314.29 379.135 316.241 378.525 318.314C376.574 324.655 373.769 330.631 370.842 336.484C366.452 345.143 361.086 353.435 356.33 361.972C355.72 363.069 355.72 363.801 356.574 364.898C360.964 371.24 367.427 375.02 373.891 378.679C376.817 380.386 379.622 382.215 382.671 383.678C383.647 384.166 384.622 384.532 385.72 384.044" stroke="#1F2E3A" stroke-width="2.14524" stroke-miterlimit="10" stroke-linecap="round" stroke-linejoin="round"/>
<path d="M309.136 325.021C308.282 323.314 306.453 322.826 304.99 322.094C291.209 314.167 280.6 302.826 271.698 289.778C269.746 286.851 268.039 283.558 266.698 280.266C264.503 274.656 265.356 269.046 266.942 263.559C269.381 254.9 275.6 249.901 284.014 247.218C293.161 244.413 302.551 244.291 311.941 245.388C318.16 246.12 324.379 247.218 330.721 248.193" stroke="#1F2E3A" stroke-width="2.14524" stroke-miterlimit="10" stroke-linecap="round" stroke-linejoin="round"/>
<path d="M292.429 276.973C294.868 277.339 296.453 279.29 298.282 280.754C305.599 286.485 312.794 292.339 319.379 299.046C325.355 305.021 329.989 311.972 334.623 319.045C335.233 319.899 335.111 320.509 334.379 321.119C325.964 328.192 317.55 335.021 306.453 337.46C304.989 337.826 303.77 338.923 302.184 338.313" stroke="#1F2E3A" stroke-width="2.14524" stroke-miterlimit="10" stroke-linecap="round" stroke-linejoin="round"/>
<path d="M300.965 282.217C301.209 281.851 301.575 281.363 301.819 280.998C304.38 281.851 306.819 283.315 309.502 283.924C315.721 285.266 321.94 285.266 328.282 284.168C336.94 282.705 345.233 280.266 353.525 277.583C354.623 277.217 355.842 276.851 356.94 276.607C358.037 276.364 358.769 276.364 359.866 276.973C362.183 278.437 364.988 278.924 367.549 279.412C368.647 279.656 369.622 280.022 370.842 279.9" stroke="#1F2E3A" stroke-width="2.14524" stroke-miterlimit="10" stroke-linecap="round" stroke-linejoin="round"/>
<path d="M341.33 180.39C340.354 183.317 338.769 186 337.794 188.926C334.501 199.414 332.306 210.145 331.452 221.121C330.964 228.316 330.842 235.511 330.842 242.706C330.842 244.413 331.33 246.12 330.842 247.827C330.599 248.681 331.94 249.291 331.574 250.266" stroke="#1F2E3A" stroke-width="2.14524" stroke-miterlimit="10" stroke-linecap="round" stroke-linejoin="round"/>
<path d="M310.111 324.777C308.648 324.777 308.648 326.24 307.916 327.094C305.721 329.533 304.136 332.46 302.551 335.387C302.063 336.362 302.672 337.704 301.331 338.313" stroke="#1F2E3A" stroke-width="2.14524" stroke-miterlimit="10" stroke-linecap="round" stroke-linejoin="round"/>
<path d="M338.418 129.144C338.418 135.044 338.518 141.244 339.418 147.444C339.618 148.544 340.018 149.144 341.118 149.544C348.718 152.044 356.518 153.844 364.418 154.544C372.318 155.244 380.218 155.644 388.018 153.444C390.918 152.644 392.618 151.544 393.218 148.044C394.918 137.844 396.218 127.644 396.418 117.244C396.518 114.344 396.318 111.444 396.118 108.544C396.018 107.244 396.518 107.044 397.718 107.544C402.618 109.344 407.818 110.044 413.018 110.644C414.718 110.844 415.518 110.144 415.718 108.544C416.618 101.744 416.018 95.0444 413.218 88.6444C409.918 80.8444 405.318 73.8444 399.118 68.1444C394.518 63.8444 389.318 60.6444 383.118 59.2444C378.018 58.0444 372.818 57.6444 367.618 58.3444C360.418 59.2444 355.118 63.0445 351.618 69.4445C347.018 78.0445 343.818 87.2444 341.618 96.7444C339.318 107.244 338.218 118.044 338.418 129.144Z" fill="white"/>
<path d="M340.818 148.444C340.518 145.944 340.118 143.444 339.918 140.844C339.418 134.444 339.718 128.044 339.718 121.744C339.718 118.044 340.318 114.344 340.618 110.644C341.218 103.944 342.618 97.4444 344.318 91.0444C345.318 87.3444 346.818 83.7444 348.118 80.1444C349.818 75.6444 351.718 71.3444 354.418 67.2444C357.518 62.6444 361.918 60.4444 367.118 59.5444C370.618 58.9444 374.018 59.2444 377.518 59.5444C381.318 59.8444 384.818 60.6444 388.218 62.2444C392.518 64.2444 396.418 66.8444 399.718 70.2444C404.418 75.1444 408.218 80.6444 411.118 86.7444C414.118 92.9444 415.418 99.4444 414.718 106.344C414.418 109.844 414.418 109.944 411.118 109.444C406.918 108.744 402.718 108.244 398.718 106.844C398.218 106.644 397.718 106.444 397.218 106.244C395.718 105.444 395.118 105.844 395.118 107.744C395.118 110.844 395.218 113.944 395.218 116.944C395.218 121.844 394.618 126.744 394.318 131.644C394.018 137.144 392.618 142.544 391.918 147.944C391.818 148.844 391.518 149.844 391.318 150.744" stroke="#1F2E3A" stroke-width="2" stroke-miterlimit="10" stroke-linecap="round" stroke-linejoin="round"/>
<path d="M366.105 122.216C370.005 125.116 374.605 124.916 379.105 124.716C380.405 124.616 381.705 123.916 383.005 123.416" stroke="#1F2E3A" stroke-width="2" stroke-miterlimit="10" stroke-linecap="round" stroke-linejoin="round"/>
<path d="M368.906 89.7162C371.506 87.2162 374.806 86.9162 378.206 87.0162" stroke="#1F2E3A" stroke-width="2" stroke-miterlimit="10" stroke-linecap="round" stroke-linejoin="round"/>
<path d="M366.906 98.0162C370.106 96.9162 373.106 97.0162 375.806 99.2162" stroke="#1F2E3A" stroke-width="2" stroke-miterlimit="10" stroke-linecap="round" stroke-linejoin="round"/>
<path d="M386.605 88.9161C387.605 88.7161 388.505 89.2161 389.305 89.8161C390.905 90.9161 392.505 91.9161 393.905 93.3161C394.205 93.6161 394.605 93.9161 395.105 93.8161" stroke="#1F2E3A" stroke-width="2" stroke-miterlimit="10" stroke-linecap="round" stroke-linejoin="round"/>
<path d="M383.406 99.0161C386.106 98.5161 388.506 98.8161 390.306 101.016" stroke="#1F2E3A" stroke-width="2" stroke-miterlimit="10" stroke-linecap="round" stroke-linejoin="round"/>
<path d="M359.62 125.083C359.62 128.883 359.82 132.683 360.22 136.383C360.92 142.483 362.02 144.283 369.72 143.483C373.02 143.183 376.02 141.583 379.22 140.683C382.52 139.683 385.72 138.783 389.12 138.183C390.32 137.983 390.32 137.183 390.32 136.383C390.62 133.383 390.92 130.383 391.02 127.383C391.22 119.583 392.52 111.983 392.92 104.183C393.22 98.5826 393.42 92.8825 391.32 87.5825C388.32 80.0825 382.72 75.4825 374.72 74.0825C372.22 73.6825 370.12 74.7825 368.22 76.3825C366.02 78.2825 364.72 80.8825 363.72 83.5825C361.82 88.8825 361.12 94.3825 360.62 99.8825C360.02 108.383 359.82 116.683 359.62 125.083Z" stroke="white" stroke-miterlimit="10"/>
<path d="M370.02 160.982C379.22 160.982 385.42 159.082 390.42 154.082C391.02 153.482 392.42 152.582 391.52 151.682C390.52 150.682 390.12 152.282 389.52 152.882C385.82 156.482 381.42 158.682 376.22 159.182C363.52 160.382 352.52 156.282 342.92 148.182C342.32 147.682 341.72 147.182 341.12 146.782C340.82 146.582 340.42 146.482 340.12 146.882C339.92 147.182 339.92 147.482 340.12 147.782C340.42 148.082 340.62 148.482 341.02 148.782C350.02 156.382 360.22 161.082 370.02 160.982Z" fill="white"/>
<path d="M340.32 146.883C342.22 149.083 344.62 150.783 347.12 152.283C351.22 154.883 355.42 157.083 360.12 158.483C365.42 159.983 370.92 160.483 376.32 159.983C382.22 159.483 387.32 156.883 391.22 152.183" stroke="#1F2E3A" stroke-width="2" stroke-miterlimit="10" stroke-linecap="round" stroke-linejoin="round"/>
<path d="M375.321 74.8826C377.721 75.6826 380.12 76.3826 382.22 77.7826C389.02 82.2826 391.921 88.6826 392.121 96.5826C392.321 104.583 391.221 112.583 390.521 120.483C390.121 124.483 389.921 128.583 389.821 132.683C389.721 137.383 389.721 137.383 385.021 138.183C382.621 138.583 380.32 139.383 377.92 140.083C375.32 140.883 372.821 141.883 370.121 142.483C368.021 142.983 365.82 142.883 363.72 142.083C362.12 141.483 361.72 140.083 361.42 138.783C360.92 136.783 360.92 134.583 360.72 132.483C360.22 127.983 360.421 123.583 360.521 119.083C360.621 115.783 360.621 112.483 360.821 109.183C361.121 105.783 361.12 102.383 361.42 98.9826C362.02 93.5826 362.62 88.0826 364.72 82.9826C366.22 79.2826 368.321 76.2826 372.321 74.8826C373.221 74.5826 374.221 74.7826 375.121 74.6826" stroke="#1F2E3A" stroke-width="2" stroke-miterlimit="10" stroke-linecap="round" stroke-linejoin="round"/>
<path d="M455.073 163.751C455.273 162.051 455.373 160.651 454.773 159.251C454.073 157.551 452.973 157.351 451.773 158.751C450.873 159.751 450.073 160.951 449.273 162.051C449.073 161.951 448.973 161.951 448.973 161.851C447.773 158.851 445.773 159.451 443.673 161.951C442.773 163.051 442.573 164.451 442.173 165.851C441.873 167.051 441.573 168.251 441.373 169.451C441.173 170.651 440.973 171.851 440.773 173.051C439.973 172.951 439.973 172.251 439.673 171.851C438.873 170.351 438.073 168.951 436.673 167.851C435.173 166.651 433.773 166.951 432.673 168.451C430.173 171.851 430.773 175.351 432.073 178.951C432.773 180.951 432.573 181.551 430.573 182.451C428.273 183.451 426.073 183.251 423.773 182.551C416.873 180.451 412.073 175.651 408.273 169.851C405.473 165.551 403.473 160.851 401.473 156.151C400.373 153.551 398.773 151.251 396.973 149.151C395.573 147.551 394.373 147.251 392.373 148.051C386.273 150.251 382.473 155.551 382.273 162.251C382.173 163.751 382.273 165.251 382.273 166.751C382.273 167.351 382.273 167.951 381.973 168.551C381.573 169.451 381.273 170.051 380.273 168.851C379.073 167.451 377.673 167.651 376.673 169.351C374.773 172.551 374.473 176.251 374.273 179.851C374.173 181.251 374.073 182.651 374.273 184.051C374.573 186.251 373.373 187.451 371.673 188.451C370.373 189.251 368.873 189.551 367.373 189.751C359.173 190.851 351.773 189.351 345.373 183.851C341.173 180.251 339.973 172.951 342.973 168.651C343.673 167.751 344.473 167.051 345.573 166.751C349.673 165.551 354.273 159.151 354.173 154.951C354.073 150.251 348.273 145.451 343.673 146.051C337.873 146.751 333.073 149.651 328.673 153.351C322.373 158.651 318.473 165.351 317.973 173.751C317.573 180.651 320.173 186.351 324.573 191.451C329.073 196.651 334.773 200.151 341.073 202.751C347.973 205.751 355.073 208.451 362.673 208.951C374.073 209.651 384.173 206.651 391.773 197.551C392.573 196.651 393.073 195.651 393.273 194.451C393.473 193.151 394.273 192.151 394.973 191.051C395.473 190.251 395.973 190.451 396.473 191.151C397.573 192.351 398.173 193.851 399.373 195.051C403.273 199.051 408.273 200.751 413.473 201.651C425.573 203.651 436.973 201.351 447.373 194.851C450.873 192.651 453.573 189.851 455.173 185.951C456.873 181.951 459.873 178.751 461.573 174.851C462.073 173.551 462.773 172.351 462.973 170.951C463.473 168.351 462.573 167.151 460.073 166.751C459.673 166.651 459.573 166.551 459.673 166.251C459.773 165.851 459.773 165.451 459.873 165.151C460.073 164.351 459.973 163.551 459.373 163.051C458.673 162.451 457.873 162.751 457.173 163.051C456.373 162.951 455.773 163.251 455.073 163.751Z" fill="white"/>
<path d="M390.573 184.951C392.173 184.351 393.973 183.951 395.473 182.851C396.273 182.251 397.173 182.951 396.873 183.951C396.373 185.751 396.273 187.651 394.773 188.951C393.273 190.351 392.273 192.051 391.773 194.151C390.973 196.951 388.673 198.751 386.573 200.651C382.673 204.251 377.973 206.051 372.873 206.951C369.473 207.551 365.873 208.051 362.373 207.651C356.973 207.051 351.773 205.651 346.673 203.651C340.773 201.351 334.973 198.951 329.973 194.951C324.673 190.751 320.573 185.451 319.173 178.751C318.173 173.951 318.973 169.251 320.973 164.751C324.073 157.651 329.473 152.651 336.273 149.251C338.473 148.151 340.773 147.251 343.273 146.951C344.273 146.851 345.473 146.551 346.273 147.551" stroke="#1F2E3A" stroke-width="2" stroke-miterlimit="10" stroke-linecap="round" stroke-linejoin="round"/>
<path d="M458.473 168.551C458.773 168.351 459.173 168.251 459.473 168.051C459.873 167.551 460.473 167.351 460.973 167.551C461.573 167.851 461.873 168.451 461.873 169.151C461.973 171.351 460.873 173.151 459.973 174.951C458.873 177.051 457.873 179.251 456.173 180.951C454.973 182.151 454.673 183.851 453.973 185.351C451.973 189.451 448.873 192.451 444.973 194.551C440.373 197.051 435.573 199.151 430.473 200.051C426.273 200.851 421.973 201.151 417.573 200.751C413.173 200.351 408.973 199.351 404.873 197.551C402.273 196.451 400.473 194.351 398.673 192.251C397.573 190.951 396.673 189.551 395.673 188.251" stroke="#1F2E3A" stroke-width="2" stroke-miterlimit="10" stroke-linecap="round" stroke-linejoin="round"/>
<path d="M380.872 173.551C381.372 171.751 380.072 170.551 379.172 169.251C378.772 168.651 378.172 168.751 377.672 169.351C376.272 171.051 375.972 173.151 375.572 175.251C375.072 178.051 375.172 180.951 375.172 183.751C375.172 186.951 374.172 188.251 370.972 189.651C369.172 190.451 367.172 190.751 365.272 190.951C357.172 191.751 350.072 189.451 343.872 184.151C340.272 181.051 338.672 173.851 340.772 169.551C341.772 167.451 343.272 165.251 346.072 164.851" stroke="#1F2E3A" stroke-width="2" stroke-miterlimit="10" stroke-linecap="round" stroke-linejoin="round"/>
<path d="M393.573 148.551C394.773 148.451 395.473 149.151 396.273 150.051C399.073 153.351 400.673 157.151 402.273 161.051C405.073 167.551 408.673 173.551 413.973 178.251C417.573 181.451 421.873 183.551 426.673 184.251C428.773 184.551 430.873 183.651 432.673 182.351C433.173 181.951 433.473 181.351 434.173 181.151" stroke="#1F2E3A" stroke-width="2" stroke-miterlimit="10" stroke-linecap="round" stroke-linejoin="round"/>
<path d="M387.873 177.951C388.673 175.751 388.973 173.351 390.873 171.751C391.573 171.151 391.573 170.151 392.173 169.351C392.673 168.851 392.973 168.451 393.673 168.551C394.473 168.751 394.472 169.451 394.472 170.051C394.572 171.251 394.172 172.351 393.972 173.551C393.472 176.851 392.972 180.051 391.472 183.051C391.372 183.351 391.273 183.851 391.573 184.251" stroke="#1F2E3A" stroke-width="2" stroke-miterlimit="10" stroke-linecap="round" stroke-linejoin="round"/>
<path d="M437.273 183.651C433.873 181.351 432.373 178.051 431.973 174.151C431.773 172.151 432.373 170.351 433.673 168.851C434.473 167.851 435.373 167.951 436.173 168.651C437.273 169.651 438.073 170.951 438.673 172.351C439.173 173.451 439.773 174.651 440.773 175.451C441.873 174.651 441.773 173.451 441.973 172.351C442.373 169.551 442.973 166.751 443.773 163.951C444.273 162.351 445.373 161.451 446.773 160.851C449.073 163.451 448.273 166.151 447.373 168.751" stroke="#1F2E3A" stroke-width="2" stroke-miterlimit="10" stroke-linecap="round" stroke-linejoin="round"/>
<path d="M448.672 164.451C450.172 163.551 450.472 161.751 451.672 160.551C452.172 159.951 452.472 159.251 453.372 159.051C454.572 160.351 454.172 161.951 453.972 163.451C453.872 164.251 453.872 165.051 454.172 165.751" stroke="#1F2E3A" stroke-width="2" stroke-miterlimit="10" stroke-linecap="round" stroke-linejoin="round"/>
<path d="M458.173 163.551C456.173 163.751 454.973 165.151 453.873 166.651C452.973 167.851 452.673 169.351 452.073 170.751" stroke="#1F2E3A" stroke-width="2" stroke-miterlimit="10" stroke-linecap="round" stroke-linejoin="round"/>
<path d="M458.373 162.851C458.873 164.251 458.173 165.551 458.273 166.851C458.373 169.451 456.973 171.251 455.873 173.351" stroke="#1F2E3A" stroke-width="2" stroke-miterlimit="10" stroke-linecap="round" stroke-linejoin="round"/>
<path d="M384.573 175.551C384.373 173.051 385.873 171.251 386.973 169.251C387.273 168.751 387.773 167.951 388.573 168.251C389.373 168.551 389.273 169.351 389.273 170.051C389.273 170.951 389.273 171.751 389.973 172.351" stroke="#1F2E3A" stroke-width="2" stroke-miterlimit="10" stroke-linecap="round" stroke-linejoin="round"/>
<path d="M385.073 171.551C384.273 170.851 384.473 169.751 383.573 168.851C382.973 168.551 382.373 169.051 382.073 169.951C381.873 170.651 381.573 171.251 380.873 171.651" stroke="#1F2E3A" stroke-width="2" stroke-miterlimit="10" stroke-linecap="round" stroke-linejoin="round"/>
</g>
<defs>
<clipPath id="clip0_1296_4893">
<rect width="564" height="428" fill="white"/>
</clipPath>
</defs>
</svg>
