<svg width="564" height="428" viewBox="0 0 564 428" fill="none" xmlns="http://www.w3.org/2000/svg">
<g clip-path="url(#clip0_1296_4887)">
<rect x="1" y="1" width="562" height="426" rx="7" fill="white" stroke="#1F2E3A" stroke-width="2"/>
<mask id="mask0_1296_4887" style="mask-type:alpha" maskUnits="userSpaceOnUse" x="0" y="0" width="564" height="428">
<rect x="1" y="1" width="562" height="426" fill="#F0FFF9" stroke="#1F2E3A" stroke-width="2"/>
</mask>
<g mask="url(#mask0_1296_4887)">
<path d="M160.633 -31.2217C161.715 -30.3565 161.607 -29.0587 161.715 -27.9772C162.256 -23.1104 164.527 -19.1088 167.339 -15.3236C172.422 -8.5101 179.343 -4.61666 187.238 -1.9129C192.646 -0.0743424 198.161 1.43972 203.893 2.30493C208.544 2.95383 213.194 2.95381 217.845 2.62936C222.712 2.19676 227.578 1.43975 232.337 0.0337947C239.15 -1.91291 245.207 -5.26561 250.939 -9.26717C256.455 -13.0524 261.213 -17.7029 266.513 -21.7045C268.351 -23.1104 270.298 -24.5164 272.244 -25.8142C275.705 -28.0853 279.274 -28.0853 282.735 -25.8142C285.006 -24.4082 287.169 -22.6778 289.008 -20.7311C292.36 -17.4866 295.497 -14.0258 299.498 -11.5383C304.581 -8.29379 310.097 -7.42859 315.937 -7.75304C325.995 -8.40194 335.08 -12.079 344.164 -16.1888C349.68 -18.6762 354.979 -21.7044 360.711 -23.6512C365.794 -25.3816 370.445 -24.9489 374.771 -21.8126C378.015 -19.5414 381.26 -17.3784 384.829 -15.648C389.912 -13.2687 395.32 -11.7546 400.943 -10.6731C410.244 -9.05086 419.221 -10.6731 427.981 -13.2687C436.525 -15.7561 444.528 -19.4333 452.747 -22.786C453.18 -23.0023 453.721 -23.1104 454.153 -23.3267C456.1 -23.9756 456.857 -23.7593 457.939 -22.0289C458.912 -20.5148 459.669 -18.8925 460.642 -17.2703C463.779 -11.8627 468.537 -8.83455 474.594 -7.75304C484.544 -6.02264 494.061 -7.32044 503.145 -12.0791C507.904 -14.5665 511.906 -18.0273 516.123 -21.2718C516.556 -21.5963 517.097 -22.0289 517.529 -22.3533C518.827 -23.2185 520.017 -23.2185 521.098 -22.137C525.857 -17.9192 531.697 -16.2969 537.754 -15.3236C538.402 -15.2154 539.051 -15.2154 539.268 -14.3502" stroke="#1F2E3A" stroke-width="2" stroke-miterlimit="10" stroke-linecap="round" stroke-linejoin="round"/>
<path d="M161.066 -34.1416C161.39 -32.5193 160.2 -31.4378 159.552 -30.14C157.28 -26.0303 154.685 -22.1369 152.089 -18.2435C146.141 -9.26701 140.842 0.0339586 135.758 9.44304C131 18.2032 126.349 26.9633 121.374 35.6154C116.832 43.5103 112.074 51.2972 107.315 59.084C99.8525 71.1968 91.8494 82.9853 83.63 94.6655C74.0046 108.401 63.7303 121.703 52.9153 134.573C44.6959 144.306 36.3683 154.04 28.3652 163.99C20.1457 174.372 11.71 184.538 3.4906 194.921C0.462387 198.706 -2.45769 202.599 -5.37774 206.493C-6.24295 207.574 -6.89185 208.764 -7 210.062" stroke="#1F2E3A" stroke-width="2" stroke-miterlimit="10" stroke-linecap="round" stroke-linejoin="round"/>
<path d="M472.539 24.584C470.484 24.4758 468.429 24.2595 466.374 24.2595C459.777 24.2595 453.288 24.2595 446.691 24.2595C437.065 24.1513 427.44 24.1513 417.814 23.935C404.728 23.6106 391.534 23.7188 378.448 23.8269C369.255 23.9351 360.062 24.4758 350.869 24.9084C349.031 25.0166 347.192 25.2328 345.462 25.0165C343.299 24.8002 342.542 26.2062 342.758 28.1529C343.191 31.6137 343.515 35.1827 343.299 38.6435C343.083 42.2125 342.974 45.7814 343.191 49.3504C343.623 55.9475 342.866 62.5447 342.974 69.2501C342.974 78.4428 343.948 87.5274 344.813 96.7202C345.462 102.993 345.894 109.266 346.327 115.538C346.543 118.783 346.219 122.136 347.084 125.272C347.192 125.488 346.76 125.813 346.652 126.137" stroke="#1F2E3A" stroke-width="2" stroke-miterlimit="10" stroke-linecap="round" stroke-linejoin="round"/>
<path d="M470.375 24.9084C469.943 28.2611 470.159 31.5056 470.267 34.8583C470.375 38.4273 470.375 42.1044 470.375 45.6733C470.483 53.4601 470.916 61.247 471.457 68.9256C471.781 73.3598 471.889 77.7939 471.997 82.3363C472.106 87.3112 472.322 92.2861 472.106 97.3692C471.781 104.94 471.781 112.51 471.781 120.081C471.781 121.811 471.673 123.542 471.565 125.272C467.996 125.813 464.427 125.272 460.75 125.813C459.236 126.029 457.613 125.705 456.099 125.705C449.286 125.705 442.472 125.921 435.659 125.813C427.872 125.705 419.977 125.272 412.19 125.056C407.107 124.947 401.916 124.731 396.833 124.623C385.045 124.19 373.364 124.515 361.576 124.407C356.709 124.407 351.842 124.623 346.976 124.731" stroke="#1F2E3A" stroke-width="2" stroke-miterlimit="10" stroke-linecap="round" stroke-linejoin="round"/>
<path d="M86.9825 275.385C87.1988 271.924 87.9558 268.571 88.2803 265.11C88.7129 260.568 89.0374 256.026 89.5781 251.592C90.0107 248.347 90.227 245.103 90.3351 241.858C90.3351 239.803 90.7678 237.856 90.7678 235.91C90.7678 230.178 90.3352 224.554 89.3618 218.93C88.2803 212.766 86.8743 206.709 84.6032 200.869C82.332 194.921 78.6549 190.162 72.7067 187.567C65.2443 184.322 56.7004 184.863 50.3195 190.595C44.4794 195.786 41.7757 202.6 39.9371 209.846C38.0986 217.308 37.2333 224.987 37.017 232.665C36.6926 243.805 36.5844 254.944 36.26 266.084C35.9355 275.493 35.9355 285.01 36.0437 294.419C36.1518 303.287 36.3681 312.156 36.8007 320.916C36.9089 323.728 37.1252 326.54 37.1252 329.46" stroke="#1F2E3A" stroke-width="2" stroke-miterlimit="10" stroke-linecap="round" stroke-linejoin="round"/>
<path d="M479.244 351.306C479.893 344.168 480.866 337.139 481.299 330.001C481.731 320.483 482.164 310.858 482.38 301.233C482.597 291.066 482.813 280.9 482.597 270.734C482.488 264.461 482.597 258.081 482.272 251.808C481.948 243.697 482.164 235.693 481.515 227.582C480.866 219.038 479.785 210.494 476.865 202.275C474.81 196.435 471.673 191.352 466.59 187.675C459.236 182.267 449.827 183.241 442.797 187.675C437.39 191.136 434.794 196.543 432.847 202.275C430.793 208.331 429.387 214.604 428.63 220.877C427.873 226.393 427.548 232.016 428.089 237.64C428.521 241.534 428.738 245.535 428.954 249.537C429.279 254.079 430.036 258.513 430.252 263.056C430.468 266.733 431.333 270.302 431.55 273.871" stroke="#1F2E3A" stroke-width="2" stroke-miterlimit="10" stroke-linecap="round" stroke-linejoin="round"/>
<path d="M232.337 210.062C224.334 210.17 216.439 211.252 208.544 212.225C198.81 213.415 189.185 215.037 179.668 217.632C174.801 218.93 170.042 220.553 165.608 223.04C163.229 224.446 161.066 225.96 160.417 228.772C160.093 230.178 160.201 231.368 161.498 232.557C165.5 236.667 170.583 238.397 175.774 240.02C186.157 243.264 196.756 245.103 207.571 246.4C216.655 247.59 225.74 248.347 234.824 248.888C242.395 249.32 249.857 249.537 257.428 249.753C264.782 250.078 272.136 249.861 279.491 249.753C286.628 249.537 293.875 249.32 301.012 248.888C310.205 248.239 319.506 247.482 328.591 246.184C336.594 245.103 344.597 243.805 352.384 241.75C357.9 240.344 363.307 238.614 368.498 236.018C370.121 235.153 371.635 234.071 373.149 232.99C375.312 231.584 374.879 227.474 372.608 225.311C370.337 223.04 367.417 221.634 364.497 220.444C351.302 215.253 337.459 213.306 323.508 211.576C318.749 210.927 313.882 210.386 309.016 210.278C309.016 208.98 309.016 207.683 309.016 206.493" stroke="#1F2E3A" stroke-width="2" stroke-miterlimit="10" stroke-linecap="round" stroke-linejoin="round"/>
<path d="M538.943 232.125C539.159 232.233 539.484 232.449 539.7 232.557C538.727 234.828 539.051 237.208 539.159 239.479C539.375 243.805 539.267 248.131 539.267 252.457C539.376 261.325 539.808 270.193 540.349 278.954C540.673 284.361 540.673 289.769 541.106 295.176C541.755 303.287 542.079 311.399 541.971 319.51C541.863 323.512 541.863 327.621 541.863 331.623C541.863 332.813 541.43 333.894 541.214 335.084C540.998 336.273 541.214 336.922 542.079 337.679C544.999 340.275 548.568 341.248 552.245 342.005C560.249 343.628 568.252 344.06 576.471 343.303C578.85 343.087 581.338 342.762 583.717 342.546C584.15 342.438 585.339 342.762 584.907 341.465" stroke="#1F2E3A" stroke-width="2" stroke-miterlimit="10" stroke-linecap="round" stroke-linejoin="round"/>
<path d="M364.496 295.501C363.307 296.69 362.225 297.88 361.036 299.07C360.17 299.935 359.413 299.827 358.548 299.07C355.52 296.582 355.844 296.907 352.816 298.637C350.004 300.151 347.301 302.098 345.138 304.694C343.083 307.181 339.189 307.181 336.918 304.91C335.728 303.828 334.647 302.639 333.457 301.449C331.402 299.394 329.348 299.07 326.752 300.367C324.805 301.341 322.75 302.314 320.587 302.963C318.533 303.612 316.478 303.612 314.423 303.071C310.854 302.098 307.717 302.314 304.473 304.477C297.551 309.128 293.658 307.505 287.926 302.531C286.953 301.665 285.979 300.8 285.006 299.935C282.627 297.664 279.923 297.664 277.003 298.745C274.299 299.719 271.703 300.8 268.892 301.449C265.431 302.206 262.078 301.665 258.834 300.8C253.859 299.502 249.208 300.367 244.558 302.314C241.313 303.612 238.177 304.802 234.608 305.126C232.012 305.342 229.525 305.018 227.254 304.153C222.387 302.314 217.628 302.531 212.761 304.153C209.084 305.451 205.191 305.451 201.406 304.261C201.081 304.153 200.757 304.153 200.757 303.828C200.865 303.288 200.973 302.747 201.081 302.206" stroke="#1F2E3A" stroke-width="2" stroke-miterlimit="10" stroke-linecap="round" stroke-linejoin="round"/>
<path d="M333.998 325.458C325.67 325.675 317.343 325.783 309.123 325.999C302.526 326.107 296.037 326.323 289.44 326.54C282.194 326.756 274.839 326.864 267.593 327.081C260.996 327.297 254.399 327.405 247.694 327.621C240.448 327.838 233.093 327.946 225.847 328.162C218.277 328.378 210.706 328.703 203.136 328.703" stroke="#1F2E3A" stroke-width="2" stroke-miterlimit="10" stroke-linecap="round" stroke-linejoin="round"/>
<path d="M193.728 301.016C192.971 302.53 193.403 304.153 193.187 305.667C192.646 312.156 191.997 318.645 191.348 325.134C190.808 331.298 190.051 337.355 190.051 343.519C190.051 344.709 190.375 345.25 191.673 345.574C195.566 346.439 195.458 346.439 195.999 342.438C196.648 337.247 196.648 331.947 197.297 326.756C197.946 321.24 198.811 315.616 199.676 310.101C200 308.046 199.676 305.883 200.757 303.936C197.946 302.206 194.809 300.908 191.781 299.61C188.861 298.421 186.049 299.502 183.453 301.016C181.507 302.098 179.668 303.395 177.505 304.152C175.558 304.801 173.828 304.477 172.098 303.72C170.583 303.071 169.069 302.206 167.555 301.341C164.419 299.61 161.931 300.475 159.985 302.638C158.795 303.936 157.714 305.45 156.524 306.748" stroke="#1F2E3A" stroke-width="2" stroke-miterlimit="10" stroke-linecap="round" stroke-linejoin="round"/>
<path d="M349.356 301.557C350.329 304.369 350.437 307.289 350.545 310.209C350.978 317.455 351.735 324.701 352.6 331.839C353.033 335.083 353.249 338.436 354.223 341.573C354.547 342.654 354.331 343.303 353.141 343.195C351.194 342.978 349.139 342.762 347.193 342.438C346.328 342.33 346.436 341.464 346.436 340.816C346.436 336.706 346.544 332.596 346.436 328.486C346.219 320.916 345.895 313.453 345.571 305.883C345.571 305.558 345.354 305.126 345.246 304.801" stroke="#1F2E3A" stroke-width="2" stroke-miterlimit="10" stroke-linecap="round" stroke-linejoin="round"/>
<path d="M160.525 232.233C159.659 233.206 159.876 234.396 159.876 235.477C159.443 242.399 159.335 249.32 158.902 256.242C158.47 264.894 158.037 273.438 157.28 282.09C156.847 287.606 156.631 293.121 156.307 298.745C156.198 300.584 156.198 302.53 156.09 304.369C156.09 305.126 156.09 305.883 156.631 306.532" stroke="#1F2E3A" stroke-width="2" stroke-miterlimit="10" stroke-linecap="round" stroke-linejoin="round"/>
<path d="M373.257 233.314C374.014 234.829 373.365 236.343 373.148 237.857C372.716 242.507 372.5 247.158 372.283 251.808C372.067 257.324 371.851 262.731 371.959 268.247C372.067 276.575 372.391 284.902 372.608 293.122C372.608 293.987 372.608 294.96 372.391 295.825C372.175 297.448 371.31 297.88 370.12 297.123C368.606 296.15 367.092 295.068 365.902 293.662" stroke="#1F2E3A" stroke-width="2" stroke-miterlimit="10" stroke-linecap="round" stroke-linejoin="round"/>
<path d="M184.642 328.162C175.99 328.27 167.338 328.162 158.686 328.378C151.657 328.595 144.735 328.378 137.705 328.486C125.917 328.811 114.237 328.811 102.448 328.811C95.851 328.811 89.2539 329.027 82.5485 329.135C81.8996 329.135 81.3589 329.243 80.71 328.919" stroke="#1F2E3A" stroke-width="2" stroke-miterlimit="10" stroke-linecap="round" stroke-linejoin="round"/>
<path d="M458.047 79.3079C457.722 83.4176 458.479 87.5273 459.02 91.637C459.453 95.5304 459.669 99.4238 459.885 103.425C459.993 105.264 460.21 106.994 460.426 108.833C460.75 110.78 460.21 111.428 458.263 111.537C451.99 112.077 445.717 111.861 439.445 111.861C435.119 111.969 430.901 112.186 426.575 113.051C425.277 113.375 423.979 113.375 422.573 113.592" stroke="#1F2E3A" stroke-width="2" stroke-miterlimit="10" stroke-linecap="round" stroke-linejoin="round"/>
<path d="M226.605 220.661C227.254 222.175 228.984 222.283 230.066 223.364C232.445 225.636 231.796 228.339 229.309 229.745C225.956 231.584 222.279 232.233 218.602 232.773C213.627 233.422 208.544 233.855 203.461 233.747C197.405 233.531 191.456 232.882 185.724 230.827C185.075 230.61 184.427 230.394 183.886 230.07C181.723 228.88 181.506 228.123 182.155 225.744C182.264 225.527 182.263 225.311 182.263 224.987" stroke="#1F2E3A" stroke-width="2" stroke-miterlimit="10" stroke-linecap="round" stroke-linejoin="round"/>
<path d="M540.457 324.052C520.881 324.269 501.306 324.377 481.731 324.593" stroke="#1F2E3A" stroke-width="2" stroke-miterlimit="10" stroke-linecap="round" stroke-linejoin="round"/>
<path d="M263.808 234.288C262.51 233.531 261.429 234.18 260.239 234.504C257.103 235.369 254.075 236.343 251.371 238.289C248.775 240.128 248.883 241.966 251.695 243.372C253.75 244.346 256.129 244.67 258.401 244.995C267.377 246.184 276.245 245.211 284.897 243.156C287.169 242.615 289.548 241.966 291.603 240.669C293.225 239.587 293.549 238.614 292.36 236.992C290.305 234.18 286.52 232.774 282.626 233.963" stroke="#1F2E3A" stroke-width="2" stroke-miterlimit="10" stroke-linecap="round" stroke-linejoin="round"/>
<path d="M353.573 220.661C354.547 221.742 355.736 222.607 355.953 224.23C356.169 226.717 354.655 228.015 352.708 229.096C349.247 231.043 345.354 231.584 341.46 232.341C331.943 234.071 322.534 233.314 313.125 231.151C312.909 231.043 312.692 231.151 312.368 231.043C310.746 230.394 310.529 229.853 311.503 228.339C311.719 228.015 311.719 227.582 311.827 227.258" stroke="#1F2E3A" stroke-width="2" stroke-miterlimit="10" stroke-linecap="round" stroke-linejoin="round"/>
<path d="M555.382 73.9006C555.057 74.1169 554.625 74.2251 554.3 74.4414C551.272 76.7125 549.325 75.9555 548.352 72.2784C547.811 70.1154 548.027 67.9523 548.676 65.7893C549.65 62.7611 551.813 62.8693 554.084 64.5997C556.571 66.4383 557.112 69.5746 555.922 72.711C555.814 73.0354 555.49 73.3599 555.598 73.7925C556.247 77.4696 555.274 81.0386 555.274 84.6075C555.165 91.0965 557.004 96.8285 561.33 101.803C566.089 107.319 569.982 113.267 570.631 120.946C571.064 125.813 570.09 130.355 568.576 134.789C566.305 141.278 563.926 147.875 560.357 153.932C557.653 158.582 555.814 163.557 553.543 168.316C551.705 172.101 551.272 176.535 551.705 180.753C552.462 188.54 555.057 195.786 558.951 202.383C561.654 207.034 563.493 212.009 565.656 216.875C565.98 217.524 565.98 218.281 566.197 219.038" stroke="#1F2E3A" stroke-width="2" stroke-miterlimit="10" stroke-linecap="round" stroke-linejoin="round"/>
<path d="M355.52 34.5337C354.979 35.7233 354.763 36.9131 354.763 38.1027C354.871 48.1607 355.088 58.1105 356.061 68.0603C356.494 72.8189 356.818 77.5775 357.143 82.3362C357.143 82.8769 357.683 83.4177 357.359 83.9584" stroke="#1F2E3A" stroke-width="2" stroke-miterlimit="10" stroke-linecap="round" stroke-linejoin="round"/>
<path d="M482.056 295.284C473.728 296.15 465.401 295.825 457.181 295.933C451.99 296.041 446.691 295.501 441.5 295.392C436.2 295.176 430.901 294.527 425.602 293.986C421.492 293.554 417.274 292.472 413.164 291.499C409.812 290.742 406.459 289.769 403.323 288.579C400.511 287.606 397.915 285.983 395.86 283.604C394.022 281.441 394.779 279.062 397.482 277.656C400.511 276.034 403.863 275.385 407.216 274.952C412.299 274.303 417.382 273.654 422.573 273.762C425.493 273.871 428.413 274.195 431.442 274.087C432.956 274.087 434.47 275.276 435.984 275.925C443.23 279.386 450.909 281.657 458.371 284.469C463.67 286.416 469.078 288.038 474.053 290.742C475.567 291.607 477.081 292.581 478.703 293.121C479.569 293.338 479.677 294.203 479.785 294.96" stroke="#1F2E3A" stroke-width="2" stroke-miterlimit="10" stroke-linecap="round" stroke-linejoin="round"/>
<path d="M36.4766 296.69C44.8041 297.556 53.1317 297.231 61.3511 297.339C66.5424 297.447 71.8417 296.907 77.0329 296.798C82.3323 296.582 87.6317 295.933 92.9311 295.393C97.0408 294.96 101.259 293.878 105.368 292.905C108.721 292.148 112.074 291.175 115.21 289.985C118.022 289.012 120.618 287.389 122.672 285.01C124.511 282.847 123.754 280.468 121.05 279.062C118.022 277.44 114.669 276.791 111.317 276.358C106.234 275.709 101.15 275.06 95.9592 275.168C93.0392 275.277 90.1191 275.601 87.0909 275.493C85.5768 275.493 84.0627 276.682 82.5486 277.331C75.3025 280.792 67.6239 283.063 60.1615 285.875C54.8621 287.822 49.4546 289.444 44.4797 292.148C42.9656 293.013 41.4515 293.987 39.8292 294.527C38.964 294.744 38.8559 295.609 38.7477 296.366" stroke="#1F2E3A" stroke-width="2" stroke-miterlimit="10" stroke-linecap="round" stroke-linejoin="round"/>
<path d="M539.916 232.773C544.026 236.775 549.217 237.64 554.516 238.181C564.25 239.262 573.875 238.181 583.392 235.693C583.825 235.585 584.366 235.477 584.798 235.369" stroke="#1F2E3A" stroke-width="2" stroke-miterlimit="10" stroke-linecap="round" stroke-linejoin="round"/>
<path d="M238.825 218.714C235.256 219.255 231.795 219.903 228.118 220.012C228.01 220.012 228.01 220.012 227.902 220.012C225.523 221.526 223.035 220.336 220.656 220.012C212.761 219.038 204.974 219.038 197.187 220.336C193.618 220.877 190.158 221.742 186.697 222.607C185.723 222.824 184.966 223.364 184.101 224.013C182.803 224.987 181.073 224.987 179.451 225.095" stroke="#1F2E3A" stroke-width="2" stroke-miterlimit="10" stroke-linecap="round" stroke-linejoin="round"/>
<path d="M402.133 34.5341C399.213 34.426 396.401 34.426 393.481 34.3179C384.396 34.1016 375.311 35.3994 366.227 35.1831C363.415 35.0749 360.495 35.0749 357.791 34.1016" stroke="#1F2E3A" stroke-width="2" stroke-miterlimit="10" stroke-linecap="round" stroke-linejoin="round"/>
<path d="M481.407 324.593C469.511 324.918 457.722 324.809 445.826 325.026C436.525 325.134 427.116 325.35 417.815 325.35C411.217 325.35 404.728 325.35 398.131 325.567C391.21 325.783 384.288 325.567 377.366 325.783C373.149 325.891 368.931 325.891 364.713 325.891C364.388 325.891 364.064 325.999 363.848 326.107" stroke="#1F2E3A" stroke-width="2" stroke-miterlimit="10" stroke-linecap="round" stroke-linejoin="round"/>
<path d="M308.583 210.062C301.986 209.737 295.497 209.305 288.899 208.98C286.087 208.872 283.275 208.98 280.464 208.872C274.191 208.656 267.918 208.548 261.645 208.656C254.399 208.764 247.045 209.088 239.799 209.413C237.528 209.521 235.365 209.845 233.094 209.737" stroke="#1F2E3A" stroke-width="2" stroke-miterlimit="10" stroke-linecap="round" stroke-linejoin="round"/>
<path d="M353.357 220.12C353.14 221.201 352.275 220.661 351.734 220.661C344.813 220.552 337.999 220.985 331.186 222.175C326.752 222.932 322.426 223.797 317.991 224.77C316.91 224.987 315.937 225.527 314.963 226.068C313.557 226.717 312.151 227.366 310.421 226.825C309.772 226.609 309.015 226.609 308.258 227.041C307.393 227.474 306.095 227.582 305.013 227.15C304.04 226.825 303.067 226.825 302.093 226.825" stroke="#1F2E3A" stroke-width="2" stroke-miterlimit="10" stroke-linecap="round" stroke-linejoin="round"/>
<path d="M115.859 290.201C116.291 291.066 116.4 291.932 116.4 292.905C116.075 302.314 117.157 311.723 117.373 321.132C117.481 323.728 117.157 326.215 117.157 328.703" stroke="#1F2E3A" stroke-width="2" stroke-miterlimit="10" stroke-linecap="round" stroke-linejoin="round"/>
<path d="M402.673 288.795C402.241 289.661 402.132 290.526 402.132 291.499C402.457 300.908 401.375 310.317 401.159 319.726C401.159 321.565 401.375 323.512 401.267 325.35" stroke="#1F2E3A" stroke-width="2" stroke-miterlimit="10" stroke-linecap="round" stroke-linejoin="round"/>
<path d="M273.758 141.927C275.164 144.09 276.03 146.253 274.84 148.741C274.624 149.173 274.732 149.606 274.84 150.039C275.381 153.283 275.921 156.528 275.705 159.772C275.489 165.504 274.732 171.236 271.704 176.427C270.189 179.131 268.243 181.618 264.674 181.51" stroke="#1F2E3A" stroke-width="2" stroke-miterlimit="10" stroke-linecap="round" stroke-linejoin="round"/>
<path d="M254.94 148.416C252.669 146.47 253.102 144.307 256.022 142.252C257.32 143.766 257.644 145.604 256.346 147.118C254.724 148.849 254.508 151.012 254.292 153.175C253.751 159.664 253.967 166.045 256.238 172.317C257.32 175.238 258.618 177.833 260.889 179.888C261.97 180.861 263.16 181.294 264.566 181.294" stroke="#1F2E3A" stroke-width="2" stroke-miterlimit="10" stroke-linecap="round" stroke-linejoin="round"/>
<path d="M92.9312 295.825C93.2556 300.908 93.6882 305.991 94.0127 310.966C94.0127 311.182 94.0127 311.399 94.0127 311.723C94.1208 317.455 94.2289 323.187 94.3371 328.919" stroke="#1F2E3A" stroke-width="2" stroke-miterlimit="10" stroke-linecap="round" stroke-linejoin="round"/>
<path d="M263.376 139.98C262.619 141.711 264.241 142.901 264.566 144.523C264.89 146.145 265.106 147.659 264.025 149.065C263.16 150.255 263.7 151.661 263.7 153.067C263.808 157.068 264.025 160.962 264.241 164.963C264.457 169.938 264.566 174.913 264.782 179.996C264.782 180.537 264.241 181.078 264.782 181.618" stroke="#1F2E3A" stroke-width="2" stroke-miterlimit="10" stroke-linecap="round" stroke-linejoin="round"/>
<path d="M79.7368 297.231C79.845 298.745 80.0613 300.367 80.0613 301.881C80.1694 307.505 80.0613 313.129 80.2776 318.645C80.3857 322.106 80.3857 325.674 80.3857 329.135" stroke="#1F2E3A" stroke-width="2" stroke-miterlimit="10" stroke-linecap="round" stroke-linejoin="round"/>
<path d="M425.602 294.419C425.277 299.502 424.845 304.585 424.52 309.56C424.52 309.993 424.52 310.534 424.52 310.966C424.628 315.617 424.304 320.375 424.196 325.026" stroke="#1F2E3A" stroke-width="2" stroke-miterlimit="10" stroke-linecap="round" stroke-linejoin="round"/>
<path d="M584.799 219.255C578.85 218.606 573.01 218.606 567.062 219.146C562.195 219.579 557.437 220.552 552.786 221.742C548.785 222.824 545.107 224.554 541.755 227.041C540.133 228.339 539.592 230.286 539.159 232.233" stroke="#1F2E3A" stroke-width="2" stroke-miterlimit="10" stroke-linecap="round" stroke-linejoin="round"/>
<path d="M273.001 229.529C276.246 229.096 278.841 229.854 281.004 232.557C282.194 234.071 283.384 235.477 282.951 237.64C282.735 238.614 282.302 238.938 281.437 239.046C275.921 240.128 270.405 240.02 264.782 239.911C262.51 239.911 262.402 239.154 262.943 236.883C263.592 234.18 265.647 232.665 267.702 231.151C269.108 230.07 270.73 229.421 272.568 229.529" stroke="#1F2E3A" stroke-width="2" stroke-miterlimit="10" stroke-linecap="round" stroke-linejoin="round"/>
<path d="M438.795 295.825C438.687 297.339 438.471 298.962 438.471 300.476C438.363 306.099 438.471 311.723 438.255 317.239C438.146 319.726 438.146 322.322 438.146 324.809" stroke="#1F2E3A" stroke-width="2" stroke-miterlimit="10" stroke-linecap="round" stroke-linejoin="round"/>
<path d="M575.605 53.2439C575.497 59.084 574.091 64.7078 573.01 70.4398C572.469 73.1435 572.469 75.9554 571.712 78.551C570.522 82.6607 570.306 87.3112 567.386 90.8802C565.007 93.6921 563.709 97.0448 563.385 100.83C563.385 101.587 563.06 102.236 562.844 102.885" stroke="#1F2E3A" stroke-width="2" stroke-miterlimit="10" stroke-linecap="round" stroke-linejoin="round"/>
<path d="M553.11 38.4272C553.867 40.5903 554.841 42.7533 555.381 44.9163C557.328 51.6216 557.977 58.435 557.004 65.3566C556.896 65.8974 556.679 66.33 556.247 66.6545" stroke="#1F2E3A" stroke-width="2" stroke-miterlimit="10" stroke-linecap="round" stroke-linejoin="round"/>
<path d="M264.89 181.835C265.106 190.919 265.323 199.896 265.647 208.872C265.755 212.117 265.972 215.361 265.972 218.606" stroke="#1F2E3A" stroke-width="2" stroke-miterlimit="10" stroke-linecap="round" stroke-linejoin="round"/>
<path d="M424.087 325.458C423.87 332.596 423.546 339.734 423.762 346.98C423.762 347.954 423.654 348.927 424.087 349.9" stroke="#1F2E3A" stroke-width="2" stroke-miterlimit="10" stroke-linecap="round" stroke-linejoin="round"/>
<path d="M300.471 182.376C303.608 184.214 307.068 184.539 310.637 184.43C312.584 184.322 314.315 183.673 316.045 183.024C316.478 182.916 316.694 181.835 317.018 181.186C316.261 179.672 315.072 179.023 313.558 178.482C310.421 177.509 307.285 177.401 304.148 178.158C302.094 178.698 299.498 179.023 300.363 182.267C298.849 185.512 299.822 188.865 300.255 192.217C300.796 196.435 302.959 199.896 305.987 202.924C307.717 204.546 309.664 204.654 311.611 203.249C313.882 201.626 315.18 199.355 315.721 196.76C316.261 193.948 316.694 191.136 316.369 188.324C316.261 187.242 316.369 186.161 316.586 185.079C316.802 184.322 316.694 183.89 316.369 183.241" stroke="#1F2E3A" stroke-width="2" stroke-miterlimit="10" stroke-linecap="round" stroke-linejoin="round"/>
<path d="M37.3418 330.001C37.3418 337.679 38.6396 345.142 39.2885 352.712" stroke="#1F2E3A" stroke-width="2" stroke-miterlimit="10" stroke-linecap="round" stroke-linejoin="round"/>
<path d="M224.55 176.427C223.901 176.643 223.793 177.076 223.793 177.725C223.577 183.024 224.442 188.107 227.254 192.758C227.903 193.731 228.66 194.596 229.633 195.245C231.363 196.435 232.769 196.327 234.175 195.245C238.285 191.893 240.015 187.242 240.556 182.267C240.664 180.753 240.232 179.023 240.015 177.401C239.691 175.238 238.069 174.264 236.23 174.048C233.202 173.615 230.174 173.507 227.254 174.264C226.172 174.589 224.766 174.589 224.874 176.427" stroke="#1F2E3A" stroke-width="2" stroke-miterlimit="10" stroke-linecap="round" stroke-linejoin="round"/>
<path d="M94.4448 329.244C94.8774 335.625 94.7693 342.005 94.7693 348.386C94.7693 349.36 94.8774 350.333 94.4448 351.306" stroke="#1F2E3A" stroke-width="2" stroke-miterlimit="10" stroke-linecap="round" stroke-linejoin="round"/>
<path d="M547.594 134.573C548.243 134.681 548.892 134.897 549.433 135.438C550.298 136.303 551.055 136.195 552.137 135.654C555.057 134.14 556.895 129.814 555.381 126.894C554.408 125.164 552.678 123.974 551.272 124.19C549.541 124.407 547.378 126.462 547.162 128.192C546.946 129.273 547.162 130.355 546.621 131.436C546.513 131.761 546.405 132.41 546.837 132.626C547.378 133.059 547.594 133.708 547.486 134.032C546.946 137.601 549.433 139.764 551.163 142.36C552.461 144.306 553.975 146.253 555.489 148.2C556.895 150.038 557.977 151.985 557.977 154.364C557.977 155.013 558.518 155.446 558.734 155.987" stroke="#1F2E3A" stroke-width="2" stroke-miterlimit="10" stroke-linecap="round" stroke-linejoin="round"/>
<path d="M542.728 107.319C544.458 111.645 546.08 115.971 546.729 120.73C546.837 121.919 547.054 123.109 547.054 124.299C547.054 125.056 547.162 125.705 547.811 126.245" stroke="#1F2E3A" stroke-width="2" stroke-miterlimit="10" stroke-linecap="round" stroke-linejoin="round"/>
<path d="M569.117 183.89C568.144 182.592 569.009 181.078 568.576 179.672C568.36 178.915 568.252 178.158 567.495 177.941C566.738 177.725 566.089 178.049 565.548 178.59C563.709 180.321 563.06 182.484 563.277 184.971C563.493 186.918 564.791 187.999 566.521 188.756" stroke="#1F2E3A" stroke-width="2" stroke-miterlimit="10" stroke-linecap="round" stroke-linejoin="round"/>
<path d="M401.159 325.675C401.484 329.136 401.808 332.705 402.024 336.165C402.133 338.761 402.673 341.465 402.457 344.06" stroke="#1F2E3A" stroke-width="2" stroke-miterlimit="10" stroke-linecap="round" stroke-linejoin="round"/>
<path d="M575.606 167.018C576.363 171.452 574.309 175.238 572.578 179.131C571.172 182.267 568.252 184.647 567.171 187.999C566.089 191.46 563.277 193.948 562.088 197.408C561.547 198.922 561.222 200.437 561.222 202.059C561.222 202.816 561.006 203.357 560.465 203.897" stroke="#1F2E3A" stroke-width="2" stroke-miterlimit="10" stroke-linecap="round" stroke-linejoin="round"/>
<path d="M117.157 329.027C116.832 333.137 116.616 337.355 116.183 341.465C116.075 342.762 116.075 344.168 116.075 345.466" stroke="#1F2E3A" stroke-width="2" stroke-miterlimit="10" stroke-linecap="round" stroke-linejoin="round"/>
<path d="M309.124 210.603C308.691 212.008 308.907 213.523 309.015 214.929C309.015 218.714 308.799 222.499 309.124 226.284" stroke="#1F2E3A" stroke-width="2" stroke-miterlimit="10" stroke-linecap="round" stroke-linejoin="round"/>
<path d="M279.815 222.283C279.923 221.526 279.49 221.202 278.949 220.769C276.138 218.93 273.109 218.173 269.757 217.849C263.592 217.308 258.293 219.471 253.102 222.499C252.236 223.04 252.02 223.473 252.02 224.338" stroke="#1F2E3A" stroke-width="2" stroke-miterlimit="10" stroke-linecap="round" stroke-linejoin="round"/>
<path d="M224.982 176.319C229.741 178.374 234.608 178.59 239.475 176.427" stroke="#1F2E3A" stroke-width="2" stroke-miterlimit="10" stroke-linecap="round" stroke-linejoin="round"/>
<path d="M232.553 196.327C232.986 200.004 232.661 203.789 232.661 207.574C232.661 211.468 232.77 215.361 233.202 219.363" stroke="#1F2E3A" stroke-width="2" stroke-miterlimit="10" stroke-linecap="round" stroke-linejoin="round"/>
<path d="M273.542 139.224C273.434 140.413 273.542 141.495 272.569 142.576C270.73 144.631 272.028 147.984 274.624 148.849" stroke="#1F2E3A" stroke-width="2" stroke-miterlimit="10" stroke-linecap="round" stroke-linejoin="round"/>
<path d="M438.039 325.242C438.147 328.703 438.255 332.272 438.363 335.732" stroke="#1F2E3A" stroke-width="2" stroke-miterlimit="10" stroke-linecap="round" stroke-linejoin="round"/>
<path d="M263.268 142.144C261.213 144.523 261.321 147.551 263.592 149.173" stroke="#1F2E3A" stroke-width="2" stroke-miterlimit="10" stroke-linecap="round" stroke-linejoin="round"/>
<path d="M80.2773 329.568C80.1692 332.056 80.1692 334.651 80.061 337.139" stroke="#1F2E3A" stroke-width="2" stroke-miterlimit="10" stroke-linecap="round" stroke-linejoin="round"/>
<path d="M272.785 226.5C272.785 228.231 272.785 229.961 272.785 231.692" stroke="#1F2E3A" stroke-width="2" stroke-miterlimit="10" stroke-linecap="round" stroke-linejoin="round"/>
</g>
<path d="M463.198 250.456C461.806 256.784 464.21 261.34 469.273 265.137C471.551 266.782 473.196 269.44 474.462 271.971C476.36 275.515 478.638 278.806 481.043 281.97C484.586 286.526 484.966 291.715 484.08 297.03C483.447 300.7 480.663 303.105 477.626 305.003C471.045 308.927 463.704 311.078 456.11 312.217C450.415 313.103 444.847 313.863 439.151 313.736C437.38 313.736 438.012 314.875 438.139 315.761C439.658 322.342 440.291 329.05 441.176 335.758C442.569 345.503 441.936 355.374 442.569 364.993C443.075 372.586 440.291 378.661 436.873 384.863C435.102 387.9 433.203 390.684 431.938 393.975C431.558 394.988 431.052 396 429.786 396C428.647 396 428.141 395.114 427.635 394.228C423.711 388.027 420.421 381.446 416.75 375.244C415.105 372.46 414.346 369.549 414.093 366.258C413.713 362.209 412.447 358.285 411.055 354.362C406.879 341.453 402.829 328.417 400.044 315.128C399.791 314.116 399.665 313.356 398.273 313.356C391.438 313.356 384.731 313.863 378.15 315.002C375.998 315.381 374.353 316.394 373.214 318.166C369.923 323.355 366 328.037 363.216 333.606C362.709 334.492 362.33 335.758 360.937 335.378C359.672 334.998 359.672 333.859 359.672 332.72C359.798 330.695 360.178 328.797 360.811 326.898C365.114 314.242 369.164 301.46 373.087 288.677C373.467 287.285 374.1 285.893 374.733 284.627C376.757 280.577 380.048 278.426 384.731 278.299C388.021 278.173 387.895 278.173 387.389 274.882C386.756 270.832 386.123 266.782 386.629 262.479C386.882 259.822 386.123 257.164 385.87 254.506C384.731 241.344 385.87 228.435 387.895 215.399C390.173 201.351 393.084 187.556 398.399 174.394C399.032 172.748 399.791 171.103 400.551 169.584C401.563 167.306 403.588 166.294 405.993 166.547C409.537 167.053 413.08 167.813 416.497 168.952C425.356 171.989 434.469 174.394 443.455 176.798C447.758 177.937 451.934 179.33 455.731 181.734C456.996 182.494 457.629 183.379 457.756 184.645C459.021 194.39 459.781 204.135 460.667 213.88C461.426 223.119 462.312 232.232 463.071 241.47C463.324 244.508 463.198 247.419 463.198 250.456Z" fill="white"/>
<path d="M455.857 183C457.503 190.34 457.882 197.934 458.642 205.401C459.528 215.652 460.54 225.777 461.299 236.028C461.679 241.091 462.312 246.28 461.806 251.469C461.553 254.126 462.185 256.784 461.806 259.442C461.679 260.201 462.439 260.328 462.818 260.707C466.109 263.745 469.779 266.529 472.057 270.453C474.715 275.009 477.626 279.438 480.79 283.741C482.308 285.766 482.941 288.298 482.941 290.955C482.941 291.335 482.941 291.715 482.941 291.968C483.827 298.296 480.537 301.966 475.348 304.624C469.399 307.788 463.071 309.433 456.49 310.572C449.909 311.711 443.455 312.47 436.873 312.217C433.836 312.091 430.672 311.711 427.508 311.838C420.421 311.964 413.46 310.952 406.373 311.458C398.399 311.964 390.426 311.458 382.453 312.597C380.554 312.85 378.656 313.103 376.758 313.483C374.479 313.989 372.961 315.634 371.695 317.533C369.544 320.57 367.392 323.734 365.367 326.772C364.734 327.784 363.848 328.544 362.836 329.05" stroke="#1F2E3A" stroke-width="2.22636" stroke-miterlimit="10" stroke-linecap="round" stroke-linejoin="round"/>
<path d="M402.196 168.698C402.196 170.85 400.804 172.495 400.045 174.394C395.489 185.784 392.325 197.428 390.426 209.451C389.287 216.538 387.895 223.499 387.389 230.586C387.009 236.914 386.756 243.242 386.883 249.57C387.009 254.633 388.401 259.568 388.022 264.504C387.642 269.567 388.781 274.249 389.54 279.312C392.072 280.198 394.856 279.818 397.514 280.198C405.993 281.337 414.599 280.957 423.079 281.59C427.508 281.97 432.064 281.59 436.367 282.729" stroke="#1F2E3A" stroke-width="2.22636" stroke-miterlimit="10" stroke-linecap="round" stroke-linejoin="round"/>
<path d="M436.747 312.85C436.367 315.381 437.38 317.786 437.886 320.191C440.67 335.757 441.683 351.451 441.176 367.271C442.569 373.979 438.519 379.041 435.861 384.356C434.469 387.014 432.444 389.292 431.431 392.203C431.178 392.963 430.799 393.722 429.913 393.848" stroke="#1F2E3A" stroke-width="2.22636" stroke-miterlimit="10" stroke-linecap="round" stroke-linejoin="round"/>
<path d="M389.413 279.185C387.641 279.438 385.869 279.692 384.098 279.818C380.554 279.945 378.149 281.716 376.504 284.627C373.973 289.057 372.834 293.866 371.568 298.676C369.037 307.661 365.746 316.52 362.962 325.506C362.836 325.886 362.456 326.139 362.582 326.519C363.215 329.176 361.823 331.581 361.443 334.112" stroke="#1F2E3A" stroke-width="2.22636" stroke-miterlimit="10" stroke-linecap="round" stroke-linejoin="round"/>
<path d="M400.931 312.597C403.842 326.772 408.018 340.567 412.574 354.235C413.966 358.412 415.612 362.588 415.738 366.891C415.865 371.701 418.649 375.244 420.674 379.168C423.585 384.483 426.243 389.799 429.913 394.608" stroke="#1F2E3A" stroke-width="2.22636" stroke-miterlimit="10" stroke-linecap="round" stroke-linejoin="round"/>
<path d="M428.9 262.859C429.026 263.998 428.014 264.758 427.634 265.517C425.103 269.946 423.837 274.756 423.205 279.692" stroke="#1F2E3A" stroke-width="2.22636" stroke-miterlimit="10" stroke-linecap="round" stroke-linejoin="round"/>
<path d="M388.781 265.39C391.312 267.162 393.843 268.934 396.374 270.706" stroke="#1F2E3A" stroke-width="2.22636" stroke-miterlimit="10" stroke-linecap="round" stroke-linejoin="round"/>
<path d="M452.688 147.144C452.688 153.044 452.588 159.244 451.688 165.444C451.488 166.544 451.088 167.144 449.988 167.544C442.388 170.044 434.588 171.844 426.688 172.544C418.788 173.244 410.888 173.644 403.088 171.444C400.188 170.644 398.488 169.544 397.888 166.044C396.188 155.844 394.888 145.644 394.688 135.244C394.588 132.344 394.788 129.444 394.988 126.544C395.088 125.244 394.588 125.044 393.388 125.544C388.488 127.344 383.288 128.044 378.088 128.644C376.388 128.844 375.588 128.144 375.388 126.544C374.488 119.744 375.088 113.044 377.888 106.644C381.188 98.8444 385.788 91.8444 391.988 86.1444C396.588 81.8444 401.788 78.6444 407.988 77.2444C413.088 76.0444 418.288 75.6444 423.488 76.3444C430.688 77.2444 435.988 81.0445 439.488 87.4445C444.088 96.0445 447.288 105.244 449.488 114.744C451.788 125.244 452.888 136.044 452.688 147.144Z" fill="white"/>
<path d="M450.288 166.444C450.588 163.944 450.988 161.444 451.188 158.844C451.688 152.444 451.388 146.044 451.388 139.744C451.388 136.044 450.788 132.344 450.488 128.644C449.888 121.944 448.488 115.444 446.788 109.044C445.788 105.344 444.288 101.744 442.988 98.1444C441.288 93.6444 439.388 89.3444 436.688 85.2444C433.588 80.6444 429.188 78.4444 423.988 77.5444C420.488 76.9444 417.088 77.2444 413.588 77.5444C409.788 77.8444 406.288 78.6444 402.888 80.2444C398.588 82.2444 394.688 84.8444 391.388 88.2444C386.688 93.1444 382.888 98.6444 379.988 104.744C376.988 110.944 375.688 117.444 376.388 124.344C376.688 127.844 376.688 127.944 379.988 127.444C384.188 126.744 388.388 126.244 392.388 124.844C392.888 124.644 393.388 124.444 393.888 124.244C395.388 123.444 395.988 123.844 395.988 125.744C395.988 128.844 395.888 131.944 395.888 134.944C395.888 139.844 396.488 144.744 396.788 149.644C397.088 155.144 398.488 160.544 399.188 165.944C399.288 166.844 399.588 167.844 399.788 168.744" stroke="#1F2E3A" stroke-width="2" stroke-miterlimit="10" stroke-linecap="round" stroke-linejoin="round"/>
<path d="M404.3 108C401.8 110.1 400 112.6 399 115.8" stroke="#1F2E3A" stroke-width="2" stroke-miterlimit="10" stroke-linecap="round" stroke-linejoin="round"/>
<path d="M414.1 106C416.2 106.7 418.3 107.4 420.2 108.6C421 109.1 421.6 109.8 422 110.6" stroke="#1F2E3A" stroke-width="2" stroke-miterlimit="10" stroke-linecap="round" stroke-linejoin="round"/>
<path d="M406.3 120.3C407.128 120.3 407.8 119.628 407.8 118.8C407.8 117.972 407.128 117.3 406.3 117.3C405.471 117.3 404.8 117.972 404.8 118.8C404.8 119.628 405.471 120.3 406.3 120.3Z" fill="#1F2E3A"/>
<path d="M416.9 118.8C417.728 118.8 418.4 118.128 418.4 117.3C418.4 116.472 417.728 115.8 416.9 115.8C416.071 115.8 415.4 116.472 415.4 117.3C415.4 118.128 416.071 118.8 416.9 118.8Z" fill="#1F2E3A"/>
<path d="M424.6 141.1C422.9 142.5 421.1 143.9 419 144.8C416.2 146.1 413.7 145 411.1 144.4C410.5 144.2 409.9 144 409.3 144" stroke="#1F2E3A" stroke-width="2" stroke-miterlimit="10" stroke-linecap="round" stroke-linejoin="round"/>
<path d="M414 65.2C416.4 65.1 418.7 65.6 420.9 66.7C426.9 69.6 432.1 73.4 436.1 78.8C437.6 80.8 437.6 80.8 438.7 78.5C439.5 76.8 440.2 74.9 441.2 73.3C441.6 72.8 442 72.2 442.4 71.8C442.7 71.4 443.1 71 443.7 71.3C444.3 71.6 444.3 72.2 444.2 72.7C443.7 74.4 443.2 76.2 442.7 77.9C442.6 78.3 442.2 78.8 442.6 79.1C443.1 79.6 443.5 78.9 443.9 78.8C444.5 78.6 445 78.4 445.6 78.2C446.3 78 447.1 77.8 447.6 78.5C448.1 79.2 447.7 79.9 447.3 80.5C446.8 81.2 446.3 81.8 445.8 82.5C444.5 84.3 443.8 86 445.1 88.3C447.1 91.9 447.5 96.1 447.9 100.1C448.4 105 448.8 110 450 114.8C450.6 117.2 449.6 119.1 448.9 121.1C448.6 121.9 447.8 121.8 447.2 121.4C446.6 121 446.2 120.4 445.7 119.8C445.1 119 444.6 118.2 443.3 118.4C442.5 118.5 442.1 117.8 441.7 117.2C441.1 116.1 440.6 114.9 439.9 113.9C439.2 112.8 438.6 112.8 438.1 114C437.6 115.2 437.3 116.4 437 117.6C436.8 118.3 436.8 119.3 435.8 119.3C434.8 119.2 434.7 118.3 434.6 117.5C433.9 113.3 433.2 109.2 432.5 105C432 102 431.5 99 430.6 96.1C430.3 95.2 430.1 94.7 428.7 94.8C426.9 94.9 425.3 95.1 423.8 96C423.1 96.4 422.3 96.1 421.7 95.5C421.2 95 420.8 94.5 420.4 94C418.9 92.2 418.1 92 415.9 93C413.4 94.1 411.3 95.7 409.1 97.4C408.6 97.8 408.1 98.1 407.7 98.5C406.9 99 406.1 99.7 405.1 99.2C404.1 98.7 404.3 97.6 404.3 96.7C404.3 96.5 404.4 96.3 404.3 96C404.2 95 405 93.6 403.8 92.9C402.8 92.4 401.7 93.4 400.8 93.9C399.7 94.6 398.6 95.4 397.5 96.1C396.9 96.5 396.3 96.8 395.7 96.3C395.2 95.8 395.3 95.2 395.5 94.6C396.2 92.8 397 90.9 397.7 89.1C397.9 88.6 398.3 87.9 397.7 87.4C397.2 87 396.7 87.5 396.2 87.7C394.7 88.3 393.3 89.1 391.8 89.5C390.9 89.7 390 89.8 389.3 89C388.6 88.2 389.1 87.3 389.5 86.5C390.6 84.4 392.2 82.6 393.5 80.6C393.8 80.1 394.4 79.6 394 79C393.6 78.4 392.9 78.9 392.3 79C390.4 79.4 388.4 79.9 386.5 80.3C385.9 80.4 385.2 80.6 384.9 79.9C384.6 79.2 385.1 78.7 385.5 78.3C390.5 74.5 395.2 70.6 400.6 68C404.6 66 409.2 65.1 414 65.2Z" fill="white"/>
<path d="M446.4 79.6001C446.3 80.0001 446.3 80.6001 446 80.9001C444.4 82.4001 443.7 84.4001 442.9 86.5001C445.2 89.1001 445.7 92.5001 446.4 95.8001C447.1 99.4001 447.3 103.1 447.8 106.7C448.1 109.5 448.6 112.2 449.3 115C449.8 116.9 449.1 118.7 447.8 120.3C446.8 120.4 446.5 119.4 446 118.8C445.4 118 444.8 117.3 443.7 117.5C442.8 117.6 442.6 116.8 442.2 116.2C441.5 115.1 441.2 113.7 440.2 112.7C439.3 111.7 438.8 111.8 438 112.9C437.2 114 437.3 115.5 436 116.4" stroke="#1F2E3A" stroke-width="2" stroke-miterlimit="10" stroke-linecap="round" stroke-linejoin="round"/>
<path d="M437.6 83.2C437.7 82.4 437.4 81.7 436.8 81C434 77.5 431.2 74 427.4 71.5C424.2 69.3 421 67 417 66.2C414.8 65.8 412.6 66 410.4 66.1C407.2 66.2 404.3 67.6 401.2 68.3C399.9 68.6 398.7 69.6 397.6 70.4C394.7 72.5 391.7 74.6 388.9 76.8C388.3 77.3 387.4 77.7 387.4 78.8" stroke="#1F2E3A" stroke-width="2" stroke-miterlimit="10" stroke-linecap="round" stroke-linejoin="round"/>
<path d="M428.7 94.1001C430.3 93.3001 430.4 93.4001 431.2 95.1001C432.1 97.1001 432.4 99.3001 432.8 101.4C433.4 104.5 434 107.7 434.4 110.8C434.6 112.6 434.6 114.3 435.6 115.9C436.1 116.7 435.8 117.6 435.9 118.4" stroke="#1F2E3A" stroke-width="2" stroke-miterlimit="10" stroke-linecap="round" stroke-linejoin="round"/>
<path d="M428.6 94.6999C428.2 94.0999 426.8 93.4999 426.3 93.8999C423.8 95.9999 422.2 94.9999 420.5 92.7999C419.3 91.1999 417.4 91.5999 415.8 92.2999C413.1 93.4999 410.8 95.1999 408.5 97.0999C407.7 97.6999 406.9 98.4999 405.9 98.5999" stroke="#1F2E3A" stroke-width="2" stroke-miterlimit="10" stroke-linecap="round" stroke-linejoin="round"/>
<path d="M405.8 99C404.6 97.4 405.6 95.6 405.5 93.9C405.4 92.2 404.6 91.5 403 92.1C402 92.5 401.1 93.1 400.2 93.6C399 94.3 397.8 94.9 396.6 95.6" stroke="#1F2E3A" stroke-width="2" stroke-miterlimit="10" stroke-linecap="round" stroke-linejoin="round"/>
<path d="M443.4 71C443.6 72 443 72.7 442.6 73.5C441.9 75.2 440.9 76.7 441.3 78.8C441.6 80.1 441.5 81.6 440.9 82.9" stroke="#1F2E3A" stroke-width="2" stroke-miterlimit="10" stroke-linecap="round" stroke-linejoin="round"/>
<path d="M440.9 77.3C439.9 77.6 439.5 78.5 439.1 79.3C438.7 80.1 438.3 81 437.6 81.6" stroke="#1F2E3A" stroke-width="2" stroke-miterlimit="10" stroke-linecap="round" stroke-linejoin="round"/>
<path d="M446.7 79.3001C444.7 78.8001 443.4 80.3001 441.8 80.9001" stroke="#1F2E3A" stroke-width="2" stroke-miterlimit="10" stroke-linecap="round" stroke-linejoin="round"/>
<path d="M397.1 95.0999C396.6 93.8999 397.2 92.8999 397.6 91.9999C398.2 90.8999 398.5 89.5999 399 88.4999C399.2 87.9999 399.5 87.1999 398.9 86.6999C398.4 86.2999 397.8 86.4999 397.3 86.6999C395.7 87.0999 394.5 88.1999 392.9 88.5999C392.6 88.6999 392.2 88.7999 391.9 88.8999C391.2 89.1999 390.7 88.9999 390.3 88.4999C389.8 87.9999 390.3 87.3999 390.5 87.0999C391.7 85.1999 393.1 83.2999 394.4 81.4999C395 80.5999 395.6 79.6999 395.3 78.4999C394.4 77.9999 393.6 78.2999 392.7 78.4999C391 78.7999 389.4 79.6999 387.6 79.1999C386.9 78.9999 386 79.0999 386 80.1999" stroke="#1F2E3A" stroke-width="2" stroke-miterlimit="10" stroke-linecap="round" stroke-linejoin="round"/>
<path d="M453.733 216.133C453.533 207.433 450.833 199.933 445.233 193.533C444.233 192.333 444.033 190.633 443.832 189.233C442.533 180.933 444.133 173.033 448.233 165.733C448.933 164.533 449.633 165.033 450.333 165.633C453.933 168.733 456.833 172.533 459.233 176.633C464.133 184.733 468.833 192.933 472.233 201.833C476.833 213.433 476.232 224.933 471.132 236.233C468.032 243.033 464.132 249.333 460.333 255.733C459.733 256.833 459.233 257.833 459.033 259.033C458.533 261.433 457.832 263.833 456.632 266.033C455.732 267.733 455.233 267.833 453.733 266.433C450.833 263.833 448.533 260.633 446.433 257.333C444.233 254.033 442.133 250.633 440.733 246.933C439.733 244.333 440.033 243.933 442.733 243.933C444.033 243.933 445.333 243.933 446.733 243.933C447.633 243.933 448.233 243.733 448.433 242.833C450.533 233.833 453.233 225.033 453.733 216.133Z" fill="white"/>
<path d="M407.432 185.533C407.432 186.233 407.532 187.233 407.432 188.133C407.232 189.633 407.332 191.333 405.232 191.833C404.632 191.933 404.232 192.633 403.832 193.133C398.632 199.633 394.832 206.833 393.032 214.933C391.832 220.333 393.032 225.533 394.632 230.633C395.632 234.133 397.332 237.433 397.932 241.133C398.532 244.633 398.132 248.133 397.932 251.633C397.932 251.933 397.732 252.333 397.632 252.533C395.432 255.433 395.432 258.833 395.732 262.133C396.032 265.533 396.932 268.833 398.232 272.033C398.832 273.533 399.732 274.833 401.032 275.833C401.432 276.133 401.932 276.433 401.632 277.033C401.232 277.533 400.732 277.233 400.332 277.033C399.032 276.433 398.332 275.333 397.732 274.133C395.832 270.633 394.732 266.833 394.532 262.933C394.332 259.733 393.132 257.533 391.032 255.233C385.832 249.333 381.332 242.933 378.532 235.433C373.432 221.733 373.732 208.333 380.232 195.133C384.932 185.633 390.632 176.833 398.132 169.133C400.232 166.933 402.232 167.133 403.932 169.633C405.932 172.633 406.832 176.133 407.332 179.733C407.232 181.733 407.532 183.533 407.432 185.533Z" fill="white"/>
<path d="M449.232 165.733C455.032 170.533 458.632 176.833 462.232 183.233C465.032 188.233 467.832 193.233 470.132 198.433C472.932 204.833 474.932 211.433 474.632 218.533C474.332 225.533 472.532 232.133 469.232 238.333C465.932 244.633 462.432 250.833 458.632 256.833" stroke="#1F2E3A" stroke-width="2" stroke-miterlimit="10" stroke-linecap="round" stroke-linejoin="round"/>
<path d="M400.633 168.533C399.833 168.333 399.433 168.933 399.033 169.333C393.733 174.733 389.033 180.733 385.133 187.333C382.233 192.233 379.633 197.233 377.833 202.633C374.733 211.833 374.933 221.033 377.333 230.333C379.933 240.433 385.733 248.733 392.533 256.433C393.033 257.033 393.533 257.633 394.333 257.733" stroke="#1F2E3A" stroke-width="2" stroke-miterlimit="10" stroke-linecap="round" stroke-linejoin="round"/>
<path d="M445.933 193.033C450.733 198.733 453.433 205.433 454.333 212.833C454.833 217.533 454.033 222.133 453.033 226.633C451.733 232.533 450.233 238.433 448.733 244.333" stroke="#1F2E3A" stroke-width="2" stroke-miterlimit="10" stroke-linecap="round" stroke-linejoin="round"/>
<path d="M406.532 190.633C405.432 190.733 404.632 191.333 403.832 192.133C399.432 196.933 396.532 202.633 394.132 208.633C392.532 212.533 391.532 216.533 391.632 220.833C391.732 224.033 392.532 227.233 393.532 230.233C394.232 232.433 394.532 234.833 395.832 236.833" stroke="#1F2E3A" stroke-width="2" stroke-miterlimit="10" stroke-linecap="round" stroke-linejoin="round"/>
<path d="M441.032 245.033C441.332 247.233 442.432 249.233 443.532 251.133C446.432 256.133 449.332 261.033 453.532 265.033C454.132 265.633 454.732 266.133 455.332 266.733" stroke="#1F2E3A" stroke-width="2" stroke-miterlimit="10" stroke-linecap="round" stroke-linejoin="round"/>
<path d="M397.932 251.633C396.532 251.633 396.432 252.833 395.932 253.733C393.832 257.733 394.532 261.833 395.332 265.933C395.832 268.633 396.632 271.233 397.932 273.733C398.732 275.233 399.632 276.433 401.232 277.033" stroke="#1F2E3A" stroke-width="2" stroke-miterlimit="10" stroke-linecap="round" stroke-linejoin="round"/>
<path d="M115.183 350.105C114.818 353.391 114.94 356.677 114.94 359.963C114.94 361.302 115.061 362.519 115.548 363.736C116.887 367.996 118.469 368.847 123.094 368.726C126.015 368.604 129.057 369.091 131.978 369.456C140.619 370.43 149.26 370.795 157.901 370.186C159.118 370.064 160.335 369.821 160.7 368.604C161.065 367.265 159.97 366.535 158.996 365.927C155.832 364.101 152.668 362.275 149.625 360.328C145.244 357.529 145.122 356.434 146.704 351.566C149.26 343.777 151.816 335.988 154.25 328.199C155.71 323.696 155.832 318.949 156.319 314.324C156.441 313.107 156.806 312.256 157.658 311.282C163.256 304.832 167.759 297.895 168.733 289.132C168.976 286.454 168.489 284.142 166.42 282.073C157.658 272.945 148.286 264.426 137.212 258.098C135.994 257.367 136.238 256.515 136.36 255.542C137.698 246.779 138.915 238.017 139.28 229.132C140.011 212.946 137.212 197.124 132.343 181.668C129.666 173.27 126.988 164.873 122.729 157.084C121.025 153.92 118.834 152.824 115.67 152.824C109.585 152.581 103.621 153.433 97.7797 154.65C92.303 155.745 86.8264 157.327 81.3497 158.544C77.5769 159.396 74.291 161.344 70.8833 162.926C69.4229 163.534 69.4229 164.995 69.5446 166.212C70.0314 170.958 70.0313 175.705 69.7879 180.451C69.1794 195.055 68.2058 209.538 64.433 223.656C61.8772 233.148 59.6865 242.763 58.3478 252.499C57.2525 260.167 57.3742 267.834 59.3215 275.501C59.8083 277.205 59.8082 279.152 60.1733 280.856C61.5121 289.01 66.2586 294.487 73.8042 297.043C85.1226 301.059 96.6844 304.71 108.49 307.387C109.098 307.509 109.95 307.387 110.072 308.118C110.193 308.726 109.463 309.091 109.098 309.578C103.987 314.446 98.8751 319.314 94.3721 324.669C92.0597 327.468 90.1124 330.511 88.4086 333.675C87.6784 334.892 87.6784 336.109 88.2869 337.326C89.5039 339.76 90.1123 342.438 92.4247 344.385C94.1285 345.846 94.9805 348.28 96.3193 350.349C99.4836 355.46 103.135 360.085 107.273 364.466C108.246 365.44 109.342 367.144 110.924 366.413C112.506 365.683 111.776 363.979 111.654 362.762C111.289 358.381 112.262 354.365 115.062 351.079C114.453 350.47 114.575 350.105 115.183 350.105Z" fill="white"/>
<path d="M70.3965 164.264C70.5183 169.133 70.7617 174.001 70.7617 178.869C70.7617 186.171 69.9097 193.473 69.3012 200.775C68.571 210.755 65.8935 220.248 63.7029 229.862C61.999 237.286 60.1736 244.71 59.0782 252.256C57.9829 259.558 57.9829 266.982 59.8084 274.162C59.9301 274.771 59.565 276.11 61.0255 275.988" stroke="#1F2E3A" stroke-width="2.14093" stroke-miterlimit="10" stroke-linecap="round" stroke-linejoin="round"/>
<path d="M120.051 155.38C121.512 158.788 123.581 161.83 124.919 165.36C129.057 175.339 131.978 185.563 134.412 196.029C136.725 206.009 137.698 216.11 137.698 226.333C137.698 232.783 136.725 239.234 135.994 245.684C135.629 249.457 135.142 253.351 134.29 257.124C134.169 257.489 134.047 257.976 134.412 258.341" stroke="#1F2E3A" stroke-width="2.14093" stroke-miterlimit="10" stroke-linecap="round" stroke-linejoin="round"/>
<path d="M88.2867 257.002C94.3719 260.654 100.944 263.818 107.394 266.739C113.479 269.538 119.808 271.85 126.015 274.284C132.83 276.962 139.402 280.004 145.122 284.629C149.382 288.158 152.911 292.175 153.885 297.773C154.25 300.329 154.615 302.885 154.858 305.44C155.345 310.552 154.25 315.42 153.885 320.531C153.276 328.077 149.99 334.892 147.799 342.073C146.582 345.846 145.609 349.619 144.392 353.27C143.418 356.191 144.148 357.894 146.826 359.963C149.503 362.032 152.424 363.736 155.345 365.44C156.562 366.048 157.779 366.657 158.388 367.996C156.806 368.848 155.102 368.969 153.398 369.091C147.678 369.334 141.958 369.091 136.359 368.604C132.1 368.239 127.962 367.996 123.702 367.022C122.729 366.779 121.633 366.9 120.66 367.144C118.834 367.509 118.104 366.657 117.374 365.197C115.548 361.911 116.035 358.259 116.035 354.852C116.035 352.296 116.887 349.862 116.157 347.306" stroke="#1F2E3A" stroke-width="2.14093" stroke-miterlimit="10" stroke-linecap="round" stroke-linejoin="round"/>
<path d="M60.295 276.353C59.8082 284.142 64.9197 292.174 72.2219 295.217C78.307 297.773 84.6356 299.233 90.9642 301.302C97.6579 303.615 104.595 305.44 111.532 306.901C114.94 307.631 118.469 308.604 122.12 308.361C124.311 308.239 124.433 308.483 123.946 310.795C122.972 316.028 121.877 321.262 120.903 326.495C119.808 332.336 118.713 338.3 117.617 344.142C117.374 345.602 116.644 346.697 115.426 347.915C112.019 351.079 109.463 354.852 109.463 359.841C109.463 361.302 109.828 362.884 109.098 364.344" stroke="#1F2E3A" stroke-width="2.14093" stroke-miterlimit="10" stroke-linecap="round" stroke-linejoin="round"/>
<path d="M128.084 274.528C130.883 269.416 132.709 264.061 133.926 258.219C138.063 259.923 141.593 262.236 144.879 264.791C152.059 270.268 158.753 276.353 165.082 282.804C166.664 284.507 167.272 286.576 167.029 288.645C166.299 295.096 163.743 300.816 159.727 305.927C158.875 306.901 158.023 307.874 157.293 308.97C156.806 309.7 156.319 310.187 155.467 310.187" stroke="#1F2E3A" stroke-width="2.14093" stroke-miterlimit="10" stroke-linecap="round" stroke-linejoin="round"/>
<path d="M111.41 307.144C111.288 307.874 111.167 308.483 110.558 308.97C108.124 311.16 105.812 313.473 103.499 315.785C97.9011 321.383 92.3027 326.982 88.5299 334.162C88.1648 335.014 88.1648 335.623 88.5299 336.475C89.3818 338.665 90.3555 340.856 91.9377 342.56C93.8849 344.629 95.1018 347.428 96.684 349.862C99.4831 354.608 103.134 358.746 106.664 362.884C107.029 363.371 107.394 363.858 108.246 363.979C108.976 364.101 109.341 364.71 109.219 365.562" stroke="#1F2E3A" stroke-width="2.14093" stroke-miterlimit="10" stroke-linecap="round" stroke-linejoin="round"/>
<path d="M73.4176 137.144C73.4176 143.044 73.5176 149.244 74.4176 155.444C74.6176 156.544 75.0176 157.144 76.1176 157.544C83.7176 160.044 91.5176 161.844 99.4176 162.544C107.318 163.244 115.218 163.644 123.018 161.444C125.918 160.644 127.618 159.544 128.218 156.044C129.918 145.844 131.218 135.644 131.418 125.244C131.518 122.344 131.318 119.444 131.118 116.544C131.018 115.244 131.518 115.044 132.718 115.544C137.618 117.344 142.818 118.044 148.018 118.644C149.718 118.844 150.518 118.144 150.718 116.544C151.618 109.744 151.018 103.044 148.218 96.6444C144.918 88.8444 140.318 81.8444 134.118 76.1444C129.518 71.8444 124.318 68.6444 118.118 67.2444C113.018 66.0444 107.818 65.6444 102.618 66.3444C95.4176 67.2444 90.1176 71.0445 86.6176 77.4445C82.0176 86.0445 78.8176 95.2444 76.6176 104.744C74.3176 115.244 73.2176 126.044 73.4176 137.144Z" fill="white"/>
<path d="M75.8179 156.444C75.5179 153.944 75.1179 151.444 74.9179 148.844C74.4179 142.444 74.7179 136.044 74.7179 129.744C74.7179 126.044 75.3179 122.344 75.6179 118.644C76.2179 111.944 77.6179 105.444 79.3179 99.0444C80.3179 95.3444 81.8179 91.7444 83.1179 88.1444C84.8179 83.6444 86.7179 79.3444 89.4179 75.2444C92.5179 70.6444 96.9179 68.4444 102.118 67.5444C105.618 66.9444 109.018 67.2444 112.518 67.5444C116.318 67.8444 119.818 68.6444 123.218 70.2444C127.518 72.2444 131.418 74.8444 134.718 78.2444C139.418 83.1444 143.218 88.6444 146.118 94.7444C149.118 100.944 150.418 107.444 149.718 114.344C149.418 117.844 149.418 117.944 146.118 117.444C141.918 116.744 137.718 116.244 133.718 114.844C133.218 114.644 132.718 114.444 132.218 114.244C130.718 113.444 130.118 113.844 130.118 115.744C130.118 118.844 130.218 121.944 130.218 124.944C130.218 129.844 129.618 134.744 129.318 139.644C129.018 145.144 127.618 150.544 126.918 155.944C126.818 156.844 126.518 157.844 126.318 158.744" stroke="#1F2E3A" stroke-width="2" stroke-miterlimit="10" stroke-linecap="round" stroke-linejoin="round"/>
<path d="M106.605 137.5C106.605 138.2 106.705 138.9 107.005 139.6C108.205 142.7 111.405 143.2 113.505 140.6C114.505 139.4 115.005 138 115.205 136.5C115.505 135 115.405 133.5 113.805 132.7C112.105 131.8 109.805 131.9 108.605 133.1C107.305 134.1 106.605 135.9 106.605 137.5Z" fill="white"/>
<path d="M120.805 98C123.305 100.1 125.105 102.6 126.105 105.8" stroke="#1F2E3A" stroke-width="2" stroke-miterlimit="10" stroke-linecap="round" stroke-linejoin="round"/>
<path d="M111.105 96C109.005 96.7 106.905 97.4 105.005 98.6C104.205 99.1 103.605 99.8 103.205 100.6" stroke="#1F2E3A" stroke-width="2" stroke-miterlimit="10" stroke-linecap="round" stroke-linejoin="round"/>
<path d="M111.705 133.3C111.805 133.3 111.805 133.3 111.905 133.4C112.505 134.1 113.905 133.5 114.205 134.6C114.405 135.7 114.105 136.9 113.705 137.9C113.305 138.8 112.805 139.8 112.105 140.5C110.605 141.9 108.405 141.1 107.905 138.9C107.505 137.1 107.905 135.4 109.205 133.9C109.905 133.1 110.805 133.3 111.705 133.2" stroke="#1F2E3A" stroke-width="2" stroke-miterlimit="10" stroke-linecap="round" stroke-linejoin="round"/>
<path d="M118.806 110.3C117.977 110.3 117.306 109.628 117.306 108.8C117.306 107.972 117.977 107.3 118.806 107.3C119.634 107.3 120.306 107.972 120.306 108.8C120.306 109.628 119.634 110.3 118.806 110.3Z" fill="#1F2E3A"/>
<path d="M108.306 108.8C107.477 108.8 106.806 108.128 106.806 107.3C106.806 106.472 107.477 105.8 108.306 105.8C109.134 105.8 109.806 106.472 109.806 107.3C109.806 108.128 109.134 108.8 108.306 108.8Z" fill="#1F2E3A"/>
<path d="M78.4747 112.209C78.4747 114.809 78.7747 117.309 78.2747 119.909C77.8747 122.109 76.6747 123.409 74.5747 124.209C69.2747 126.209 68.2747 128.109 70.0747 133.609C70.8747 136.309 71.9747 138.909 72.9747 141.609C73.7747 143.709 73.6747 145.509 72.1747 147.309C69.6747 150.309 69.8747 153.309 72.5747 156.209C75.3747 159.209 78.7747 160.909 83.0747 160.109C83.9747 159.909 84.8747 160.009 85.6747 160.409C86.9747 161.109 87.2747 160.309 87.3747 159.309C87.4747 157.909 87.4747 156.509 87.4747 155.109C87.4747 152.609 88.3747 150.809 90.4747 149.409C92.5747 148.009 94.4747 146.309 96.5747 144.709C97.5747 143.909 98.0747 142.809 98.0747 141.509C98.1747 139.609 97.5747 137.909 97.1747 136.109C96.6747 134.309 96.1747 132.409 95.8747 130.609C95.3747 127.709 96.0747 125.209 98.6747 123.609C101.875 121.709 102.275 118.909 101.575 115.709C100.975 112.709 99.9747 109.709 99.3747 106.609C98.4747 101.709 100.275 98.9086 104.575 96.6086C107.275 95.2086 110.075 94.0086 112.675 92.5086C119.975 88.5086 123.175 82.2086 122.975 74.0086C122.975 73.5086 122.875 73.0086 122.875 72.5086C122.875 71.9086 123.175 71.7086 123.775 72.1086C124.075 72.4086 124.375 72.6086 124.575 72.9086C126.675 74.9086 128.975 76.7086 131.375 78.3086C135.575 81.0086 140.075 82.5086 145.175 81.4086C145.775 81.3086 146.275 81.2086 146.975 81.5086C148.275 82.0086 148.775 81.6086 148.475 80.3086C148.275 79.5086 147.975 78.8086 147.675 78.1086C138.475 59.1086 113.475 53.0086 96.4747 65.6086C91.5747 69.2086 89.4747 74.2086 88.9747 80.1086C88.6747 83.3086 88.3747 86.5086 88.0747 89.7086C87.9747 90.6086 87.5747 91.4086 86.9747 92.1086C85.8747 93.6086 84.6747 95.0086 83.3747 96.2086C79.2747 99.8086 77.9747 104.509 78.3747 109.809C78.3747 110.709 78.4747 111.409 78.4747 112.209Z" fill="white"/>
<path d="M140.575 153.509C140.575 155.109 140.575 156.708 140.575 158.308C140.575 159.308 140.975 159.709 141.775 160.009C144.475 160.909 146.875 160.308 149.075 158.808C150.075 158.108 151.075 157.708 152.275 157.708C154.675 157.608 155.575 156.408 154.875 154.108C154.375 152.308 153.375 150.808 152.575 149.108C151.575 147.008 151.175 145.008 153.375 143.308C154.575 142.408 154.275 141.109 153.675 140.009C152.575 137.909 150.975 136.209 149.475 134.409C147.675 132.409 145.375 130.908 143.975 128.608C143.775 128.308 143.575 128.208 143.275 128.308C142.775 128.508 142.875 128.908 142.775 129.308C142.175 132.108 141.975 135.009 141.675 137.909C141.075 143.109 140.275 148.309 140.575 153.509Z" fill="white"/>
<path d="M88.775 90.4086C88.175 89.6086 88.675 88.7086 88.775 87.9086C89.375 83.7086 89.175 79.4085 90.375 75.2085C91.775 70.2085 95.075 66.8086 99.475 64.4086C102.875 62.5086 106.575 61.2085 110.475 60.3085C116.075 59.0085 121.475 59.3085 126.675 61.1085C134.575 63.8085 141.075 68.4085 145.575 75.6085C146.375 76.9085 147.175 78.3085 147.775 79.8085C148.075 80.4085 147.575 80.7085 147.875 81.3085C146.475 80.9085 145.275 81.1085 144.075 81.3085C139.875 82.1085 136.075 80.8085 132.575 78.6085C129.775 76.9085 127.175 74.9086 124.875 72.4086C124.675 72.2086 124.475 71.8085 124.175 71.7085C122.275 71.0085 122.375 69.2085 121.875 67.7085" stroke="#1F2E3A" stroke-width="2" stroke-miterlimit="10" stroke-linecap="round" stroke-linejoin="round"/>
<path d="M87.9745 89.8086C87.7745 93.3086 84.1745 96.3086 82.7745 97.8086C81.1745 99.5086 79.7745 101.309 79.2745 103.709C78.7745 106.109 78.6745 108.509 78.9745 111.109C79.3745 114.409 79.4745 117.709 78.6745 120.909C78.1745 123.009 76.5745 124.309 74.5745 124.909C73.8745 125.109 73.0745 125.409 72.4745 125.709C70.5745 126.409 69.7745 128.309 69.9745 130.509C70.2745 133.709 71.5745 136.509 72.7745 139.409C73.2745 140.609 73.8745 141.809 74.0745 143.109C74.2745 144.409 74.3745 145.809 73.3745 147.009C72.4745 148.009 71.5745 149.209 71.2745 150.509C70.8745 151.909 71.0745 153.509 72.1745 154.809C74.7745 158.109 77.8745 160.409 82.3745 159.809C83.7745 159.609 85.0745 159.709 86.2745 160.209C86.8745 159.509 86.8745 158.709 86.8745 157.909C86.6745 156.209 86.9745 154.409 87.2745 152.709C87.4745 151.609 88.0745 150.709 89.0745 150.009C90.8745 148.709 92.6745 147.209 94.4745 145.809C97.9745 143.109 98.3745 141.809 97.1745 137.609C96.3745 134.809 95.3745 132.009 95.3745 129.109C95.2745 127.009 95.9745 125.209 97.6745 123.909C97.7745 123.809 97.8745 123.609 97.9745 123.609C101.875 121.409 101.875 118.009 100.775 114.209C99.9745 111.409 99.2745 108.509 98.6745 105.709C98.3745 104.309 99.5745 99.6086 101.275 98.2086" stroke="#1F2E3A" stroke-width="2" stroke-miterlimit="10" stroke-linecap="round" stroke-linejoin="round"/>
<path d="M143.474 128.708C143.974 130.208 145.174 131.208 146.374 132.208C148.974 134.608 151.374 137.108 153.174 140.208C153.774 141.308 153.774 142.108 152.874 143.108C150.974 145.008 150.874 146.608 151.974 149.108C152.774 150.908 153.774 152.708 154.474 154.608C154.974 155.908 153.974 157.308 152.474 157.208C150.874 157.108 149.674 157.609 148.474 158.509C146.274 160.109 143.674 160.408 141.174 159.108" stroke="#1F2E3A" stroke-width="2" stroke-miterlimit="10" stroke-linecap="round" stroke-linejoin="round"/>
<path d="M122.675 71.2085C122.475 71.8085 122.375 72.4085 122.475 73.0085C122.975 81.1085 120.075 87.5085 112.975 91.7085C110.975 92.9085 108.875 93.6085 106.775 94.6085C104.775 95.6085 102.975 96.9085 101.075 98.1085" stroke="#1F2E3A" stroke-width="2" stroke-miterlimit="10" stroke-linecap="round" stroke-linejoin="round"/>
<path d="M104.605 171C96.9055 171 92.4271 157.533 84.8271 157.033C83.8271 156.933 82.0271 153.433 81.1271 153.233C78.2271 152.533 75.6271 153.433 73.8271 155.633C65.6271 165.833 56.6271 175.533 51.8271 188.133C49.2271 194.933 47.5271 201.833 47.0271 209.133C46.2271 220.633 54.1271 230.233 65.5271 231.333C72.4271 232.033 78.7271 229.933 84.8271 226.833C86.1271 226.133 87.3271 225.433 88.6271 224.833C89.0271 224.633 89.4271 224.333 89.8271 224.733C90.2271 225.033 90.2271 225.533 89.9271 225.933C89.0271 227.333 90.1271 227.633 91.1271 227.933C97.3271 229.733 103.427 231.533 109.727 232.833C112.927 233.533 112.927 233.533 113.827 230.333C114.227 228.933 114.727 228.733 116.127 228.833C118.727 229.133 121.127 229.933 123.427 231.033C131.527 234.633 140.027 235.333 148.627 233.433C156.527 231.733 160.427 227.633 161.027 218.033C161.627 208.233 158.727 199.233 154.227 190.733C149.027 181.033 143.027 171.933 135.527 163.833C133.427 161.533 131.127 159.333 129.027 157.033C128.227 156.233 127.227 156.533 126.427 156.233C121.727 154.433 123.584 171 118.105 172.5C114.952 173.363 106.205 171 104.605 171Z" fill="white"/>
<path d="M126.927 157.133C127.827 157.033 128.427 157.433 129.127 158.133C137.727 166.633 144.927 176.233 151.127 186.633C155.327 193.733 158.327 201.133 159.827 209.233C160.727 213.833 160.827 218.433 159.627 222.933C158.227 227.833 154.727 230.933 149.827 232.333C144.827 233.733 139.727 233.733 134.627 233.133C131.827 232.733 129.027 232.333 126.327 231.333C124.627 230.733 123.027 229.933 121.527 229.033C120.727 228.533 119.827 228.433 118.827 228.333C115.327 228.033 111.827 227.533 108.827 225.333C109.327 223.933 110.027 223.333 111.427 223.733" stroke="#1F2E3A" stroke-width="2" stroke-miterlimit="10" stroke-linecap="round" stroke-linejoin="round"/>
<path d="M97.627 218.333C96.227 218.433 94.827 217.933 93.527 218.833C92.927 219.233 92.727 219.533 92.527 220.133C92.127 221.833 91.527 223.233 89.327 223.533C88.227 223.633 86.927 224.333 85.827 225.133C83.227 227.133 80.127 228.333 76.927 229.133C73.727 229.933 70.5269 230.833 67.2269 230.633C59.3269 230.133 51.427 225.333 48.827 217.133C47.727 213.733 47.8269 210.333 48.2269 206.733C48.6269 203.433 49.127 200.233 49.927 197.033C51.927 189.133 55.0269 181.733 59.7269 175.133C64.1269 168.933 68.9269 163.033 73.7269 157.133C74.7269 155.933 75.627 154.633 77.327 154.533" stroke="#1F2E3A" stroke-width="2" stroke-miterlimit="10" stroke-linecap="round" stroke-linejoin="round"/>
<path d="M73.6271 179.733C72.1271 182.633 70.8271 185.633 69.9271 188.833C68.9271 192.033 68.2271 195.333 67.9271 198.733C67.6271 201.833 67.0271 204.933 67.6271 208.133C68.3271 212.633 70.8271 216.033 74.6271 217.033C77.2271 217.633 79.6271 217.233 81.7271 215.233C84.5271 212.533 87.6271 210.233 91.3271 208.933C91.4271 208.933 91.6271 209.033 91.8271 209.133" stroke="#1F2E3A" stroke-width="2" stroke-miterlimit="10" stroke-linecap="round" stroke-linejoin="round"/>
<path d="M124.627 182.833C127.827 186.733 130.327 191.033 132.727 195.533C134.927 199.633 136.827 203.733 137.927 208.233C138.327 209.933 138.727 211.733 138.327 213.533C137.727 216.433 136.327 217.533 133.327 217.833C129.327 218.233 125.827 216.833 122.427 215.133C122.127 214.933 121.827 214.633 121.527 214.233C120.427 212.733 119.527 211.133 117.927 210.033C117.327 209.633 117.127 208.933 117.227 208.233C117.727 204.833 118.227 201.433 118.827 197.933C114.827 195.833 110.427 194.633 105.927 193.733C103.227 193.233 100.427 193.033 97.7269 192.533C94.8269 192.033 94.927 192.033 93.927 194.833C93.027 197.333 93.0269 199.933 92.6269 202.433C92.3269 204.533 92.127 206.633 91.927 208.733C91.827 210.133 91.0269 211.933 92.6269 213.233C93.3269 213.033 93.8269 212.333 94.6269 212.533" stroke="#1F2E3A" stroke-width="2" stroke-miterlimit="10" stroke-linecap="round" stroke-linejoin="round"/>
<path d="M90.827 226.733C93.627 228.333 96.7269 228.733 99.7269 229.633C103.427 230.733 107.327 231.433 111.127 232.333C111.427 232.433 111.827 232.133 112.127 232.533" stroke="#1F2E3A" stroke-width="2" stroke-miterlimit="10" stroke-linecap="round" stroke-linejoin="round"/>
<path d="M117.527 209.933C116.527 210.733 117.127 212.233 116.227 213.033C109.127 211.233 109.127 211.233 108.027 212.433C109.027 214.433 111.727 214.633 112.827 216.533" stroke="#1F2E3A" stroke-width="2" stroke-miterlimit="10" stroke-linecap="round" stroke-linejoin="round"/>
<path d="M116.027 217.233C115.827 217.333 115.627 217.433 115.527 217.433C113.827 216.633 112.027 217.233 110.227 217.233C109.327 217.233 108.627 217.333 107.927 217.933C107.827 219.533 109.827 219.633 110.227 220.933" stroke="#1F2E3A" stroke-width="2" stroke-miterlimit="10" stroke-linecap="round" stroke-linejoin="round"/>
<path d="M113.627 227.933C113.427 229.633 112.827 231.233 112.227 232.833" stroke="#1F2E3A" stroke-width="2" stroke-miterlimit="10" stroke-linecap="round" stroke-linejoin="round"/>
<path d="M91.0271 214.633C91.4271 214.733 91.5271 214.833 91.4271 215.433C91.2271 216.533 91.1271 217.733 92.2271 218.533" stroke="#1F2E3A" stroke-width="2" stroke-miterlimit="10" stroke-linecap="round" stroke-linejoin="round"/>
<path d="M93.0271 214.033C93.8271 215.133 95.2271 214.833 96.2271 215.533C95.8271 216.333 95.5271 217.233 95.1271 218.033" stroke="#1F2E3A" stroke-width="2" stroke-miterlimit="10" stroke-linecap="round" stroke-linejoin="round"/>
<path d="M90.5271 223.633C90.7271 224.633 91.0271 225.533 90.8271 226.733C90.3271 226.733 89.8271 226.733 89.3271 226.733" stroke="#1F2E3A" stroke-width="2" stroke-miterlimit="10" stroke-linecap="round" stroke-linejoin="round"/>
</g>
<defs>
<clipPath id="clip0_1296_4887">
<rect width="564" height="428" fill="white"/>
</clipPath>
</defs>
</svg>
