<svg width="1232" height="428" viewBox="0 0 1232 428" fill="none" xmlns="http://www.w3.org/2000/svg">
<g clip-path="url(#clip0_1296_4897)">
<rect x="1" y="1" width="1230" height="426" rx="7" fill="white" stroke="#1F2E3A" stroke-width="2"/>
<mask id="mask0_1296_4897" style="mask-type:alpha" maskUnits="userSpaceOnUse" x="0" y="0" width="1232" height="428">
<rect x="1" y="1" width="1230" height="426" fill="#F0FFF9" stroke="#1F2E3A" stroke-width="2"/>
</mask>
<g mask="url(#mask0_1296_4897)">
<path d="M612.206 135.772C611.148 134.262 610.997 132.6 610.695 130.787C607.523 117.343 601.934 105.108 593.324 94.5339C585.469 84.8663 576.405 76.7093 564.472 72.1776C556.617 69.1564 548.762 68.7033 540.454 69.7607C528.067 71.2712 518.098 77.1624 508.883 85.1684C500.273 92.8723 494.08 102.238 489.548 112.661C486.829 119.005 485.016 125.651 483.959 132.6C483.204 137.736 482.448 143.023 482.6 148.31C482.902 161.905 486.527 174.594 493.325 186.376C501.028 199.669 510.847 211.3 521.572 222.176C533.052 233.808 545.439 244.684 556.919 256.466C567.644 267.493 577.312 279.427 585.318 292.569C590.152 300.424 594.079 308.732 597.553 317.191C599.819 322.78 601.481 328.52 602.991 334.411C603.293 335.62 604.049 336.677 604.502 337.735" stroke="#1F2E3A" stroke-width="2" stroke-miterlimit="10" stroke-linecap="round" stroke-linejoin="round"/>
<path d="M718.398 63.717C722.779 64.7744 727.159 66.1339 731.238 68.2487C738.791 72.1762 744.078 78.2184 748.609 85.016C755.407 95.1367 760.241 106.315 763.262 118.097C764.47 122.629 765.074 127.463 765.528 132.146C765.83 135.469 765.83 138.641 765.981 141.964C766.132 150.574 765.377 159.185 764.017 167.644C762.507 177.311 760.09 186.526 756.313 195.438C751.782 206.012 745.588 215.529 737.733 224.139C726.102 236.828 711.601 246.042 697.25 255.407C684.41 263.716 671.117 271.117 659.184 280.634C648.157 289.546 638.187 299.516 628.369 309.939C622.779 315.83 617.19 321.872 612.357 328.368C609.94 331.54 607.674 334.863 604.804 337.733C603.746 338.639 604.2 339.999 604.351 341.207" stroke="#1F2E3A" stroke-width="2" stroke-miterlimit="10" stroke-linecap="round" stroke-linejoin="round"/>
<path d="M670.211 71.1194C663.565 73.6873 657.674 77.4637 652.085 81.6933C639.698 91.3609 630.484 103.596 622.629 117.04C619.607 122.176 616.888 127.614 614.321 133.052C613.112 135.62 611.601 138.037 611.45 140.907C611.45 141.512 611.299 142.267 611.753 142.871" stroke="#1F2E3A" stroke-width="2" stroke-miterlimit="10" stroke-linecap="round" stroke-linejoin="round"/>
<path d="M702.386 101.027C701.329 93.6256 704.199 87.1302 707.673 80.7859C710.846 75.0457 714.773 69.7587 717.492 63.8675C719.758 58.8827 720.815 53.4447 718.096 48.6109C714.32 41.8133 705.861 41.6623 700.121 46.4961C698.459 47.8556 697.099 49.5172 695.589 51.0278" stroke="#1F2E3A" stroke-width="2" stroke-miterlimit="10" stroke-linecap="round" stroke-linejoin="round"/>
<path d="M695.589 52.6907C694.985 49.2164 690.453 46.1953 686.526 46.6485C679.426 47.5548 672.629 54.5034 671.269 61.7541C670.816 64.02 670.665 66.2858 670.514 68.5516C669.91 74.1407 672.78 78.2192 677.765 80.9383C683.354 84.1104 688.943 87.2826 694.23 91.059C696.949 93.0228 698.912 95.7418 701.48 97.7055" stroke="#1F2E3A" stroke-width="2" stroke-miterlimit="10" stroke-linecap="round" stroke-linejoin="round"/>
<path d="M638.64 31.5424C637.885 30.334 637.281 29.1255 636.374 28.2192C634.864 26.4065 632.447 26.4065 630.634 27.9171C625.649 31.9956 625.196 40.3037 629.879 45.1375C632.145 47.5544 635.166 49.216 636.828 52.3882C637.583 53.5966 638.036 54.8051 638.187 56.1646" stroke="#1F2E3A" stroke-width="2" stroke-miterlimit="10" stroke-linecap="round" stroke-linejoin="round"/>
<path d="M638.188 53.8988C640.907 49.5181 644.834 46.1949 647.704 41.9653C649.819 38.9442 650.423 35.4699 649.215 31.8446C648.006 28.2192 644.834 26.4065 641.511 29.5787C640.302 30.7872 637.885 31.0893 638.037 33.5062" stroke="#1F2E3A" stroke-width="2" stroke-miterlimit="10" stroke-linecap="round" stroke-linejoin="round"/>
</g>
<path d="M686.36 330.046C680.384 331.997 674.409 332.607 668.311 332.119C661.726 331.632 655.263 330.046 648.922 328.217C644.409 326.998 639.897 325.534 635.507 324.071C634.166 323.705 632.946 323.583 631.727 324.193C628.8 325.534 625.629 326.266 622.581 326.754C621.239 326.998 620.629 327.607 620.264 328.949C617.947 338.583 615.508 348.339 613.069 357.973C612.703 359.558 613.069 361.021 613.435 362.607C615.752 370.289 619.166 377.484 622.947 384.679C627.093 392.728 631.971 400.289 636.483 408.093C637.093 409.069 636.971 409.801 636.361 410.654C632.337 416.264 627.093 420.532 621.117 423.825C617.093 426.02 613.313 428.703 609.044 430.654C607.703 431.264 606.483 431.751 605.142 432.239C604.41 432.483 603.435 432.605 602.947 431.873C602.459 431.142 602.947 430.41 603.313 429.8C605.752 426.264 608.191 422.605 610.02 418.703C610.386 417.849 610.752 417.118 611.117 416.264C611.483 415.532 611.239 414.923 610.63 414.191C605.02 407.971 600.142 401.02 594.776 394.557C590.874 389.801 586.484 385.411 582.825 380.411C581.362 378.46 580.143 376.387 578.801 374.314C574.289 367.606 574.533 360.168 575.387 352.485C576.972 339.07 581.118 326.388 584.899 313.583C586.118 309.559 587.216 305.535 588.435 301.51C588.679 300.535 588.679 299.559 588.435 298.462C585.996 286.145 585.874 273.584 586.484 261.145C586.972 248.95 589.655 237.121 592.215 225.17C594.045 216.146 596.362 207.244 598.923 198.342C599.045 197.732 599.288 197.122 599.41 196.513C600.142 191.757 600.02 192.61 604.654 192.61C608.679 192.732 612.337 193.952 615.995 195.537C628.922 201.025 641.207 181.415 648.89 193C654.39 201.294 650.019 219.5 650.019 224.805C650.873 225.048 651.117 226.024 651.482 226.756C655.507 234.439 657.214 242.731 658.921 251.024C660.507 258.584 661.238 266.267 661.482 274.072C661.604 279.56 661.97 285.047 661.482 290.535C661.36 292.12 661.848 292.608 663.555 292.364C670.263 291.389 676.848 290.047 683.555 289.559C692.701 288.828 701.725 289.437 710.384 292.852C718.92 296.145 724.042 302.486 726.237 311.388C728.066 319.071 726.847 326.144 722.822 332.851C713.676 347.973 701.725 360.411 686.482 369.436C685.994 369.802 685.506 370.045 684.896 370.411C683.921 370.899 683.921 371.387 684.531 372.241C687.092 375.411 689.287 378.826 690.628 382.728C690.872 383.582 691.482 384.435 690.75 385.167C690.018 386.021 689.043 385.655 688.067 385.533C679.653 383.46 671.848 380.289 665.019 374.801C662.458 372.728 659.775 370.777 657.214 368.704C654.653 366.631 654.653 365.899 656.36 363.094C664.043 350.534 673.921 340.046 685.506 331.022C685.628 330.778 685.994 330.412 686.36 330.046Z" fill="white"/>
<path d="M613.8 414.8C612.459 414.679 612.581 415.898 612.459 416.508C610.995 420.532 608.8 424.069 606.483 427.605C605.752 428.825 605.874 430.654 604.044 431.142" stroke="#1F2E3A" stroke-width="2.14524" stroke-miterlimit="10" stroke-linecap="round" stroke-linejoin="round"/>
<path d="M600.996 194.073C600.874 197.366 599.776 200.415 598.922 203.464C596.24 212.366 594.41 221.39 592.459 230.414C591.118 236.634 590.02 242.975 589.045 249.316C588.313 253.95 587.825 258.584 587.825 263.34C587.825 270.291 587.825 277.364 588.069 284.315C588.313 289.315 588.435 294.315 590.386 298.949C590.63 299.437 590.264 300.291 590.02 301.022C587.337 309.559 584.898 318.339 582.337 326.876C579.655 335.778 577.459 344.924 576.606 354.192C576.118 359.192 575.386 364.192 577.581 369.07C579.533 373.704 582.094 377.85 585.386 381.63C593.557 391.142 601.605 400.776 609.166 410.776C610.386 412.362 611.727 413.703 613.19 414.801" stroke="#1F2E3A" stroke-width="2.14524" stroke-miterlimit="10" stroke-linecap="round" stroke-linejoin="round"/>
<path d="M620.507 321.754C619.166 329.924 616.483 337.729 614.654 345.778C613.678 349.802 612.825 353.948 611.727 357.973C611.117 360.29 611.971 362.241 612.581 364.314C614.532 370.655 617.337 376.631 620.263 382.484C624.654 391.143 630.019 399.435 634.775 407.972C635.385 409.069 635.385 409.801 634.531 410.898C630.141 417.24 623.678 421.02 617.215 424.679C614.288 426.386 611.483 428.215 608.434 429.678C607.459 430.166 606.483 430.532 605.386 430.044" stroke="#1F2E3A" stroke-width="2.14524" stroke-miterlimit="10" stroke-linecap="round" stroke-linejoin="round"/>
<path d="M681.97 371.021C682.823 369.314 684.653 368.826 686.116 368.094C699.896 360.167 710.506 348.826 719.408 335.778C721.359 332.851 723.066 329.558 724.408 326.266C726.603 320.656 725.749 315.046 724.164 309.559C721.725 300.9 715.506 295.901 707.091 293.218C697.945 290.413 688.555 290.291 679.165 291.388C672.945 292.12 666.726 293.218 660.385 294.193" stroke="#1F2E3A" stroke-width="2.14524" stroke-miterlimit="10" stroke-linecap="round" stroke-linejoin="round"/>
<path d="M698.677 322.973C696.238 323.339 694.653 325.29 692.823 326.754C685.506 332.485 678.311 338.339 671.726 345.046C665.751 351.021 661.117 357.972 656.483 365.045C655.873 365.899 655.995 366.509 656.727 367.119C665.141 374.192 673.556 381.021 684.653 383.46C686.116 383.826 687.336 384.923 688.921 384.313" stroke="#1F2E3A" stroke-width="2.14524" stroke-miterlimit="10" stroke-linecap="round" stroke-linejoin="round"/>
<path d="M690.14 328.217C689.896 327.851 689.531 327.363 689.287 326.998C686.726 327.851 684.287 329.315 681.604 329.924C675.384 331.266 669.165 331.266 662.824 330.168C654.165 328.705 645.873 326.266 637.58 323.583C636.483 323.217 635.263 322.851 634.166 322.607C633.068 322.364 632.337 322.364 631.239 322.973C628.922 324.437 626.117 324.924 623.556 325.412C622.459 325.656 621.483 326.022 620.264 325.9" stroke="#1F2E3A" stroke-width="2.14524" stroke-miterlimit="10" stroke-linecap="round" stroke-linejoin="round"/>
<path d="M649.775 226.39C650.751 229.317 652.336 232 653.312 234.926C656.605 245.414 658.8 256.145 659.653 267.121C660.141 274.316 660.263 281.511 660.263 288.706C660.263 290.413 659.775 292.12 660.263 293.827C660.507 294.681 659.165 295.291 659.531 296.266" stroke="#1F2E3A" stroke-width="2.14524" stroke-miterlimit="10" stroke-linecap="round" stroke-linejoin="round"/>
<path d="M680.994 370.777C682.458 370.777 682.458 372.24 683.189 373.094C685.384 375.533 686.97 378.46 688.555 381.387C689.043 382.362 688.433 383.704 689.774 384.313" stroke="#1F2E3A" stroke-width="2.14524" stroke-miterlimit="10" stroke-linecap="round" stroke-linejoin="round"/>
<path d="M652.688 175.144C652.688 181.044 652.588 187.244 651.688 193.444C651.488 194.544 651.088 195.144 649.988 195.544C642.388 198.044 634.588 199.844 626.688 200.544C618.788 201.244 610.888 201.644 603.088 199.444C600.188 198.644 598.488 197.544 597.888 194.044C596.188 183.844 594.888 173.644 594.688 163.244C594.588 160.344 594.788 157.444 594.988 154.544C595.088 153.244 594.588 153.044 593.388 153.544C588.488 155.344 583.288 156.044 578.088 156.644C576.388 156.844 575.588 156.144 575.388 154.544C574.488 147.744 575.088 141.044 577.888 134.644C581.188 126.844 585.788 119.844 591.988 114.144C596.588 109.844 601.788 106.644 607.988 105.244C613.088 104.044 618.288 103.644 623.488 104.344C630.688 105.244 635.988 109.044 639.488 115.444C644.088 124.044 647.288 133.244 649.488 142.744C651.788 153.244 652.888 164.044 652.688 175.144Z" fill="white"/>
<path d="M650.288 194.444C650.588 191.944 650.988 189.444 651.188 186.844C651.688 180.444 651.388 174.044 651.388 167.744C651.388 164.044 650.788 160.344 650.488 156.644C649.888 149.944 648.488 143.444 646.788 137.044C645.788 133.344 644.288 129.744 642.988 126.144C641.288 121.644 639.388 117.344 636.688 113.244C633.588 108.644 629.188 106.444 623.988 105.544C620.488 104.944 617.088 105.244 613.588 105.544C609.788 105.844 606.288 106.644 602.888 108.244C598.588 110.244 594.688 112.844 591.388 116.244C586.688 121.144 582.888 126.644 579.988 132.744C576.988 138.944 575.688 145.444 576.388 152.344C576.688 155.844 576.688 155.944 579.988 155.444C584.188 154.744 588.388 154.244 592.388 152.844C592.888 152.644 593.388 152.444 593.888 152.244C595.388 151.444 595.988 151.844 595.988 153.744C595.988 156.844 595.888 159.944 595.888 162.944C595.888 167.844 596.488 172.744 596.788 177.644C597.088 183.144 598.488 188.544 599.188 193.944C599.288 194.844 599.588 195.844 599.788 196.744" stroke="#1F2E3A" stroke-width="2" stroke-miterlimit="10" stroke-linecap="round" stroke-linejoin="round"/>
<path d="M625 168.216C621.1 171.116 616.5 170.916 612 170.716C610.7 170.616 609.4 169.916 608.1 169.416" stroke="#1F2E3A" stroke-width="2" stroke-miterlimit="10" stroke-linecap="round" stroke-linejoin="round"/>
<path d="M622.2 135.716C619.6 133.216 616.3 132.916 612.9 133.016" stroke="#1F2E3A" stroke-width="2" stroke-miterlimit="10" stroke-linecap="round" stroke-linejoin="round"/>
<path d="M624.2 144.016C621 142.916 618 143.016 615.3 145.216" stroke="#1F2E3A" stroke-width="2" stroke-miterlimit="10" stroke-linecap="round" stroke-linejoin="round"/>
<path d="M604.5 134.916C603.5 134.716 602.6 135.216 601.8 135.816C600.2 136.916 598.6 137.916 597.2 139.316C596.9 139.616 596.5 139.916 596 139.816" stroke="#1F2E3A" stroke-width="2" stroke-miterlimit="10" stroke-linecap="round" stroke-linejoin="round"/>
<path d="M607.7 145.016C605 144.516 602.6 144.816 600.8 147.016" stroke="#1F2E3A" stroke-width="2" stroke-miterlimit="10" stroke-linecap="round" stroke-linejoin="round"/>
<path d="M622.593 114.927C622.193 117.127 622.393 119.127 622.293 121.027C622.193 125.027 622.093 125.127 618.193 124.727C613.793 124.327 609.393 124.127 604.993 123.927C600.593 123.727 596.093 123.627 591.693 124.027C590.193 124.127 589.793 123.627 590.093 122.227C590.493 120.627 591.093 119.027 591.793 117.527C593.293 114.327 595.293 111.327 597.093 108.227C598.593 105.727 600.993 104.227 603.393 102.827C608.693 99.8273 614.393 97.7273 620.493 97.1273C629.193 96.3273 636.693 99.3273 642.793 105.327C651.993 114.327 658.993 124.827 663.293 137.027C665.893 144.227 667.993 151.527 669.293 159.127C669.493 160.527 669.493 162.027 669.493 163.427C669.493 166.027 668.193 167.727 665.893 168.827C662.193 170.527 658.193 171.527 654.193 172.327C649.993 173.227 645.793 174.227 641.593 174.627C640.893 174.727 640.193 174.727 639.493 174.827C638.193 174.927 637.493 174.327 637.193 173.027C635.493 164.527 633.393 156.127 631.793 147.527C629.893 137.327 627.193 127.227 623.993 117.327C623.793 116.627 623.593 115.827 622.593 114.927Z" fill="white"/>
<path d="M622.493 113.427C624.493 114.927 624.793 117.227 625.393 119.327C627.693 126.527 629.493 133.827 631.193 141.127C632.493 146.827 633.493 152.527 634.693 158.227C635.493 161.827 636.293 165.427 637.193 168.927C637.493 170.227 637.893 171.427 637.993 172.727C638.093 173.827 638.693 173.827 639.493 173.927C641.693 174.027 643.893 173.627 646.093 173.227C650.993 172.327 655.893 171.327 660.593 169.927C662.893 169.227 665.193 168.627 667.193 167.027C668.393 166.127 668.493 165.027 668.593 163.827C668.993 158.827 667.593 154.027 666.293 149.327C664.693 143.627 663.093 138.027 660.693 132.627C658.093 126.627 654.693 121.027 650.793 115.827C647.493 111.427 644.093 107.227 639.693 103.827C635.893 100.827 631.693 98.9273 626.993 98.0273C622.093 97.1273 617.293 98.1273 612.593 99.6273C607.793 101.127 603.193 103.227 599.393 106.527C598.193 107.527 597.193 108.727 596.793 110.327C596.493 111.427 595.593 112.227 594.993 113.127C593.093 115.727 591.893 118.727 590.893 121.727C590.493 123.027 590.893 123.527 592.193 123.327C598.593 122.527 605.093 123.127 611.493 123.427C614.293 123.527 617.093 123.927 619.893 124.027C621.093 124.127 621.393 123.627 621.393 122.527C621.393 120.027 621.493 117.427 621.693 114.927C621.793 113.827 622.193 112.727 622.193 111.627" stroke="#1F2E3A" stroke-width="2" stroke-miterlimit="10" stroke-linecap="round" stroke-linejoin="round"/>
<path d="M629.277 167.067C629.777 166.267 629.477 165.667 629.377 165.067C628.477 161.267 627.777 157.368 627.177 153.468C627.077 152.568 626.977 151.667 627.077 150.767C627.177 150.067 627.477 149.368 628.377 149.168C629.177 148.968 629.777 149.368 630.277 150.068C631.177 151.368 631.677 152.868 632.077 154.368C632.377 155.468 632.777 156.568 633.177 157.668C632.977 155.168 632.877 152.668 632.777 150.068C632.777 149.468 632.777 148.867 632.977 148.267C633.277 146.967 634.077 146.668 635.277 147.368C636.577 148.168 637.377 149.468 637.877 150.868C638.777 153.467 639.077 156.168 639.677 158.868C639.777 159.168 639.777 159.367 640.077 159.567C639.877 157.867 639.777 156.168 639.577 154.468C639.377 153.268 639.477 152.068 639.777 150.868C640.077 149.868 640.477 148.867 641.677 148.767C642.777 148.667 643.377 149.568 643.777 150.468C645.077 153.268 645.577 156.368 645.877 159.368C646.277 163.468 646.877 167.568 647.677 171.767C648.277 170.067 648.877 168.468 649.577 166.868C650.077 165.868 650.577 164.867 651.377 164.067C652.477 162.967 654.077 163.267 654.577 164.767C655.077 165.968 655.077 167.267 654.977 168.567C654.777 173.368 653.577 178.067 653.077 182.767C652.677 185.967 653.577 189.167 655.177 191.667C656.677 193.967 659.277 195.667 661.777 197.067C669.877 201.467 676.977 207.067 682.677 214.467C686.277 219.167 688.677 224.368 688.777 230.368C688.977 240.668 680.177 247.967 670.077 245.567C663.077 243.868 657.677 239.767 654.277 233.067C650.777 226.167 647.677 219.067 644.577 211.967C640.077 201.567 635.177 191.267 628.977 181.767C627.977 180.167 627.477 178.468 626.977 176.668C626.077 173.368 624.877 170.067 623.877 166.767C623.477 165.468 623.177 164.168 623.677 162.868C624.277 161.268 625.377 160.967 626.577 162.267C627.277 162.967 627.677 163.868 628.077 164.668C628.377 165.368 628.777 166.167 629.277 167.067Z" fill="white"/>
<path d="M589.777 158.767C589.677 157.467 589.577 156.267 589.577 154.967C589.577 154.267 589.577 153.667 589.877 152.967C590.377 151.867 591.377 151.767 592.077 152.767C592.477 153.267 592.577 153.967 592.877 154.567C593.077 155.067 593.177 155.867 593.577 156.067C595.677 157.367 595.277 159.367 595.277 161.267C595.177 171.467 594.377 181.667 593.177 191.867C592.377 198.267 594.177 204.7 592.877 211C592.077 215.1 590.5 220.433 589.177 224.5C588.061 227.933 587.377 228.767 587.577 231.567C587.577 232.467 587.477 233.167 586.877 233.867C585.077 235.767 583.277 237.667 581.477 239.567C579.377 241.867 576.777 243.267 573.777 243.967C572.077 244.367 570.377 244.467 568.677 244.267C562.377 243.267 559.477 239.567 560.077 232.467C560.377 228.767 561.877 225.467 563.377 222.167C567.577 213.167 572.777 204.767 578.177 196.367C581.577 191.167 584.977 185.967 587.977 180.467C589.777 177.167 590.077 173.767 589.177 170.167C588.377 166.767 587.677 163.367 586.877 159.867C586.777 159.467 586.677 158.967 586.677 158.567C586.677 157.967 586.877 157.367 587.577 157.067C588.277 156.867 588.777 157.267 589.177 157.767C589.177 158.167 589.277 158.567 589.777 158.767Z" fill="white"/>
<path d="M625.077 162.168C623.477 166.568 626.177 170.268 627.377 174.168C627.877 175.968 628.277 177.768 629.077 179.568C630.377 182.468 632.177 185.068 633.777 187.768C637.477 193.668 640.277 199.868 643.077 206.168C647.177 215.168 650.677 224.368 655.477 233.068C658.577 238.668 663.277 242.768 669.477 244.568C677.177 246.768 685.177 242.168 686.977 235.368C688.077 231.168 687.577 227.068 686.177 223.068C684.377 218.068 680.977 214.168 677.477 210.268C672.977 205.268 667.277 201.668 661.577 198.268C659.777 197.168 658.077 196.168 656.577 194.768C656.277 194.468 655.777 193.968 655.377 193.968C654.277 193.868 653.977 193.168 653.777 192.368C653.077 189.868 652.377 187.368 651.777 184.768C651.177 182.368 652.177 180.168 652.577 177.968C653.277 174.368 653.577 170.768 653.677 167.068C653.677 166.668 653.677 166.168 653.477 165.768C653.277 165.268 653.177 164.668 652.477 164.568C651.677 164.468 651.577 165.068 651.277 165.468C649.977 167.368 649.077 169.568 648.577 171.768C648.377 172.668 648.077 173.368 647.477 174.168C645.977 173.868 645.977 172.568 645.877 171.468C645.277 167.268 644.777 162.968 644.177 158.768C643.877 156.668 643.577 154.468 642.877 152.468C642.577 151.668 642.377 150.668 641.377 150.268" stroke="#1F2E3A" stroke-width="2" stroke-miterlimit="10" stroke-linecap="round" stroke-linejoin="round"/>
<path d="M589.677 163.367C588.877 164.367 588.877 165.367 589.177 166.567C589.777 169.267 590.777 171.867 590.677 174.767C590.577 177.667 589.277 180.167 587.977 182.567C584.177 189.367 579.577 195.767 575.477 202.467C570.877 209.967 566.277 217.567 562.877 225.867C561.777 228.667 560.777 231.467 560.877 234.567C561.077 240.867 564.077 242.867 569.377 243.367C573.377 243.767 576.977 242.367 579.877 239.467C582.077 237.267 584.277 235.067 586.177 232.567" stroke="#1F2E3A" stroke-width="2" stroke-miterlimit="10" stroke-linecap="round" stroke-linejoin="round"/>
<path d="M590.377 201.268C589.477 206.068 588.577 210.968 587.077 215.668C586.677 216.768 586.077 217.668 585.477 218.668C582.777 222.868 580.277 227.168 576.977 230.868C575.877 232.068 574.877 233.168 573.277 233.668" stroke="#1F2E3A" stroke-width="2" stroke-miterlimit="10" stroke-linecap="round" stroke-linejoin="round"/>
<path d="M654.977 194.067C654.377 195.467 655.277 196.567 655.677 197.767C657.677 203.567 660.977 208.767 664.177 213.967C665.877 216.667 667.877 219.367 669.677 221.967" stroke="#1F2E3A" stroke-width="2" stroke-miterlimit="10" stroke-linecap="round" stroke-linejoin="round"/>
<path d="M634.777 164.867C634.677 163.667 634.277 162.767 633.477 161.867C632.377 160.767 632.277 159.167 631.777 157.767C631.177 155.967 630.777 154.067 629.977 152.267C629.677 151.567 629.277 151.267 628.677 150.867C627.777 151.767 628.077 152.867 628.177 153.967C628.777 158.567 629.777 163.167 630.877 167.667C631.077 168.567 631.077 169.467 630.677 170.367" stroke="#1F2E3A" stroke-width="2" stroke-miterlimit="10" stroke-linecap="round" stroke-linejoin="round"/>
<path d="M634.177 148.167C636.977 149.867 637.077 152.967 637.777 155.667C638.377 157.867 638.677 160.067 639.177 162.267C639.377 163.067 639.577 163.767 640.277 164.367C641.077 165.167 640.977 166.367 641.177 167.467" stroke="#1F2E3A" stroke-width="2" stroke-miterlimit="10" stroke-linecap="round" stroke-linejoin="round"/>
<path d="M641.477 149.468C639.577 152.168 640.777 155.168 640.877 157.968C640.877 160.068 641.677 162.068 640.677 164.168" stroke="#1F2E3A" stroke-width="2" stroke-miterlimit="10" stroke-linecap="round" stroke-linejoin="round"/>
<path d="M634.177 148.667C633.377 150.967 633.977 153.267 634.077 155.467C634.177 157.067 634.577 158.667 634.877 160.267C634.977 160.967 634.777 161.767 634.177 162.267" stroke="#1F2E3A" stroke-width="2" stroke-miterlimit="10" stroke-linecap="round" stroke-linejoin="round"/>
<path d="M625.277 162.968C626.577 163.368 626.777 164.568 627.277 165.468C628.277 167.268 628.977 169.268 630.777 170.468C630.877 170.568 630.877 170.768 630.977 170.968" stroke="#1F2E3A" stroke-width="2" stroke-miterlimit="10" stroke-linecap="round" stroke-linejoin="round"/>
<path d="M591.677 155.768C590.877 156.068 590.677 156.568 590.777 157.568C590.977 159.368 591.877 161.168 590.777 163.168C590.477 163.568 591.277 164.668 591.577 165.468" stroke="#1F2E3A" stroke-width="2" stroke-miterlimit="10" stroke-linecap="round" stroke-linejoin="round"/>
<path d="M587.877 158.268C588.277 159.668 588.577 160.968 589.177 162.268C589.477 162.868 589.877 163.168 590.477 163.068" stroke="#1F2E3A" stroke-width="2" stroke-miterlimit="10" stroke-linecap="round" stroke-linejoin="round"/>
<path d="M-61.5143 427.529C-60.9639 427.621 -60.5052 427.621 -59.9547 427.713C-47.5699 427.988 -35.0933 427.804 -22.7085 428.08C-14.7272 428.263 -6.65408 428.538 1.32725 428.814C9.40033 428.997 17.4734 428.997 25.5465 428.905C31.8765 428.814 38.1148 428.814 44.3531 428.63C58.6644 428.08 73.0675 428.355 87.3789 428.447C93.342 428.447 99.305 428.538 105.268 428.722C122.423 429.272 139.487 428.814 156.642 428.997C157.376 428.997 158.018 428.814 158.477 428.263" stroke="#1F2E3A" stroke-width="2" stroke-miterlimit="10" stroke-linecap="round" stroke-linejoin="round"/>
<path d="M101.048 421.474C101.323 413.31 101.69 405.145 101.873 396.98C101.965 392.944 101.873 388.907 102.24 384.871C102.332 383.494 102.332 382.118 102.149 380.742C101.965 379.366 103.066 377.99 103.433 376.614C104.717 371.752 107.011 367.256 108.937 362.669C110.772 358.266 112.056 353.679 113.433 349C113.799 347.624 114.258 346.248 115.267 345.147C115.909 344.505 116.46 344.322 117.286 344.964C119.12 346.34 120.405 348.083 121.689 349.918C126.551 356.89 131.046 364.046 135.542 371.201C136.918 373.403 138.11 375.788 139.945 377.623C140.496 378.265 140.496 378.907 139.67 379.274C138.753 379.641 138.753 380.559 138.294 381.293C131.413 392.026 123.891 402.301 116.185 412.392C115.543 413.218 114.166 413.585 114.717 414.961C114.992 415.695 114.717 416.337 114.717 416.979C114.717 418.998 114.166 420.924 114.35 422.942C114.442 423.768 114.625 424.043 115.451 424.227C117.102 424.502 118.753 424.502 120.405 424.502C121.964 424.502 123.432 424.41 124.992 424.502C128.936 424.685 132.881 425.328 136.826 425.144C138.844 425.052 139.028 424.961 139.303 422.942C139.762 419.456 140.129 415.878 140.496 412.392C140.679 411.108 140.129 410.649 138.661 410.924C137.835 411.108 136.918 411.291 136.367 410.741C135.817 410.007 136.276 409.181 136.643 408.356C138.386 404.044 140.679 400.099 142.973 396.154C146.092 390.834 149.303 385.513 152.972 380.467C156.825 375.238 161.321 370.559 166.183 366.247C168.018 364.596 169.944 362.853 172.146 361.66C174.714 360.193 175.999 360.56 176.549 363.77C177.283 367.532 177.008 371.201 176.458 374.963C176.182 377.073 175.815 379.183 175.54 381.201" stroke="#1F2E3A" stroke-width="2" stroke-miterlimit="10" stroke-linecap="round" stroke-linejoin="round"/>
<path d="M30.4083 190.199C31.2339 190.108 30.867 190.75 31.0504 191.117C31.7844 192.309 32.977 192.952 34.2613 193.594C35.6374 194.236 37.197 194.695 37.6557 196.438C37.9309 197.447 37.9309 198.456 37.7474 199.373C37.2887 201.942 37.3805 204.511 36.9218 207.079C36.6466 208.455 37.1053 210.015 37.564 211.391C38.1144 213.134 39.674 213.96 41.3253 214.143C44.8114 214.51 48.3892 214.602 51.8753 214.235C55.6367 213.96 59.3062 212.859 63.0675 213.226C65.728 213.501 67.2876 214.602 67.1958 217.538C67.1041 220.015 67.0123 222.492 67.1958 224.877C67.6545 229.097 68.1132 233.409 70.4984 237.17C72.058 239.647 74.0763 240.84 77.012 240.473C78.5715 240.289 79.5807 239.372 80.4063 237.996C81.5989 236.161 82.0576 234.051 82.1494 232.032C82.3328 227.537 82.5163 222.95 82.5163 218.363C82.5163 216.62 82.6998 214.694 83.5255 213.042C84.4429 211.208 85.9107 210.565 87.8372 210.474C91.8737 210.29 95.8185 210.932 99.7633 210.749C103.525 210.565 107.194 209.923 110.68 208.364C113.433 207.079 114.166 205.061 112.148 202.401C109.304 198.731 105.359 196.805 100.864 195.795C99.6716 195.52 98.3873 195.337 97.1946 194.97C96.5525 194.786 96.1855 194.878 95.6351 195.153" stroke="#1F2E3A" stroke-width="2" stroke-miterlimit="10" stroke-linecap="round" stroke-linejoin="round"/>
<path d="M-65.8269 411.75C-65.8269 412.851 -64.9095 413.126 -64.0838 413.402C-63.4416 413.677 -62.7995 413.769 -62.0655 413.677C-56.4694 413.31 -50.8733 413.952 -45.3689 412.943C-41.8828 412.301 -38.3967 412.026 -34.8189 412.026C-31.0576 412.026 -27.2963 412.484 -23.6267 413.31C-20.5993 414.044 -17.6636 414.411 -14.5445 414.044C-10.9666 413.585 -7.664 414.227 -4.6366 415.97C-1.79267 417.53 1.143 417.989 4.26215 417.255C4.90432 417.071 5.45475 417.163 5.91345 417.53C6.7391 417.989 7.6565 418.264 8.66563 418.356C9.85825 418.447 10.9591 419.181 11.8765 419.823C12.5187 420.282 13.2526 420.833 14.0783 420.833C17.0139 421.016 19.9496 422.209 22.977 420.924C23.9861 420.466 25.1788 420.466 26.1879 420.924C29.674 422.3 33.4353 421.933 37.1049 422.484C38.6645 422.667 40.1323 422.484 41.6919 422.3C44.1688 422.025 46.4623 422.576 48.5723 423.676C51.0493 424.961 53.618 425.419 56.3702 424.594C58.5719 423.952 60.9572 424.319 63.2507 424.135C65.2689 423.952 67.3789 424.043 69.3972 423.952C71.6907 423.86 74.3511 421.842 75.2685 419.64C75.6355 418.722 75.3603 417.897 75.085 417.071C74.7181 415.879 74.6264 414.686 74.7181 413.402C74.9933 410.466 74.9016 407.53 75.2685 404.686C75.819 400.466 75.3603 396.246 74.8098 392.118C74.7181 391.659 74.7181 391.201 75.085 390.925C76.8281 389.458 76.9198 387.256 77.0116 385.238C77.1033 383.678 77.1951 382.21 76.9198 380.651C76.7364 379.458 76.9198 378.082 77.0116 376.798C77.1033 376.155 77.2868 375.421 77.929 375.146C80.4977 373.77 82.3325 371.568 84.5342 369.734C87.7451 366.981 89.6716 367.257 92.699 369.917C95.0843 371.935 96.8273 374.504 98.8456 376.798C99.763 377.898 100.772 378.816 101.781 379.825" stroke="#1F2E3A" stroke-width="2" stroke-miterlimit="10" stroke-linecap="round" stroke-linejoin="round"/>
<path d="M111.69 201.942C109.855 204.052 107.47 203.868 105.085 203.318C101.14 202.4 97.8373 200.199 96.186 196.529C95.1768 194.327 93.8925 194.419 92.2412 194.419C90.7733 194.419 89.3972 194.419 88.0212 195.428C86.2781 196.621 84.0764 196.621 81.9663 196.529C80.9572 196.529 80.2233 195.061 80.1316 193.685C79.9481 190.749 79.8564 187.722 79.4894 184.786C79.1224 182.034 78.7555 179.282 77.3794 176.805C76.5537 175.337 75.4528 174.145 73.8015 173.594C71.875 173.044 69.8567 174.053 69.1228 176.163C67.9302 179.557 67.1045 182.952 66.9211 186.529C66.7376 189.465 66.9211 192.401 66.6459 195.245C66.2789 199.74 64.1689 201.666 59.4902 201.942C57.5636 202.033 55.5454 202.217 53.7106 201.942C51.3254 201.575 48.9401 201.942 46.6466 201.391C45.2705 201.024 44.1697 200.107 44.0779 198.639C43.9862 197.446 43.711 196.254 43.4357 195.153C43.0688 193.502 43.9862 192.584 45.7292 192.859C46.5549 193.043 47.3806 192.676 48.2062 192.401C48.8484 192.217 49.1236 191.575 48.9401 190.933C48.7566 190.199 48.2062 189.74 47.3806 189.557C44.9036 189.098 44.9036 189.006 45.5458 186.346C46.0962 184.328 45.0871 181.759 43.4357 181.025C41.3257 180.108 40.1331 180.933 39.8579 183.135C39.6744 184.144 39.491 185.245 39.491 186.346C39.491 187.722 38.2983 188.548 36.7388 188.639C35.3627 188.731 33.9866 188.456 32.6105 188.915C31.8766 189.19 31.4179 189.557 31.0509 190.199" stroke="#1F2E3A" stroke-width="2" stroke-miterlimit="10" stroke-linecap="round" stroke-linejoin="round"/>
<path d="M280.857 322.947C280.031 324.047 280.765 325.056 281.04 326.066C281.774 328.91 282.508 331.845 283.334 334.689C286.545 346.157 289.847 357.624 293.15 369C296.085 379.091 299.205 389.182 302.691 399.182C304.984 405.879 307.369 412.576 310.489 418.906C311.039 420.007 311.681 421.108 312.323 422.117C313.241 423.677 314.525 424.502 316.452 423.768" stroke="#1F2E3A" stroke-width="2" stroke-miterlimit="10" stroke-linecap="round" stroke-linejoin="round"/>
<path d="M239.299 161.669C239.115 164.146 238.29 166.439 237.923 168.825C236.73 175.613 235.904 182.494 234.987 189.374C233.794 198.732 232.785 208.089 231.409 217.447C230.4 224.786 229.391 232.125 228.107 239.372C227.464 242.858 227.097 246.436 226.364 249.922" stroke="#1F2E3A" stroke-width="2" stroke-miterlimit="10" stroke-linecap="round" stroke-linejoin="round"/>
<path d="M248.565 160.568C249.666 169.466 250.675 178.457 251.776 187.356C253.244 199.098 255.171 210.841 257.281 222.4C258.932 231.115 260.859 239.831 262.602 248.638C266.271 267.077 270.399 285.517 275.078 303.773C276.546 309.461 278.106 315.149 279.665 320.745C279.849 321.57 279.665 322.488 280.583 323.038" stroke="#1F2E3A" stroke-width="2" stroke-miterlimit="10" stroke-linecap="round" stroke-linejoin="round"/>
<path d="M208.383 323.13C206.915 327.901 205.447 332.671 203.704 337.441C202.695 340.194 201.778 343.129 200.86 345.973C197.282 357.166 193.338 368.266 189.118 379.183C186.365 386.43 183.43 393.586 180.127 400.65C177.191 406.98 174.164 413.127 171.045 419.365C170.586 420.374 170.127 421.383 169.21 422.117" stroke="#1F2E3A" stroke-width="2" stroke-miterlimit="10" stroke-linecap="round" stroke-linejoin="round"/>
<path d="M158.752 427.804C159.119 428.263 159.578 428.08 160.037 428.08C164.165 428.263 168.385 428.171 172.422 428.63C177.375 429.181 182.329 428.814 187.283 429.181C190.402 429.364 193.613 429.181 196.824 429.548C202.604 430.19 208.475 430.19 214.346 430.465C221.777 430.832 229.3 431.107 236.731 431.382C242.786 431.566 248.932 431.933 254.987 432.3C262.785 432.758 270.583 433.217 278.472 433.584C285.078 433.859 291.775 434.134 298.38 434.226C305.444 434.318 312.6 434.501 319.663 434.868C328.47 435.327 337.277 436.244 346.176 436.061C348.011 436.061 349.754 435.878 351.497 435.786" stroke="#1F2E3A" stroke-width="2" stroke-miterlimit="10" stroke-linecap="round" stroke-linejoin="round"/>
<path d="M-110.779 244.142C-110.963 243.5 -110.596 243.408 -110.137 243.225C-106.009 241.115 -101.697 239.555 -97.385 237.812C-91.6054 235.427 -85.7341 233.317 -79.9545 230.932C-72.9823 227.996 -66.0101 225.244 -58.9462 222.675C-57.2032 222.033 -55.5518 221.299 -53.717 220.84C-52.4327 220.473 -51.3318 220.381 -50.0475 221.024C-41.5157 224.877 -33.2591 229.189 -25.2778 233.959C-18.2138 238.179 -11.0582 242.032 -4.08595 246.527C-3.2603 247.078 -2.34291 247.445 -1.51726 247.72C-0.966821 247.903 -0.508124 248.179 -0.141166 248.546C4.17059 252.766 8.5741 256.986 12.8859 261.297C17.3811 265.884 21.7846 270.563 26.1881 275.242C27.1055 276.251 27.4724 277.719 28.665 278.636" stroke="#1F2E3A" stroke-width="2" stroke-miterlimit="10" stroke-linecap="round" stroke-linejoin="round"/>
<path d="M283.334 336.157C282.875 336.432 282.325 336.341 281.774 336.341C276.729 336.341 271.775 336.341 266.729 336.341C258.564 336.432 250.4 336.616 242.235 336.708C234.529 336.799 226.914 337.166 219.208 337.35C215.08 337.441 211.043 337.625 206.915 337.717C205.906 337.717 204.897 337.625 203.979 337.258" stroke="#1F2E3A" stroke-width="2" stroke-miterlimit="10" stroke-linecap="round" stroke-linejoin="round"/>
<path d="M251.134 160.751C251.134 160.384 251.134 159.925 250.492 160.017C247.006 160.384 243.519 160.659 240.033 161.118C236.822 161.576 233.612 161.852 230.125 161.852C229.392 163.595 229.025 165.705 228.566 167.723C226.272 177.264 223.704 186.621 221.043 196.07C218.291 205.52 215.631 214.969 212.695 224.234C211.227 228.913 209.759 233.684 208.2 238.362C203.796 251.573 199.026 264.692 193.797 277.535C190.769 285.058 187.467 292.489 184.072 299.828C181.87 304.598 179.669 309.277 177.375 314.047C173.981 321.203 170.22 328.267 166.366 335.239C162.697 341.936 158.844 348.542 154.899 355.055C150.587 362.119 146.184 369.183 141.689 376.155C141.23 376.797 140.863 377.44 140.312 377.99" stroke="#1F2E3A" stroke-width="2" stroke-miterlimit="10" stroke-linecap="round" stroke-linejoin="round"/>
<path d="M292.692 359.734C295.536 359.184 298.196 359.918 300.948 360.284C302.691 360.468 304.526 360.651 306.269 360.56C311.131 360.468 315.993 360.835 320.856 361.752C321.773 361.936 322.69 361.936 323.608 361.752C324.984 361.385 325.718 361.936 326.36 363.037C327.828 365.605 329.296 368.174 330.213 371.018C330.58 372.119 331.222 372.669 332.415 372.669C335.534 372.761 338.653 373.036 341.772 373.036C343.148 373.036 343.974 373.403 344.708 374.596C345.625 376.155 346.634 377.715 347.46 379.366C349.295 383.036 351.13 386.797 353.423 390.283C353.882 390.925 353.974 391.659 353.974 392.577C353.882 396.063 353.882 399.641 353.607 403.127C353.24 408.172 352.964 413.126 352.689 418.172C352.506 421.475 352.414 424.686 352.231 427.988C352.139 430.465 351.955 433.034 351.772 435.511" stroke="#1F2E3A" stroke-width="2" stroke-miterlimit="10" stroke-linecap="round" stroke-linejoin="round"/>
<path d="M197.19 429.364C197.833 427.254 197.466 425.052 197.466 422.942C197.466 421.199 197.19 419.456 197.19 417.713C197.19 416.521 196.732 416.062 195.631 415.878C194.622 415.695 193.704 415.511 192.695 415.42C191.869 415.328 191.686 414.961 191.594 414.135C191.411 412.209 192.236 410.466 193.154 408.906C198.108 400.741 202.97 392.485 208.016 384.412C211.318 379.091 214.621 373.862 218.841 369.183C223.978 363.495 229.941 359.183 237.372 357.257C240.767 356.431 244.161 356.064 247.831 356.339C254.344 356.982 259.757 359.642 264.711 363.587C268.013 366.247 270.765 369.275 273.059 372.669C276.453 377.623 279.205 382.852 281.407 388.448C284.159 395.512 286.178 402.851 287.37 410.374C287.645 412.301 288.012 414.227 287.003 416.245C286.453 417.438 286.912 419.089 286.912 420.465C286.912 422.851 287.829 425.144 287.279 427.529C287.187 428.08 287.829 428.814 288.746 428.722C294.251 428.538 299.755 429.456 305.259 429.272C307.828 429.181 310.489 429.639 313.057 429.272C314.342 429.089 315.718 428.997 317.002 428.814C318.011 428.722 317.828 427.896 317.736 427.254C317.369 425.786 316.91 424.41 316.268 423.126" stroke="#1F2E3A" stroke-width="2" stroke-miterlimit="10" stroke-linecap="round" stroke-linejoin="round"/>
<path d="M2.51968 328.635C3.7123 329.001 4.35449 330.011 5.45536 330.469C6.83145 331.02 8.20756 331.478 9.76713 330.836C12.5193 329.644 15.088 330.194 17.3815 332.121C19.3998 333.864 21.5098 335.515 23.9868 336.524C27.2894 337.992 30.1333 340.102 33.1607 341.753C35.179 342.854 37.289 343.68 39.7659 343.588C42.9768 343.496 45.5455 345.148 48.0225 346.982C49.1234 347.808 50.316 348.634 51.5086 349.276C53.4351 350.377 55.3617 350.836 57.4717 350.469C59.3065 350.102 60.7743 350.836 62.0587 351.936C62.9761 352.67 63.8017 353.496 64.7191 354.23C66.9208 356.065 68.7556 356.34 71.1409 354.78C74.5352 352.487 75.2691 353.771 76.5535 356.982C77.4709 359.184 78.2965 361.661 76.8287 364.138C76.37 364.963 76.737 366.064 76.8287 367.073C77.0122 369.183 77.1957 371.385 77.2874 373.495C77.2874 374.046 77.4709 374.413 77.7461 374.871" stroke="#1F2E3A" stroke-width="2" stroke-miterlimit="10" stroke-linecap="round" stroke-linejoin="round"/>
<path d="M254.528 257.169C254.161 259.829 254.711 262.398 254.895 264.967C255.445 272.765 256.73 280.379 257.831 288.085C258.656 293.773 259.941 299.461 261.133 305.057C262.326 310.378 263.702 315.699 265.353 320.836C265.537 321.387 265.537 321.937 265.628 322.488" stroke="#1F2E3A" stroke-width="2" stroke-miterlimit="10" stroke-linecap="round" stroke-linejoin="round"/>
<path d="M225.354 258.086C224.437 259.738 224.529 261.573 224.162 263.316C221.501 275.517 218.749 287.718 215.355 299.828C213.153 307.534 211.043 315.332 208.566 322.946" stroke="#1F2E3A" stroke-width="2" stroke-miterlimit="10" stroke-linecap="round" stroke-linejoin="round"/>
<path d="M234.437 257.903C235.079 260.655 234.437 263.316 234.07 265.976C232.969 274.875 231.96 283.774 230.4 292.672C228.933 301.296 227.373 309.919 224.896 318.268C224.529 319.552 224.346 320.928 224.07 322.212" stroke="#1F2E3A" stroke-width="2" stroke-miterlimit="10" stroke-linecap="round" stroke-linejoin="round"/>
<path d="M219.392 254.234C218.291 256.069 218.199 258.179 217.74 260.197C215.63 268.82 213.245 277.261 210.768 285.792C208.291 294.141 205.722 302.489 203.154 310.745C202.695 312.213 202.236 313.681 201.778 315.149C201.594 315.791 201.411 316.25 200.86 316.708" stroke="#1F2E3A" stroke-width="2" stroke-miterlimit="10" stroke-linecap="round" stroke-linejoin="round"/>
<path d="M230.859 184.971C229.759 186.805 230.034 189.007 229.3 190.934C229.208 191.026 229.208 191.301 229.3 191.392C230.676 194.053 229.759 196.805 229.392 199.374C227.924 209.74 226.456 220.107 224.254 230.29C223.062 235.886 221.961 241.482 220.309 246.987" stroke="#1F2E3A" stroke-width="2" stroke-miterlimit="10" stroke-linecap="round" stroke-linejoin="round"/>
<path d="M243.886 190.475C244.528 191.117 244.528 191.943 244.712 192.768C245.354 197.447 246.088 202.126 246.638 206.896C247.189 211.667 247.556 216.529 248.014 221.299C248.565 226.253 249.115 231.207 249.666 236.161C250.216 240.84 251.042 245.519 252.234 250.106" stroke="#1F2E3A" stroke-width="2" stroke-miterlimit="10" stroke-linecap="round" stroke-linejoin="round"/>
<path d="M243.611 190.475C243.06 190.934 242.877 191.576 242.877 192.126C242.235 198.089 241.501 203.961 240.859 209.924C239.85 219.189 238.932 228.455 237.648 237.629C237.097 241.666 236.547 245.794 236.639 249.922" stroke="#1F2E3A" stroke-width="2" stroke-miterlimit="10" stroke-linecap="round" stroke-linejoin="round"/>
<path d="M29.2158 278.178C28.5736 278.269 28.9406 278.636 28.8489 279.003C28.3902 284.233 28.2067 289.553 28.115 294.783C28.0232 299.736 27.9315 304.69 27.748 309.644C27.4728 317.626 27.4728 325.607 27.381 333.588C27.381 334.965 27.5645 336.432 26.9223 337.717" stroke="#1F2E3A" stroke-width="2" stroke-miterlimit="10" stroke-linecap="round" stroke-linejoin="round"/>
<path d="M209.942 249.004C208.933 252.766 207.832 256.435 206.915 260.197C204.163 270.655 200.493 280.838 196.365 290.838C194.438 295.333 192.237 299.645 189.943 304.048C189.576 304.69 189.301 305.241 189.026 305.883" stroke="#1F2E3A" stroke-width="2" stroke-miterlimit="10" stroke-linecap="round" stroke-linejoin="round"/>
<path d="M301.131 389.458C304.067 389.549 306.911 390.283 309.847 390.375C313.883 390.558 317.92 391.017 321.956 391.292C329.02 391.751 336.176 391.934 343.24 392.21C346.726 392.301 350.212 392.668 353.698 392.393" stroke="#1F2E3A" stroke-width="2" stroke-miterlimit="10" stroke-linecap="round" stroke-linejoin="round"/>
<path d="M-24.727 241.207C-23.8096 241.023 -23.2592 241.574 -22.617 241.941C-12.9843 248.179 -3.81037 255.243 5.45532 262.123C11.1432 266.435 16.6476 270.838 22.6106 274.6C23.895 275.425 25.0876 276.802 26.9224 276.618" stroke="#1F2E3A" stroke-width="2" stroke-miterlimit="10" stroke-linecap="round" stroke-linejoin="round"/>
<path d="M3.62012 274.783C2.51924 275.609 2.79446 276.893 2.70272 277.994C2.24402 284.966 1.87707 291.847 1.41837 298.819C1.05142 305.332 0.592719 311.846 0.500979 318.451C0.40924 321.02 0.500968 323.68 0.317489 326.341C0.592708 326.524 0.959671 326.891 1.32663 327.166C1.32663 327.166 1.41838 327.258 1.51012 327.258L1.41837 327.35" stroke="#1F2E3A" stroke-width="2" stroke-miterlimit="10" stroke-linecap="round" stroke-linejoin="round"/>
<path d="M228.933 191.851C227.74 193.411 227.832 195.337 227.465 197.08C225.08 208.456 221.226 219.465 217.465 230.473C216.273 233.959 214.805 237.354 213.429 240.748C213.245 241.207 212.878 241.666 212.786 242.124" stroke="#1F2E3A" stroke-width="2" stroke-miterlimit="10" stroke-linecap="round" stroke-linejoin="round"/>
<path d="M176.825 381.568C176.366 381.66 175.907 381.201 175.265 381.476C174.715 385.146 173.614 388.815 172.329 392.393C169.852 399.09 167.1 405.604 162.238 410.924C161.504 411.75 160.862 412.301 159.578 412.301C157.743 412.392 157.101 413.493 156.642 416.062C156.183 418.998 155.908 421.933 155.174 424.777C154.899 425.786 155.633 426.795 156.734 426.887C157.468 426.979 158.11 427.071 158.569 427.713" stroke="#1F2E3A" stroke-width="2" stroke-miterlimit="10" stroke-linecap="round" stroke-linejoin="round"/>
<path d="M266.454 388.448C266.454 395.696 266.454 402.943 266.454 410.191C266.546 417.438 266.637 424.685 267.004 431.933C267.004 432.208 266.913 432.483 266.821 432.758" stroke="#1F2E3A" stroke-width="2" stroke-miterlimit="10" stroke-linecap="round" stroke-linejoin="round"/>
<path d="M234.896 385.788C234.437 390.742 234.07 395.696 233.978 400.65C233.703 409.732 233.519 418.814 233.519 427.897C233.519 428.447 233.336 428.906 233.703 429.456" stroke="#1F2E3A" stroke-width="2" stroke-miterlimit="10" stroke-linecap="round" stroke-linejoin="round"/>
<path d="M208.842 322.671C209.575 323.038 210.309 323.13 211.135 323.13C215.355 323.13 219.667 322.946 223.887 322.396C227.281 322.029 230.767 322.121 234.162 322.029C238.382 321.937 242.51 321.845 246.73 321.937C252.418 322.029 258.197 322.304 263.885 322.488C264.436 322.488 264.894 322.579 265.445 322.304" stroke="#1F2E3A" stroke-width="2" stroke-miterlimit="10" stroke-linecap="round" stroke-linejoin="round"/>
<path d="M201.777 374.046C202.144 369.275 203.612 364.78 204.53 360.101C205.264 356.799 206.181 353.588 206.915 350.285C207.282 348.634 208.016 347.625 209.667 347.166C211.777 346.615 213.795 346.065 215.997 346.065C218.107 346.157 219.85 344.964 221.777 344.506C222.602 344.322 223.244 344.23 224.07 344.597C224.345 345.606 223.611 346.249 223.061 346.799C218.015 351.845 213.612 357.349 209.484 363.037C207.74 365.422 205.997 367.807 204.254 370.284C203.796 370.926 203.337 371.569 202.603 371.844" stroke="#1F2E3A" stroke-width="2" stroke-miterlimit="10" stroke-linecap="round" stroke-linejoin="round"/>
<path d="M258.748 344.139C260.216 343.038 261.867 343.955 263.335 344.047C267.555 344.322 271.867 344.689 276.087 345.24C276.821 345.331 277.279 345.606 277.463 346.249C278.839 350.744 281.041 354.872 282.6 359.184C283.151 360.652 284.16 362.12 283.793 363.954C283.609 364.688 284.435 365.33 284.985 365.973" stroke="#1F2E3A" stroke-width="2" stroke-miterlimit="10" stroke-linecap="round" stroke-linejoin="round"/>
<path d="M77.4709 381.66C80.6817 382.486 83.8926 381.935 87.1035 381.752C91.4153 381.568 95.8188 381.018 100.131 380.743C110.864 380.101 121.689 380.1 132.515 380.1C133.891 380.1 135.267 379.917 136.643 379.825C137.285 379.825 138.019 379.642 138.661 380.1" stroke="#1F2E3A" stroke-width="2" stroke-miterlimit="10" stroke-linecap="round" stroke-linejoin="round"/>
<path d="M-79.1286 276.251C-79.3121 276.801 -78.8534 276.985 -78.5781 276.801C-78.1194 276.526 -77.6608 276.434 -77.2021 276.251C-76.1929 275.7 -75.3673 275.976 -74.5416 276.709C-71.4225 279.737 -67.4777 281.388 -63.3494 282.673C-61.8816 283.131 -60.689 284.14 -59.6798 285.425C-58.9459 286.434 -58.1202 287.26 -57.2028 288.177C-56.2854 289.094 -55.1846 289.278 -53.992 288.911C-52.8911 288.544 -51.882 288.727 -51.0563 289.645C-49.1298 291.755 -47.2032 293.773 -45.2767 295.791C-42.9832 298.268 -40.4145 300.378 -37.7541 302.488C-35.5523 304.231 -33.7175 306.158 -31.791 308.176C-29.681 310.378 -27.7545 312.763 -24.9105 314.139C-24.2684 314.414 -23.5344 314.781 -22.8923 314.69C-17.4796 313.956 -13.8101 316.891 -10.324 320.377C-8.48918 322.212 -6.74611 324.047 -4.54436 325.24C-3.07653 326.065 -1.51698 326.708 0.226074 326.157" stroke="#1F2E3A" stroke-width="2" stroke-miterlimit="10" stroke-linecap="round" stroke-linejoin="round"/>
<path d="M-23.5347 257.261C-21.1495 259.279 -18.3056 260.747 -15.7369 262.49C-9.49857 266.618 -2.80159 270.196 3.4367 274.416C9.39977 278.361 15.3629 282.398 21.1424 286.709C21.8764 287.26 22.6103 287.902 23.2524 288.544" stroke="#1F2E3A" stroke-width="2" stroke-miterlimit="10" stroke-linecap="round" stroke-linejoin="round"/>
<path d="M177.099 315.516C179.759 317.626 182.42 319.828 185.08 321.938C190.952 326.525 196.731 331.112 202.052 336.341C202.327 336.524 202.419 336.891 202.694 337.075" stroke="#1F2E3A" stroke-width="2" stroke-miterlimit="10" stroke-linecap="round" stroke-linejoin="round"/>
<path d="M209.301 383.036C211.135 383.862 213.154 383.587 215.172 383.954C220.86 385.054 226.731 385.238 232.511 385.513C236.731 385.697 240.859 386.063 245.079 386.43C246.272 386.522 247.556 385.972 248.749 386.43" stroke="#1F2E3A" stroke-width="2" stroke-miterlimit="10" stroke-linecap="round" stroke-linejoin="round"/>
<path d="M258.198 343.863C259.574 345.698 261.684 346.798 263.61 347.991C269.206 351.294 273.977 355.697 278.747 360.009C279.94 361.018 281.041 362.119 282.142 363.22C282.6 363.679 283.059 363.862 283.701 363.954" stroke="#1F2E3A" stroke-width="2" stroke-miterlimit="10" stroke-linecap="round" stroke-linejoin="round"/>
<path d="M249.024 386.247C249.115 385.971 249.115 385.513 249.299 385.329C251.776 383.036 253.244 380.008 255.17 377.348C257.555 373.953 258.748 374.137 261.133 377.531C262.601 379.55 263.519 381.935 264.619 384.136C265.17 385.237 265.72 386.246 266.638 387.072" stroke="#1F2E3A" stroke-width="2" stroke-miterlimit="10" stroke-linecap="round" stroke-linejoin="round"/>
<path d="M165.174 352.303C165.174 351.936 164.99 351.477 165.174 351.294C167.284 348.633 167.375 345.055 169.302 342.212C171.228 339.276 172.971 336.34 174.714 333.313C175.448 332.028 176.366 331.845 177.65 332.395C179.301 333.038 180.953 333.863 182.054 335.331C182.787 336.248 182.696 336.982 181.595 337.441C178.109 339.092 175.265 341.569 172.421 344.046C171.137 345.147 169.944 346.248 168.751 347.441C168.384 347.808 167.926 348.083 167.375 348.083" stroke="#1F2E3A" stroke-width="2" stroke-miterlimit="10" stroke-linecap="round" stroke-linejoin="round"/>
<path d="M238.565 128C238.657 133.413 238.84 138.825 239.207 144.238C239.299 146.256 239.299 148.366 239.391 150.384" stroke="#1F2E3A" stroke-width="2" stroke-miterlimit="10" stroke-linecap="round" stroke-linejoin="round"/>
<path d="M188.108 338.45C186.732 339.735 187.374 341.294 187.466 342.762C187.741 345.698 188.108 348.725 188.567 351.661C189.026 354.321 188.75 356.982 188.842 359.642C188.842 360.285 188.934 360.835 189.484 361.294" stroke="#1F2E3A" stroke-width="2" stroke-miterlimit="10" stroke-linecap="round" stroke-linejoin="round"/>
<path d="M205.906 246.252C207.465 246.894 209.117 247.261 210.034 248.821C212.144 248.913 213.52 250.564 215.263 251.481C218.015 252.858 220.676 254.509 223.061 256.344C225.079 257.903 227.189 258.087 229.666 257.72C232.052 257.444 234.437 257.444 236.822 257.261C242.235 256.894 247.647 256.711 253.06 256.619C256.638 256.527 260.216 256.619 263.793 256.16" stroke="#1F2E3A" stroke-width="2" stroke-miterlimit="10" stroke-linecap="round" stroke-linejoin="round"/>
<path d="M156.092 381.109C156.825 380.651 157.743 380.651 158.568 380.651C163.889 380.834 169.21 381.568 174.531 381.385C174.715 381.385 174.898 381.568 175.173 381.66" stroke="#1F2E3A" stroke-width="2" stroke-miterlimit="10" stroke-linecap="round" stroke-linejoin="round"/>
<path d="M234.896 385.513C234.804 384.688 235.08 384.046 235.813 383.495C237.281 382.211 237.923 380.376 239.024 378.816C240.217 377.073 240.492 376.982 241.96 378.358C244.345 380.559 245.905 383.403 247.464 386.156" stroke="#1F2E3A" stroke-width="2" stroke-miterlimit="10" stroke-linecap="round" stroke-linejoin="round"/>
<path d="M187.558 336.616C187.558 337.717 188.2 338.359 189.118 338.726C192.053 339.918 194.805 341.478 197.466 343.404C197.007 345.514 195.906 347.441 195.081 349.459C193.796 352.578 192.512 355.698 191.228 358.817C191.044 359.367 190.861 359.918 190.494 360.376C189.026 362.028 188.842 364.138 188.384 366.064" stroke="#1F2E3A" stroke-width="2" stroke-miterlimit="10" stroke-linecap="round" stroke-linejoin="round"/>
<path d="M262.784 251.023C262.142 251.114 261.592 251.114 260.949 250.931C258.839 250.197 256.546 250.656 254.344 250.472C248.565 249.922 242.693 250.472 236.914 250.197C234.07 250.105 231.226 250.381 228.29 250.105C227.74 250.014 227.281 249.922 226.731 249.83" stroke="#1F2E3A" stroke-width="2" stroke-miterlimit="10" stroke-linecap="round" stroke-linejoin="round"/>
<path d="M250.675 159.833C251.042 158.274 250.033 157.264 249.299 156.163C247.097 153.044 244.345 150.751 240.308 150.659C237.006 150.567 233.245 152.677 231.868 155.705C231.043 157.631 230.492 159.558 230.309 161.668" stroke="#1F2E3A" stroke-width="2" stroke-miterlimit="10" stroke-linecap="round" stroke-linejoin="round"/>
<path d="M279.664 322.396C279.022 322.855 278.196 322.763 277.554 322.672C273.701 322.396 269.756 322.396 265.903 322.672" stroke="#1F2E3A" stroke-width="2" stroke-miterlimit="10" stroke-linecap="round" stroke-linejoin="round"/>
<path d="M274.435 375.697C272.142 377.348 271.041 379.733 269.848 382.118C269.022 383.77 268.105 385.421 267.096 386.98C266.912 387.256 266.912 387.623 266.821 387.898" stroke="#1F2E3A" stroke-width="2" stroke-miterlimit="10" stroke-linecap="round" stroke-linejoin="round"/>
<path d="M183.797 301.572C185.815 302.764 187.283 304.599 188.934 306.25C192.604 309.736 196.548 312.947 200.218 316.433C202.236 318.36 204.255 320.195 206.365 321.938C206.915 322.396 207.557 323.13 208.475 322.855" stroke="#1F2E3A" stroke-width="2" stroke-miterlimit="10" stroke-linecap="round" stroke-linejoin="round"/>
<path d="M207.924 239.922C210.86 241.207 213.612 242.675 216.181 244.509C219.116 246.528 222.236 248.087 225.355 249.738C225.63 249.922 225.997 250.289 226.456 249.922" stroke="#1F2E3A" stroke-width="2" stroke-miterlimit="10" stroke-linecap="round" stroke-linejoin="round"/>
<path d="M226.272 250.198C226.18 252.583 225.722 254.968 225.079 257.261" stroke="#1F2E3A" stroke-width="2" stroke-miterlimit="10" stroke-linecap="round" stroke-linejoin="round"/>
<path d="M81.7822 201.85C82.2409 202.217 82.7913 202.584 83.1582 203.134C83.5252 203.685 83.4335 204.419 82.883 204.969C82.4243 205.428 81.8739 205.428 81.3235 205.061C80.773 204.694 79.9473 204.327 80.1308 203.41C80.2226 202.492 80.5895 201.85 81.6904 201.85" stroke="#1F2E3A" stroke-width="2" stroke-miterlimit="10" stroke-linecap="round" stroke-linejoin="round"/>
<path d="M545.326 403.621C534.082 403.507 524.789 402.818 515.724 400.868C514.233 400.523 512.971 400.064 512.512 398.343C511.25 392.377 508.266 387.214 505.742 381.707C497.596 363.693 490.482 345.335 483.139 326.977C480.156 319.634 477.173 312.291 474.648 304.718C474.419 304.03 474.304 302.997 473.157 303.112C472.009 303.227 471.78 304.144 471.665 305.062C471.321 309.537 471.091 314.127 470.747 318.601C469.715 332.599 468.338 346.597 466.387 360.595C464.666 372.872 462.945 385.034 459.847 397.081C459.159 399.72 457.667 402.244 458.47 405.113C458.585 405.457 458.241 405.801 457.897 405.916C449.062 408.784 440.113 410.735 430.934 412.227C425.541 413.03 420.263 414.177 414.756 413.948C414.067 413.948 413.264 414.062 412.92 413.374C412.576 412.571 413.035 411.997 413.494 411.538C414.526 410.161 415.444 408.67 416.477 407.408C421.755 401.327 424.738 394.213 426.688 386.411C429.098 376.658 430.36 366.906 430.934 356.923C431.393 348.662 432.081 340.401 432.655 332.255C433.228 324.109 433.687 316.077 434.376 307.931C435.064 298.867 435.753 289.802 436.441 280.738C437.015 273.969 438.162 267.314 437.818 260.544C437.244 245.055 439.998 229.91 442.637 214.764C444.358 205.241 446.538 195.718 448.603 186.195C449.062 184.244 449.751 183.327 451.931 183.097C461.913 181.72 471.895 180.917 481.877 181.032C484.745 181.032 487.499 181.606 490.367 181.261C491.285 181.147 491.515 181.835 491.63 182.523C493.006 188.834 493.809 195.374 494.383 201.799C495.186 211.896 495.875 221.993 496.563 232.204C496.907 237.597 496.907 242.875 497.022 248.268C497.022 250.448 497.366 252.628 498.055 254.808C507.004 282.23 516.527 309.422 527.198 336.156C531.902 347.974 536.033 360.021 540.048 372.183C541.54 376.773 544.064 380.674 546.588 384.69C547.277 385.722 548.195 386.526 549.227 387.099C554.391 390.427 559.669 393.754 565.061 396.852C566.094 397.426 566.897 398.114 567.7 398.917C568.044 399.261 568.618 399.376 568.503 400.064C568.389 400.753 567.815 400.868 567.241 400.982C563.799 401.671 560.357 402.474 556.8 402.933C552.325 403.392 547.85 403.736 545.326 403.621Z" fill="white"/>
<path d="M474.763 302.423C476.484 308.619 479.009 314.585 481.418 320.552C485.204 330.19 489.105 339.713 493.007 349.351C495.875 356.464 498.858 363.463 501.841 370.577C504.939 378.035 508.725 385.263 511.823 392.836C512.512 394.442 512.856 396.049 513.315 397.655C513.659 399.032 514.233 399.605 515.61 399.835C521.691 401.212 527.772 401.9 533.968 402.244C540.393 402.589 546.818 402.703 553.243 402.13C557.259 401.785 561.275 400.982 565.176 400.179C565.75 400.064 566.209 399.491 566.897 399.605" stroke="#1F2E3A" stroke-width="2" stroke-miterlimit="10" stroke-linecap="round" stroke-linejoin="round"/>
<path d="M490.826 181.491C491.285 185.621 492.318 189.637 492.777 193.768C493.465 199.734 493.924 205.7 494.268 211.781C494.612 217.748 495.186 223.714 495.53 229.795C495.76 234.155 496.219 238.63 496.104 242.99C495.989 248.727 496.907 254.234 498.743 259.627C503.677 273.969 508.496 288.311 513.544 302.538C517.101 312.635 521.117 322.502 525.018 332.484C529.951 345.105 534.541 357.727 538.672 370.577C540.163 375.052 542.458 378.838 544.523 382.854C546.588 387.099 550.834 388.82 554.391 391.115C557.947 393.41 561.619 395.704 565.405 397.77C565.749 397.999 566.208 398.229 566.323 398.573C566.667 400.179 567.7 399.95 568.847 399.72" stroke="#1F2E3A" stroke-width="2" stroke-miterlimit="10" stroke-linecap="round" stroke-linejoin="round"/>
<path d="M450.095 183.9C449.062 188.145 448.144 192.391 447.226 196.636C445.391 205.356 443.555 214.076 442.063 222.911C441.145 228.418 440.113 233.811 439.539 239.433C438.851 245.629 438.277 251.824 438.736 258.02C439.08 262.38 438.277 266.625 438.047 270.871C437.703 277.411 436.9 283.951 436.441 290.605C435.867 297.031 435.408 303.456 434.95 309.881C434.605 314.93 434.376 319.978 434.032 325.026C433.458 332.714 432.884 340.286 432.311 347.974C431.852 354.17 431.622 360.365 431.163 366.561C430.589 373.56 429.442 380.559 427.377 387.329C426.23 391.115 425.541 395.016 423.591 398.573C422.329 400.982 420.608 403.277 419.001 405.457C417.28 407.866 415.444 410.046 413.953 412.685C415.788 413.603 417.624 413.374 419.345 413.144C430.934 411.653 442.522 409.702 453.767 406.375C454.455 406.145 454.914 405.916 455.488 405.572C456.176 405.228 456.749 404.539 457.553 405.228" stroke="#1F2E3A" stroke-width="2" stroke-miterlimit="10" stroke-linecap="round" stroke-linejoin="round"/>
<path d="M470.633 303.341C471.092 307.128 470.403 310.914 470.173 314.7C469.944 319.749 469.37 324.797 468.912 329.846C468.338 335.582 467.879 341.204 467.19 346.827C466.158 354.858 465.24 363.004 463.978 371.036C462.486 380.215 461.224 389.509 458.47 398.573C457.897 400.523 456.979 402.589 457.208 404.769" stroke="#1F2E3A" stroke-width="2" stroke-miterlimit="10" stroke-linecap="round" stroke-linejoin="round"/>
<path d="M482.565 299.211C479.238 300.129 475.91 301.62 472.583 302.423C469.256 303.226 465.928 303.8 462.601 303.685C461.798 303.685 460.995 303.571 460.306 304.03" stroke="#1F2E3A" stroke-width="2" stroke-miterlimit="10" stroke-linecap="round" stroke-linejoin="round"/>
<path d="M499.688 169.144C499.688 175.044 499.588 181.244 498.688 187.444C498.488 188.544 498.088 189.144 496.988 189.544C489.388 192.044 481.588 193.844 473.688 194.544C465.788 195.244 457.888 195.644 450.088 193.444C447.188 192.644 445.488 191.544 444.888 188.044C443.188 177.844 441.888 167.644 441.688 157.244C441.588 154.344 441.788 151.444 441.988 148.544C442.088 147.244 441.588 147.044 440.388 147.544C435.488 149.344 430.288 150.044 425.088 150.644C423.388 150.844 422.588 150.144 422.388 148.544C421.488 141.744 422.088 135.044 424.888 128.644C428.188 120.844 432.788 113.844 438.988 108.144C443.588 103.844 448.788 100.644 454.988 99.2444C460.088 98.0444 465.288 97.6444 470.488 98.3444C477.688 99.2444 482.988 103.044 486.488 109.444C491.088 118.044 494.288 127.244 496.488 136.744C498.788 147.244 499.888 158.044 499.688 169.144Z" fill="white"/>
<path d="M497.288 188.444C497.588 185.944 497.988 183.444 498.188 180.844C498.688 174.444 498.388 168.044 498.388 161.744C498.388 158.044 497.788 154.344 497.488 150.644C496.888 143.944 495.488 137.444 493.788 131.044C492.788 127.344 491.288 123.744 489.988 120.144C488.288 115.644 486.388 111.344 483.688 107.244C480.588 102.644 476.188 100.444 470.988 99.5444C467.488 98.9444 464.088 99.2444 460.588 99.5444C456.788 99.8444 453.288 100.644 449.888 102.244C445.588 104.244 441.688 106.844 438.388 110.244C433.688 115.144 429.888 120.644 426.988 126.744C423.988 132.944 422.688 139.444 423.388 146.344C423.688 149.844 423.688 149.944 426.988 149.444C431.188 148.744 435.388 148.244 439.388 146.844C439.888 146.644 440.388 146.444 440.888 146.244C442.388 145.444 442.988 145.844 442.988 147.744C442.988 150.844 442.888 153.944 442.888 156.944C442.888 161.844 443.488 166.744 443.788 171.644C444.088 177.144 445.488 182.544 446.188 187.944C446.288 188.844 446.588 189.844 446.788 190.744" stroke="#1F2E3A" stroke-width="2" stroke-miterlimit="10" stroke-linecap="round" stroke-linejoin="round"/>
<path d="M454.7 138.28C453.6 137.38 452.4 138.18 451.3 138.38C449.2 138.68 447.2 139.18 445.2 139.98C445.1 139.98 445.1 140.08 445 140.08L445.1 140.18" stroke="#1F2E3A" stroke-width="2" stroke-miterlimit="10" stroke-linecap="round" stroke-linejoin="round"/>
<path d="M463 152.781C462.8 155.881 462.8 158.981 464.1 161.881C464.9 161.981 465.2 161.381 465.6 161.181C466.7 160.481 467.1 161.281 467.5 161.881C468 162.881 466.3 165.481 465.2 165.781" stroke="#1F2E3A" stroke-width="2" stroke-miterlimit="10" stroke-linecap="round" stroke-linejoin="round"/>
<path d="M473.6 137.08C470.3 137.18 467 136.68 463.7 137.38" stroke="#1F2E3A" stroke-width="2" stroke-miterlimit="10" stroke-linecap="round" stroke-linejoin="round"/>
<path d="M454.7 139.781H454.9" stroke="#1F2E3A" stroke-width="2" stroke-miterlimit="10" stroke-linecap="round" stroke-linejoin="round"/>
<path d="M471.6 138.88H471.8" stroke="#1F2E3A" stroke-width="2" stroke-miterlimit="10" stroke-linecap="round" stroke-linejoin="round"/>
<path d="M499.275 122.939C499.075 126.139 499.575 129.439 498.175 132.539C497.675 133.539 497.275 134.139 495.975 133.839C494.375 133.439 492.575 133.639 490.975 133.839C489.175 134.139 488.075 133.439 487.375 131.939C486.875 131.039 486.475 130.339 485.275 130.339C484.575 130.339 484.075 129.839 483.775 129.239C483.275 128.239 482.875 127.239 482.675 126.139C482.375 124.539 482.175 123.039 480.075 122.739C478.975 122.539 478.875 121.239 478.775 120.239C478.675 119.239 478.475 118.339 477.275 117.939C476.375 117.639 476.375 116.639 476.175 115.839C475.975 114.939 475.975 114.039 475.375 113.239C474.475 111.939 473.375 111.439 471.775 111.339C461.275 110.439 450.775 110.439 440.475 112.839C439.575 113.039 438.775 113.239 438.175 114.239C437.675 115.039 434.975 114.639 434.375 113.739C433.975 113.039 433.375 112.739 432.775 112.339C428.775 110.039 425.375 107.039 422.675 103.239C421.475 101.539 420.575 99.7386 420.175 97.7386C419.475 94.1386 420.875 91.7386 424.375 90.5386C428.775 89.0386 433.275 89.4386 437.775 90.3386C442.775 91.2386 447.675 92.5386 452.475 94.1386C453.675 94.5386 454.475 94.3386 455.375 93.4386C456.775 91.8386 458.275 90.4386 459.875 89.1386C467.975 82.9386 482.775 82.9386 490.575 94.4386C496.375 103.139 499.775 112.439 499.275 122.939Z" fill="white"/>
<path d="M497.075 131.639C498.075 130.839 498.375 129.939 498.375 128.639C498.375 124.739 498.875 120.839 498.375 116.939C497.875 112.839 497.075 108.839 495.375 105.039C493.175 99.8385 490.375 94.9385 486.275 91.0385C482.775 87.6385 478.575 86.1385 473.775 85.9385C466.275 85.5385 460.375 88.5385 455.575 94.1385C455.175 94.6385 455.075 95.1385 454.775 95.6385" stroke="#1F2E3A" stroke-width="2" stroke-miterlimit="10" stroke-linecap="round" stroke-linejoin="round"/>
<path d="M493.775 132.139C494.675 133.239 494.675 133.239 496.975 132.239C496.375 130.539 495.275 129.039 494.375 127.539C490.975 122.039 486.375 117.439 481.575 113.239C479.075 111.039 476.875 108.639 474.075 106.839C471.375 105.039 468.675 103.139 465.775 101.439C459.075 97.4386 451.975 94.6387 444.475 92.8387C440.875 91.9387 437.275 91.0387 433.575 90.7387C430.375 90.4387 427.275 90.4386 424.175 91.5386C420.375 92.8386 419.875 96.1386 421.275 99.4386C423.375 104.539 427.275 108.039 431.775 111.039C432.975 111.839 434.275 112.339 435.275 113.339C435.775 113.739 436.575 113.739 437.075 113.439C440.475 111.439 444.275 111.139 447.975 110.739C452.275 110.239 456.675 110.039 460.975 110.039C465.075 110.039 469.175 110.339 473.175 110.839C475.675 111.139 476.075 112.239 476.275 113.939C476.375 114.639 476.475 115.239 476.575 115.939C476.675 116.539 476.775 117.239 477.675 117.239C478.675 117.339 478.975 117.939 478.975 118.839C478.975 119.539 479.175 120.239 479.275 120.939C479.375 121.639 479.675 122.339 480.575 122.139C481.975 121.939 482.275 122.839 482.575 123.939C482.875 125.139 483.275 126.339 483.575 127.539C483.975 128.939 484.575 129.939 486.175 129.739C486.775 129.639 486.975 130.139 487.175 130.539C487.475 131.139 487.875 131.639 488.175 132.239C488.475 132.839 488.875 133.139 489.475 133.039C490.775 132.939 492.075 132.739 493.475 132.539" stroke="#1F2E3A" stroke-width="2" stroke-miterlimit="10" stroke-linecap="round" stroke-linejoin="round"/>
<path d="M453.515 210.13C453.315 214.33 452.015 218.13 450.215 221.83C449.315 223.63 448.615 223.53 447.115 222.13C442.415 217.63 437.715 213.03 432.915 208.73C424.915 201.53 417.915 193.53 411.915 184.63C404.115 173.03 396.115 161.63 390.115 148.93C387.915 144.23 385.715 139.63 382.515 135.43C380.215 132.43 377.615 129.63 375.515 126.53C373.115 123.03 371.915 119.23 371.015 115.13C370.915 114.83 371.015 114.53 370.915 114.33C368.415 108.83 371.515 104.83 374.515 100.83C375.415 99.6296 376.515 98.6296 377.715 97.6296C378.415 97.0296 378.615 96.5296 378.415 95.6296C377.715 92.5296 377.415 89.3296 377.615 86.2296C377.715 84.5296 378.015 82.7296 379.915 82.1296C381.915 81.5296 383.015 83.1296 384.115 84.5296C385.115 85.8296 385.615 87.3296 386.115 88.9296C388.315 97.3296 390.515 105.73 392.715 114.13C392.915 114.73 392.915 115.33 393.315 115.83C396.315 119.63 398.715 123.83 401.515 127.83C404.315 131.83 406.315 136.33 409.015 140.43C417.315 153.13 426.115 165.53 436.115 177.03C439.215 180.53 442.315 184.13 445.815 187.33C446.015 187.53 446.315 187.83 446.415 188.13C448.915 193.43 451.315 198.83 452.815 204.63C453.215 206.33 453.415 208.23 453.515 210.13Z" fill="white"/>
<path d="M521.215 298.23C521.215 302.23 521.515 306.23 520.115 310.13C519.615 311.43 519.215 312.73 517.615 312.93C516.815 313.03 516.815 313.73 516.615 314.33C515.815 316.93 514.915 317.33 512.715 315.73C512.215 315.43 511.815 315.33 511.315 315.63C509.915 316.43 509.015 315.83 508.415 314.43C508.115 313.83 508.015 313.43 507.115 313.53C505.315 313.83 504.615 313.13 504.415 311.23C504.315 309.13 504.415 307.03 504.715 304.93C504.815 303.83 504.915 302.73 503.115 302.73C502.115 302.73 501.815 301.63 501.715 300.73C501.615 299.13 501.815 297.63 502.015 296.03C502.815 289.13 501.915 282.33 501.215 275.53C500.015 263.73 497.815 252.23 494.915 240.73C493.815 236.53 492.015 232.53 490.415 228.53C486.615 218.33 486.415 207.83 488.215 197.33C489.115 192.13 491.315 187.33 493.815 182.73C494.515 181.43 495.915 181.63 496.615 183.03C497.115 184.03 497.515 185.13 498.015 186.23C502.515 196.73 505.715 207.73 508.615 218.73C513.515 236.73 517.115 255.03 519.615 273.53C520.915 281.83 521.315 290.03 521.215 298.23Z" fill="white"/>
<path d="M494.715 183.43C495.115 183.43 495.315 183.53 495.615 183.93C497.515 187.83 499.415 191.73 500.815 195.83C504.515 206.63 507.715 217.63 510.415 228.73C512.215 235.93 513.615 243.13 514.815 250.43C515.615 254.93 516.715 259.43 517.415 263.93C517.915 267.53 518.415 271.13 518.815 274.73C519.715 282.53 520.315 290.33 520.015 298.13C519.915 300.93 520.815 303.83 519.915 306.63C519.415 308.23 519.415 310.03 518.115 311.33C516.615 311.03 516.915 309.93 517.115 308.93" stroke="#1F2E3A" stroke-width="2" stroke-miterlimit="10" stroke-linecap="round" stroke-linejoin="round"/>
<path d="M373.115 117.229C372.815 117.929 372.915 118.629 373.115 119.429C374.215 123.229 376.515 126.429 379.015 129.429C382.015 132.929 384.715 136.529 387.115 140.329C388.615 142.729 389.515 145.429 390.815 148.029C394.415 155.529 398.715 162.729 403.315 169.729C407.815 176.529 412.115 183.429 417.015 189.929C421.915 196.429 427.415 202.429 433.515 207.829C436.715 210.729 439.715 213.829 442.915 216.829C444.415 218.329 445.915 219.829 447.615 221.129C448.315 221.629 448.415 222.229 448.715 222.829" stroke="#1F2E3A" stroke-width="2" stroke-miterlimit="10" stroke-linecap="round" stroke-linejoin="round"/>
<path d="M381.015 111.13C383.015 110.73 383.815 109.43 383.115 107.13C382.215 104.13 381.315 101.23 380.015 98.4297C379.515 97.4297 379.515 96.1297 379.315 94.9297C378.915 92.1297 378.115 89.3297 378.615 86.4297C378.715 85.8297 378.815 85.3297 378.915 84.7297C379.515 82.7297 380.515 82.4297 382.115 83.9297C383.815 85.5297 384.415 87.6297 385.115 89.7297C386.815 94.9297 387.615 100.43 389.115 105.63C390.015 108.73 391.015 111.83 391.615 115.03C391.715 115.33 391.715 115.73 391.915 116.03C397.115 123.03 401.715 130.43 406.115 137.93C410.115 144.93 414.915 151.33 419.515 157.93C424.015 164.43 429.015 170.63 434.215 176.63C437.215 180.03 440.215 183.53 443.515 186.63C444.215 187.23 444.815 187.93 444.815 188.93" stroke="#1F2E3A" stroke-width="2" stroke-miterlimit="10" stroke-linecap="round" stroke-linejoin="round"/>
<path d="M491.815 227.83C491.615 229.43 492.415 230.73 493.015 232.03C495.615 237.53 496.715 243.43 498.215 249.23C499.515 254.63 500.415 260.03 501.315 265.43C502.015 269.63 502.215 273.93 502.715 278.13C503.015 281.03 503.215 283.93 503.515 286.83C503.915 290.53 503.215 294.23 503.015 297.83C502.915 299.13 502.315 300.63 503.615 301.83" stroke="#1F2E3A" stroke-width="2" stroke-miterlimit="10" stroke-linecap="round" stroke-linejoin="round"/>
<path d="M378.615 105.229C378.715 106.729 379.215 108.129 380.015 109.429C380.815 110.829 380.815 112.229 380.915 113.829C381.015 115.529 381.615 117.329 382.915 118.629C384.415 120.129 385.015 122.029 385.915 123.829C387.615 127.629 388.815 128.329 392.815 128.029C393.415 127.929 394.015 127.929 394.615 128.229" stroke="#1F2E3A" stroke-width="2" stroke-miterlimit="10" stroke-linecap="round" stroke-linejoin="round"/>
<path d="M379.515 97.7295C375.115 100.629 372.215 104.629 371.015 109.729C370.815 110.629 370.915 111.529 371.315 112.429C371.815 113.329 372.115 114.329 372.315 115.429C372.715 117.229 374.315 117.929 375.815 118.529C376.715 118.929 376.915 118.029 377.015 117.229C377.015 114.429 377.215 111.629 375.615 109.029C375.415 108.729 375.515 108.429 375.415 108.229" stroke="#1F2E3A" stroke-width="2" stroke-miterlimit="10" stroke-linecap="round" stroke-linejoin="round"/>
<path d="M506.414 298.33C505.714 302.43 505.714 306.53 505.714 310.73C505.714 311.53 505.314 312.53 506.514 312.73C507.514 312.83 508.114 312.13 508.714 311.33C509.414 310.33 508.914 309.13 509.314 308.13" stroke="#1F2E3A" stroke-width="2" stroke-miterlimit="10" stroke-linecap="round" stroke-linejoin="round"/>
<path d="M516.915 311.03C516.315 311.63 516.015 312.23 515.915 313.03C515.715 313.93 515.415 314.83 514.715 315.53" stroke="#1F2E3A" stroke-width="2" stroke-miterlimit="10" stroke-linecap="round" stroke-linejoin="round"/>
<path d="M381.314 113.13C382.014 113.03 382.514 113.23 383.014 113.83C383.614 114.43 384.214 115.03 384.814 115.63" stroke="#1F2E3A" stroke-width="2" stroke-miterlimit="10" stroke-linecap="round" stroke-linejoin="round"/>
<path d="M512.915 309.83C512.815 310.53 512.815 311.13 512.715 311.83C512.415 313.63 512.815 314.23 514.515 315.33C514.615 315.43 514.615 315.73 514.715 316.03" stroke="#1F2E3A" stroke-width="2" stroke-miterlimit="10" stroke-linecap="round" stroke-linejoin="round"/>
<path d="M508.715 311.83C509.215 312.23 509.215 312.93 509.315 313.53C509.415 314.23 509.815 314.63 510.315 314.83" stroke="#1F2E3A" stroke-width="2" stroke-miterlimit="10" stroke-linecap="round" stroke-linejoin="round"/>
<path d="M920.527 192.246C921.438 195.251 922.713 198.165 923.897 201.079C926.356 207.363 928.814 213.737 931.182 220.112C933.186 225.485 935.189 230.858 937.284 236.231C942.019 248.16 946.572 260.181 951.217 272.111C955.861 283.949 960.323 295.788 964.877 307.718C969.43 319.556 973.983 331.486 978.536 343.325C981.906 352.158 985.275 360.991 988.645 369.734C993.016 380.935 997.296 392.136 1001.67 403.337C1005.58 413.537 1009.59 423.645 1013.32 433.844C1013.51 434.391 1013.78 434.937 1013.78 435.483" stroke="#1F2E3A" stroke-width="2" stroke-miterlimit="10" stroke-linecap="round" stroke-linejoin="round"/>
<path d="M921.984 189.423C924.99 193.157 927.904 196.981 930.909 200.715C935.735 206.634 940.198 212.827 945.115 218.746C947.301 221.387 949.486 224.119 951.49 226.942C959.686 237.87 968.246 248.525 976.624 259.271C983.818 268.468 990.921 277.575 998.025 286.773C1005.31 296.152 1012.6 305.623 1019.97 315.094C1029.26 327.024 1038.64 338.771 1047.93 350.701C1054.12 358.715 1060.31 366.729 1066.51 374.742C1074.16 384.578 1081.9 394.413 1089.64 404.248C1091.46 406.616 1093.28 408.892 1095.1 411.26C1100.57 418.272 1106.03 425.375 1111.49 432.387C1112.4 433.571 1113.59 434.482 1113.95 436.03" stroke="#1F2E3A" stroke-width="2" stroke-miterlimit="10" stroke-linecap="round" stroke-linejoin="round"/>
<path d="M1144.82 259.726C1145.55 259.361 1146.37 259.453 1147.1 259.453C1152.11 259.361 1156.75 257.995 1161.22 255.901C1171.78 250.892 1179.16 242.878 1183.44 232.042C1184.62 228.945 1185.35 225.758 1185.8 222.48C1186.17 219.474 1186.26 216.469 1185.99 213.464C1185.35 206.907 1183.25 200.806 1179.34 195.342C1175.06 189.332 1169.59 184.96 1162.58 182.411C1159.76 181.409 1157.03 180.68 1154.02 180.316C1142.18 178.859 1131.89 182.502 1122.88 189.969C1116.23 195.524 1111.86 202.627 1109.4 210.914C1108.67 213.464 1108.31 216.105 1108.03 218.837C1107.67 221.66 1107.85 224.483 1108.21 227.215C1108.94 233.499 1111.22 239.327 1114.86 244.518C1119.05 250.346 1124.52 254.626 1131.25 257.176C1134.9 258.542 1138.54 259.544 1142.46 259.453C1143.18 259.453 1143.91 259.635 1144.55 259.726" stroke="#1F2E3A" stroke-width="2" stroke-miterlimit="10" stroke-linecap="round" stroke-linejoin="round"/>
<path d="M919.343 188.603C917.886 189.332 917.613 190.88 916.884 192.064C912.786 199.076 908.688 205.997 904.773 213.1C900.857 220.112 896.85 227.124 892.934 234.045C890.84 237.779 888.836 241.604 886.65 245.246C883.008 251.348 879.547 257.631 875.996 263.824C869.621 274.934 863.338 286.044 856.963 297.154C851.226 307.262 845.671 317.371 839.934 327.388C834.287 337.405 828.459 347.332 822.722 357.349C819.079 363.632 815.528 369.916 811.976 376.199C809.244 381.117 806.512 386.035 803.78 390.952C801.048 395.779 798.316 400.514 795.584 405.25C789.21 416.36 782.926 427.47 776.552 438.58C775.55 440.401 774.548 442.222 773.455 444.044C773.182 444.408 773 444.772 773 445.228" stroke="#1F2E3A" stroke-width="2" stroke-miterlimit="10" stroke-linecap="round" stroke-linejoin="round"/>
<path d="M842.21 225.485C841.026 226.487 839.569 226.123 838.294 226.214C831.1 226.487 823.997 227.489 816.985 229.037C808.334 230.949 799.773 233.499 791.395 236.595C789.756 237.233 788.208 237.961 786.933 239.327C785.658 240.784 785.931 242.332 786.751 243.698C787.935 245.611 789.938 246.157 791.942 246.612C793.945 247.068 795.949 247.159 797.77 248.343C798.681 248.889 800.047 248.98 801.23 248.98C805.146 249.162 808.971 249.344 812.978 249.071C817.167 248.798 821.356 248.525 825.545 248.343C830.554 248.07 835.471 247.978 840.48 247.523C842.939 247.25 845.489 247.341 847.947 247.25C851.681 247.159 855.415 246.795 859.24 246.795C860.879 246.795 862.609 246.521 864.248 246.248C867.344 245.702 870.532 245.52 873.719 245.793C877.088 246.157 880.367 245.884 883.736 245.975C884.283 245.975 884.829 246.066 885.375 246.157" stroke="#1F2E3A" stroke-width="2" stroke-miterlimit="10" stroke-linecap="round" stroke-linejoin="round"/>
<path d="M1072.61 378.385C1072.88 376.837 1074.16 376.017 1075.07 374.924C1086.36 361.082 1097.74 347.331 1109.12 333.489C1114.86 326.477 1120.69 319.465 1126.43 312.453C1126.79 311.998 1127.25 311.724 1127.7 311.36C1131.25 315.549 1134.08 320.285 1137.08 324.929C1144.64 336.403 1152.2 347.878 1159.76 359.261C1169.05 373.376 1178.43 387.4 1187.71 401.516C1194.45 411.715 1201.19 422.005 1207.93 432.205C1208.2 432.569 1208.66 432.933 1208.57 433.571" stroke="#1F2E3A" stroke-width="2" stroke-miterlimit="10" stroke-linecap="round" stroke-linejoin="round"/>
<path d="M1128.61 313.09C1127.34 314.638 1127.16 316.642 1126.52 318.463C1125.24 322.288 1124.06 326.204 1122.88 330.029C1120.05 338.771 1117.32 347.422 1114.5 356.165C1111.31 366.273 1108.12 376.472 1104.94 386.581C1102.48 394.412 1100.02 402.335 1097.47 410.167C1097.29 410.804 1097.2 411.533 1096.56 411.988" stroke="#1F2E3A" stroke-width="2" stroke-miterlimit="10" stroke-linecap="round" stroke-linejoin="round"/>
<path d="M875.54 212.918C877.544 212.644 878.546 211.096 879.274 209.548C879.73 208.546 879.001 207.727 878.09 207.089C875.814 205.45 873.082 204.995 870.441 204.904C861.243 204.357 852.501 206.27 844.123 210.186C841.846 211.278 839.66 212.553 838.021 214.466C835.562 217.471 835.562 220.385 838.477 222.753C840.662 224.574 843.03 226.486 846.217 226.395" stroke="#1F2E3A" stroke-width="2" stroke-miterlimit="10" stroke-linecap="round" stroke-linejoin="round"/>
<path d="M1075.07 399.967C1070.51 400.787 1065.87 401.06 1061.22 401.333C1050.21 401.971 1039.1 401.971 1028.08 401.88C1026.16 401.88 1024.25 401.515 1022.34 401.88" stroke="#1F2E3A" stroke-width="2" stroke-miterlimit="10" stroke-linecap="round" stroke-linejoin="round"/>
<path d="M1200.83 212.462C1202.19 213.919 1202.01 215.741 1201.74 217.471C1201.37 220.021 1200.65 222.571 1200.1 225.121C1199.83 226.304 1200.01 227.579 1199.83 228.763C1199.64 230.494 1199.01 231.951 1197.91 232.952C1195.27 235.502 1193.82 238.689 1192.81 242.15C1191.36 247.068 1187.99 250.346 1183.71 252.714C1182.8 253.26 1181.8 253.624 1180.98 254.262C1179.34 255.537 1178.43 257.267 1178.7 259.453" stroke="#1F2E3A" stroke-width="2" stroke-miterlimit="10" stroke-linecap="round" stroke-linejoin="round"/>
<path d="M1114.77 263.824C1116.05 263.368 1117.23 263.551 1118.6 264.643C1119.32 265.19 1120.05 265.736 1120.6 266.556C1121.05 267.193 1121.6 267.74 1122.06 268.377C1124.7 271.564 1125.33 271.564 1128.52 270.289C1131.71 269.015 1134.71 269.197 1137.63 270.563C1141 272.02 1144.37 273.113 1148.1 272.384C1150.74 271.929 1153.38 271.747 1156.02 272.02C1157.94 272.202 1159.76 272.384 1161.67 272.02C1162.4 271.929 1163.04 271.747 1163.67 271.382" stroke="#1F2E3A" stroke-width="2" stroke-miterlimit="10" stroke-linecap="round" stroke-linejoin="round"/>
<path d="M944.569 396.598C937.466 397.327 930.271 397.145 923.168 397.509C917.158 397.782 911.147 398.511 905.046 398.966C903.134 399.148 901.312 399.148 899.4 399.421C899.127 399.421 898.854 399.421 898.671 399.694" stroke="#1F2E3A" stroke-width="2" stroke-miterlimit="10" stroke-linecap="round" stroke-linejoin="round"/>
<path d="M879.547 363.906C874.447 364.179 869.439 364.634 864.339 364.725C856.052 364.907 847.765 365.18 839.569 366.364C839.205 366.455 838.75 366.546 838.385 366.546" stroke="#1F2E3A" stroke-width="2" stroke-miterlimit="10" stroke-linecap="round" stroke-linejoin="round"/>
<path d="M1110.04 185.689C1107.03 189.514 1103.66 192.883 1100.47 196.435C1099.38 197.619 1099.2 198.711 1100.02 200.077C1102.2 203.902 1101.29 207.727 1099.75 211.461C1099.02 213.009 1098.2 214.557 1097.29 216.014C1096.47 217.38 1096.28 218.655 1097.01 220.112C1098.29 222.662 1098.11 225.394 1098.11 228.126C1098.11 230.949 1099.02 233.681 1099.29 236.504C1099.38 237.323 1100.02 237.961 1100.66 238.598" stroke="#1F2E3A" stroke-width="2" stroke-miterlimit="10" stroke-linecap="round" stroke-linejoin="round"/>
<path d="M951.854 226.76C952.491 226.031 953.402 225.758 954.312 225.576C956.771 224.848 959.321 224.119 961.325 222.389C962.964 221.023 963.055 219.475 960.687 218.291C958.866 217.289 956.953 217.289 955.041 217.289C952.4 217.289 949.759 217.38 947.118 217.835C946.481 217.927 945.843 217.927 945.479 218.564" stroke="#1F2E3A" stroke-width="2" stroke-miterlimit="10" stroke-linecap="round" stroke-linejoin="round"/>
<path d="M1030.35 360.718C1022.52 361.629 1014.69 362.266 1006.95 363.45C1005.49 363.632 1004.13 364.088 1002.67 364.361" stroke="#1F2E3A" stroke-width="2" stroke-miterlimit="10" stroke-linecap="round" stroke-linejoin="round"/>
<path d="M903.225 294.604C895.211 294.331 887.288 295.424 879.365 296.425C878.819 296.516 878.09 296.516 877.726 296.972" stroke="#1F2E3A" stroke-width="2" stroke-miterlimit="10" stroke-linecap="round" stroke-linejoin="round"/>
<path d="M877.544 212.281C877.908 212.645 878.364 212.736 878.91 212.736C881.369 212.736 883.919 212.918 886.377 212.827C891.113 212.827 895.757 213.647 900.402 214.375C900.675 214.375 900.948 214.375 901.13 214.375" stroke="#1F2E3A" stroke-width="2" stroke-miterlimit="10" stroke-linecap="round" stroke-linejoin="round"/>
<path d="M1165.22 411.351C1163.13 410.713 1160.94 410.895 1158.85 410.804C1153.2 410.531 1147.56 410.258 1142 409.985" stroke="#1F2E3A" stroke-width="2" stroke-miterlimit="10" stroke-linecap="round" stroke-linejoin="round"/>
<path d="M935.189 332.123C932.275 331.577 929.451 331.759 926.537 331.85C922.804 331.941 919.07 332.306 915.245 332.579C914.517 332.67 913.788 332.67 913.242 333.307" stroke="#1F2E3A" stroke-width="2" stroke-miterlimit="10" stroke-linecap="round" stroke-linejoin="round"/>
<path d="M933.003 263.095C927.539 263.095 922.075 263.733 916.611 264.006C916.065 264.006 915.427 264.006 915.063 264.643" stroke="#1F2E3A" stroke-width="2" stroke-miterlimit="10" stroke-linecap="round" stroke-linejoin="round"/>
<path d="M1231.7 437.032C1231.34 434.208 1230.24 431.75 1228.97 429.291C1227.42 426.286 1225.87 423.463 1223.78 420.731C1223.32 420.093 1222.87 419.456 1221.96 419.547" stroke="#1F2E3A" stroke-width="2" stroke-miterlimit="10" stroke-linecap="round" stroke-linejoin="round"/>
<path d="M1221.59 419.456C1219.95 420.184 1219.41 421.915 1218.59 423.281C1216.49 426.65 1214.31 429.928 1212.76 433.571C1212.58 434.117 1212.39 434.573 1212.3 435.119" stroke="#1F2E3A" stroke-width="2" stroke-miterlimit="10" stroke-linecap="round" stroke-linejoin="round"/>
<path d="M1221.77 415.448C1221.86 417.816 1221.77 420.093 1221.96 422.461C1222.23 426.923 1222.32 431.385 1222.87 435.847" stroke="#1F2E3A" stroke-width="2" stroke-miterlimit="10" stroke-linecap="round" stroke-linejoin="round"/>
<path d="M1144.73 358.168C1139.63 358.532 1134.62 358.897 1129.52 359.261" stroke="#1F2E3A" stroke-width="2" stroke-miterlimit="10" stroke-linecap="round" stroke-linejoin="round"/>
<path d="M836.655 410.44C833.923 410.804 831.191 411.351 828.459 411.624C826.911 411.806 825.454 411.897 823.906 412.079" stroke="#1F2E3A" stroke-width="2" stroke-miterlimit="10" stroke-linecap="round" stroke-linejoin="round"/>
<path d="M1127.52 390.679C1124.61 390.861 1121.6 390.952 1118.69 391.134C1117.87 391.134 1116.96 391.134 1116.14 391.134" stroke="#1F2E3A" stroke-width="2" stroke-miterlimit="10" stroke-linecap="round" stroke-linejoin="round"/>
<path d="M1163.13 381.39C1162.4 380.571 1161.31 380.844 1160.39 380.844C1157.48 380.753 1154.66 380.662 1151.74 380.935" stroke="#1F2E3A" stroke-width="2" stroke-miterlimit="10" stroke-linecap="round" stroke-linejoin="round"/>
<path d="M1091 385.852C1089.45 385.306 1087.91 385.397 1086.27 385.397" stroke="#1F2E3A" stroke-width="2" stroke-miterlimit="10" stroke-linecap="round" stroke-linejoin="round"/>
</g>
<defs>
<clipPath id="clip0_1296_4897">
<rect width="1232" height="428" fill="white"/>
</clipPath>
</defs>
</svg>
