<svg width="564" height="428" viewBox="0 0 564 428" fill="none" xmlns="http://www.w3.org/2000/svg">
<rect x="1" y="1" width="562" height="426" rx="7" fill="white" stroke="#1F2E3A" stroke-width="2"/>
<mask id="mask0_1325_4199" style="mask-type:alpha" maskUnits="userSpaceOnUse" x="0" y="0" width="564" height="428">
<rect x="1" y="1" width="562" height="426" fill="#F0FFF9" stroke="#1F2E3A" stroke-width="2"/>
</mask>
<g mask="url(#mask0_1325_4199)">
<path d="M529.459 420C526.44 419.8 523.422 419.301 520.305 418.902C518.942 418.702 517.481 418.602 516.118 418.602C513.586 418.602 511.054 418.203 508.522 418.203C498.588 417.904 488.655 417.704 478.722 417.504C460.901 417.005 443.079 417.604 425.258 417.205C415.032 417.005 404.904 417.205 394.679 416.805C386.596 416.506 378.513 416.805 370.43 416.506C364.392 416.306 358.257 416.406 352.219 416.206C347.642 416.007 342.967 416.007 338.39 415.907C327.775 415.608 317.258 415.408 306.643 415.208C301.092 415.108 295.541 415.108 290.088 414.909C274.311 414.509 258.535 414.509 242.759 414.709C236.136 414.809 229.417 414.709 222.795 415.009C218.218 415.208 213.543 415.108 208.966 415.308C198.351 415.707 187.834 415.807 177.219 416.007C171.765 416.107 166.409 416.306 160.955 416.306C135.927 416.306 110.997 416.206 85.969 416.306C77.8861 416.306 69.7057 416.706 61.6228 417.005C56.1692 417.205 50.8131 417.504 45.3595 417.804C37.6661 418.303 29.9727 418.303 22.2793 418.303C19.9421 418.303 17.6049 418.003 15.2676 418.303C15.0729 418.303 14.8781 418.403 14.5859 418.503" stroke="#1F2E3A" stroke-width="2" stroke-miterlimit="10" stroke-linecap="round" stroke-linejoin="round"/>
<path d="M532.868 317.075C532.673 318.573 531.407 318.273 530.628 318.373C523.129 318.772 515.533 319.471 508.035 319.072C501.899 318.673 495.667 318.673 489.532 318.173C487.194 317.974 484.76 318.074 482.422 317.874C478.43 317.574 474.437 317.774 470.347 317.475C463.335 316.975 456.226 317.075 449.214 316.576C446.39 316.376 443.469 316.476 440.547 316.277C434.314 315.877 427.984 315.877 421.654 315.578C408.799 314.979 395.847 315.079 382.993 314.879C377.149 314.779 371.404 314.879 365.561 314.58C351.537 313.981 337.611 314.08 323.588 314.38C296.417 314.879 269.247 314.28 242.077 314.679C233.117 314.779 224.158 315.079 215.296 315.378C207.505 315.578 199.812 315.578 192.021 315.678C181.601 315.778 171.083 316.177 160.663 316.376C151.704 316.576 142.744 316.576 133.785 316.576C125.41 316.576 117.132 316.476 108.757 316.576C102.232 316.676 95.61 316.876 89.0852 317.275C83.1447 317.574 77.3016 317.674 71.3612 317.974C62.4992 318.373 53.7345 318.673 44.8725 318.972C40.3928 319.072 35.9131 319.172 31.336 319.272C26.272 319.371 21.208 319.771 16.2414 319.871C14.6832 319.871 13.1251 319.671 11.5669 319.571" stroke="#1F2E3A" stroke-width="2" stroke-miterlimit="10" stroke-linecap="round" stroke-linejoin="round"/>
<path d="M535.01 141.374C534.718 139.677 533.354 138.579 532.575 137.181C528.193 130.093 524.103 122.706 519.915 115.518C517.578 111.525 514.754 107.731 512.806 103.538C511.735 101.143 510.664 98.7466 510.177 96.2509C509.982 95.2526 509.495 94.8533 508.521 94.7534C505.015 94.4539 501.607 94.3541 498.101 94.4539C490.116 94.7534 482.033 94.9531 474.047 95.1528C468.886 95.3524 463.627 95.4522 458.465 95.8516C452.525 96.2509 446.682 96.0512 440.741 96.1511C438.891 96.1511 437.041 95.7517 435.191 95.6519C434.022 95.5521 432.951 95.7517 431.782 95.7517C424.478 95.6519 417.174 95.9514 409.87 96.75C403.443 97.4488 397.016 97.8482 390.491 98.1477C385.719 98.4472 381.045 99.146 376.37 99.4454C371.598 99.7449 366.826 100.244 362.055 100.943C360.983 101.143 360.302 101.542 359.717 102.44C352.316 114.819 344.915 127.098 337.416 139.477C334.787 143.77 332.255 148.063 329.625 152.355C329.431 152.655 329.236 152.855 329.138 153.154C327.97 155.55 327.97 155.55 325.73 154.851" stroke="#1F2E3A" stroke-width="2" stroke-miterlimit="10" stroke-linecap="round" stroke-linejoin="round"/>
<path d="M286.387 277.144C286.776 276.644 286.874 276.045 286.679 275.446C286.094 273.749 286.581 271.853 286.094 270.056C285.802 268.957 285.413 268.358 284.244 268.358C280.251 268.458 276.356 268.259 272.363 268.059C270.026 267.859 268.857 266.761 269.15 264.365C269.831 259.474 269.15 254.582 268.857 249.69C268.468 243.9 268.468 238.01 269.052 232.22C269.636 226.33 270.221 220.34 270.805 214.35C271.487 206.963 271.682 199.575 272.363 192.188C272.948 185.499 273.337 178.811 273.727 172.222C274.019 166.232 274.311 160.342 274.603 154.352C274.603 153.853 274.7 153.354 274.895 152.855C275.285 151.657 275.09 150.659 274.311 149.66C268.76 142.572 263.014 135.684 257.269 128.796C252.302 122.806 247.433 116.617 242.466 110.627C239.252 106.733 235.844 103.14 232.241 99.5457C228.248 95.5525 224.645 91.2598 220.847 87.0669C220.36 86.5678 219.873 86.0686 219.386 85.5695C218.12 83.9722 216.464 84.072 214.809 84.671C214.03 84.9705 213.348 84.9705 212.472 84.671C211.108 84.1718 209.647 84.671 208.284 84.7708C203.025 85.0703 197.766 85.3698 192.508 85.7691C185.983 86.2683 179.361 86.7674 172.836 87.2666C166.895 87.6659 161.052 87.8656 155.112 88.2649C149.269 88.764 143.426 88.9637 137.583 89.5627C132.811 90.0618 128.039 90.1617 123.267 90.6608C118.885 91.0601 114.502 91.6591 110.12 91.9586C107.199 92.1583 104.277 92.4578 101.355 92.6574C97.8496 92.9569 94.3438 93.1566 90.7406 93.456C87.6242 93.7555 84.4105 94.055 81.2942 94.2547C77.4962 94.5542 73.6982 94.7538 69.9002 95.0533C65.5179 95.4526 61.1356 95.852 56.7533 96.2513C52.4683 96.6506 48.1834 97.0499 43.8985 97.4493C39.8083 97.8486 35.6208 98.2479 31.5306 98.6472C27.1483 99.0465 22.8634 99.4459 18.481 99.8452C13.904 100.244 9.32687 100.644 4.84717 101.043" stroke="#1F2E3A" stroke-width="2" stroke-miterlimit="10" stroke-linecap="round" stroke-linejoin="round"/>
<path d="M233.214 266.062C234.188 264.165 234.188 261.969 234.285 259.873C234.48 256.778 234.578 253.583 234.285 250.588C233.896 246.495 233.993 242.302 233.409 238.209C233.409 238.01 233.409 237.91 233.409 237.71C233.312 231.621 233.214 225.531 233.019 219.342C232.825 214.25 232.825 209.259 232.63 204.167C232.435 200.873 232.435 197.579 232.435 194.284C232.435 190.59 231.559 190.091 228.345 189.692C222.697 188.993 216.951 188.594 211.303 188.694C206.531 188.793 201.759 188.993 196.987 189.592C194.65 189.892 192.313 189.792 189.975 190.291C187.443 190.79 187.054 191.788 186.956 193.785C186.664 198.677 185.69 203.568 185.106 208.46C184.619 212.353 184.327 216.247 184.132 220.14C183.743 227.927 183.645 235.714 183.84 243.5C183.937 249.79 184.424 255.979 185.106 262.169C185.203 262.668 185.106 263.167 185.106 263.666" stroke="#1F2E3A" stroke-width="2" stroke-miterlimit="10" stroke-linecap="round" stroke-linejoin="round"/>
<path d="M535.497 141.374C534.134 142.772 532.284 142.772 530.628 142.972C527.122 143.471 523.616 144.17 520.111 143.97C516.799 143.77 513.488 144.17 510.177 144.07C508.522 144.07 506.769 143.67 505.016 143.67C491.869 143.97 478.722 143.97 465.478 144.07C459.05 144.17 452.72 144.769 446.293 144.968C442.592 145.068 438.892 145.168 435.191 145.368C426.913 145.667 418.733 146.166 410.455 146.266C405.391 146.366 400.327 146.965 395.361 147.364C392.536 147.664 389.81 148.163 387.083 148.462C383.48 148.862 379.779 149.261 376.176 149.66C373.352 149.96 370.527 150.459 367.703 150.858C364.295 151.258 360.886 151.857 357.478 152.056C351.927 152.456 346.279 152.755 340.728 153.554C337.222 154.053 333.813 154.352 330.307 154.752C329.821 154.851 329.431 154.752 329.042 154.452" stroke="#1F2E3A" stroke-width="2" stroke-miterlimit="10" stroke-linecap="round" stroke-linejoin="round"/>
<path d="M300.897 290.82C297.099 290.92 293.301 291.12 289.503 291.22C285.023 291.419 280.543 291.519 275.966 291.719C268.955 292.018 261.943 292.417 255.028 292.717C252.107 292.817 249.185 292.817 246.264 293.016C241.784 293.316 237.304 293.116 232.727 293.416C226.105 293.915 219.386 293.815 212.763 294.314C209.842 294.514 206.92 294.414 203.999 294.614C199.617 294.913 195.234 294.714 190.852 295.013C184.23 295.512 177.51 295.512 170.888 295.912C166.895 296.111 162.902 296.211 158.812 296.311C151.508 296.511 144.302 297.01 136.998 297.309C132.518 297.509 128.136 297.609 123.656 297.609C122.585 297.609 121.709 297.808 121.027 298.607C120.151 299.705 118.69 299.705 117.619 299.905C114.794 300.304 112.165 301.702 109.341 302.001C106.322 302.301 104.958 303.898 104.861 306.993C104.861 307.592 104.861 308.59 104.082 309.189" stroke="#1F2E3A" stroke-width="2" stroke-miterlimit="10" stroke-linecap="round" stroke-linejoin="round"/>
<path d="M315.7 51.7269C316.284 51.7269 316.771 51.7269 317.355 52.0264C318.232 52.5255 319.206 52.7252 320.082 52.5255C322.127 52.0264 324.075 52.7252 325.925 53.1245C332.06 54.4223 338.098 56.0196 344.136 57.4172C348.811 58.4155 353.582 59.4138 358.257 60.0128C362.152 60.5119 366.145 60.8114 370.138 61.1109C375.104 61.5102 379.974 61.4104 384.94 61.3106C391.368 61.2107 397.698 60.8114 403.93 59.0145C405.489 58.6152 406.949 57.9163 408.118 56.8182C410.455 54.8216 411.137 52.0264 409.092 48.133C407.144 44.4393 403.736 42.4427 400.23 40.6457C393.413 37.1517 386.012 35.7541 378.708 34.2566C377.344 33.9571 376.176 33.7574 375.104 32.6593C373.741 31.1619 371.696 31.2617 369.943 30.9622C364.976 30.1636 359.912 30.2634 354.848 30.2634C352.803 30.2634 350.856 30.6627 348.811 30.8624C348.129 30.9622 347.447 31.062 346.863 30.6627" stroke="#1F2E3A" stroke-width="2" stroke-miterlimit="10" stroke-linecap="round" stroke-linejoin="round"/>
<path d="M327.191 155.35C326.412 156.748 326.606 158.345 326.606 159.843C326.412 163.936 326.606 168.029 326.412 172.222C326.022 179.31 326.022 186.497 325.535 193.585C325.34 196.181 325.243 198.776 325.146 201.372C324.561 215.548 324.269 229.824 324.464 244.099C324.561 251.287 324.853 258.475 325.34 265.563C325.827 272.751 326.412 279.938 327.093 287.026C327.775 294.514 328.359 302.101 329.625 309.588C329.723 310.287 329.431 311.085 329.917 311.784" stroke="#1F2E3A" stroke-width="2" stroke-miterlimit="10" stroke-linecap="round" stroke-linejoin="round"/>
<path d="M318.914 314.28C319.596 308.789 318.135 303.598 316.966 298.407C316.674 297.209 316.382 296.011 316.382 294.713C316.382 293.416 315.895 292.417 314.434 292.018C311.902 291.319 309.273 290.82 306.643 290.421C305.864 290.321 304.988 290.221 304.209 290.021C303.235 289.722 302.748 289.323 302.358 288.125C301.385 285.429 300.703 282.734 299.826 280.038C299.34 278.641 298.56 278.142 297.1 277.942C293.983 277.642 290.77 278.241 287.848 277.543C282.979 276.345 278.012 276.544 273.143 276.744C266.521 276.944 259.899 276.644 253.276 277.043C245.291 277.543 237.305 277.642 229.417 278.341C229.222 278.341 229.028 278.341 228.736 278.341C222.99 278.142 217.342 278.641 211.693 278.741C206.24 278.84 200.786 279.539 195.235 279.639C191.729 279.739 188.321 279.939 184.815 280.038C175.953 280.338 167.188 280.537 158.326 280.737C153.165 280.837 148.004 280.637 142.842 280.537C142.647 280.537 142.453 280.338 142.258 280.338" stroke="#1F2E3A" stroke-width="2" stroke-miterlimit="10" stroke-linecap="round" stroke-linejoin="round"/>
<path d="M151.606 150.559C151.314 151.857 151.119 153.154 151.119 154.552C151.119 160.542 151.314 166.432 151.119 172.422C150.827 180.408 150.924 188.394 150.632 196.381C150.535 198.877 150.535 201.272 150.535 203.668C150.437 208.76 150.34 213.751 150.437 218.843C150.632 227.927 150.827 237.012 151.216 245.996C151.411 250.688 151.411 255.48 151.509 260.172C151.509 261.071 151.022 261.67 150.827 262.468" stroke="#1F2E3A" stroke-width="2" stroke-miterlimit="10" stroke-linecap="round" stroke-linejoin="round"/>
<path d="M206.725 11.6948C202.051 7.80146 196.402 7.70163 190.754 7.40214C185.982 7.10265 181.21 7.40214 176.438 8.10095C171.374 8.89959 166.408 9.89789 161.441 11.3953C157.059 12.6931 152.774 14.0908 148.392 15.3886C147.71 15.5882 147.126 15.688 146.444 15.2887C144.691 14.2904 142.549 14.2904 140.601 14.0908C128.622 13.2921 116.936 14.8894 105.64 19.2819C102.231 20.5797 98.8227 22.0772 95.9012 24.4731C94.2457 25.8707 92.8823 27.3682 93.1744 29.8639C93.2718 31.3614 94.0509 32.4595 95.0247 33.5576C98.0437 36.9519 102.036 38.9485 106.029 40.7454C113.723 44.0398 121.903 45.3376 130.278 45.6371C134.758 45.8367 139.14 45.7369 143.62 45.2378C144.107 45.2378 144.496 45.7369 144.886 45.2378" stroke="#1F2E3A" stroke-width="2" stroke-miterlimit="10" stroke-linecap="round" stroke-linejoin="round"/>
<path d="M267.203 156.948C267.982 159.244 267.592 161.64 267.592 163.936C267.397 169.626 267.3 175.416 267.203 181.107C267.105 186.697 266.716 192.188 266.618 197.778C266.423 204.966 266.034 212.254 265.644 219.442C265.45 223.634 265.06 227.827 264.671 231.92C264.184 236.812 263.794 241.704 263.307 246.595C262.82 251.587 262.139 256.578 261.944 261.57C261.846 263.367 261.944 265.164 261.554 266.861" stroke="#1F2E3A" stroke-width="2" stroke-miterlimit="10" stroke-linecap="round" stroke-linejoin="round"/>
<path d="M368.482 280.238C368.677 277.642 368.969 275.147 368.969 272.551C368.969 269.257 368.677 265.962 368.482 262.668C368.288 258.076 367.898 253.484 367.995 248.791C368.093 245.996 367.995 243.201 368.288 240.406C368.677 236.912 367.022 236.213 364.587 236.213C362.25 236.213 359.912 236.812 357.575 237.012C354.556 237.311 351.635 237.411 348.616 237.012C347.252 236.812 346.96 237.411 346.863 238.409C346.668 240.805 346.571 243.201 346.571 245.597C346.571 255.979 346.571 266.262 346.571 276.644C346.571 279.04 346.473 281.536 346.376 283.932" stroke="#1F2E3A" stroke-width="2" stroke-miterlimit="10" stroke-linecap="round" stroke-linejoin="round"/>
<path d="M255.808 157.547C255.613 163.836 255.516 170.125 255.126 176.415C254.834 180.907 254.347 185.399 253.86 189.892C253.471 193.485 253.178 197.179 252.497 200.673C251.912 204.267 251.62 207.761 250.939 211.355C250.354 214.55 250.257 217.744 249.867 221.039C249.575 224.133 249.088 227.228 248.893 230.423C248.699 232.819 248.601 235.314 248.601 237.71C248.504 244 248.309 250.289 247.822 256.578C247.53 259.972 247.141 263.367 247.238 266.761" stroke="#1F2E3A" stroke-width="2" stroke-miterlimit="10" stroke-linecap="round" stroke-linejoin="round"/>
<path d="M171.57 154.352C171.765 162.738 171.96 171.024 172.252 179.31C172.447 185 172.836 190.69 173.226 196.281C173.713 202.47 174.102 208.76 174.492 214.949C174.881 220.939 175.271 226.829 175.466 232.819C175.66 236.612 175.855 240.506 176.147 244.299C176.537 250.988 177.121 257.776 177.121 264.465" stroke="#1F2E3A" stroke-width="2" stroke-miterlimit="10" stroke-linecap="round" stroke-linejoin="round"/>
<path d="M159.592 155.051C159.105 161.34 159.105 167.629 158.91 173.919C158.326 192.387 158.716 210.856 158.716 229.225C158.716 234.416 159.105 239.607 159.592 244.698C159.787 246.795 159.689 248.891 159.884 250.988C160.274 255.181 160.371 259.473 160.566 263.666" stroke="#1F2E3A" stroke-width="2" stroke-miterlimit="10" stroke-linecap="round" stroke-linejoin="round"/>
<path d="M479.891 18.0839C477.164 20.0805 473.853 20.5797 470.931 21.9773C466.841 23.9739 462.459 25.671 459.05 28.9654C458.271 29.6642 457.2 30.363 457.492 31.6608C457.784 33.0584 459.05 33.2581 460.219 33.6574C462.264 34.3562 464.309 34.4561 466.452 34.5559C468.691 34.7556 470.931 34.8554 473.074 34.9552C479.501 35.055 486.026 35.4544 492.453 35.9535C498.004 36.3528 503.653 36.9518 509.203 37.3511C512.028 37.5508 514.852 37.9501 517.676 37.9501C520.695 37.9501 523.616 37.451 526.635 37.0517C529.459 36.6523 532.284 36.5525 535.108 36.3528C535.789 36.253 536.471 36.253 537.25 36.1532" stroke="#1F2E3A" stroke-width="2" stroke-miterlimit="10" stroke-linecap="round" stroke-linejoin="round"/>
<path d="M90.4488 151.058C88.0142 153.553 85.1901 155.65 82.4633 157.646C81.0025 158.745 79.1522 157.946 77.4967 157.646C76.5228 157.547 75.549 157.247 74.5751 157.047C70.2902 156.149 67.3686 158.345 65.0314 161.54C59.0909 169.526 55.3903 178.511 54.3191 188.594C54.1243 190.391 54.3191 192.188 54.5139 193.885C54.6112 194.883 54.806 195.782 53.8322 196.58C53.1505 197.179 53.2478 198.177 53.3452 199.076C53.9295 204.467 55.5851 209.458 59.1883 213.551C61.7203 216.347 64.934 217.145 68.6346 216.646C70.9719 216.347 73.2117 215.548 75.6464 216.047C76.6202 216.247 77.4967 216.846 78.3731 217.245C79.5417 217.844 80.5156 218.543 81.9764 218.443C82.9502 218.343 83.6319 219.441 83.4371 220.539C83.145 222.536 83.2424 224.533 83.4371 226.529C83.7293 230.622 84.0214 234.615 84.3136 238.708C84.6057 243.301 85.0927 247.893 85.2874 252.585C85.3848 256.079 85.7744 259.573 85.9691 263.067C86.1639 265.862 86.4561 268.658 86.7482 271.453C87.1377 275.546 87.4299 279.639 87.9168 283.832C88.3064 287.126 88.3064 290.42 88.7933 293.715C89.0855 295.512 88.9881 297.309 89.0855 299.006C89.2802 302.999 89.5724 306.892 89.7671 310.886C89.7671 311.584 90.0593 312.283 90.1567 313.082" stroke="#1F2E3A" stroke-width="2" stroke-miterlimit="10" stroke-linecap="round" stroke-linejoin="round"/>
<path d="M346.083 31.1618C347.739 29.2651 347.836 27.6678 346.278 25.9707C344.038 23.5747 341.116 22.7761 338.098 21.9775C331.962 20.3802 325.73 19.6814 319.4 20.2803C314.336 20.6797 309.369 21.4783 304.597 23.3751C299.241 25.4715 294.08 28.0671 290.087 32.5594C288.626 34.2566 287.36 36.1533 287.263 38.5493C287.165 41.9435 288.918 44.4392 291.353 46.336C298.365 52.0263 306.447 54.1228 315.212 53.7234C316.186 53.7234 317.257 53.5238 317.842 52.5255" stroke="#1F2E3A" stroke-width="2" stroke-miterlimit="10" stroke-linecap="round" stroke-linejoin="round"/>
<path d="M537.153 -5.67555C534.134 -6.1747 531.212 -5.97504 528.193 -5.87521C522.156 -5.57572 516.02 -5.37606 509.982 -4.77708C500.926 -3.77878 491.966 -2.08167 483.202 0.214427C476.482 1.91154 470.055 4.20763 463.725 7.10271C461.972 7.90135 460.316 8.89965 459.05 10.3971C458.271 11.2956 458.368 11.9944 459.342 12.6932C460.998 13.8912 462.848 14.0908 464.698 14.4901C468.886 15.3886 473.171 16.0874 477.358 16.8861C478.235 17.0857 478.819 17.5849 479.501 18.084" stroke="#1F2E3A" stroke-width="2" stroke-miterlimit="10" stroke-linecap="round" stroke-linejoin="round"/>
<path d="M7.37988 156.449C13.0282 155.65 18.7739 154.851 24.4222 154.452C29.1941 154.053 33.9659 153.653 38.7378 153.254C42.9253 152.955 47.2103 152.555 51.3978 152.256C58.5069 151.856 65.7134 151.557 72.8225 151.357C77.6917 151.257 82.561 150.459 87.4302 150.658C91.6177 150.858 95.6105 149.361 99.7981 149.46C103.012 149.56 103.012 149.46 103.888 152.855C104.278 154.452 105.836 154.652 107.102 155.051C112.361 156.548 116.938 159.044 120.151 163.736C121.71 166.032 121.71 168.528 121.32 171.024C121.223 171.922 120.931 172.921 120.833 173.819C120.638 174.917 120.931 176.015 121.612 176.814C125.118 180.707 126.774 185.499 127.553 190.491C128.332 195.482 127.747 200.474 124.339 204.667C123.365 205.865 122.878 207.062 123.073 208.56C123.56 211.754 122.099 213.851 119.47 215.348C115.477 217.644 111.582 220.04 107.102 221.438C105.446 221.937 103.791 221.438 102.233 221.638C97.4608 222.436 92.5916 222.037 87.7223 221.538C86.2616 221.338 84.8982 220.739 83.5348 220.24" stroke="#1F2E3A" stroke-width="2" stroke-miterlimit="10" stroke-linecap="round" stroke-linejoin="round"/>
<path d="M101.064 222.237C101.161 224.034 101.356 225.93 101.356 227.727C101.356 235.913 101.453 244.099 101.356 252.186C101.259 258.275 101.161 264.465 101.259 270.554C101.356 276.045 101.161 281.536 101.453 287.026C101.746 294.014 102.038 301.003 102.72 307.991C102.817 308.59 102.72 309.288 103.693 309.388C104.375 309.488 104.278 310.187 104.375 310.686C104.472 311.585 104.375 312.483 104.375 313.381" stroke="#1F2E3A" stroke-width="2" stroke-miterlimit="10" stroke-linecap="round" stroke-linejoin="round"/>
<path d="M457.103 233.417C456.324 234.615 456.324 236.113 456.518 237.411C456.713 238.409 456.811 239.407 456.811 240.406C456.811 253.184 456.811 265.962 456.811 278.74C456.811 280.338 456.324 281.935 456.908 283.732C458.077 283.732 459.343 283.932 460.511 283.732C462.654 283.333 464.893 283.333 467.036 283.432C470.834 283.632 474.535 282.933 478.235 282.734C481.449 282.534 484.565 283.133 487.681 283.932C488.558 284.131 489.434 284.531 490.214 284.431C491.869 283.432 491.285 281.735 491.48 280.437C491.772 277.942 491.772 275.346 491.48 272.751C491.187 269.855 490.895 266.96 490.603 264.065C490.311 261.57 490.019 259.174 489.824 256.778C489.629 255.18 489.532 253.583 489.337 251.986C488.753 247.194 488.363 242.502 487.097 237.81C486.513 235.614 485.052 234.516 483.202 234.216C479.891 233.617 476.482 233.717 473.171 234.016C469.178 234.316 465.186 235.015 461.095 234.216C459.829 234.016 458.563 233.617 457.395 233.417" stroke="#1F2E3A" stroke-width="2" stroke-miterlimit="10" stroke-linecap="round" stroke-linejoin="round"/>
<path d="M401.204 233.417C401.106 235.015 400.912 236.512 400.912 238.109C400.814 245.896 400.814 253.683 400.522 261.47C400.327 267.06 400.425 272.751 400.035 278.341C399.938 280.138 399.743 281.935 400.035 283.732C401.399 284.031 402.665 283.932 403.931 283.832C408.021 283.432 412.208 283.133 416.298 282.534C420.875 281.835 425.55 281.935 430.127 281.536C430.906 281.436 431.783 281.336 432.562 281.136C433.536 280.937 433.633 280.138 433.73 279.24C433.828 276.943 433.536 274.647 433.341 272.451C433.146 270.255 433.146 267.959 432.854 265.762C432.367 261.27 432.464 256.778 432.075 252.285C431.783 248.592 431.783 244.798 431.101 241.104C430.614 238.609 429.64 237.61 427.011 236.912C425.453 236.512 423.894 236.612 422.336 236.412C419.512 236.113 416.688 235.414 413.864 234.915C409.774 234.116 405.683 234.016 401.496 234.416" stroke="#1F2E3A" stroke-width="2" stroke-miterlimit="10" stroke-linecap="round" stroke-linejoin="round"/>
<path d="M85.5794 266.761C83.0474 266.561 80.6128 267.56 78.0808 267.56C75.4514 267.659 72.9194 267.759 70.29 267.859C65.3233 268.159 60.4541 268.059 55.4875 267.959C47.2098 267.859 38.9321 267.659 30.6544 267.26C26.1747 267.061 21.7923 266.861 17.3126 267.06C13.1251 267.26 8.93755 267.36 4.75 267.36" stroke="#1F2E3A" stroke-width="2" stroke-miterlimit="10" stroke-linecap="round" stroke-linejoin="round"/>
<path d="M25.2012 313.082C23.9352 302.8 25.9802 293.216 30.0704 283.932C30.7521 282.334 31.4338 280.737 32.4076 279.24C35.9135 273.15 44.6781 271.253 50.6186 276.844C56.5591 282.334 60.844 289.023 63.4734 296.81C64.5446 300.104 64.642 303.399 63.376 306.593C61.9152 309.987 58.9937 311.285 55.8774 312.383C51.0081 314.08 45.9441 314.979 40.7827 314.679C38.056 314.48 35.3292 314.18 32.6998 313.681C30.9469 313.282 29.1939 313.581 27.441 313.382C26.3698 313.282 25.3959 313.382 24.3247 313.382" stroke="#1F2E3A" stroke-width="2" stroke-miterlimit="10" stroke-linecap="round" stroke-linejoin="round"/>
<path d="M400.912 167.729C399.549 168.129 399.646 169.327 399.646 170.425C399.549 172.621 399.646 174.917 399.646 177.113C399.256 188.294 398.867 199.475 398.964 210.656C398.964 211.455 398.964 212.353 398.77 213.152C398.575 214.15 398.672 214.45 399.938 214.35C403.054 214.15 406.268 214.25 409.385 214.649C412.501 215.049 415.422 214.15 418.539 213.951C420.292 213.851 422.045 213.152 423.895 213.651C425.648 214.15 427.79 212.054 427.595 210.357C426.914 203.968 427.401 197.678 427.595 191.389C427.888 183.802 427.985 176.215 428.569 168.728C428.667 167.53 428.082 166.831 426.816 166.731C424.284 166.531 421.752 166.731 419.22 166.931C415.617 167.23 411.917 167.43 408.313 167.729C405.879 167.929 403.541 168.029 401.204 167.729" stroke="#1F2E3A" stroke-width="2" stroke-miterlimit="10" stroke-linecap="round" stroke-linejoin="round"/>
<path d="M250.939 134.087C250.257 133.987 249.575 133.587 248.796 134.186C248.407 134.486 247.725 134.386 247.238 134.386C242.856 134.386 238.571 134.386 234.188 134.386C227.177 134.486 220.068 134.885 213.056 135.285C210.232 135.484 207.31 135.484 204.486 135.684C200.591 135.983 196.793 136.183 192.897 136.582C190.073 136.882 187.249 136.982 184.425 137.281C182.282 137.581 180.237 137.78 178.095 138.18C177.024 138.379 176.05 138.479 174.979 137.98" stroke="#1F2E3A" stroke-width="2" stroke-miterlimit="10" stroke-linecap="round" stroke-linejoin="round"/>
<path d="M484.954 210.556C484.76 207.661 484.468 204.766 484.468 201.871C484.468 194.783 484.175 187.595 483.494 180.508C483.007 175.616 482.715 170.724 483.786 165.832C482.812 164.036 481.059 164.635 479.696 164.734C475.021 164.934 470.249 165.333 465.575 165.333C462.946 165.333 460.219 165.533 457.589 165.633C457.102 165.633 456.616 165.633 456.129 165.533C454.765 165.134 454.083 165.733 454.083 167.33C454.083 170.125 454.181 173.02 454.278 175.816C454.376 178.012 454.57 180.308 454.57 182.504C454.765 190.491 455.057 198.477 455.252 206.463C455.252 208.36 455.057 210.357 454.96 212.254" stroke="#1F2E3A" stroke-width="2" stroke-miterlimit="10" stroke-linecap="round" stroke-linejoin="round"/>
<path d="M273.824 149.56C272.948 150.758 271.779 150.06 270.708 150.06C267.592 150.159 264.573 149.76 261.456 149.56C256.684 149.261 251.913 149.461 247.141 149.461C245.29 149.461 243.343 149.361 241.492 149.261C234.481 148.862 227.372 149.061 220.36 149.161C213.543 149.261 206.823 149.361 200.007 149.461C192.118 149.56 184.133 149.86 176.245 150.159C171.668 150.259 166.993 150.259 162.416 150.259C160.176 150.259 157.936 150.359 155.696 150.559C154.236 150.658 152.385 151.257 151.022 149.86" stroke="#1F2E3A" stroke-width="2" stroke-miterlimit="10" stroke-linecap="round" stroke-linejoin="round"/>
<path d="M206.726 191.889C206.239 194.185 206.628 196.481 206.823 198.677C207.018 202.77 206.531 206.763 206.726 210.856C206.823 212.154 206.434 213.452 206.434 214.65C206.336 220.939 206.239 227.328 206.336 233.618C206.434 240.506 206.823 247.294 207.407 254.083C207.602 255.78 207.505 257.577 207.407 259.274C207.31 261.171 207.602 263.067 207.7 264.964" stroke="#1F2E3A" stroke-width="2" stroke-miterlimit="10" stroke-linecap="round" stroke-linejoin="round"/>
<path d="M203.123 13.3922C205.947 13.2923 208.576 14.3905 211.206 15.0893C216.757 16.4869 222.015 18.6832 226.885 22.0774C227.664 22.6764 228.443 23.2753 229.125 23.9742C231.267 26.1704 230.098 28.167 227.858 29.4648C225.229 30.9623 222.405 31.8607 219.581 32.4597C214.614 33.5579 209.648 34.2567 204.681 34.8556C201.467 35.255 198.156 35.3548 195.04 36.4529C192.605 37.3514 192.118 38.6492 193.579 40.7456C194.066 41.4444 194.553 42.1432 195.04 42.9419C195.916 44.3395 195.722 44.8387 194.358 45.837C192.605 47.1348 190.56 47.4343 188.515 47.8336C183.354 48.732 178.095 48.6322 172.933 48.5324C168.941 48.4325 164.851 48.2329 160.858 47.8336C156.865 47.4343 152.775 46.9351 148.782 46.2363C147.711 46.0366 146.542 46.2363 145.568 45.5375C145.276 45.3378 144.984 45.3378 145.179 44.8387" stroke="#1F2E3A" stroke-width="2" stroke-miterlimit="10" stroke-linecap="round" stroke-linejoin="round"/>
<path d="M367.508 216.546C367.021 214.749 367.411 212.952 367.703 211.255C367.995 209.858 368.19 208.36 368.287 206.863C368.579 199.076 368.093 191.289 367.898 183.503C367.8 180.108 367.898 176.714 368.092 173.32C368.092 172.821 368.19 172.222 367.703 171.623C360.302 171.822 352.998 173.52 345.207 174.418C344.72 175.217 344.818 176.514 344.818 177.712C344.818 186.098 344.818 194.384 344.818 202.77C344.818 205.365 345.11 207.861 345.11 210.457C345.11 212.154 345.11 213.751 344.915 215.448C344.818 217.046 345.012 217.744 346.57 217.744C347.544 217.744 346.863 218.343 347.057 218.443" stroke="#1F2E3A" stroke-width="2" stroke-miterlimit="10" stroke-linecap="round" stroke-linejoin="round"/>
<path d="M243.635 172.921C239.642 172.222 235.747 172.821 231.754 172.921C228.443 173.02 225.23 174.118 221.821 174.118C221.139 174.118 220.36 174.118 219.679 173.819C216.66 172.421 213.543 172.721 210.427 173.32C208.285 173.719 206.142 173.42 204.097 172.921C201.468 172.322 198.838 172.122 196.111 172.421C192.606 172.721 189.1 172.521 185.691 171.523C183.062 170.724 180.627 171.523 178.29 172.721" stroke="#1F2E3A" stroke-width="2" stroke-miterlimit="10" stroke-linecap="round" stroke-linejoin="round"/>
<path d="M213.252 85.3695C213.252 86.4676 212.18 86.867 211.596 87.3661C207.895 90.2612 204.584 93.4558 201.273 96.7501C195.722 102.241 190.269 107.931 184.621 113.422C177.706 120.11 170.987 126.999 164.462 134.186C160.372 138.679 156.476 143.371 152.289 147.863C151.997 148.163 151.704 148.562 151.51 149.061C151.218 149.76 150.731 149.96 150.049 149.86C144.498 149.361 138.85 149.66 133.299 149.161C129.89 148.861 126.579 148.762 123.171 148.861C117.23 149.061 111.29 149.361 105.252 149.66C104.57 149.66 103.889 149.86 103.304 150.359" stroke="#1F2E3A" stroke-width="2" stroke-miterlimit="10" stroke-linecap="round" stroke-linejoin="round"/>
<path d="M143.133 263.267C141.478 265.363 141.478 267.959 141.381 270.455C141.283 273.949 140.504 277.143 139.725 280.438C139.53 281.137 139.141 281.336 138.459 281.436C136.219 281.935 133.882 281.636 131.642 281.835C129.013 282.135 126.481 282.235 123.851 282.335C122.975 282.335 122.196 282.734 122.293 283.632C122.293 288.224 122.098 292.817 122.39 297.509" stroke="#1F2E3A" stroke-width="2" stroke-miterlimit="10" stroke-linecap="round" stroke-linejoin="round"/>
<path d="M269.15 266.761C266.91 267.859 264.573 267.46 262.333 267.36C261.554 267.26 260.775 267.559 260.093 267.46C256.1 267.26 252.107 267.16 248.017 267.16C246.07 267.16 244.122 267.16 242.174 267.16C239.642 267.06 237.208 267.06 234.676 266.761C230.878 266.262 226.982 266.361 223.087 266.162C218.51 265.962 213.835 265.962 209.258 265.563C206.142 265.263 202.928 265.563 199.812 265.363C193.287 264.964 186.665 265.163 180.14 264.864C174.005 264.564 167.772 264.465 161.637 264.165C159.105 264.065 156.67 263.965 154.138 263.866C153.067 263.866 151.801 263.866 150.827 262.967C150.243 262.468 149.464 262.568 148.782 262.568C147.029 262.768 145.276 263.466 143.621 263.167C138.362 262.268 133.201 263.766 128.039 263.666C124.339 263.566 120.541 264.465 116.84 264.165C111.971 263.766 107.199 265.163 102.33 265.064" stroke="#1F2E3A" stroke-width="2" stroke-miterlimit="10" stroke-linecap="round" stroke-linejoin="round"/>
<path d="M211.887 101.043C213.835 102.441 215.783 104.038 217.73 105.336C220.749 107.332 223.086 110.028 225.813 112.324C232.338 117.715 237.986 124.104 244.511 129.495C245.68 130.493 246.848 131.291 248.114 132.19C248.699 132.589 249.283 132.989 249.38 133.687" stroke="#1F2E3A" stroke-width="2" stroke-miterlimit="10" stroke-linecap="round" stroke-linejoin="round"/>
<path d="M212.081 100.244C210.426 102.341 208.381 104.038 206.336 105.735C195.623 114.919 185.885 125.202 176.439 135.784C175.952 136.283 175.27 136.782 175.075 137.581C174.88 138.379 174.199 138.479 173.517 138.379" stroke="#1F2E3A" stroke-width="2" stroke-miterlimit="10" stroke-linecap="round" stroke-linejoin="round"/>
<path d="M486.026 211.056C485.052 210.357 484.078 211.155 483.104 211.255C481.449 211.355 479.696 211.455 478.04 211.455C473.95 211.255 469.86 211.954 465.867 212.653C464.114 212.952 462.361 213.052 460.706 212.653C458.855 212.154 456.908 212.254 454.96 211.854" stroke="#1F2E3A" stroke-width="2" stroke-miterlimit="10" stroke-linecap="round" stroke-linejoin="round"/>
<path d="M367.995 282.434C367.021 281.935 366.048 282.534 365.074 282.434C362.542 282.334 360.01 282.334 357.478 282.234C353.972 282.234 350.466 282.234 346.863 282.734" stroke="#1F2E3A" stroke-width="2" stroke-miterlimit="10" stroke-linecap="round" stroke-linejoin="round"/>
<path d="M369.455 216.347C368.287 217.046 366.923 217.146 365.755 217.046C362.541 216.746 359.425 217.445 356.308 217.545C353.582 217.645 350.855 217.645 348.225 217.745C347.544 217.745 347.154 217.545 347.252 216.746" stroke="#1F2E3A" stroke-width="2" stroke-miterlimit="10" stroke-linecap="round" stroke-linejoin="round"/>
<path d="M246.849 149.76C246.849 150.858 246.946 151.856 246.752 152.954C246.557 153.953 246.849 154.751 248.212 154.851C250.55 154.951 252.595 156.349 254.835 157.047C255.808 157.347 256.588 157.047 257.464 157.147C260.58 157.347 263.697 157.047 266.716 156.748C269.248 156.548 271.78 156.049 274.409 156.149" stroke="#1F2E3A" stroke-width="2" stroke-miterlimit="10" stroke-linecap="round" stroke-linejoin="round"/>
<path d="M174.492 156.049C174.492 155.55 174.394 155.351 173.81 155.351C170.986 155.351 168.162 155.65 165.338 155.949C162.027 156.349 158.715 156.049 155.404 156.049C155.21 154.252 155.21 152.555 155.404 150.858" stroke="#1F2E3A" stroke-width="2" stroke-miterlimit="10" stroke-linecap="round" stroke-linejoin="round"/>
<path d="M213.349 232.419C213.154 231.621 213.154 230.722 212.083 230.722C211.304 230.722 210.817 231.221 210.622 231.92C210.427 232.919 210.622 234.017 211.401 234.616C211.985 235.115 212.472 234.516 212.862 234.017C213.154 233.518 213.349 233.018 213.544 232.519" stroke="#1F2E3A" stroke-width="2" stroke-miterlimit="10" stroke-linecap="round" stroke-linejoin="round"/>
<path d="M175.173 150.559C175.173 151.657 175.173 152.755 175.173 153.853C175.173 154.552 175.076 155.151 174.492 155.55" stroke="#1F2E3A" stroke-width="2" stroke-miterlimit="10" stroke-linecap="round" stroke-linejoin="round"/>
<path d="M148.782 43.0415C147.711 43.6405 146.25 43.5407 145.374 44.539" stroke="#1F2E3A" stroke-width="2" stroke-miterlimit="10" stroke-linecap="round" stroke-linejoin="round"/>
</g>
<path d="M180.1 308.191C179.877 309.44 179.532 310.678 179.431 311.936C178.281 323.124 176.759 334.397 176.581 345.663C176.45 357.855 176.692 369.961 177.047 382.191C177.19 386.462 177.334 390.733 177.598 395.013C177.618 396.281 177.068 397.042 175.938 397.412C174.94 397.676 174.053 398.065 173.064 398.215C163.068 399.479 153.419 402.497 143.414 403.875C141.556 404.185 139.708 404.381 137.869 404.463C135.779 404.639 135.134 403.551 136.01 401.78C136.588 400.676 137.399 399.705 138.332 398.745C142.184 394.912 145.074 390.887 145.901 385.198C147.397 375.765 149.256 366.361 150.033 356.754C151.364 338.789 150.847 321.02 147.156 303.225C144.083 288.357 142.494 273.264 141.4 258.096C141.173 254.855 141.32 251.529 141.588 248.212C142.788 230.352 145.193 212.704 150.248 195.501C152.436 188.08 155.334 180.947 159.062 174.112C159.771 172.903 160.685 172.171 162.075 171.593C164.595 170.646 169.924 134.985 173.057 152.133C179.795 150.376 201.637 146.089 207.072 149.867C214.599 154.965 205.269 179.714 207.488 188.527C208.799 193.467 205.345 202.949 205.908 208.06C207.798 225.479 208.455 243.029 209.598 260.619C210.344 272.535 209.877 284.354 210.026 296.107C210.217 314.886 210.054 333.521 212.448 352.247C213.866 363.413 216.021 374.523 218.307 385.528C218.738 387.75 219.579 389.43 221.158 391.054C223.418 393.309 225.53 395.897 227.66 398.256C228.221 398.877 228.893 399.622 228.334 400.498C227.784 401.259 226.98 400.618 226.243 400.674C223.928 400.602 221.753 400.311 219.438 400.239C212.997 399.833 206.807 397.836 200.561 396.525C198.881 396.159 197.173 396.136 195.343 396.103C191.432 396.132 190.638 395.377 190.076 391.763C187.925 374.553 186.139 357.372 183.745 340.142C182.45 330.483 181.407 320.729 180.615 310.881C180.558 310.07 180.39 309.136 180.212 308.316C180.342 308.211 180.221 308.201 180.1 308.191Z" fill="white"/>
<path d="M161.134 172.668C159.38 174.713 158.449 177.17 157.405 179.503C152.279 190.024 149.3 201.18 147.041 212.508C145.785 218.968 144.651 225.437 143.994 232.061C143.67 236.063 142.982 240.037 142.649 244.154C141.937 252.96 142.336 261.625 143.332 270.454C144.328 279.283 145.324 288.112 146.806 296.981C147.649 301.653 148.735 306.346 149.448 311.123C150.555 318.58 151.289 326.121 151.528 333.738C151.863 344.7 150.994 355.451 149.994 366.305C149.447 371.556 148.527 376.892 147.373 382.094C146.638 385.142 145.894 388.305 145.644 391.393C145.543 392.651 145.095 393.651 144.05 394.487C141.429 396.693 139.265 399.281 137.223 401.878C136.822 402.306 136.412 402.848 136.842 403.574C137.272 404.299 138.028 404.015 138.644 403.95C146.278 403.186 153.735 401.602 161.089 399.779C164.953 398.825 168.892 398.453 172.737 397.728C176.573 397.118 176.591 396.889 176.514 393.314C176.275 385.697 176.157 378.09 175.918 370.474C175.555 359.854 175.557 349.264 176.053 338.599C176.485 330.231 177.403 321.902 178.442 313.583C178.832 310.276 178.736 306.93 180.087 303.816" stroke="#1F2E3A" stroke-width="2" stroke-miterlimit="10" stroke-linecap="round" stroke-linejoin="round"/>
<path d="M202.808 193.535C204.446 198.963 204.73 204.511 205.257 210.079C205.944 218.192 207.117 226.345 207.431 234.543C207.802 243.552 208.182 252.446 208.674 261.465C208.798 264.468 209.164 267.49 209.288 270.493C209.421 273.382 209.301 276.365 209.192 279.234C208.935 285.429 209.173 291.549 209.29 297.66C209.311 301.92 209.091 306.162 209.112 310.423C209.097 315.141 209.213 319.755 209.44 324.493C209.565 328.992 209.942 333.397 210.188 337.906C210.529 344.265 211.485 350.558 212.321 356.842C213.222 363.821 214.245 370.811 215.893 377.62C216.717 381.025 217.298 384.41 218.001 387.806" stroke="#1F2E3A" stroke-width="2" stroke-miterlimit="10" stroke-linecap="round" stroke-linejoin="round"/>
<path d="M180.228 305.094C182.059 306.623 181.64 308.777 181.744 310.512C182.96 325.689 184.913 340.812 186.987 355.944C188.47 366.309 189.215 376.729 190.445 387.189C190.652 389.162 191.242 390.937 191.206 392.891C191.104 394.149 192.178 394.466 193.13 394.773C193.727 394.936 194.456 394.995 195.072 394.93C200.439 395.019 205.443 396.574 210.597 397.797C215.517 398.886 220.511 399.059 225.589 399.7C225.953 399.73 226.466 399.426 226.849 399.226" stroke="#1F2E3A" stroke-width="2" stroke-miterlimit="10" stroke-linecap="round" stroke-linejoin="round"/>
<path d="M218.926 389.952C221.477 393.152 224.821 395.609 226.858 399.112C227.288 399.837 228.007 400.011 228.856 400.079" stroke="#1F2E3A" stroke-width="2" stroke-miterlimit="10" stroke-linecap="round" stroke-linejoin="round"/>
<path d="M208.688 160.144C208.688 166.044 208.588 172.244 207.688 178.444C207.488 179.544 207.088 180.144 205.988 180.544C198.388 183.044 190.588 184.844 182.688 185.544C174.788 186.244 166.888 186.644 159.088 184.444C156.188 183.644 154.488 182.544 153.888 179.044C152.188 168.844 150.888 158.644 150.688 148.244C150.588 145.344 150.788 142.444 150.988 139.544C151.088 138.244 150.588 138.044 149.388 138.544C144.488 140.344 139.288 141.044 134.088 141.644C132.388 141.844 131.588 141.144 131.388 139.544C130.488 132.744 131.088 126.044 133.888 119.644C137.188 111.844 141.788 104.844 147.988 99.1444C152.588 94.8444 157.788 91.6444 163.988 90.2444C169.088 89.0444 174.288 88.6444 179.488 89.3444C186.688 90.2444 191.988 94.0445 195.488 100.444C200.088 109.044 203.288 118.244 205.488 127.744C207.788 138.244 208.888 149.044 208.688 160.144Z" fill="white"/>
<path d="M206.288 179.444C206.588 176.944 206.988 174.444 207.188 171.844C207.688 165.444 207.388 159.044 207.388 152.744C207.388 149.044 206.788 145.344 206.488 141.644C205.888 134.944 204.488 128.444 202.788 122.044C201.788 118.344 200.288 114.744 198.988 111.144C197.288 106.644 195.388 102.344 192.688 98.2444C189.588 93.6444 185.188 91.4444 179.988 90.5444C176.488 89.9444 173.088 90.2444 169.588 90.5444C165.788 90.8444 162.288 91.6444 158.888 93.2444C154.588 95.2444 150.688 97.8444 147.388 101.244C142.688 106.144 138.888 111.644 135.988 117.744C132.988 123.944 131.688 130.444 132.388 137.344C132.688 140.844 132.688 140.944 135.988 140.444C140.188 139.744 144.388 139.244 148.388 137.844C148.888 137.644 149.388 137.444 149.888 137.244C151.388 136.444 151.988 136.844 151.988 138.744C151.988 141.844 151.888 144.944 151.888 147.944C151.888 152.844 152.488 157.744 152.788 162.644C153.088 168.144 154.488 173.544 155.188 178.944C155.288 179.844 155.588 180.844 155.788 181.744" stroke="#1F2E3A" stroke-width="2" stroke-miterlimit="10" stroke-linecap="round" stroke-linejoin="round"/>
<path d="M160.3 121C157.8 123.1 156 125.6 155 128.8" stroke="#1F2E3A" stroke-width="2" stroke-miterlimit="10" stroke-linecap="round" stroke-linejoin="round"/>
<path d="M170.1 119C172.2 119.7 174.3 120.4 176.2 121.6C177 122.1 177.6 122.8 178 123.6" stroke="#1F2E3A" stroke-width="2" stroke-miterlimit="10" stroke-linecap="round" stroke-linejoin="round"/>
<path d="M162.3 133.3C163.128 133.3 163.8 132.628 163.8 131.8C163.8 130.972 163.128 130.3 162.3 130.3C161.471 130.3 160.8 130.972 160.8 131.8C160.8 132.628 161.471 133.3 162.3 133.3Z" fill="#1F2E3A"/>
<path d="M172.9 131.8C173.728 131.8 174.4 131.128 174.4 130.3C174.4 129.472 173.728 128.8 172.9 128.8C172.071 128.8 171.4 129.472 171.4 130.3C171.4 131.128 172.071 131.8 172.9 131.8Z" fill="#1F2E3A"/>
<path d="M180.6 154.1C178.9 155.5 177.1 156.9 175 157.8C172.2 159.1 169.7 158 167.1 157.4C166.5 157.2 165.9 157 165.3 157" stroke="#1F2E3A" stroke-width="2" stroke-miterlimit="10" stroke-linecap="round" stroke-linejoin="round"/>
<path d="M206.038 119.88C206.138 123.38 205.938 126.58 205.038 129.68C204.938 130.18 204.738 130.68 204.538 131.08C204.238 131.68 203.938 132.28 203.138 132.28C202.338 132.28 201.938 131.78 201.638 131.18C201.238 130.08 200.838 128.98 200.438 127.98C199.538 125.38 198.838 122.88 197.538 120.48C196.038 117.68 194.038 115.68 190.538 115.38C186.038 115.08 183.438 112.58 182.338 108.38C182.138 107.58 181.838 106.68 181.538 105.88C179.838 101.18 178.338 99.9802 172.538 100.18C167.638 100.38 163.038 101.88 158.538 103.58C156.238 104.48 153.838 105.08 151.338 105.48C148.238 105.88 146.238 104.28 146.038 101.08C145.838 95.8802 146.438 90.7802 147.438 85.6802C147.538 85.2802 147.638 84.7802 147.838 84.3802C148.038 83.8802 148.338 83.4802 148.838 83.3802C149.438 83.2802 149.838 83.6802 150.138 84.1802C150.538 84.9802 150.938 85.8802 151.338 86.6802C152.138 88.0802 152.638 88.0802 153.538 86.7802C154.538 85.1802 155.138 83.3802 155.838 81.6802C156.438 80.2802 156.938 78.7802 157.738 77.4802C158.938 75.6802 160.238 75.5802 161.838 77.0802C163.438 78.6802 163.538 78.6802 165.038 77.0802C165.938 76.0802 166.738 75.0802 167.538 73.9802C168.738 72.5802 169.638 72.4802 170.938 73.7802C172.938 75.6802 173.338 75.7802 175.438 73.8802C176.738 72.7802 177.738 71.3802 179.038 70.2802C180.938 68.3802 182.238 68.5802 183.538 70.9802C184.438 72.7802 185.338 74.4802 186.338 76.1802C186.938 77.2802 187.538 77.5802 188.638 76.5802C190.238 74.9802 191.038 75.1802 191.838 77.2802C192.438 78.9802 192.938 80.7802 194.838 81.5802C195.538 81.8802 195.538 82.7802 195.638 83.4802C195.838 85.0802 196.038 86.7802 196.538 88.2802C196.838 89.1802 197.138 89.8802 198.338 89.6802C199.538 89.4802 199.838 90.4802 200.138 91.3802C200.738 93.5802 200.938 95.8802 201.138 98.1802C201.338 100.18 201.538 102.08 201.838 104.08C202.038 105.18 202.038 106.38 203.538 106.78C204.138 106.98 204.338 107.88 204.538 108.58C204.838 109.68 205.138 110.68 205.338 111.78C205.938 114.68 206.038 117.38 206.038 119.88Z" fill="white"/>
<path d="M202.338 107.78C201.038 106.08 201.138 103.98 200.938 101.98C200.438 98.8802 200.338 95.6802 199.838 92.5802C199.538 90.5802 199.139 90.3802 197.239 90.9802C195.739 89.5802 195.539 87.5802 195.239 85.6802C195.039 83.9802 195.038 82.3802 193.038 81.4802C192.238 81.1802 192.039 80.0802 191.739 79.1802C191.439 78.2802 191.138 77.3802 190.638 76.5802C189.638 76.5802 189.339 77.2802 188.739 77.8802C188.139 78.4802 187.539 78.6802 186.739 77.8802C185.339 76.3802 184.538 74.5802 183.638 72.7802C183.038 71.6802 182.638 70.4802 181.438 69.7802C179.938 70.4802 179.138 71.7802 178.038 72.7802C177.138 73.5802 176.338 74.4802 175.338 75.2802C173.838 76.5802 172.438 76.4802 171.038 75.1802C170.538 74.6802 170.138 73.9802 169.438 73.7802C168.738 73.9802 168.438 74.4802 168.138 74.9802C167.438 75.9802 166.638 76.8802 165.838 77.7802C163.838 79.9802 163.738 79.9802 161.538 77.7802C160.538 76.6802 159.438 76.7802 158.538 78.0802C157.038 80.3802 156.439 83.0802 155.239 85.4802C154.739 86.5802 154.238 87.5802 153.438 88.4802C152.638 89.2802 152.038 89.0802 151.438 88.2802C150.938 87.5802 150.438 86.7802 150.138 85.9802C149.938 85.3802 149.638 84.9802 149.138 84.6802C147.738 85.1802 147.938 86.5802 147.838 87.4802C147.338 91.2802 146.938 95.0802 146.638 98.8802C146.538 100.08 146.738 101.28 146.938 102.48C147.138 103.68 148.538 104.78 149.838 104.78C152.438 104.88 154.839 103.98 157.239 103.18C161.539 101.78 165.639 99.9802 170.239 99.6802C172.239 99.5802 174.238 99.3802 176.138 99.5802C179.238 99.8802 180.839 102.18 181.739 104.98C182.139 106.28 182.638 107.48 183.038 108.78C184.138 112.58 186.838 114.48 190.638 114.68C193.838 114.88 195.938 116.58 197.638 119.28C199.538 122.48 200.238 125.98 201.538 129.38C201.838 130.08 201.738 131.38 202.838 131.28C203.938 131.18 203.938 130.08 204.138 129.18C205.538 123.48 205.138 117.68 204.438 111.88C204.338 110.78 204.138 109.38 202.638 109.08" stroke="#1F2E3A" stroke-width="2" stroke-miterlimit="10" stroke-linecap="round" stroke-linejoin="round"/>
<path d="M209.733 229.133C209.533 220.433 206.833 212.933 201.233 206.533C200.233 205.333 200.033 203.633 199.832 202.233C198.533 193.933 200.133 186.033 204.233 178.733C204.933 177.533 205.633 178.033 206.333 178.633C209.933 181.733 212.833 185.533 215.233 189.633C220.133 197.733 224.833 205.933 228.233 214.833C232.833 226.433 232.232 237.933 227.132 249.233C224.032 256.033 220.132 262.333 216.333 268.733C215.733 269.833 215.233 270.833 215.033 272.033C214.533 274.433 213.832 276.833 212.632 279.033C211.732 280.733 211.233 280.833 209.733 279.433C206.833 276.833 204.533 273.633 202.433 270.333C200.233 267.033 198.133 263.633 196.733 259.933C195.733 257.333 196.033 256.933 198.733 256.933C200.033 256.933 201.333 256.933 202.733 256.933C203.633 256.933 204.233 256.733 204.433 255.833C206.533 246.833 209.233 238.033 209.733 229.133Z" fill="white"/>
<path d="M163.432 198.533C163.432 199.233 163.532 200.233 163.432 201.133C163.232 202.633 163.332 204.333 161.232 204.833C160.632 204.933 160.232 205.633 159.832 206.133C154.632 212.633 150.832 219.833 149.032 227.933C147.832 233.333 149.032 238.533 150.632 243.633C151.632 247.133 153.332 250.433 153.932 254.133C154.532 257.633 154.132 261.133 153.932 264.633C153.932 264.933 153.732 265.333 153.632 265.533C151.432 268.433 151.432 271.833 151.732 275.133C152.032 278.533 152.932 281.833 154.232 285.033C154.832 286.533 155.732 287.833 157.032 288.833C157.432 289.133 157.932 289.433 157.632 290.033C157.232 290.533 156.732 290.233 156.332 290.033C155.032 289.433 154.332 288.333 153.732 287.133C151.832 283.633 150.732 279.833 150.532 275.933C150.332 272.733 149.132 270.533 147.032 268.233C141.832 262.333 137.332 255.933 134.532 248.433C129.432 234.733 129.732 221.333 136.232 208.133C140.932 198.633 146.632 189.833 154.132 182.133C156.232 179.933 158.232 180.133 159.932 182.633C161.932 185.633 162.832 189.133 163.332 192.733C163.232 194.733 163.532 196.533 163.432 198.533Z" fill="white"/>
<path d="M205.232 178.733C211.032 183.533 214.632 189.833 218.232 196.233C221.032 201.233 223.832 206.233 226.132 211.433C228.932 217.833 230.932 224.433 230.632 231.533C230.332 238.533 228.532 245.133 225.232 251.333C221.932 257.633 218.432 263.833 214.632 269.833" stroke="#1F2E3A" stroke-width="2" stroke-miterlimit="10" stroke-linecap="round" stroke-linejoin="round"/>
<path d="M156.633 181.533C155.833 181.333 155.433 181.933 155.033 182.333C149.733 187.733 145.033 193.733 141.133 200.333C138.233 205.233 135.633 210.233 133.833 215.633C130.733 224.833 130.933 234.033 133.333 243.333C135.933 253.433 141.733 261.733 148.533 269.433C149.033 270.033 149.533 270.633 150.333 270.733" stroke="#1F2E3A" stroke-width="2" stroke-miterlimit="10" stroke-linecap="round" stroke-linejoin="round"/>
<path d="M201.933 206.033C206.733 211.733 209.433 218.433 210.333 225.833C210.833 230.533 210.033 235.133 209.033 239.633C207.733 245.533 206.233 251.433 204.733 257.333" stroke="#1F2E3A" stroke-width="2" stroke-miterlimit="10" stroke-linecap="round" stroke-linejoin="round"/>
<path d="M162.532 203.633C161.432 203.733 160.632 204.333 159.832 205.133C155.432 209.933 152.532 215.633 150.132 221.633C148.532 225.533 147.532 229.533 147.632 233.833C147.732 237.033 148.532 240.233 149.532 243.233C150.232 245.433 150.532 247.833 151.832 249.833" stroke="#1F2E3A" stroke-width="2" stroke-miterlimit="10" stroke-linecap="round" stroke-linejoin="round"/>
<path d="M197.032 258.033C197.332 260.233 198.432 262.233 199.532 264.133C202.432 269.133 205.332 274.033 209.532 278.033C210.132 278.633 210.732 279.133 211.332 279.733" stroke="#1F2E3A" stroke-width="2" stroke-miterlimit="10" stroke-linecap="round" stroke-linejoin="round"/>
<path d="M153.932 264.633C152.532 264.633 152.432 265.833 151.932 266.733C149.832 270.733 150.532 274.833 151.332 278.933C151.832 281.633 152.632 284.233 153.932 286.733C154.732 288.233 155.632 289.433 157.232 290.033" stroke="#1F2E3A" stroke-width="2" stroke-miterlimit="10" stroke-linecap="round" stroke-linejoin="round"/>
<path d="M352.1 305.191C351.877 306.44 351.532 307.678 351.431 308.936C350.281 320.124 348.759 331.397 348.581 342.663C348.45 354.855 348.692 366.961 349.047 379.191C349.19 383.462 349.334 387.733 349.598 392.013C349.618 393.281 349.068 394.042 347.938 394.412C346.94 394.676 346.053 395.065 345.064 395.215C335.068 396.479 325.419 399.497 315.414 400.875C313.556 401.185 311.708 401.381 309.869 401.463C307.779 401.639 307.134 400.551 308.01 398.78C308.588 397.676 309.399 396.705 310.332 395.745C314.184 391.912 317.074 387.887 317.901 382.198C319.397 372.765 321.256 363.361 322.033 353.754C323.364 335.789 322.847 318.02 319.156 300.225C316.083 285.357 314.494 270.264 313.4 255.096C313.173 251.855 313.32 248.529 313.588 245.212C314.788 227.352 317.193 209.704 322.248 192.501C324.436 185.08 327.334 177.947 331.062 171.112C331.771 169.903 332.685 169.171 334.075 168.593C336.595 167.646 341.924 131.985 345.057 149.133C351.795 147.376 373.637 143.089 379.072 146.867C386.599 151.965 377.269 176.714 379.488 185.527C380.799 190.467 377.345 199.949 377.908 205.06C379.798 222.479 380.455 240.029 381.598 257.619C382.344 269.535 381.877 281.354 382.026 293.107C382.217 311.886 382.054 330.521 384.448 349.247C385.866 360.413 388.021 371.523 390.307 382.528C390.738 384.75 391.579 386.43 393.158 388.054C395.418 390.309 397.53 392.897 399.66 395.256C400.221 395.877 400.893 396.622 400.334 397.498C399.784 398.259 398.98 397.618 398.243 397.674C395.928 397.602 393.753 397.311 391.438 397.239C384.997 396.833 378.807 394.836 372.561 393.525C370.881 393.159 369.173 393.136 367.343 393.103C363.432 393.132 362.638 392.377 362.076 388.763C359.925 371.553 358.139 354.372 355.745 337.142C354.45 327.483 353.407 317.729 352.615 307.881C352.558 307.07 352.39 306.136 352.212 305.316C352.342 305.211 352.221 305.201 352.1 305.191Z" fill="white"/>
<path d="M333.134 169.668C331.38 171.713 330.449 174.17 329.405 176.503C324.279 187.024 321.3 198.18 319.041 209.508C317.785 215.968 316.651 222.437 315.994 229.061C315.67 233.063 314.982 237.037 314.649 241.154C313.937 249.96 314.336 258.625 315.332 267.454C316.328 276.283 317.324 285.112 318.806 293.981C319.649 298.653 320.735 303.346 321.448 308.123C322.555 315.58 323.289 323.121 323.528 330.738C323.863 341.7 322.994 352.451 321.994 363.305C321.447 368.556 320.527 373.892 319.373 379.094C318.638 382.142 317.894 385.305 317.644 388.393C317.543 389.651 317.095 390.651 316.05 391.487C313.429 393.693 311.265 396.281 309.223 398.878C308.822 399.306 308.412 399.848 308.842 400.574C309.272 401.299 310.028 401.015 310.644 400.95C318.278 400.186 325.735 398.602 333.089 396.779C336.953 395.825 340.892 395.453 344.737 394.728C348.573 394.118 348.591 393.889 348.514 390.314C348.275 382.697 348.157 375.09 347.918 367.474C347.555 356.854 347.557 346.264 348.053 335.599C348.485 327.231 349.403 318.902 350.442 310.583C350.832 307.276 350.736 303.93 352.087 300.816" stroke="#1F2E3A" stroke-width="2" stroke-miterlimit="10" stroke-linecap="round" stroke-linejoin="round"/>
<path d="M374.808 190.535C376.446 195.963 376.73 201.511 377.257 207.079C377.944 215.192 379.117 223.345 379.431 231.543C379.802 240.552 380.182 249.446 380.674 258.465C380.798 261.468 381.164 264.49 381.288 267.493C381.421 270.382 381.301 273.365 381.192 276.234C380.935 282.429 381.173 288.549 381.29 294.66C381.311 298.92 381.091 303.162 381.112 307.423C381.097 312.141 381.213 316.755 381.44 321.493C381.565 325.992 381.942 330.397 382.188 334.906C382.529 341.265 383.485 347.558 384.321 353.842C385.222 360.821 386.245 367.811 387.893 374.62C388.717 378.025 389.298 381.41 390.001 384.806" stroke="#1F2E3A" stroke-width="2" stroke-miterlimit="10" stroke-linecap="round" stroke-linejoin="round"/>
<path d="M352.228 302.094C354.059 303.623 353.64 305.777 353.744 307.512C354.96 322.689 356.913 337.812 358.987 352.944C360.47 363.309 361.215 373.729 362.445 384.189C362.652 386.162 363.242 387.937 363.206 389.891C363.104 391.149 364.178 391.466 365.13 391.773C365.727 391.936 366.456 391.995 367.072 391.93C372.439 392.019 377.443 393.574 382.597 394.797C387.517 395.886 392.511 396.059 397.589 396.7C397.953 396.73 398.466 396.426 398.849 396.226" stroke="#1F2E3A" stroke-width="2" stroke-miterlimit="10" stroke-linecap="round" stroke-linejoin="round"/>
<path d="M390.926 386.952C393.477 390.152 396.821 392.609 398.858 396.112C399.288 396.837 400.007 397.011 400.856 397.079" stroke="#1F2E3A" stroke-width="2" stroke-miterlimit="10" stroke-linecap="round" stroke-linejoin="round"/>
<path d="M380.688 157.144C380.688 163.044 380.588 169.244 379.688 175.444C379.488 176.544 379.088 177.144 377.988 177.544C370.388 180.044 362.588 181.844 354.688 182.544C346.788 183.244 338.888 183.644 331.088 181.444C328.188 180.644 326.488 179.544 325.888 176.044C324.188 165.844 322.888 155.644 322.688 145.244C322.588 142.344 322.788 139.444 322.988 136.544C323.088 135.244 322.588 135.044 321.388 135.544C316.488 137.344 311.288 138.044 306.088 138.644C304.388 138.844 303.588 138.144 303.388 136.544C302.488 129.744 303.088 123.044 305.888 116.644C309.188 108.844 313.788 101.844 319.988 96.1444C324.588 91.8444 329.788 88.6444 335.988 87.2444C341.088 86.0444 346.288 85.6444 351.488 86.3444C358.688 87.2444 363.988 91.0445 367.488 97.4445C372.088 106.044 375.288 115.244 377.488 124.744C379.788 135.244 380.888 146.044 380.688 157.144Z" fill="white"/>
<path d="M378.288 176.444C378.588 173.944 378.988 171.444 379.188 168.844C379.688 162.444 379.388 156.044 379.388 149.744C379.388 146.044 378.788 142.344 378.488 138.644C377.888 131.944 376.488 125.444 374.788 119.044C373.788 115.344 372.288 111.744 370.988 108.144C369.288 103.644 367.388 99.3444 364.688 95.2444C361.588 90.6444 357.188 88.4444 351.988 87.5444C348.488 86.9444 345.088 87.2444 341.588 87.5444C337.788 87.8444 334.288 88.6444 330.888 90.2444C326.588 92.2444 322.688 94.8444 319.388 98.2444C314.688 103.144 310.888 108.644 307.988 114.744C304.988 120.944 303.688 127.444 304.388 134.344C304.688 137.844 304.688 137.944 307.988 137.444C312.188 136.744 316.388 136.244 320.388 134.844C320.888 134.644 321.388 134.444 321.888 134.244C323.388 133.444 323.988 133.844 323.988 135.744C323.988 138.844 323.888 141.944 323.888 144.944C323.888 149.844 324.488 154.744 324.788 159.644C325.088 165.144 326.488 170.544 327.188 175.944C327.288 176.844 327.588 177.844 327.788 178.744" stroke="#1F2E3A" stroke-width="2" stroke-miterlimit="10" stroke-linecap="round" stroke-linejoin="round"/>
<path d="M340.708 166.541C335.208 166.441 331.308 163.541 328.508 159.041C327.608 157.641 327.008 156.141 326.308 154.641C325.908 153.841 326.008 153.041 326.408 152.241C326.908 151.341 327.708 150.841 328.508 151.641C331.108 154.041 334.308 153.741 337.408 153.341C342.808 152.541 347.208 149.641 351.808 147.041C354.308 145.641 356.908 144.341 359.208 142.441C360.108 141.741 360.908 142.041 361.108 143.241C361.208 143.541 361.208 143.941 361.108 144.241C359.408 152.541 355.808 159.641 348.408 164.441C346.108 165.841 343.508 166.641 340.708 166.541Z" fill="white"/>
<path d="M360.008 143.041C359.108 144.441 359.808 146.041 359.308 147.541C357.308 153.241 354.608 158.441 349.708 162.241C342.608 167.741 334.208 166.341 329.608 158.741C329.008 157.841 328.708 156.841 328.108 155.941C327.308 154.841 327.808 153.641 327.708 152.441" stroke="#1F2E3A" stroke-width="2" stroke-miterlimit="10" stroke-linecap="round" stroke-linejoin="round"/>
<path d="M359.208 144.341C357.208 144.741 355.808 146.041 354.108 147.041C350.108 149.241 346.208 151.841 341.908 153.441C338.508 154.741 334.908 155.441 331.208 154.441C330.108 154.141 329.008 153.541 327.908 153.141" stroke="#1F2E3A" stroke-width="2" stroke-miterlimit="10" stroke-linecap="round" stroke-linejoin="round"/>
<path d="M329.008 117.641C326.708 118.841 325.408 120.841 324.208 122.941C323.808 123.641 324.108 124.241 324.108 124.941" stroke="#1F2E3A" stroke-width="2" stroke-miterlimit="10" stroke-linecap="round" stroke-linejoin="round"/>
<path d="M345.208 118.141C343.308 115.841 340.708 115.941 338.108 116.041" stroke="#1F2E3A" stroke-width="2" stroke-miterlimit="10" stroke-linecap="round" stroke-linejoin="round"/>
<path d="M331.608 129.541C332.436 129.541 333.108 128.869 333.108 128.041C333.108 127.212 332.436 126.541 331.608 126.541C330.779 126.541 330.108 127.212 330.108 128.041C330.108 128.869 330.779 129.541 331.608 129.541Z" fill="#1F2E3A"/>
<path d="M342.208 128.041C343.036 128.041 343.708 127.369 343.708 126.541C343.708 125.712 343.036 125.041 342.208 125.041C341.38 125.041 340.708 125.712 340.708 126.541C340.708 127.369 341.38 128.041 342.208 128.041Z" fill="#1F2E3A"/>
<path d="M358.909 81.7168C358.809 77.1168 360.709 73.4168 364.609 70.8168C368.409 68.3168 372.709 68.3168 376.809 71.3168C384.109 76.7168 388.609 83.9168 389.309 93.2168C389.809 100.017 385.209 106.517 378.609 108.517C377.309 108.917 377.709 109.617 378.009 110.417C379.209 113.417 380.109 116.517 380.509 119.817C380.809 122.317 380.809 124.817 379.909 127.317C379.309 128.717 378.509 129.317 376.909 129.017C370.109 127.617 363.409 125.917 358.109 121.217C351.209 115.217 346.109 107.917 343.709 98.9168C343.109 96.5168 343.009 96.5168 340.909 97.9168C338.909 99.2168 337.009 100.517 335.009 101.817C330.109 105.217 324.509 105.817 318.709 105.317C318.309 105.317 317.809 105.217 317.409 105.117C314.709 104.917 314.609 104.817 315.509 102.217C316.609 99.1168 318.409 96.4168 320.509 93.9168C324.909 88.7168 329.909 84.2168 336.509 81.8168C343.809 79.1168 350.909 79.2168 357.609 83.8168C358.009 84.1168 358.409 84.6168 358.909 84.2168C359.309 83.9168 359.109 83.4168 359.109 83.0168C358.909 82.6168 358.909 82.1168 358.909 81.7168Z" fill="white"/>
<path d="M343.109 96.0168C344.309 97.7168 344.509 99.9167 345.209 101.817C346.809 106.517 349.309 110.517 352.409 114.317C354.409 116.817 356.609 119.017 359.009 121.117C362.309 124.017 366.309 125.417 370.409 126.717C372.609 127.417 374.909 127.817 377.209 128.417C377.809 128.517 378.309 128.417 378.709 127.617C379.209 126.517 379.609 125.517 379.709 124.317C380.109 116.117 377.009 109.017 372.909 102.217C370.609 98.3168 367.809 94.8168 364.809 91.5168C363.209 89.7168 361.509 87.8167 359.609 86.3167C356.509 83.9167 353.109 81.8168 349.009 81.2168C343.709 80.3168 338.709 81.5168 334.009 83.6168C329.809 85.5168 326.209 88.5168 323.109 92.0168C320.609 94.7168 318.309 97.6167 316.709 100.917C316.509 101.317 316.309 101.817 316.209 102.217C315.709 103.917 315.909 104.317 317.709 104.517C321.709 105.017 325.709 105.017 329.609 103.717C332.509 102.717 335.009 100.917 337.509 99.3167C339.309 98.1167 340.909 96.5168 343.109 96.0168" stroke="#1F2E3A" stroke-width="2" stroke-miterlimit="10" stroke-linecap="round" stroke-linejoin="round"/>
<path d="M359.509 85.8168C359.809 84.9168 359.809 84.1168 359.709 83.2168C358.809 77.6168 362.309 71.9168 367.809 70.2168C371.309 69.1168 374.409 70.3168 377.009 72.4168C382.609 76.8168 386.509 82.5168 388.109 89.5168C390.009 97.9168 386.909 103.517 379.509 107.617C378.609 108.117 377.409 107.817 376.509 108.417" stroke="#1F2E3A" stroke-width="2" stroke-miterlimit="10" stroke-linecap="round" stroke-linejoin="round"/>
<path d="M332.366 192.931C332.366 194.431 332.166 195.931 332.566 197.331C332.866 198.231 331.966 198.431 331.366 198.831C327.566 200.831 324.066 203.131 321.266 206.431C316.666 211.931 314.866 218.331 316.266 225.331C317.466 231.331 319.666 236.931 323.066 242.031C324.066 243.531 325.766 244.631 326.266 246.531C326.866 248.931 328.466 250.731 329.966 252.631C331.166 254.131 332.266 255.731 332.566 257.731C332.866 259.931 332.066 260.931 329.766 260.831C328.566 260.731 328.966 261.231 329.166 261.931C329.966 264.031 329.866 264.331 327.966 265.431C327.466 265.731 327.366 266.031 327.666 266.531C327.966 267.031 328.266 267.531 328.366 268.031C328.766 269.331 328.166 270.131 326.766 270.031C325.466 270.031 324.466 269.331 323.466 268.631C322.166 267.731 320.866 266.931 319.366 266.631C318.066 266.331 317.366 265.331 316.466 264.531C309.966 258.031 304.566 250.631 299.366 243.131C296.066 238.431 293.366 233.331 291.266 227.931C287.466 218.131 288.566 208.931 293.666 199.931C300.666 187.431 311.366 179.731 324.566 175.031C327.166 174.131 327.966 174.531 328.966 177.031C331.166 182.031 332.166 187.331 332.366 192.931Z" fill="white"/>
<path d="M361.666 107.031C361.666 105.931 361.566 105.031 361.666 104.131C361.766 103.231 361.866 102.231 362.966 102.031C363.966 101.831 364.566 102.631 365.066 103.331C365.566 104.131 365.966 104.931 366.366 105.831C366.766 106.531 367.066 106.631 367.466 105.831C367.566 105.531 367.666 105.231 367.866 104.931C368.266 104.331 368.666 103.731 369.466 103.731C370.366 103.731 370.666 104.431 370.966 105.031C371.966 107.131 372.666 109.431 373.366 111.631C373.466 112.131 373.466 112.631 373.966 112.931C374.666 112.431 374.366 111.831 374.366 111.231C374.366 110.031 374.566 108.831 375.166 107.731C375.966 106.331 377.366 106.231 378.266 107.731C379.366 109.631 379.466 111.731 379.666 113.831C379.966 116.731 380.166 119.731 380.366 122.731C380.466 124.231 380.866 125.631 381.466 127.031C385.266 134.931 390.266 142.031 394.566 149.531C399.866 158.731 403.566 168.431 404.766 178.931C405.566 185.931 405.066 192.831 400.266 198.631C397.766 201.731 394.666 204.031 390.966 205.531C388.666 206.531 386.266 206.531 383.866 205.831C380.266 204.731 377.266 202.531 374.466 200.231C371.266 197.531 370.666 193.531 370.666 189.531C370.666 185.331 371.166 181.131 372.666 177.031C372.766 176.631 372.966 176.231 373.166 175.831C374.766 172.431 375.766 172.031 379.166 173.631C380.166 174.031 381.066 174.531 381.966 175.031C383.166 175.631 383.466 175.231 383.366 174.031C383.066 171.731 382.566 169.531 381.866 167.331C378.266 156.131 373.266 145.731 367.366 135.631C365.366 132.231 363.066 129.131 361.366 125.631C359.366 121.431 356.666 117.431 355.066 113.031C354.966 112.731 354.866 112.531 354.866 112.231C354.766 111.531 354.466 110.731 355.166 110.231C355.966 109.631 356.666 110.131 357.266 110.631C357.566 110.831 357.866 111.031 358.266 111.331C358.666 110.531 358.266 110.031 358.166 109.431C357.966 108.331 357.466 107.031 358.666 106.231C359.866 105.331 360.566 106.431 361.666 107.031Z" fill="white"/>
<path d="M328.466 175.531C325.766 174.831 323.565 176.031 321.165 177.031C313.165 180.331 306.065 184.931 300.365 191.531C295.665 197.131 291.865 203.231 290.265 210.531C289.065 215.931 289.766 221.331 291.566 226.531C294.766 235.531 300.065 243.131 305.765 250.631C308.765 254.631 311.965 258.531 315.365 262.331C316.165 263.331 317.165 264.131 318.165 264.931C318.465 265.231 318.965 265.631 319.265 265.631C321.465 265.431 322.765 267.031 324.165 268.131C325.065 268.831 326.266 268.831 327.066 269.731" stroke="#1F2E3A" stroke-width="2" stroke-miterlimit="10" stroke-linecap="round" stroke-linejoin="round"/>
<path d="M379.566 123.031C380.066 127.031 382.366 130.231 384.166 133.531C388.466 141.231 393.666 148.431 397.466 156.531C400.766 163.531 403.166 170.931 404.166 178.631C404.766 182.831 404.666 187.231 403.466 191.331C402.066 196.231 398.866 199.931 394.566 202.731C392.866 203.831 391.166 204.831 389.166 205.431C386.766 206.031 384.666 205.431 382.566 204.531C380.466 203.631 378.566 202.431 376.966 200.931C376.566 200.531 376.166 200.331 375.666 200.331" stroke="#1F2E3A" stroke-width="2" stroke-miterlimit="10" stroke-linecap="round" stroke-linejoin="round"/>
<path d="M356.166 111.331C355.166 112.931 356.466 114.131 357.066 115.231C360.866 122.331 364.866 129.431 368.966 136.431C373.466 144.231 377.666 152.231 380.566 160.831C381.866 164.531 383.266 168.031 383.966 171.931C384.266 173.531 385.066 175.131 383.966 176.731" stroke="#1F2E3A" stroke-width="2" stroke-miterlimit="10" stroke-linecap="round" stroke-linejoin="round"/>
<path d="M331.766 197.731C327.766 199.831 323.966 202.031 321.066 205.531C315.066 212.431 313.766 220.331 316.366 228.931C317.766 233.731 319.666 238.431 322.566 242.631C323.166 243.531 323.966 244.331 324.866 244.931" stroke="#1F2E3A" stroke-width="2" stroke-miterlimit="10" stroke-linecap="round" stroke-linejoin="round"/>
<path d="M374.466 114.931C375.666 113.731 374.766 112.031 375.266 110.631C375.366 110.231 375.166 109.731 375.466 109.331C375.866 108.731 375.666 107.531 376.966 107.731C377.966 107.931 378.166 108.831 378.266 109.531C379.066 113.631 379.566 117.731 379.566 121.931C379.566 122.331 379.766 123.031 378.866 122.931" stroke="#1F2E3A" stroke-width="2" stroke-miterlimit="10" stroke-linecap="round" stroke-linejoin="round"/>
<path d="M374.966 119.531C374.966 117.531 374.566 115.831 373.466 114.031C372.366 112.331 371.966 110.031 371.366 108.031C370.966 106.731 370.266 105.731 369.766 104.531C368.566 104.931 367.966 105.731 368.066 106.931C368.066 107.531 367.866 107.931 367.566 108.431" stroke="#1F2E3A" stroke-width="2" stroke-miterlimit="10" stroke-linecap="round" stroke-linejoin="round"/>
<path d="M325.966 247.731C325.866 248.631 326.366 249.331 326.966 250.031C328.566 252.031 330.266 254.031 331.466 256.331C331.766 256.831 331.866 257.431 331.966 257.931C332.266 259.531 331.066 260.631 329.666 260.031C328.966 259.731 328.466 259.831 327.866 259.731" stroke="#1F2E3A" stroke-width="2" stroke-miterlimit="10" stroke-linecap="round" stroke-linejoin="round"/>
<path d="M365.366 113.331C364.466 113.231 364.266 112.531 364.066 111.831C363.166 109.531 361.566 108.031 359.566 106.831C359.266 107.131 358.766 107.431 358.866 107.831C359.066 109.331 359.266 110.931 359.666 112.431C360.066 114.031 361.366 115.331 362.366 116.831C362.466 116.931 362.666 116.931 362.866 116.931" stroke="#1F2E3A" stroke-width="2" stroke-miterlimit="10" stroke-linecap="round" stroke-linejoin="round"/>
<path d="M385.666 181.431C385.266 180.331 384.766 179.231 384.866 178.131C384.966 177.231 384.266 176.931 384.066 176.831C381.366 175.631 378.966 173.631 375.866 173.331" stroke="#1F2E3A" stroke-width="2" stroke-miterlimit="10" stroke-linecap="round" stroke-linejoin="round"/>
<path d="M368.366 111.931C367.566 108.431 365.366 105.631 363.466 102.531C362.066 103.831 362.366 105.131 362.666 106.331C362.866 107.131 362.966 108.031 362.466 108.831" stroke="#1F2E3A" stroke-width="2" stroke-miterlimit="10" stroke-linecap="round" stroke-linejoin="round"/>
<path d="M322.866 262.131C323.766 262.931 324.866 263.631 325.666 264.431C326.666 265.531 327.166 267.031 327.766 268.331C328.066 268.831 327.366 269.031 327.166 269.331" stroke="#1F2E3A" stroke-width="2" stroke-miterlimit="10" stroke-linecap="round" stroke-linejoin="round"/>
<path d="M325.466 257.531C327.466 258.931 327.966 261.231 328.966 263.331C329.066 263.531 329.066 263.931 329.466 263.831" stroke="#1F2E3A" stroke-width="2" stroke-miterlimit="10" stroke-linecap="round" stroke-linejoin="round"/>
<path d="M355.166 111.031C356.766 110.731 357.766 112.031 359.166 112.331" stroke="#1F2E3A" stroke-width="2" stroke-miterlimit="10" stroke-linecap="round" stroke-linejoin="round"/>
</svg>
