<svg width="564" height="472" viewBox="0 0 564 472" fill="none" xmlns="http://www.w3.org/2000/svg">
<rect x="1" y="1" width="562" height="426" rx="7" fill="white" stroke="#1F2E3A" stroke-width="2"/>
<mask id="mask0_1325_4200" style="mask-type:alpha" maskUnits="userSpaceOnUse" x="0" y="0" width="564" height="428">
<rect x="1" y="1" width="562" height="426" fill="#F0FFF9" stroke="#1F2E3A" stroke-width="2"/>
</mask>
<g mask="url(#mask0_1325_4200)">
</g>
<path d="M367.451 215.201C367.451 266.301 367.451 314.901 367.451 363.501C367.451 377.801 356.551 388.901 342.351 388.901C301.951 388.901 261.551 388.901 221.151 388.901C206.651 388.901 196.451 378.601 196.551 364.001C196.951 311.101 196.951 258.201 197.851 205.301C198.551 164.001 198.151 122.801 198.751 81.5006C198.851 74.0006 198.451 66.5006 199.451 59.2006C201.251 45.6006 209.151 39.0006 222.751 39.1006C260.351 39.3006 297.951 39.6006 335.451 39.7006C341.951 39.7006 348.351 39.3006 354.351 42.8006C362.351 47.5006 366.451 54.5006 366.751 63.6006C368.151 114.801 366.851 166.301 367.451 215.201Z" fill="#F7FBF9"/>
<path d="M200.651 63.0006C200.451 71.7006 200.351 80.3006 200.251 89.0006C199.851 128.601 200.051 168.201 199.551 207.901C199.351 222.601 199.751 237.201 199.151 251.801C198.351 271.601 198.951 291.401 198.751 311.201C198.551 329.501 198.551 347.801 198.151 366.101C197.951 377.701 209.351 388.001 220.151 387.101C223.651 386.801 227.151 387.501 230.651 387.501C267.751 387.501 304.851 387.501 341.951 387.501C356.151 387.501 364.951 378.101 365.551 363.501C366.251 343.701 366.051 323.901 365.851 304.101C364.951 224.201 365.851 144.301 365.351 64.4006C365.151 48.0006 352.051 40.7006 341.851 40.9006C316.351 41.3006 290.951 41.4006 265.451 40.9006C250.151 40.6006 234.851 40.7006 219.551 40.5006C208.151 40.4006 199.551 50.8006 201.051 62.5006" stroke="#1F2E3A" stroke-width="2" stroke-miterlimit="10" stroke-linecap="round" stroke-linejoin="round"/>
<path d="M363.85 60.0006C354.05 59.8006 344.251 59.9006 334.451 59.4006C320.751 58.8006 307.15 58.7006 293.55 59.4006C287.55 59.7006 281.55 59.8006 275.55 59.9006C261.05 60.1006 246.55 60.0006 232.15 60.5006C221.95 60.8006 211.85 61.8006 201.75 62.4006" stroke="#1F2E3A" stroke-width="2" stroke-miterlimit="10" stroke-linecap="round" stroke-linejoin="round"/>
<path d="M295.951 373.101C283.151 373.901 270.351 375.701 257.551 375.601" stroke="#1F2E3A" stroke-width="2" stroke-miterlimit="10" stroke-linecap="round" stroke-linejoin="round"/>
<path d="M208.95 236.4C210.75 236.6 212.65 236.9 214.45 236.9C230.55 236.9 246.75 237.6 262.85 236.7C277.35 235.9 292.05 235.7 306.25 231.9C311.55 230.5 313.25 228.4 312.15 223.4C311.25 219.4 311.15 215.4 311.35 211.4C311.45 208.6 310.35 207.3 307.75 206.9C295.95 205.3 284.25 204.3 272.25 205.7C253.35 207.9 234.35 208.7 215.35 205.9C212.25 205.5 210.05 206.599 210.35 210.299C210.85 216.299 211.15 222.299 211.95 228.299C212.35 231.599 209.25 232.999 208.85 235.799" stroke="#1F2E3A" stroke-width="2" stroke-miterlimit="10" stroke-linecap="round" stroke-linejoin="round"/>
<path d="M349.75 330.799C343.45 329.299 341.55 323.799 339.35 318.799C338.45 316.799 338.05 314.799 336.15 313.299C316.05 316.699 295.75 317.999 275.35 317.899C269.15 317.899 263.05 318.499 256.85 318.799C252.85 318.999 250.35 321.599 251.55 325.699C252.75 329.899 251.95 334.099 252.75 338.299C253.25 340.999 254.25 341.799 256.85 341.799C275.05 342.299 293.15 341.299 311.25 340.499C320.45 340.099 329.85 339.799 338.75 335.899C343.15 333.999 348.35 333.899 352.65 331.199" stroke="#1F2E3A" stroke-width="2" stroke-miterlimit="10" stroke-linecap="round" stroke-linejoin="round"/>
<path d="M352.75 182.5C349.75 178.3 344.05 177.9 340.75 174C340.25 173.4 339.35 173.1 339.25 173C339.25 168.2 339.25 163.9 339.25 159.5C339.25 154.8 335.65 154.1 332.25 154.1C320.45 154 308.65 152.2 296.85 152.9C293.05 153.1 291.65 155 291.45 157.6C290.95 165.1 291.65 172.7 293.35 180.1C294.15 183.7 297.55 184.1 300.35 184C313.95 183.9 327.65 185.1 341.25 183.7C345.55 183.2 349.85 183.6 354.25 183.6C354.95 183.6 355.85 183.8 355.75 182.6" stroke="#1F2E3A" stroke-width="2" stroke-miterlimit="10" stroke-linecap="round" stroke-linejoin="round"/>
<path d="M215.45 246.9C213.05 247.3 213.35 249.3 213.55 250.9C213.85 253.7 214.15 256.6 214.65 259.4C216.05 266.2 219.15 268 226.45 269C249.85 272.1 273.35 271.9 296.85 272C300.15 272 303.25 271.1 306.35 270.1C308.55 269.4 310.25 267.6 310.15 266C309.75 261.6 311.65 257.5 310.45 253C308.55 245.7 307.25 244.7 299.85 245C287.85 245.4 275.95 246.2 263.95 246.2C249.15 246.1 234.35 246.8 219.55 247.1C218.45 247.1 217.05 247.7 216.05 246.6" stroke="#1F2E3A" stroke-width="2" stroke-miterlimit="10" stroke-linecap="round" stroke-linejoin="round"/>
<path d="M289.85 219.999C284.65 219.099 279.55 219.099 274.85 221.999C274.45 222.199 273.85 222.099 273.35 221.999C267.25 220.099 261.45 221.099 255.85 223.899C254.55 224.599 252.95 223.899 251.85 222.499C249.15 219.099 246.15 219.299 242.85 221.899C241.75 222.799 240.25 223.699 238.85 223.799C237.05 223.999 234.75 225.299 233.35 222.899C230.75 218.299 227.85 219.599 224.85 222.399C224.35 222.899 223.55 223.099 222.85 223.499C221.35 222.599 220.05 221.699 219.85 219.899" stroke="#1F2E3A" stroke-width="2" stroke-miterlimit="10" stroke-linecap="round" stroke-linejoin="round"/>
<path d="M294.85 113.6C286.85 112 279.15 112 271.35 115C269.05 115.9 266.05 116.1 263.35 114.7C260.05 112.9 257.05 115.5 253.85 115.8C252.15 115.9 249.95 116.8 248.95 116.1C244.75 112.7 241.05 114.5 237.35 116.7C234.75 118.3 232.25 118.9 230.55 115.7C228.15 115.6 227.85 118.4 225.85 118.7" stroke="#1F2E3A" stroke-width="2" stroke-miterlimit="10" stroke-linecap="round" stroke-linejoin="round"/>
<path d="M321.75 328.799C317.55 328.599 313.25 329.4 309.15 327C307.75 326.2 305.25 326.9 303.25 327.2C299.45 327.8 295.45 329.3 291.65 326C290.15 324.7 287.35 326.4 285.35 327C281.15 328.2 277.45 330 272.75 328C269.65 326.7 267.15 329.799 264.35 330.899" stroke="#1F2E3A" stroke-width="2" stroke-miterlimit="10" stroke-linecap="round" stroke-linejoin="round"/>
<path d="M294.85 255.9C288.15 255.9 281.25 256.6 274.95 256.2C268.45 255.9 261.45 259.4 254.75 255.1C252.85 253.9 248.85 255.7 245.95 256.4C244.25 256.8 242.45 257.3 240.95 256.7C237.15 255.3 233.85 255.9 230.35 257.7C228.45 258.7 226.35 257.5 224.95 255.9C222.95 257 220.95 258.2 218.85 259.3" stroke="#1F2E3A" stroke-width="2" stroke-miterlimit="10" stroke-linecap="round" stroke-linejoin="round"/>
<path d="M301.85 100.599C299.45 96.3994 295.65 99.1994 292.85 99.3994C289.55 99.5994 286.55 100.699 283.25 98.6994C281.05 97.3994 279.05 99.5994 277.35 100.699C273.95 102.999 271.05 104.999 268.25 100.099C267.25 98.2994 264.85 98.5994 263.85 99.1994C262.05 100.399 260.05 100.599 258.25 101.499C252.05 104.599 251.75 104.399 247.75 99.0994C244.15 99.6994 241.65 102.399 238.85 104.199C235.75 106.199 233.85 107.999 233.15 102.599C233.05 101.699 231.95 100.899 231.15 99.9994C228.45 102.099 226.25 104.599 224.75 107.599" stroke="#1F2E3A" stroke-width="2" stroke-miterlimit="10" stroke-linecap="round" stroke-linejoin="round"/>
<path d="M326.75 169.5C324.05 169.4 320.95 171.1 318.65 168.1C318.45 167.8 317.05 167.9 316.25 168.5C312.55 171.2 309.15 170.6 306.75 166.9C303.75 167.4 304.05 170.7 301.85 171.5" stroke="#1F2E3A" stroke-width="2" stroke-miterlimit="10" stroke-linecap="round" stroke-linejoin="round"/>
<path d="M302.35 296.899C303.55 295.899 304.65 294.899 306.15 293.699C308.25 296.199 310.95 295.399 313.85 295.599C319.55 295.999 325.25 294.199 330.85 296.399" stroke="#1F2E3A" stroke-width="2" stroke-miterlimit="10" stroke-linecap="round" stroke-linejoin="round"/>
<path d="M324.25 282.899C316.85 284.799 309.25 283.199 301.75 284.399C296.25 285.199 295.45 286.299 294.15 291.899C293.45 295.099 294.15 297.999 294.85 300.899C295.85 305.099 298.45 307.199 303.25 306.999C313.45 306.699 323.65 306.299 333.75 303.999C336.45 303.399 339.45 304.299 342.25 303.399C344.75 298.399 342.65 293.299 342.05 288.399C341.65 284.999 338.85 282.599 334.75 282.799C331.45 282.999 328.05 282.799 324.75 282.799" stroke="#1F2E3A" stroke-width="2" stroke-miterlimit="10" stroke-linecap="round" stroke-linejoin="round"/>
<path d="M243.45 86.0995C237.45 87.8995 231.05 86.7995 224.95 88.9995C218.05 91.3995 215.45 93.5995 215.65 100.599C215.85 107.099 214.25 113.599 215.45 120.099C215.95 122.599 215.05 124.099 212.05 124.799C210.25 125.199 206.55 123.499 206.55 127.599C206.55 130.699 210.05 134.799 213.05 135.099C217.65 135.599 222.35 135.999 227.05 136.099C252.35 136.699 277.55 139.199 302.95 138.099C307.65 137.899 312.25 136.999 316.95 136.699C321.85 136.399 323.35 132.799 323.25 129.199C323.25 116.599 322.45 104.099 319.55 91.6995C318.65 87.5995 316.65 87.1995 313.35 87.1995C298.05 87.1995 282.75 87.2995 267.45 87.1995C259.65 87.0995 251.85 86.5995 243.95 86.1995" stroke="#1F2E3A" stroke-width="2" stroke-miterlimit="10" stroke-linecap="round" stroke-linejoin="round"/>
<path d="M155.714 470.952C134.224 471.869 114.262 467.184 94.3001 462.804C91.1428 462.091 91.2448 460.665 92.3651 458.119C111.818 415.038 124.345 370.021 129.539 322.968C131.984 300.358 131.067 277.952 126.178 255.749C120.373 229.88 126.28 205.64 135.65 181.808C137.178 178.04 140.437 175.697 142.576 172.438C156.223 152.272 167.63 130.986 174.25 107.358C175.778 101.96 177.611 96.6637 180.565 91.8769C183.111 87.7012 186.676 84.6457 191.666 85.155C196.249 85.5624 197.471 89.9418 198.795 93.6083C204.091 107.969 204.193 122.737 201.953 137.708C200.221 149.115 198.999 160.522 199.101 172.031C199.305 200.548 199.508 228.963 198.897 257.48C198.082 292.618 198.795 327.653 198.184 362.79C197.879 381.225 206.536 386.622 222.322 388.048C225.989 388.354 229.757 388.048 233.525 388.354C237.599 388.659 239.331 390.289 238.516 395.076C234.951 414.63 226.192 432.25 218.859 450.481C215.702 458.221 210.202 461.684 202.767 464.23C187.083 469.526 171.195 471.461 155.714 470.952Z" fill="white"/>
<path d="M381.509 228.454C382.018 222.852 381.101 217.658 382.731 212.871C383.851 209.612 384.87 206.047 388.74 205.436C392.406 204.825 394.647 207.677 396.582 210.223C398.415 212.566 399.841 215.214 401.776 218.167C402.998 212.056 404.221 206.353 406.563 201.159C410.637 191.789 417.766 190.159 425.608 196.678C429.886 200.242 432.636 204.927 435.182 209.714C448.015 233.546 454.227 259.212 457.385 285.896C458.709 296.793 460.033 307.793 459.422 318.792C457.792 345.578 432.228 373.077 399.332 362.994C367.861 353.42 347.695 331.829 336.085 301.58C329.363 284.164 325.9 266.137 325.9 247.397C325.9 244.24 325.187 241.49 323.659 238.639C316.225 224.278 310.012 209.51 305.734 193.928C304.105 187.919 303.494 181.91 305.632 175.901C307.466 170.808 310.216 169.892 314.391 173.253C321.826 179.262 327.631 186.798 333.539 194.233C342.807 205.64 350.954 217.964 359.815 231.306C359.611 227.435 359.306 224.686 359.306 222.037C359.306 218.473 359.408 213.992 362.26 212.158C367.046 209.001 366.231 204.927 366.231 200.65C366.028 165.614 365.824 130.477 365.722 95.4415C365.722 89.4325 367.454 88.1085 373.463 89.4325C379.472 90.7565 383.342 96.3581 382.629 102.775C381.916 109.395 379.37 115.607 377.129 121.82C375.907 125.283 375.907 127.931 378.861 130.884C383.851 135.773 383.953 142.189 381.916 148.504C380.592 152.578 381.305 155.328 384.462 158.383C393.425 167.04 394.749 180.993 388.129 191.483C383.851 198.409 377.74 203.501 371.426 208.39C368.981 210.223 368.268 211.445 370.713 214.297C374.685 218.473 377.74 223.362 381.509 228.454Z" fill="white"/>
<path d="M167.935 224.074C172.926 221.223 174.555 215.825 176.898 211.242C185.962 194.131 194.212 176.716 197.369 157.365C199.508 144.023 201.85 130.681 201.748 117.135C201.646 108.071 199.406 99.108 195.943 90.6547C195.026 88.4141 193.193 87.5993 192.175 85.9697C183.416 86.8864 180.462 93.2009 178.12 99.8209C173.944 111.33 170.991 123.246 165.796 134.347C158.667 149.624 150.417 164.29 139.927 177.632C135.853 182.724 134.326 188.937 132.289 194.946C128.113 207.881 124.65 220.917 125.159 234.565C125.669 246.684 127.502 258.804 129.946 270.619C132.594 283.349 133.002 295.877 131.881 308.811C130.354 326.94 127.706 344.865 124.65 362.688C121.391 382.039 115.586 400.677 109.169 419.112C104.484 432.759 99.7994 446.509 93.0775 459.341C92.6701 460.054 92.4664 460.767 91.5498 460.869" stroke="#1F2E3A" stroke-width="2.03694" stroke-miterlimit="10" stroke-linecap="round" stroke-linejoin="round"/>
<path d="M363.685 239.351C355.334 227.334 347.288 215.112 338.733 203.298C331.807 193.724 324.474 184.456 315.919 176.308C310.216 170.91 308.586 171.114 306.345 178.854C304.41 185.474 306.447 191.993 308.484 198.103C313.475 213.075 318.669 227.945 327.224 241.287C328.854 243.731 327.53 245.768 327.53 248.008C327.428 272.554 333.233 295.673 344.946 317.163C357.88 340.689 377.74 356.476 403.915 362.688C417.868 366.049 436.913 361.364 448.218 344.763C456.672 332.338 459.32 319.403 457.588 304.432C456.162 292.617 455.348 280.701 453.209 268.887C450.663 254.221 446.895 239.963 440.987 226.111C437.321 217.352 433.654 208.695 427.747 201.159C426.321 199.427 424.895 198.002 423.164 196.576C416.544 191.483 411.452 194.844 408.905 199.631C405.137 206.557 403.915 214.297 402.896 222.037C402.591 224.278 404.119 226.722 404.73 229.167" stroke="#1F2E3A" stroke-width="2.03694" stroke-miterlimit="10" stroke-linecap="round" stroke-linejoin="round"/>
<path d="M237.089 389.882C237.395 396.604 235.46 403.02 233.423 409.131C228.228 424.611 222.219 439.787 214.785 454.453C214.377 455.267 214.072 456.184 213.766 456.999" stroke="#1F2E3A" stroke-width="2.03694" stroke-miterlimit="10" stroke-linecap="round" stroke-linejoin="round"/>
<path d="M368.268 209.816C373.361 204.214 379.675 200.038 384.666 194.233C394.24 183.03 391.999 165.614 381.916 158.077C378.657 155.633 379.166 152.781 379.981 149.93C381.305 145.143 382.425 140.56 380.49 135.671C380.185 134.856 379.472 133.43 379.37 133.329C371.528 128.644 375.398 122.635 377.435 116.931C379.37 111.635 381.203 106.441 380.999 100.636C380.796 93.9137 376.62 90.1454 369.796 90.9602C368.574 91.062 367.454 90.9602 366.231 90.9602" stroke="#1F2E3A" stroke-width="2.03694" stroke-miterlimit="10" stroke-linecap="round" stroke-linejoin="round"/>
<path d="M385.073 238.333C379.675 229.37 374.888 219.899 367.25 212.464C365.009 210.223 363.787 211.242 362.667 213.89C360.12 219.899 360.63 225.704 362.157 231.713C362.463 232.935 363.481 234.361 362.259 235.787" stroke="#1F2E3A" stroke-width="2.03694" stroke-miterlimit="10" stroke-linecap="round" stroke-linejoin="round"/>
<path d="M328.65 245.463C336.288 257.48 343.927 269.498 351.464 281.618C352.176 282.739 352.788 283.757 354.01 284.164" stroke="#1F2E3A" stroke-width="2.03694" stroke-miterlimit="10" stroke-linecap="round" stroke-linejoin="round"/>
<path d="M402.285 221.529C400.147 219.797 399.434 217.251 398.11 215.01C396.073 211.446 393.832 207.779 389.351 206.353C383.749 208.594 383.647 214.094 383.036 218.982C382.629 222.445 382.833 226.214 383.545 229.575C383.953 231.306 383.342 232.63 383.342 234.158" stroke="#1F2E3A" stroke-width="2.03694" stroke-miterlimit="10" stroke-linecap="round" stroke-linejoin="round"/>
</svg>
